<svg width="500" height="500" viewBox="0 0 500 500" fill="none" xmlns="http://www.w3.org/2000/svg">
<rect x="2" y="2" width="496" height="496" rx="28" fill="#1B1B1B" stroke="#42D4BA" stroke-width="4"/>
<path d="M424 250C424 346.098 346.098 424 250 424C153.902 424 76 346.098 76 250" stroke="white" stroke-width="20" stroke-linecap="round"/>
<path d="M424 250C424 153.902 346.098 76 250 76C153.902 76 76 153.902 76 250" stroke="white" stroke-width="20" stroke-linecap="square" stroke-linejoin="round"/>
<path d="M175.385 298.56C168.365 298.56 161.821 297.433 155.755 295.18C149.775 292.84 144.575 289.547 140.155 285.3C135.735 281.053 132.268 276.07 129.755 270.35C127.328 264.63 126.115 258.347 126.115 251.5C126.115 244.653 127.328 238.37 129.755 232.65C132.268 226.93 135.735 221.947 140.155 217.7C144.661 213.453 149.905 210.203 155.885 207.95C161.865 205.61 168.408 204.44 175.515 204.44C183.401 204.44 190.508 205.827 196.835 208.6C203.248 211.287 208.621 215.273 212.955 220.56L199.435 233.04C196.315 229.487 192.848 226.843 189.035 225.11C185.221 223.29 181.061 222.38 176.555 222.38C172.308 222.38 168.408 223.073 164.855 224.46C161.301 225.847 158.225 227.84 155.625 230.44C153.025 233.04 150.988 236.117 149.515 239.67C148.128 243.223 147.435 247.167 147.435 251.5C147.435 255.833 148.128 259.777 149.515 263.33C150.988 266.883 153.025 269.96 155.625 272.56C158.225 275.16 161.301 277.153 164.855 278.54C168.408 279.927 172.308 280.62 176.555 280.62C181.061 280.62 185.221 279.753 189.035 278.02C192.848 276.2 196.315 273.47 199.435 269.83L212.955 282.31C208.621 287.597 203.248 291.627 196.835 294.4C190.508 297.173 183.358 298.56 175.385 298.56ZM245.138 297V223.16H216.018V206H295.318V223.16H266.198V297H245.138ZM326.149 246.95H369.829V263.85H326.149V246.95ZM327.709 297H306.649V206H375.419V222.9H327.709V297Z" fill="white"/>
<g filter="url(#filter0_d_665_878)">
<path fill-rule="evenodd" clip-rule="evenodd" d="M404 250.5C404 335.276 335.276 404 250.5 404C165.724 404 97 335.276 97 250.5C97 165.724 165.724 97 250.5 97C335.276 97 404 165.724 404 250.5ZM250.5 394C329.753 394 394 329.753 394 250.5C394 171.247 329.753 107 250.5 107C171.247 107 107 171.247 107 250.5C107 329.753 171.247 394 250.5 394Z" fill="#42D4BA"/>
</g>
<defs>
<filter id="filter0_d_665_878" x="93" y="97" width="315" height="315" filterUnits="userSpaceOnUse" color-interpolation-filters="sRGB">
<feFlood flood-opacity="0" result="BackgroundImageFix"/>
<feColorMatrix in="SourceAlpha" type="matrix" values="0 0 0 0 0 0 0 0 0 0 0 0 0 0 0 0 0 0 127 0" result="hardAlpha"/>
<feOffset dy="4"/>
<feGaussianBlur stdDeviation="2"/>
<feComposite in2="hardAlpha" operator="out"/>
<feColorMatrix type="matrix" values="0 0 0 0 0 0 0 0 0 0 0 0 0 0 0 0 0 0 0.25 0"/>
<feBlend mode="normal" in2="BackgroundImageFix" result="effect1_dropShadow_665_878"/>
<feBlend mode="normal" in="SourceGraphic" in2="effect1_dropShadow_665_878" result="shape"/>
</filter>
</defs>
</svg>
