<svg width="5054" height="60" viewBox="0 0 5054 60" fill="none" xmlns="http://www.w3.org/2000/svg">
<path d="M2558.44 49.0522H2551.19V20.8282H2542.79C2542.6 22.3002 2542.39 23.9002 2542.17 25.6282C2541.98 27.3562 2541.75 29.1162 2541.5 30.9082C2541.27 32.6682 2541.03 34.3482 2540.78 35.9482C2540.52 37.5162 2540.26 38.9082 2540.01 40.1242C2539.59 42.1082 2539.03 43.8042 2538.33 45.2122C2537.66 46.6202 2536.71 47.6922 2535.5 48.4282C2534.31 49.1642 2532.76 49.5322 2530.84 49.5322C2530.2 49.5322 2529.59 49.4842 2529.02 49.3882C2528.44 49.2922 2527.9 49.1642 2527.38 49.0042V43.0522C2527.8 43.1802 2528.2 43.2922 2528.58 43.3882C2529 43.4842 2529.45 43.5322 2529.93 43.5322C2530.57 43.5322 2531.1 43.3242 2531.51 42.9082C2531.93 42.4922 2532.3 41.7882 2532.62 40.7962C2532.94 39.7722 2533.26 38.3642 2533.58 36.5722C2533.74 35.8042 2533.93 34.7162 2534.15 33.3082C2534.38 31.8682 2534.63 30.1882 2534.92 28.2682C2535.24 26.3162 2535.56 24.2042 2535.88 21.9322C2536.2 19.6282 2536.5 17.2442 2536.79 14.7802H2558.44V49.0522ZM2586.81 49.0522H2567.09V14.7802H2586.81V20.7322H2574.33V28.2682H2585.95V34.2202H2574.33V43.0522H2586.81V49.0522ZM2607.15 49.0522H2599.9V20.8282H2590.59V14.7802H2616.46V20.8282H2607.15V49.0522ZM2649.82 49.0522H2642.57V34.2682H2628.99V49.0522H2621.74V14.7802H2628.99V28.2202H2642.57V14.7802H2649.82V49.0522ZM2669.97 35.9002L2661.95 49.0522H2653.88L2663.63 33.9802C2662.7 33.5962 2661.77 33.0362 2660.85 32.3002C2659.92 31.5322 2659.15 30.5242 2658.54 29.2762C2657.93 27.9962 2657.63 26.4282 2657.63 24.5722C2657.63 21.4042 2658.77 18.9882 2661.04 17.3242C2663.31 15.6282 2666.49 14.7802 2670.59 14.7802H2681.73V49.0522H2674.48V35.9002H2669.97ZM2670.88 20.7322C2669.63 20.7322 2668.56 20.8762 2667.66 21.1642C2666.8 21.4522 2666.13 21.9162 2665.65 22.5562C2665.2 23.1962 2664.97 24.0442 2664.97 25.1002C2664.97 26.6042 2665.47 27.8042 2666.46 28.7002C2667.49 29.5642 2669.02 29.9962 2671.07 29.9962H2674.48V20.7322H2670.88ZM2701.89 35.9002L2693.87 49.0522H2685.81L2695.55 33.9802C2694.62 33.5962 2693.69 33.0362 2692.77 32.3002C2691.84 31.5322 2691.07 30.5242 2690.46 29.2762C2689.85 27.9962 2689.55 26.4282 2689.55 24.5722C2689.55 21.4042 2690.69 18.9882 2692.96 17.3242C2695.23 15.6282 2698.41 14.7802 2702.51 14.7802H2713.65V49.0522H2706.4V35.9002H2701.89ZM2702.8 20.7322C2701.55 20.7322 2700.48 20.8762 2699.58 21.1642C2698.72 21.4522 2698.05 21.9162 2697.57 22.5562C2697.12 23.1962 2696.89 24.0442 2696.89 25.1002C2696.89 26.6042 2697.39 27.8042 2698.38 28.7002C2699.41 29.5642 2700.94 29.9962 2702.99 29.9962H2706.4V20.7322H2702.8ZM2776.83 49.0522H2733.73V14.7802H2740.97V43.0042H2751.63V14.7802H2758.93V43.0042H2769.58V14.7802H2776.83V49.0522ZM2813.41 49.0522H2805.16L2792.72 31.6762V49.0522H2785.48V14.7802H2792.72V31.3882L2805.01 14.7802H2812.74L2800.26 31.2442L2813.41 49.0522ZM2847.89 31.8682C2847.89 34.5242 2847.56 36.9402 2846.88 39.1162C2846.24 41.2602 2845.25 43.1162 2843.91 44.6842C2842.6 46.2522 2840.9 47.4522 2838.82 48.2842C2836.77 49.1162 2834.36 49.5322 2831.57 49.5322C2828.79 49.5322 2826.36 49.1162 2824.28 48.2842C2822.23 47.4202 2820.53 46.2202 2819.19 44.6842C2817.88 43.1162 2816.88 41.2442 2816.21 39.0682C2815.57 36.8922 2815.25 34.4762 2815.25 31.8202C2815.25 28.2682 2815.83 25.1802 2816.98 22.5562C2818.16 19.9322 2819.96 17.9002 2822.36 16.4602C2824.79 14.9882 2827.88 14.2522 2831.62 14.2522C2835.33 14.2522 2838.39 14.9882 2840.79 16.4602C2843.19 17.9002 2844.96 19.9482 2846.12 22.6042C2847.3 25.2282 2847.89 28.3162 2847.89 31.8682ZM2822.88 31.8682C2822.88 34.2682 2823.19 36.3322 2823.8 38.0602C2824.4 39.7882 2825.35 41.1162 2826.63 42.0442C2827.91 42.9722 2829.56 43.4362 2831.57 43.4362C2833.65 43.4362 2835.32 42.9722 2836.56 42.0442C2837.84 41.1162 2838.77 39.7882 2839.35 38.0602C2839.96 36.3322 2840.26 34.2682 2840.26 31.8682C2840.26 28.2522 2839.59 25.4202 2838.24 23.3722C2836.9 21.3242 2834.69 20.3002 2831.62 20.3002C2829.57 20.3002 2827.91 20.7642 2826.63 21.6922C2825.35 22.6202 2824.4 23.9482 2823.8 25.6762C2823.19 27.4042 2822.88 29.4682 2822.88 31.8682ZM2881.17 49.0522H2873.93V20.8282H2865.53C2865.33 22.3002 2865.13 23.9002 2864.9 25.6282C2864.71 27.3562 2864.49 29.1162 2864.23 30.9082C2864.01 32.6682 2863.77 34.3482 2863.51 35.9482C2863.25 37.5162 2863 38.9082 2862.74 40.1242C2862.33 42.1082 2861.77 43.8042 2861.06 45.2122C2860.39 46.6202 2859.45 47.6922 2858.23 48.4282C2857.05 49.1642 2855.49 49.5322 2853.57 49.5322C2852.93 49.5322 2852.33 49.4842 2851.75 49.3882C2851.17 49.2922 2850.63 49.1642 2850.12 49.0042V43.0522C2850.53 43.1802 2850.93 43.2922 2851.32 43.3882C2851.73 43.4842 2852.18 43.5322 2852.66 43.5322C2853.3 43.5322 2853.83 43.3242 2854.25 42.9082C2854.66 42.4922 2855.03 41.7882 2855.35 40.7962C2855.67 39.7722 2855.99 38.3642 2856.31 36.5722C2856.47 35.8042 2856.66 34.7162 2856.89 33.3082C2857.11 31.8682 2857.37 30.1882 2857.65 28.2682C2857.97 26.3162 2858.29 24.2042 2858.61 21.9322C2858.93 19.6282 2859.24 17.2442 2859.53 14.7802H2881.17V49.0522ZM2910.8 49.0522L2908.3 40.8922H2895.82L2893.32 49.0522H2885.5L2897.6 14.6362H2906.48L2918.62 49.0522H2910.8ZM2904.08 26.8282C2903.92 26.2842 2903.71 25.5962 2903.45 24.7642C2903.2 23.9322 2902.94 23.0842 2902.68 22.2202C2902.43 21.3562 2902.22 20.6042 2902.06 19.9642C2901.9 20.6042 2901.68 21.4042 2901.39 22.3642C2901.13 23.2922 2900.88 24.1882 2900.62 25.0522C2900.4 25.8842 2900.22 26.4762 2900.09 26.8282L2897.64 34.7962H2906.57L2904.08 26.8282ZM2948.56 49.6282C2945.17 49.6282 2942.25 48.9082 2939.82 47.4682C2937.39 45.9962 2935.52 43.9642 2934.21 41.3722C2932.89 38.7482 2932.24 35.7242 2932.24 32.3002C2932.24 28.8762 2932.89 25.8522 2934.21 23.2282C2935.52 20.6042 2937.39 18.5562 2939.82 17.0842C2942.25 15.6122 2945.17 14.8762 2948.56 14.8762C2952.59 14.8762 2955.89 15.8842 2958.45 17.9002C2961.04 19.8842 2962.65 22.6842 2963.29 26.3002H2956.53C2956.11 24.4762 2955.21 23.0522 2953.84 22.0282C2952.49 20.9722 2950.7 20.4442 2948.46 20.4442C2945.36 20.4442 2942.93 21.5002 2941.17 23.6122C2939.41 25.7242 2938.53 28.6202 2938.53 32.3002C2938.53 35.9802 2939.41 38.8762 2941.17 40.9882C2942.93 43.0682 2945.36 44.1082 2948.46 44.1082C2950.7 44.1082 2952.49 43.6282 2953.84 42.6682C2955.21 41.6762 2956.11 40.3162 2956.53 38.5882H2963.29C2962.65 42.0442 2961.04 44.7482 2958.45 46.7002C2955.89 48.6522 2952.59 49.6282 2948.56 49.6282ZM2976.13 49.0522V20.3962H2966.34V15.4522H2992.12V20.3962H2982.28V49.0522H2976.13ZM2996.67 49.0522V15.4522H3018.37V20.3962H3002.81V29.8042H3015.39V34.6522H3002.81V49.0522H2996.67ZM3033.73 49.0522V44.5882C3035.78 42.8922 3037.76 41.2122 3039.68 39.5482C3041.63 37.8842 3043.36 36.2362 3044.87 34.6042C3046.4 32.9722 3047.62 31.3882 3048.51 29.8522C3049.44 28.2842 3049.91 26.7642 3049.91 25.2922C3049.91 23.9162 3049.52 22.7002 3048.75 21.6442C3048.02 20.5882 3046.79 20.0602 3045.06 20.0602C3043.3 20.0602 3041.97 20.6362 3041.07 21.7882C3040.18 22.9402 3039.73 24.3322 3039.73 25.9642H3033.78C3033.84 23.5002 3034.39 21.4522 3035.41 19.8202C3036.43 18.1562 3037.79 16.9242 3039.49 16.1242C3041.19 15.2922 3043.09 14.8762 3045.2 14.8762C3048.63 14.8762 3051.28 15.8202 3053.17 17.7082C3055.09 19.5642 3056.05 21.9802 3056.05 24.9562C3056.05 26.8122 3055.62 28.6202 3054.75 30.3802C3053.92 32.1402 3052.82 33.8362 3051.44 35.4682C3050.07 37.1002 3048.58 38.6362 3046.98 40.0762C3045.38 41.4842 3043.83 42.7962 3042.32 44.0122H3056.87V49.0522H3033.73ZM3075.51 49.6282C3072.4 49.6282 3069.75 48.9082 3067.54 47.4682C3065.33 45.9962 3063.62 43.9642 3062.4 41.3722C3061.22 38.7482 3060.63 35.7082 3060.63 32.2522C3060.63 28.8282 3061.22 25.8042 3062.4 23.1802C3063.62 20.5562 3065.33 18.5242 3067.54 17.0842C3069.75 15.6122 3072.4 14.8762 3075.51 14.8762C3078.61 14.8762 3081.27 15.6122 3083.48 17.0842C3085.68 18.5242 3087.38 20.5562 3088.56 23.1802C3089.78 25.8042 3090.39 28.8282 3090.39 32.2522C3090.39 35.7082 3089.78 38.7482 3088.56 41.3722C3087.38 43.9642 3085.68 45.9962 3083.48 47.4682C3081.27 48.9082 3078.61 49.6282 3075.51 49.6282ZM3075.51 44.1082C3078.04 44.1082 3080.1 43.0522 3081.7 40.9402C3083.3 38.8282 3084.1 35.9322 3084.1 32.2522C3084.1 28.5722 3083.3 25.6762 3081.7 23.5642C3080.1 21.4522 3078.04 20.3962 3075.51 20.3962C3072.95 20.3962 3070.87 21.4522 3069.27 23.5642C3067.7 25.6762 3066.92 28.5722 3066.92 32.2522C3066.92 35.9322 3067.7 38.8282 3069.27 40.9402C3070.87 43.0522 3072.95 44.1082 3075.51 44.1082ZM3094.76 49.0522V44.5882C3096.81 42.8922 3098.79 41.2122 3100.71 39.5482C3102.66 37.8842 3104.39 36.2362 3105.9 34.6042C3107.43 32.9722 3108.65 31.3882 3109.54 29.8522C3110.47 28.2842 3110.94 26.7642 3110.94 25.2922C3110.94 23.9162 3110.55 22.7002 3109.78 21.6442C3109.05 20.5882 3107.82 20.0602 3106.09 20.0602C3104.33 20.0602 3103 20.6362 3102.1 21.7882C3101.21 22.9402 3100.76 24.3322 3100.76 25.9642H3094.81C3094.87 23.5002 3095.42 21.4522 3096.44 19.8202C3097.46 18.1562 3098.82 16.9242 3100.52 16.1242C3102.22 15.2922 3104.12 14.8762 3106.23 14.8762C3109.66 14.8762 3112.31 15.8202 3114.2 17.7082C3116.12 19.5642 3117.08 21.9802 3117.08 24.9562C3117.08 26.8122 3116.65 28.6202 3115.78 30.3802C3114.95 32.1402 3113.85 33.8362 3112.47 35.4682C3111.1 37.1002 3109.61 38.6362 3108.01 40.0762C3106.41 41.4842 3104.86 42.7962 3103.35 44.0122H3117.9V49.0522H3094.76ZM3133.99 49.6282C3131.78 49.6282 3129.78 49.2442 3127.99 48.4762C3126.2 47.6762 3124.76 46.4602 3123.67 44.8282C3122.58 43.1962 3122.01 41.1482 3121.94 38.6842H3127.99C3128.02 40.3162 3128.55 41.6922 3129.57 42.8122C3130.63 43.9002 3132.1 44.4442 3133.99 44.4442C3135.78 44.4442 3137.16 43.9482 3138.12 42.9562C3139.08 41.9642 3139.56 40.7162 3139.56 39.2122C3139.56 37.4522 3138.92 36.1242 3137.64 35.2282C3136.39 34.3002 3134.77 33.8362 3132.79 33.8362H3130.29V28.7962H3132.84C3134.47 28.7962 3135.83 28.4122 3136.92 27.6442C3138.01 26.8762 3138.55 25.7402 3138.55 24.2362C3138.55 22.9882 3138.13 21.9962 3137.3 21.2602C3136.5 20.4922 3135.38 20.1082 3133.94 20.1082C3132.37 20.1082 3131.14 20.5722 3130.25 21.5002C3129.38 22.4282 3128.9 23.5642 3128.81 24.9082H3122.81C3122.93 21.8042 3124.01 19.3562 3126.02 17.5642C3128.07 15.7722 3130.71 14.8762 3133.94 14.8762C3136.25 14.8762 3138.18 15.2922 3139.75 16.1242C3141.35 16.9242 3142.55 17.9962 3143.35 19.3402C3144.18 20.6842 3144.6 22.1722 3144.6 23.8042C3144.6 25.6922 3144.07 27.2922 3143.01 28.6042C3141.99 29.8842 3140.71 30.7482 3139.17 31.1962C3141.06 31.5802 3142.6 32.5082 3143.78 33.9802C3144.97 35.4202 3145.56 37.2442 3145.56 39.4522C3145.56 41.3082 3145.11 43.0042 3144.21 44.5402C3143.32 46.0762 3142.01 47.3082 3140.28 48.2362C3138.58 49.1642 3136.49 49.6282 3133.99 49.6282Z" fill="white"/>
<path d="M3192.44 49.0522H3185.19V20.8282H3176.79C3176.6 22.3002 3176.39 23.9002 3176.17 25.6282C3175.98 27.3562 3175.75 29.1162 3175.5 30.9082C3175.27 32.6682 3175.03 34.3482 3174.78 35.9482C3174.52 37.5162 3174.26 38.9082 3174.01 40.1242C3173.59 42.1082 3173.03 43.8042 3172.33 45.2122C3171.66 46.6202 3170.71 47.6922 3169.5 48.4282C3168.31 49.1642 3166.76 49.5322 3164.84 49.5322C3164.2 49.5322 3163.59 49.4842 3163.02 49.3882C3162.44 49.2922 3161.9 49.1642 3161.38 49.0042V43.0522C3161.8 43.1802 3162.2 43.2922 3162.58 43.3882C3163 43.4842 3163.45 43.5322 3163.93 43.5322C3164.57 43.5322 3165.1 43.3242 3165.51 42.9082C3165.93 42.4922 3166.3 41.7882 3166.62 40.7962C3166.94 39.7722 3167.26 38.3642 3167.58 36.5722C3167.74 35.8042 3167.93 34.7162 3168.15 33.3082C3168.38 31.8682 3168.63 30.1882 3168.92 28.2682C3169.24 26.3162 3169.56 24.2042 3169.88 21.9322C3170.2 19.6282 3170.5 17.2442 3170.79 14.7802H3192.44V49.0522ZM3220.81 49.0522H3201.09V14.7802H3220.81V20.7322H3208.33V28.2682H3219.95V34.2202H3208.33V43.0522H3220.81V49.0522ZM3241.15 49.0522H3233.9V20.8282H3224.59V14.7802H3250.46V20.8282H3241.15V49.0522ZM3283.82 49.0522H3276.57V34.2682H3262.99V49.0522H3255.74V14.7802H3262.99V28.2202H3276.57V14.7802H3283.82V49.0522ZM3303.97 35.9002L3295.95 49.0522H3287.88L3297.63 33.9802C3296.7 33.5962 3295.77 33.0362 3294.85 32.3002C3293.92 31.5322 3293.15 30.5242 3292.54 29.2762C3291.93 27.9962 3291.63 26.4282 3291.63 24.5722C3291.63 21.4042 3292.77 18.9882 3295.04 17.3242C3297.31 15.6282 3300.49 14.7802 3304.59 14.7802H3315.73V49.0522H3308.48V35.9002H3303.97ZM3304.88 20.7322C3303.63 20.7322 3302.56 20.8762 3301.66 21.1642C3300.8 21.4522 3300.13 21.9162 3299.65 22.5562C3299.2 23.1962 3298.97 24.0442 3298.97 25.1002C3298.97 26.6042 3299.47 27.8042 3300.46 28.7002C3301.49 29.5642 3303.02 29.9962 3305.07 29.9962H3308.48V20.7322H3304.88ZM3335.89 35.9002L3327.87 49.0522H3319.81L3329.55 33.9802C3328.62 33.5962 3327.69 33.0362 3326.77 32.3002C3325.84 31.5322 3325.07 30.5242 3324.46 29.2762C3323.85 27.9962 3323.55 26.4282 3323.55 24.5722C3323.55 21.4042 3324.69 18.9882 3326.96 17.3242C3329.23 15.6282 3332.41 14.7802 3336.51 14.7802H3347.65V49.0522H3340.4V35.9002H3335.89ZM3336.8 20.7322C3335.55 20.7322 3334.48 20.8762 3333.58 21.1642C3332.72 21.4522 3332.05 21.9162 3331.57 22.5562C3331.12 23.1962 3330.89 24.0442 3330.89 25.1002C3330.89 26.6042 3331.39 27.8042 3332.38 28.7002C3333.41 29.5642 3334.94 29.9962 3336.99 29.9962H3340.4V20.7322H3336.8ZM3410.83 49.0522H3367.73V14.7802H3374.97V43.0042H3385.63V14.7802H3392.93V43.0042H3403.58V14.7802H3410.83V49.0522ZM3447.41 49.0522H3439.16L3426.72 31.6762V49.0522H3419.48V14.7802H3426.72V31.3882L3439.01 14.7802H3446.74L3434.26 31.2442L3447.41 49.0522ZM3481.89 31.8682C3481.89 34.5242 3481.56 36.9402 3480.88 39.1162C3480.24 41.2602 3479.25 43.1162 3477.91 44.6842C3476.6 46.2522 3474.9 47.4522 3472.82 48.2842C3470.77 49.1162 3468.36 49.5322 3465.57 49.5322C3462.79 49.5322 3460.36 49.1162 3458.28 48.2842C3456.23 47.4202 3454.53 46.2202 3453.19 44.6842C3451.88 43.1162 3450.88 41.2442 3450.21 39.0682C3449.57 36.8922 3449.25 34.4762 3449.25 31.8202C3449.25 28.2682 3449.83 25.1802 3450.98 22.5562C3452.16 19.9322 3453.96 17.9002 3456.36 16.4602C3458.79 14.9882 3461.88 14.2522 3465.62 14.2522C3469.33 14.2522 3472.39 14.9882 3474.79 16.4602C3477.19 17.9002 3478.96 19.9482 3480.12 22.6042C3481.3 25.2282 3481.89 28.3162 3481.89 31.8682ZM3456.88 31.8682C3456.88 34.2682 3457.19 36.3322 3457.8 38.0602C3458.4 39.7882 3459.35 41.1162 3460.63 42.0442C3461.91 42.9722 3463.56 43.4362 3465.57 43.4362C3467.65 43.4362 3469.32 42.9722 3470.56 42.0442C3471.84 41.1162 3472.77 39.7882 3473.35 38.0602C3473.96 36.3322 3474.26 34.2682 3474.26 31.8682C3474.26 28.2522 3473.59 25.4202 3472.24 23.3722C3470.9 21.3242 3468.69 20.3002 3465.62 20.3002C3463.57 20.3002 3461.91 20.7642 3460.63 21.6922C3459.35 22.6202 3458.4 23.9482 3457.8 25.6762C3457.19 27.4042 3456.88 29.4682 3456.88 31.8682ZM3515.17 49.0522H3507.93V20.8282H3499.53C3499.33 22.3002 3499.13 23.9002 3498.9 25.6282C3498.71 27.3562 3498.49 29.1162 3498.23 30.9082C3498.01 32.6682 3497.77 34.3482 3497.51 35.9482C3497.25 37.5162 3497 38.9082 3496.74 40.1242C3496.33 42.1082 3495.77 43.8042 3495.06 45.2122C3494.39 46.6202 3493.45 47.6922 3492.23 48.4282C3491.05 49.1642 3489.49 49.5322 3487.57 49.5322C3486.93 49.5322 3486.33 49.4842 3485.75 49.3882C3485.17 49.2922 3484.63 49.1642 3484.12 49.0042V43.0522C3484.53 43.1802 3484.93 43.2922 3485.32 43.3882C3485.73 43.4842 3486.18 43.5322 3486.66 43.5322C3487.3 43.5322 3487.83 43.3242 3488.25 42.9082C3488.66 42.4922 3489.03 41.7882 3489.35 40.7962C3489.67 39.7722 3489.99 38.3642 3490.31 36.5722C3490.47 35.8042 3490.66 34.7162 3490.89 33.3082C3491.11 31.8682 3491.37 30.1882 3491.65 28.2682C3491.97 26.3162 3492.29 24.2042 3492.61 21.9322C3492.93 19.6282 3493.24 17.2442 3493.53 14.7802H3515.17V49.0522ZM3544.8 49.0522L3542.3 40.8922H3529.82L3527.32 49.0522H3519.5L3531.6 14.6362H3540.48L3552.62 49.0522H3544.8ZM3538.08 26.8282C3537.92 26.2842 3537.71 25.5962 3537.45 24.7642C3537.2 23.9322 3536.94 23.0842 3536.68 22.2202C3536.43 21.3562 3536.22 20.6042 3536.06 19.9642C3535.9 20.6042 3535.68 21.4042 3535.39 22.3642C3535.13 23.2922 3534.88 24.1882 3534.62 25.0522C3534.4 25.8842 3534.22 26.4762 3534.09 26.8282L3531.64 34.7962H3540.57L3538.08 26.8282ZM3582.56 49.6282C3579.17 49.6282 3576.25 48.9082 3573.82 47.4682C3571.39 45.9962 3569.52 43.9642 3568.21 41.3722C3566.89 38.7482 3566.24 35.7242 3566.24 32.3002C3566.24 28.8762 3566.89 25.8522 3568.21 23.2282C3569.52 20.6042 3571.39 18.5562 3573.82 17.0842C3576.25 15.6122 3579.17 14.8762 3582.56 14.8762C3586.59 14.8762 3589.89 15.8842 3592.45 17.9002C3595.04 19.8842 3596.65 22.6842 3597.29 26.3002H3590.53C3590.11 24.4762 3589.21 23.0522 3587.84 22.0282C3586.49 20.9722 3584.7 20.4442 3582.46 20.4442C3579.36 20.4442 3576.93 21.5002 3575.17 23.6122C3573.41 25.7242 3572.53 28.6202 3572.53 32.3002C3572.53 35.9802 3573.41 38.8762 3575.17 40.9882C3576.93 43.0682 3579.36 44.1082 3582.46 44.1082C3584.7 44.1082 3586.49 43.6282 3587.84 42.6682C3589.21 41.6762 3590.11 40.3162 3590.53 38.5882H3597.29C3596.65 42.0442 3595.04 44.7482 3592.45 46.7002C3589.89 48.6522 3586.59 49.6282 3582.56 49.6282ZM3610.13 49.0522V20.3962H3600.34V15.4522H3626.12V20.3962H3616.28V49.0522H3610.13ZM3630.67 49.0522V15.4522H3652.37V20.3962H3636.81V29.8042H3649.39V34.6522H3636.81V49.0522H3630.67ZM3667.73 49.0522V44.5882C3669.78 42.8922 3671.76 41.2122 3673.68 39.5482C3675.63 37.8842 3677.36 36.2362 3678.87 34.6042C3680.4 32.9722 3681.62 31.3882 3682.51 29.8522C3683.44 28.2842 3683.91 26.7642 3683.91 25.2922C3683.91 23.9162 3683.52 22.7002 3682.75 21.6442C3682.02 20.5882 3680.79 20.0602 3679.06 20.0602C3677.3 20.0602 3675.97 20.6362 3675.07 21.7882C3674.18 22.9402 3673.73 24.3322 3673.73 25.9642H3667.78C3667.84 23.5002 3668.39 21.4522 3669.41 19.8202C3670.43 18.1562 3671.79 16.9242 3673.49 16.1242C3675.19 15.2922 3677.09 14.8762 3679.2 14.8762C3682.63 14.8762 3685.28 15.8202 3687.17 17.7082C3689.09 19.5642 3690.05 21.9802 3690.05 24.9562C3690.05 26.8122 3689.62 28.6202 3688.75 30.3802C3687.92 32.1402 3686.82 33.8362 3685.44 35.4682C3684.07 37.1002 3682.58 38.6362 3680.98 40.0762C3679.38 41.4842 3677.83 42.7962 3676.32 44.0122H3690.87V49.0522H3667.73ZM3709.51 49.6282C3706.4 49.6282 3703.75 48.9082 3701.54 47.4682C3699.33 45.9962 3697.62 43.9642 3696.4 41.3722C3695.22 38.7482 3694.63 35.7082 3694.63 32.2522C3694.63 28.8282 3695.22 25.8042 3696.4 23.1802C3697.62 20.5562 3699.33 18.5242 3701.54 17.0842C3703.75 15.6122 3706.4 14.8762 3709.51 14.8762C3712.61 14.8762 3715.27 15.6122 3717.48 17.0842C3719.68 18.5242 3721.38 20.5562 3722.56 23.1802C3723.78 25.8042 3724.39 28.8282 3724.39 32.2522C3724.39 35.7082 3723.78 38.7482 3722.56 41.3722C3721.38 43.9642 3719.68 45.9962 3717.48 47.4682C3715.27 48.9082 3712.61 49.6282 3709.51 49.6282ZM3709.51 44.1082C3712.04 44.1082 3714.1 43.0522 3715.7 40.9402C3717.3 38.8282 3718.1 35.9322 3718.1 32.2522C3718.1 28.5722 3717.3 25.6762 3715.7 23.5642C3714.1 21.4522 3712.04 20.3962 3709.51 20.3962C3706.95 20.3962 3704.87 21.4522 3703.27 23.5642C3701.7 25.6762 3700.92 28.5722 3700.92 32.2522C3700.92 35.9322 3701.7 38.8282 3703.27 40.9402C3704.87 43.0522 3706.95 44.1082 3709.51 44.1082ZM3728.76 49.0522V44.5882C3730.81 42.8922 3732.79 41.2122 3734.71 39.5482C3736.66 37.8842 3738.39 36.2362 3739.9 34.6042C3741.43 32.9722 3742.65 31.3882 3743.54 29.8522C3744.47 28.2842 3744.94 26.7642 3744.94 25.2922C3744.94 23.9162 3744.55 22.7002 3743.78 21.6442C3743.05 20.5882 3741.82 20.0602 3740.09 20.0602C3738.33 20.0602 3737 20.6362 3736.1 21.7882C3735.21 22.9402 3734.76 24.3322 3734.76 25.9642H3728.81C3728.87 23.5002 3729.42 21.4522 3730.44 19.8202C3731.46 18.1562 3732.82 16.9242 3734.52 16.1242C3736.22 15.2922 3738.12 14.8762 3740.23 14.8762C3743.66 14.8762 3746.31 15.8202 3748.2 17.7082C3750.12 19.5642 3751.08 21.9802 3751.08 24.9562C3751.08 26.8122 3750.65 28.6202 3749.78 30.3802C3748.95 32.1402 3747.85 33.8362 3746.47 35.4682C3745.1 37.1002 3743.61 38.6362 3742.01 40.0762C3740.41 41.4842 3738.86 42.7962 3737.35 44.0122H3751.9V49.0522H3728.76ZM3767.99 49.6282C3765.78 49.6282 3763.78 49.2442 3761.99 48.4762C3760.2 47.6762 3758.76 46.4602 3757.67 44.8282C3756.58 43.1962 3756.01 41.1482 3755.94 38.6842H3761.99C3762.02 40.3162 3762.55 41.6922 3763.57 42.8122C3764.63 43.9002 3766.1 44.4442 3767.99 44.4442C3769.78 44.4442 3771.16 43.9482 3772.12 42.9562C3773.08 41.9642 3773.56 40.7162 3773.56 39.2122C3773.56 37.4522 3772.92 36.1242 3771.64 35.2282C3770.39 34.3002 3768.77 33.8362 3766.79 33.8362H3764.29V28.7962H3766.84C3768.47 28.7962 3769.83 28.4122 3770.92 27.6442C3772.01 26.8762 3772.55 25.7402 3772.55 24.2362C3772.55 22.9882 3772.13 21.9962 3771.3 21.2602C3770.5 20.4922 3769.38 20.1082 3767.94 20.1082C3766.37 20.1082 3765.14 20.5722 3764.25 21.5002C3763.38 22.4282 3762.9 23.5642 3762.81 24.9082H3756.81C3756.93 21.8042 3758.01 19.3562 3760.02 17.5642C3762.07 15.7722 3764.71 14.8762 3767.94 14.8762C3770.25 14.8762 3772.18 15.2922 3773.75 16.1242C3775.35 16.9242 3776.55 17.9962 3777.35 19.3402C3778.18 20.6842 3778.6 22.1722 3778.6 23.8042C3778.6 25.6922 3778.07 27.2922 3777.01 28.6042C3775.99 29.8842 3774.71 30.7482 3773.17 31.1962C3775.06 31.5802 3776.6 32.5082 3777.78 33.9802C3778.97 35.4202 3779.56 37.2442 3779.56 39.4522C3779.56 41.3082 3779.11 43.0042 3778.21 44.5402C3777.32 46.0762 3776.01 47.3082 3774.28 48.2362C3772.58 49.1642 3770.49 49.6282 3767.99 49.6282Z" fill="white"/>
<path d="M3826.44 49.0522H3819.19V20.8282H3810.79C3810.6 22.3002 3810.39 23.9002 3810.17 25.6282C3809.98 27.3562 3809.75 29.1162 3809.5 30.9082C3809.27 32.6682 3809.03 34.3482 3808.78 35.9482C3808.52 37.5162 3808.26 38.9082 3808.01 40.1242C3807.59 42.1082 3807.03 43.8042 3806.33 45.2122C3805.66 46.6202 3804.71 47.6922 3803.5 48.4282C3802.31 49.1642 3800.76 49.5322 3798.84 49.5322C3798.2 49.5322 3797.59 49.4842 3797.02 49.3882C3796.44 49.2922 3795.9 49.1642 3795.38 49.0042V43.0522C3795.8 43.1802 3796.2 43.2922 3796.58 43.3882C3797 43.4842 3797.45 43.5322 3797.93 43.5322C3798.57 43.5322 3799.1 43.3242 3799.51 42.9082C3799.93 42.4922 3800.3 41.7882 3800.62 40.7962C3800.94 39.7722 3801.26 38.3642 3801.58 36.5722C3801.74 35.8042 3801.93 34.7162 3802.15 33.3082C3802.38 31.8682 3802.63 30.1882 3802.92 28.2682C3803.24 26.3162 3803.56 24.2042 3803.88 21.9322C3804.2 19.6282 3804.5 17.2442 3804.79 14.7802H3826.44V49.0522ZM3854.81 49.0522H3835.09V14.7802H3854.81V20.7322H3842.33V28.2682H3853.95V34.2202H3842.33V43.0522H3854.81V49.0522ZM3875.15 49.0522H3867.9V20.8282H3858.59V14.7802H3884.46V20.8282H3875.15V49.0522ZM3917.82 49.0522H3910.57V34.2682H3896.99V49.0522H3889.74V14.7802H3896.99V28.2202H3910.57V14.7802H3917.82V49.0522ZM3937.97 35.9002L3929.95 49.0522H3921.88L3931.63 33.9802C3930.7 33.5962 3929.77 33.0362 3928.85 32.3002C3927.92 31.5322 3927.15 30.5242 3926.54 29.2762C3925.93 27.9962 3925.63 26.4282 3925.63 24.5722C3925.63 21.4042 3926.77 18.9882 3929.04 17.3242C3931.31 15.6282 3934.49 14.7802 3938.59 14.7802H3949.73V49.0522H3942.48V35.9002H3937.97ZM3938.88 20.7322C3937.63 20.7322 3936.56 20.8762 3935.66 21.1642C3934.8 21.4522 3934.13 21.9162 3933.65 22.5562C3933.2 23.1962 3932.97 24.0442 3932.97 25.1002C3932.97 26.6042 3933.47 27.8042 3934.46 28.7002C3935.49 29.5642 3937.02 29.9962 3939.07 29.9962H3942.48V20.7322H3938.88ZM3969.89 35.9002L3961.87 49.0522H3953.81L3963.55 33.9802C3962.62 33.5962 3961.69 33.0362 3960.77 32.3002C3959.84 31.5322 3959.07 30.5242 3958.46 29.2762C3957.85 27.9962 3957.55 26.4282 3957.55 24.5722C3957.55 21.4042 3958.69 18.9882 3960.96 17.3242C3963.23 15.6282 3966.41 14.7802 3970.51 14.7802H3981.65V49.0522H3974.4V35.9002H3969.89ZM3970.8 20.7322C3969.55 20.7322 3968.48 20.8762 3967.58 21.1642C3966.72 21.4522 3966.05 21.9162 3965.57 22.5562C3965.12 23.1962 3964.89 24.0442 3964.89 25.1002C3964.89 26.6042 3965.39 27.8042 3966.38 28.7002C3967.41 29.5642 3968.94 29.9962 3970.99 29.9962H3974.4V20.7322H3970.8ZM4044.83 49.0522H4001.73V14.7802H4008.97V43.0042H4019.63V14.7802H4026.93V43.0042H4037.58V14.7802H4044.83V49.0522ZM4081.41 49.0522H4073.16L4060.72 31.6762V49.0522H4053.48V14.7802H4060.72V31.3882L4073.01 14.7802H4080.74L4068.26 31.2442L4081.41 49.0522ZM4115.89 31.8682C4115.89 34.5242 4115.56 36.9402 4114.88 39.1162C4114.24 41.2602 4113.25 43.1162 4111.91 44.6842C4110.6 46.2522 4108.9 47.4522 4106.82 48.2842C4104.77 49.1162 4102.36 49.5322 4099.57 49.5322C4096.79 49.5322 4094.36 49.1162 4092.28 48.2842C4090.23 47.4202 4088.53 46.2202 4087.19 44.6842C4085.88 43.1162 4084.88 41.2442 4084.21 39.0682C4083.57 36.8922 4083.25 34.4762 4083.25 31.8202C4083.25 28.2682 4083.83 25.1802 4084.98 22.5562C4086.16 19.9322 4087.96 17.9002 4090.36 16.4602C4092.79 14.9882 4095.88 14.2522 4099.62 14.2522C4103.33 14.2522 4106.39 14.9882 4108.79 16.4602C4111.19 17.9002 4112.96 19.9482 4114.12 22.6042C4115.3 25.2282 4115.89 28.3162 4115.89 31.8682ZM4090.88 31.8682C4090.88 34.2682 4091.19 36.3322 4091.8 38.0602C4092.4 39.7882 4093.35 41.1162 4094.63 42.0442C4095.91 42.9722 4097.56 43.4362 4099.57 43.4362C4101.65 43.4362 4103.32 42.9722 4104.56 42.0442C4105.84 41.1162 4106.77 39.7882 4107.35 38.0602C4107.96 36.3322 4108.26 34.2682 4108.26 31.8682C4108.26 28.2522 4107.59 25.4202 4106.24 23.3722C4104.9 21.3242 4102.69 20.3002 4099.62 20.3002C4097.57 20.3002 4095.91 20.7642 4094.63 21.6922C4093.35 22.6202 4092.4 23.9482 4091.8 25.6762C4091.19 27.4042 4090.88 29.4682 4090.88 31.8682ZM4149.17 49.0522H4141.93V20.8282H4133.53C4133.33 22.3002 4133.13 23.9002 4132.9 25.6282C4132.71 27.3562 4132.49 29.1162 4132.23 30.9082C4132.01 32.6682 4131.77 34.3482 4131.51 35.9482C4131.25 37.5162 4131 38.9082 4130.74 40.1242C4130.33 42.1082 4129.77 43.8042 4129.06 45.2122C4128.39 46.6202 4127.45 47.6922 4126.23 48.4282C4125.05 49.1642 4123.49 49.5322 4121.57 49.5322C4120.93 49.5322 4120.33 49.4842 4119.75 49.3882C4119.17 49.2922 4118.63 49.1642 4118.12 49.0042V43.0522C4118.53 43.1802 4118.93 43.2922 4119.32 43.3882C4119.73 43.4842 4120.18 43.5322 4120.66 43.5322C4121.3 43.5322 4121.83 43.3242 4122.25 42.9082C4122.66 42.4922 4123.03 41.7882 4123.35 40.7962C4123.67 39.7722 4123.99 38.3642 4124.31 36.5722C4124.47 35.8042 4124.66 34.7162 4124.89 33.3082C4125.11 31.8682 4125.37 30.1882 4125.65 28.2682C4125.97 26.3162 4126.29 24.2042 4126.61 21.9322C4126.93 19.6282 4127.24 17.2442 4127.53 14.7802H4149.17V49.0522ZM4178.8 49.0522L4176.3 40.8922H4163.82L4161.32 49.0522H4153.5L4165.6 14.6362H4174.48L4186.62 49.0522H4178.8ZM4172.08 26.8282C4171.92 26.2842 4171.71 25.5962 4171.45 24.7642C4171.2 23.9322 4170.94 23.0842 4170.68 22.2202C4170.43 21.3562 4170.22 20.6042 4170.06 19.9642C4169.9 20.6042 4169.68 21.4042 4169.39 22.3642C4169.13 23.2922 4168.88 24.1882 4168.62 25.0522C4168.4 25.8842 4168.22 26.4762 4168.09 26.8282L4165.64 34.7962H4174.57L4172.08 26.8282ZM4216.56 49.6282C4213.17 49.6282 4210.25 48.9082 4207.82 47.4682C4205.39 45.9962 4203.52 43.9642 4202.21 41.3722C4200.89 38.7482 4200.24 35.7242 4200.24 32.3002C4200.24 28.8762 4200.89 25.8522 4202.21 23.2282C4203.52 20.6042 4205.39 18.5562 4207.82 17.0842C4210.25 15.6122 4213.17 14.8762 4216.56 14.8762C4220.59 14.8762 4223.89 15.8842 4226.45 17.9002C4229.04 19.8842 4230.65 22.6842 4231.29 26.3002H4224.53C4224.11 24.4762 4223.21 23.0522 4221.84 22.0282C4220.49 20.9722 4218.7 20.4442 4216.46 20.4442C4213.36 20.4442 4210.93 21.5002 4209.17 23.6122C4207.41 25.7242 4206.53 28.6202 4206.53 32.3002C4206.53 35.9802 4207.41 38.8762 4209.17 40.9882C4210.93 43.0682 4213.36 44.1082 4216.46 44.1082C4218.7 44.1082 4220.49 43.6282 4221.84 42.6682C4223.21 41.6762 4224.11 40.3162 4224.53 38.5882H4231.29C4230.65 42.0442 4229.04 44.7482 4226.45 46.7002C4223.89 48.6522 4220.59 49.6282 4216.56 49.6282ZM4244.13 49.0522V20.3962H4234.34V15.4522H4260.12V20.3962H4250.28V49.0522H4244.13ZM4264.67 49.0522V15.4522H4286.37V20.3962H4270.81V29.8042H4283.39V34.6522H4270.81V49.0522H4264.67ZM4301.73 49.0522V44.5882C4303.78 42.8922 4305.76 41.2122 4307.68 39.5482C4309.63 37.8842 4311.36 36.2362 4312.87 34.6042C4314.4 32.9722 4315.62 31.3882 4316.51 29.8522C4317.44 28.2842 4317.91 26.7642 4317.91 25.2922C4317.91 23.9162 4317.52 22.7002 4316.75 21.6442C4316.02 20.5882 4314.79 20.0602 4313.06 20.0602C4311.3 20.0602 4309.97 20.6362 4309.07 21.7882C4308.18 22.9402 4307.73 24.3322 4307.73 25.9642H4301.78C4301.84 23.5002 4302.39 21.4522 4303.41 19.8202C4304.43 18.1562 4305.79 16.9242 4307.49 16.1242C4309.19 15.2922 4311.09 14.8762 4313.2 14.8762C4316.63 14.8762 4319.28 15.8202 4321.17 17.7082C4323.09 19.5642 4324.05 21.9802 4324.05 24.9562C4324.05 26.8122 4323.62 28.6202 4322.75 30.3802C4321.92 32.1402 4320.82 33.8362 4319.44 35.4682C4318.07 37.1002 4316.58 38.6362 4314.98 40.0762C4313.38 41.4842 4311.83 42.7962 4310.32 44.0122H4324.87V49.0522H4301.73ZM4343.51 49.6282C4340.4 49.6282 4337.75 48.9082 4335.54 47.4682C4333.33 45.9962 4331.62 43.9642 4330.4 41.3722C4329.22 38.7482 4328.63 35.7082 4328.63 32.2522C4328.63 28.8282 4329.22 25.8042 4330.4 23.1802C4331.62 20.5562 4333.33 18.5242 4335.54 17.0842C4337.75 15.6122 4340.4 14.8762 4343.51 14.8762C4346.61 14.8762 4349.27 15.6122 4351.48 17.0842C4353.68 18.5242 4355.38 20.5562 4356.56 23.1802C4357.78 25.8042 4358.39 28.8282 4358.39 32.2522C4358.39 35.7082 4357.78 38.7482 4356.56 41.3722C4355.38 43.9642 4353.68 45.9962 4351.48 47.4682C4349.27 48.9082 4346.61 49.6282 4343.51 49.6282ZM4343.51 44.1082C4346.04 44.1082 4348.1 43.0522 4349.7 40.9402C4351.3 38.8282 4352.1 35.9322 4352.1 32.2522C4352.1 28.5722 4351.3 25.6762 4349.7 23.5642C4348.1 21.4522 4346.04 20.3962 4343.51 20.3962C4340.95 20.3962 4338.87 21.4522 4337.27 23.5642C4335.7 25.6762 4334.92 28.5722 4334.92 32.2522C4334.92 35.9322 4335.7 38.8282 4337.27 40.9402C4338.87 43.0522 4340.95 44.1082 4343.51 44.1082ZM4362.76 49.0522V44.5882C4364.81 42.8922 4366.79 41.2122 4368.71 39.5482C4370.66 37.8842 4372.39 36.2362 4373.9 34.6042C4375.43 32.9722 4376.65 31.3882 4377.54 29.8522C4378.47 28.2842 4378.94 26.7642 4378.94 25.2922C4378.94 23.9162 4378.55 22.7002 4377.78 21.6442C4377.05 20.5882 4375.82 20.0602 4374.09 20.0602C4372.33 20.0602 4371 20.6362 4370.1 21.7882C4369.21 22.9402 4368.76 24.3322 4368.76 25.9642H4362.81C4362.87 23.5002 4363.42 21.4522 4364.44 19.8202C4365.46 18.1562 4366.82 16.9242 4368.52 16.1242C4370.22 15.2922 4372.12 14.8762 4374.23 14.8762C4377.66 14.8762 4380.31 15.8202 4382.2 17.7082C4384.12 19.5642 4385.08 21.9802 4385.08 24.9562C4385.08 26.8122 4384.65 28.6202 4383.78 30.3802C4382.95 32.1402 4381.85 33.8362 4380.47 35.4682C4379.1 37.1002 4377.61 38.6362 4376.01 40.0762C4374.41 41.4842 4372.86 42.7962 4371.35 44.0122H4385.9V49.0522H4362.76ZM4401.99 49.6282C4399.78 49.6282 4397.78 49.2442 4395.99 48.4762C4394.2 47.6762 4392.76 46.4602 4391.67 44.8282C4390.58 43.1962 4390.01 41.1482 4389.94 38.6842H4395.99C4396.02 40.3162 4396.55 41.6922 4397.57 42.8122C4398.63 43.9002 4400.1 44.4442 4401.99 44.4442C4403.78 44.4442 4405.16 43.9482 4406.12 42.9562C4407.08 41.9642 4407.56 40.7162 4407.56 39.2122C4407.56 37.4522 4406.92 36.1242 4405.64 35.2282C4404.39 34.3002 4402.77 33.8362 4400.79 33.8362H4398.29V28.7962H4400.84C4402.47 28.7962 4403.83 28.4122 4404.92 27.6442C4406.01 26.8762 4406.55 25.7402 4406.55 24.2362C4406.55 22.9882 4406.13 21.9962 4405.3 21.2602C4404.5 20.4922 4403.38 20.1082 4401.94 20.1082C4400.37 20.1082 4399.14 20.5722 4398.25 21.5002C4397.38 22.4282 4396.9 23.5642 4396.81 24.9082H4390.81C4390.93 21.8042 4392.01 19.3562 4394.02 17.5642C4396.07 15.7722 4398.71 14.8762 4401.94 14.8762C4404.25 14.8762 4406.18 15.2922 4407.75 16.1242C4409.35 16.9242 4410.55 17.9962 4411.35 19.3402C4412.18 20.6842 4412.6 22.1722 4412.6 23.8042C4412.6 25.6922 4412.07 27.2922 4411.01 28.6042C4409.99 29.8842 4408.71 30.7482 4407.17 31.1962C4409.06 31.5802 4410.6 32.5082 4411.78 33.9802C4412.97 35.4202 4413.56 37.2442 4413.56 39.4522C4413.56 41.3082 4413.11 43.0042 4412.21 44.5402C4411.32 46.0762 4410.01 47.3082 4408.28 48.2362C4406.58 49.1642 4404.49 49.6282 4401.99 49.6282Z" fill="white"/>
<path d="M4451.44 49.0522H4444.19V20.8282H4435.79C4435.6 22.3002 4435.39 23.9002 4435.17 25.6282C4434.98 27.3562 4434.75 29.1162 4434.5 30.9082C4434.27 32.6682 4434.03 34.3482 4433.78 35.9482C4433.52 37.5162 4433.26 38.9082 4433.01 40.1242C4432.59 42.1082 4432.03 43.8042 4431.33 45.2122C4430.66 46.6202 4429.71 47.6922 4428.5 48.4282C4427.31 49.1642 4425.76 49.5322 4423.84 49.5322C4423.2 49.5322 4422.59 49.4842 4422.02 49.3882C4421.44 49.2922 4420.9 49.1642 4420.38 49.0042V43.0522C4420.8 43.1802 4421.2 43.2922 4421.58 43.3882C4422 43.4842 4422.45 43.5322 4422.93 43.5322C4423.57 43.5322 4424.1 43.3242 4424.51 42.9082C4424.93 42.4922 4425.3 41.7882 4425.62 40.7962C4425.94 39.7722 4426.26 38.3642 4426.58 36.5722C4426.74 35.8042 4426.93 34.7162 4427.15 33.3082C4427.38 31.8682 4427.63 30.1882 4427.92 28.2682C4428.24 26.3162 4428.56 24.2042 4428.88 21.9322C4429.2 19.6282 4429.5 17.2442 4429.79 14.7802H4451.44V49.0522ZM4479.81 49.0522H4460.09V14.7802H4479.81V20.7322H4467.33V28.2682H4478.95V34.2202H4467.33V43.0522H4479.81V49.0522ZM4500.15 49.0522H4492.9V20.8282H4483.59V14.7802H4509.46V20.8282H4500.15V49.0522ZM4542.82 49.0522H4535.57V34.2682H4521.99V49.0522H4514.74V14.7802H4521.99V28.2202H4535.57V14.7802H4542.82V49.0522ZM4562.97 35.9002L4554.95 49.0522H4546.88L4556.63 33.9802C4555.7 33.5962 4554.77 33.0362 4553.85 32.3002C4552.92 31.5322 4552.15 30.5242 4551.54 29.2762C4550.93 27.9962 4550.63 26.4282 4550.63 24.5722C4550.63 21.4042 4551.77 18.9882 4554.04 17.3242C4556.31 15.6282 4559.49 14.7802 4563.59 14.7802H4574.73V49.0522H4567.48V35.9002H4562.97ZM4563.88 20.7322C4562.63 20.7322 4561.56 20.8762 4560.66 21.1642C4559.8 21.4522 4559.13 21.9162 4558.65 22.5562C4558.2 23.1962 4557.97 24.0442 4557.97 25.1002C4557.97 26.6042 4558.47 27.8042 4559.46 28.7002C4560.49 29.5642 4562.02 29.9962 4564.07 29.9962H4567.48V20.7322H4563.88ZM4594.89 35.9002L4586.87 49.0522H4578.81L4588.55 33.9802C4587.62 33.5962 4586.69 33.0362 4585.77 32.3002C4584.84 31.5322 4584.07 30.5242 4583.46 29.2762C4582.85 27.9962 4582.55 26.4282 4582.55 24.5722C4582.55 21.4042 4583.69 18.9882 4585.96 17.3242C4588.23 15.6282 4591.41 14.7802 4595.51 14.7802H4606.65V49.0522H4599.4V35.9002H4594.89ZM4595.8 20.7322C4594.55 20.7322 4593.48 20.8762 4592.58 21.1642C4591.72 21.4522 4591.05 21.9162 4590.57 22.5562C4590.12 23.1962 4589.89 24.0442 4589.89 25.1002C4589.89 26.6042 4590.39 27.8042 4591.38 28.7002C4592.41 29.5642 4593.94 29.9962 4595.99 29.9962H4599.4V20.7322H4595.8ZM4669.83 49.0522H4626.73V14.7802H4633.97V43.0042H4644.63V14.7802H4651.93V43.0042H4662.58V14.7802H4669.83V49.0522ZM4706.41 49.0522H4698.16L4685.72 31.6762V49.0522H4678.48V14.7802H4685.72V31.3882L4698.01 14.7802H4705.74L4693.26 31.2442L4706.41 49.0522ZM4740.89 31.8682C4740.89 34.5242 4740.56 36.9402 4739.88 39.1162C4739.24 41.2602 4738.25 43.1162 4736.91 44.6842C4735.6 46.2522 4733.9 47.4522 4731.82 48.2842C4729.77 49.1162 4727.36 49.5322 4724.57 49.5322C4721.79 49.5322 4719.36 49.1162 4717.28 48.2842C4715.23 47.4202 4713.53 46.2202 4712.19 44.6842C4710.88 43.1162 4709.88 41.2442 4709.21 39.0682C4708.57 36.8922 4708.25 34.4762 4708.25 31.8202C4708.25 28.2682 4708.83 25.1802 4709.98 22.5562C4711.16 19.9322 4712.96 17.9002 4715.36 16.4602C4717.79 14.9882 4720.88 14.2522 4724.62 14.2522C4728.33 14.2522 4731.39 14.9882 4733.79 16.4602C4736.19 17.9002 4737.96 19.9482 4739.12 22.6042C4740.3 25.2282 4740.89 28.3162 4740.89 31.8682ZM4715.88 31.8682C4715.88 34.2682 4716.19 36.3322 4716.8 38.0602C4717.4 39.7882 4718.35 41.1162 4719.63 42.0442C4720.91 42.9722 4722.56 43.4362 4724.57 43.4362C4726.65 43.4362 4728.32 42.9722 4729.56 42.0442C4730.84 41.1162 4731.77 39.7882 4732.35 38.0602C4732.96 36.3322 4733.26 34.2682 4733.26 31.8682C4733.26 28.2522 4732.59 25.4202 4731.24 23.3722C4729.9 21.3242 4727.69 20.3002 4724.62 20.3002C4722.57 20.3002 4720.91 20.7642 4719.63 21.6922C4718.35 22.6202 4717.4 23.9482 4716.8 25.6762C4716.19 27.4042 4715.88 29.4682 4715.88 31.8682ZM4774.17 49.0522H4766.93V20.8282H4758.53C4758.33 22.3002 4758.13 23.9002 4757.9 25.6282C4757.71 27.3562 4757.49 29.1162 4757.23 30.9082C4757.01 32.6682 4756.77 34.3482 4756.51 35.9482C4756.25 37.5162 4756 38.9082 4755.74 40.1242C4755.33 42.1082 4754.77 43.8042 4754.06 45.2122C4753.39 46.6202 4752.45 47.6922 4751.23 48.4282C4750.05 49.1642 4748.49 49.5322 4746.57 49.5322C4745.93 49.5322 4745.33 49.4842 4744.75 49.3882C4744.17 49.2922 4743.63 49.1642 4743.12 49.0042V43.0522C4743.53 43.1802 4743.93 43.2922 4744.32 43.3882C4744.73 43.4842 4745.18 43.5322 4745.66 43.5322C4746.3 43.5322 4746.83 43.3242 4747.25 42.9082C4747.66 42.4922 4748.03 41.7882 4748.35 40.7962C4748.67 39.7722 4748.99 38.3642 4749.31 36.5722C4749.47 35.8042 4749.66 34.7162 4749.89 33.3082C4750.11 31.8682 4750.37 30.1882 4750.65 28.2682C4750.97 26.3162 4751.29 24.2042 4751.61 21.9322C4751.93 19.6282 4752.24 17.2442 4752.53 14.7802H4774.17V49.0522ZM4803.8 49.0522L4801.3 40.8922H4788.82L4786.32 49.0522H4778.5L4790.6 14.6362H4799.48L4811.62 49.0522H4803.8ZM4797.08 26.8282C4796.92 26.2842 4796.71 25.5962 4796.45 24.7642C4796.2 23.9322 4795.94 23.0842 4795.68 22.2202C4795.43 21.3562 4795.22 20.6042 4795.06 19.9642C4794.9 20.6042 4794.68 21.4042 4794.39 22.3642C4794.13 23.2922 4793.88 24.1882 4793.62 25.0522C4793.4 25.8842 4793.22 26.4762 4793.09 26.8282L4790.64 34.7962H4799.57L4797.08 26.8282ZM4841.56 49.6282C4838.17 49.6282 4835.25 48.9082 4832.82 47.4682C4830.39 45.9962 4828.52 43.9642 4827.21 41.3722C4825.89 38.7482 4825.24 35.7242 4825.24 32.3002C4825.24 28.8762 4825.89 25.8522 4827.21 23.2282C4828.52 20.6042 4830.39 18.5562 4832.82 17.0842C4835.25 15.6122 4838.17 14.8762 4841.56 14.8762C4845.59 14.8762 4848.89 15.8842 4851.45 17.9002C4854.04 19.8842 4855.65 22.6842 4856.29 26.3002H4849.53C4849.11 24.4762 4848.21 23.0522 4846.84 22.0282C4845.49 20.9722 4843.7 20.4442 4841.46 20.4442C4838.36 20.4442 4835.93 21.5002 4834.17 23.6122C4832.41 25.7242 4831.53 28.6202 4831.53 32.3002C4831.53 35.9802 4832.41 38.8762 4834.17 40.9882C4835.93 43.0682 4838.36 44.1082 4841.46 44.1082C4843.7 44.1082 4845.49 43.6282 4846.84 42.6682C4848.21 41.6762 4849.11 40.3162 4849.53 38.5882H4856.29C4855.65 42.0442 4854.04 44.7482 4851.45 46.7002C4848.89 48.6522 4845.59 49.6282 4841.56 49.6282ZM4869.13 49.0522V20.3962H4859.34V15.4522H4885.12V20.3962H4875.28V49.0522H4869.13ZM4889.67 49.0522V15.4522H4911.37V20.3962H4895.81V29.8042H4908.39V34.6522H4895.81V49.0522H4889.67ZM4926.73 49.0522V44.5882C4928.78 42.8922 4930.76 41.2122 4932.68 39.5482C4934.63 37.8842 4936.36 36.2362 4937.87 34.6042C4939.4 32.9722 4940.62 31.3882 4941.51 29.8522C4942.44 28.2842 4942.91 26.7642 4942.91 25.2922C4942.91 23.9162 4942.52 22.7002 4941.75 21.6442C4941.02 20.5882 4939.79 20.0602 4938.06 20.0602C4936.3 20.0602 4934.97 20.6362 4934.07 21.7882C4933.18 22.9402 4932.73 24.3322 4932.73 25.9642H4926.78C4926.84 23.5002 4927.39 21.4522 4928.41 19.8202C4929.43 18.1562 4930.79 16.9242 4932.49 16.1242C4934.19 15.2922 4936.09 14.8762 4938.2 14.8762C4941.63 14.8762 4944.28 15.8202 4946.17 17.7082C4948.09 19.5642 4949.05 21.9802 4949.05 24.9562C4949.05 26.8122 4948.62 28.6202 4947.75 30.3802C4946.92 32.1402 4945.82 33.8362 4944.44 35.4682C4943.07 37.1002 4941.58 38.6362 4939.98 40.0762C4938.38 41.4842 4936.83 42.7962 4935.32 44.0122H4949.87V49.0522H4926.73ZM4968.51 49.6282C4965.4 49.6282 4962.75 48.9082 4960.54 47.4682C4958.33 45.9962 4956.62 43.9642 4955.4 41.3722C4954.22 38.7482 4953.63 35.7082 4953.63 32.2522C4953.63 28.8282 4954.22 25.8042 4955.4 23.1802C4956.62 20.5562 4958.33 18.5242 4960.54 17.0842C4962.75 15.6122 4965.4 14.8762 4968.51 14.8762C4971.61 14.8762 4974.27 15.6122 4976.48 17.0842C4978.68 18.5242 4980.38 20.5562 4981.56 23.1802C4982.78 25.8042 4983.39 28.8282 4983.39 32.2522C4983.39 35.7082 4982.78 38.7482 4981.56 41.3722C4980.38 43.9642 4978.68 45.9962 4976.48 47.4682C4974.27 48.9082 4971.61 49.6282 4968.51 49.6282ZM4968.51 44.1082C4971.04 44.1082 4973.1 43.0522 4974.7 40.9402C4976.3 38.8282 4977.1 35.9322 4977.1 32.2522C4977.1 28.5722 4976.3 25.6762 4974.7 23.5642C4973.1 21.4522 4971.04 20.3962 4968.51 20.3962C4965.95 20.3962 4963.87 21.4522 4962.27 23.5642C4960.7 25.6762 4959.92 28.5722 4959.92 32.2522C4959.92 35.9322 4960.7 38.8282 4962.27 40.9402C4963.87 43.0522 4965.95 44.1082 4968.51 44.1082ZM4987.76 49.0522V44.5882C4989.81 42.8922 4991.79 41.2122 4993.71 39.5482C4995.66 37.8842 4997.39 36.2362 4998.9 34.6042C5000.43 32.9722 5001.65 31.3882 5002.54 29.8522C5003.47 28.2842 5003.94 26.7642 5003.94 25.2922C5003.94 23.9162 5003.55 22.7002 5002.78 21.6442C5002.05 20.5882 5000.82 20.0602 4999.09 20.0602C4997.33 20.0602 4996 20.6362 4995.1 21.7882C4994.21 22.9402 4993.76 24.3322 4993.76 25.9642H4987.81C4987.87 23.5002 4988.42 21.4522 4989.44 19.8202C4990.46 18.1562 4991.82 16.9242 4993.52 16.1242C4995.22 15.2922 4997.12 14.8762 4999.23 14.8762C5002.66 14.8762 5005.31 15.8202 5007.2 17.7082C5009.12 19.5642 5010.08 21.9802 5010.08 24.9562C5010.08 26.8122 5009.65 28.6202 5008.78 30.3802C5007.95 32.1402 5006.85 33.8362 5005.47 35.4682C5004.1 37.1002 5002.61 38.6362 5001.01 40.0762C4999.41 41.4842 4997.86 42.7962 4996.35 44.0122H5010.9V49.0522H4987.76ZM5026.99 49.6282C5024.78 49.6282 5022.78 49.2442 5020.99 48.4762C5019.2 47.6762 5017.76 46.4602 5016.67 44.8282C5015.58 43.1962 5015.01 41.1482 5014.94 38.6842H5020.99C5021.02 40.3162 5021.55 41.6922 5022.57 42.8122C5023.63 43.9002 5025.1 44.4442 5026.99 44.4442C5028.78 44.4442 5030.16 43.9482 5031.12 42.9562C5032.08 41.9642 5032.56 40.7162 5032.56 39.2122C5032.56 37.4522 5031.92 36.1242 5030.64 35.2282C5029.39 34.3002 5027.77 33.8362 5025.79 33.8362H5023.29V28.7962H5025.84C5027.47 28.7962 5028.83 28.4122 5029.92 27.6442C5031.01 26.8762 5031.55 25.7402 5031.55 24.2362C5031.55 22.9882 5031.13 21.9962 5030.3 21.2602C5029.5 20.4922 5028.38 20.1082 5026.94 20.1082C5025.37 20.1082 5024.14 20.5722 5023.25 21.5002C5022.38 22.4282 5021.9 23.5642 5021.81 24.9082H5015.81C5015.93 21.8042 5017.01 19.3562 5019.02 17.5642C5021.07 15.7722 5023.71 14.8762 5026.94 14.8762C5029.25 14.8762 5031.18 15.2922 5032.75 16.1242C5034.35 16.9242 5035.55 17.9962 5036.35 19.3402C5037.18 20.6842 5037.6 22.1722 5037.6 23.8042C5037.6 25.6922 5037.07 27.2922 5036.01 28.6042C5034.99 29.8842 5033.71 30.7482 5032.17 31.1962C5034.06 31.5802 5035.6 32.5082 5036.78 33.9802C5037.97 35.4202 5038.56 37.2442 5038.56 39.4522C5038.56 41.3082 5038.11 43.0042 5037.21 44.5402C5036.32 46.0762 5035.01 47.3082 5033.28 48.2362C5031.58 49.1642 5029.49 49.6282 5026.99 49.6282Z" fill="white"/>
<path d="M31.44 47.0527H24.192V18.8287H15.792C15.6 20.3007 15.392 21.9007 15.168 23.6287C14.976 25.3567 14.752 27.1167 14.496 28.9087C14.272 30.6687 14.032 32.3487 13.776 33.9487C13.52 35.5167 13.264 36.9087 13.008 38.1247C12.592 40.1087 12.032 41.8047 11.328 43.2127C10.656 44.6207 9.712 45.6927 8.496 46.4287C7.312 47.1647 5.76 47.5327 3.84 47.5327C3.2 47.5327 2.592 47.4847 2.016 47.3887C1.44 47.2927 0.896 47.1647 0.384 47.0047V41.0527C0.8 41.1807 1.2 41.2927 1.584 41.3887C2 41.4847 2.448 41.5327 2.928 41.5327C3.568 41.5327 4.096 41.3247 4.512 40.9087C4.928 40.4927 5.296 39.7887 5.616 38.7967C5.936 37.7727 6.256 36.3647 6.576 34.5727C6.736 33.8047 6.928 32.7167 7.152 31.3087C7.376 29.8687 7.632 28.1887 7.92 26.2687C8.24 24.3167 8.56 22.2047 8.88 19.9327C9.2 17.6287 9.504 15.2447 9.792 12.7807H31.44V47.0527ZM59.8136 47.0527H40.0856V12.7807H59.8136V18.7327H47.3336V26.2687H58.9496V32.2207H47.3336V41.0527H59.8136V47.0527ZM80.145 47.0527H72.897V18.8287H63.585V12.7807H89.457V18.8287H80.145V47.0527ZM122.822 47.0527H115.574V32.2687H101.99V47.0527H94.7419V12.7807H101.99V26.2207H115.574V12.7807H122.822V47.0527ZM142.965 33.9007L134.949 47.0527H126.885L136.629 31.9807C135.701 31.5967 134.773 31.0367 133.845 30.3007C132.917 29.5327 132.149 28.5247 131.541 27.2767C130.933 25.9967 130.629 24.4287 130.629 22.5727C130.629 19.4047 131.765 16.9887 134.037 15.3247C136.309 13.6287 139.493 12.7807 143.589 12.7807H154.725V47.0527H147.477V33.9007H142.965ZM143.877 18.7327C142.629 18.7327 141.557 18.8767 140.661 19.1647C139.797 19.4527 139.125 19.9167 138.645 20.5567C138.197 21.1967 137.973 22.0447 137.973 23.1007C137.973 24.6047 138.469 25.8047 139.461 26.7007C140.485 27.5647 142.021 27.9967 144.069 27.9967H147.477V18.7327H143.877ZM174.887 33.9007L166.871 47.0527H158.807L168.551 31.9807C167.623 31.5967 166.695 31.0367 165.767 30.3007C164.839 29.5327 164.071 28.5247 163.463 27.2767C162.855 25.9967 162.551 24.4287 162.551 22.5727C162.551 19.4047 163.687 16.9887 165.959 15.3247C168.231 13.6287 171.415 12.7807 175.511 12.7807H186.647V47.0527H179.399V33.9007H174.887ZM175.799 18.7327C174.551 18.7327 173.479 18.8767 172.583 19.1647C171.719 19.4527 171.047 19.9167 170.567 20.5567C170.119 21.1967 169.895 22.0447 169.895 23.1007C169.895 24.6047 170.391 25.8047 171.383 26.7007C172.407 27.5647 173.943 27.9967 175.991 27.9967H179.399V18.7327H175.799ZM249.83 47.0527H206.726V12.7807H213.974V41.0047H224.63V12.7807H231.926V41.0047H242.582V12.7807H249.83V47.0527ZM286.412 47.0527H278.156L265.724 29.6767V47.0527H258.476V12.7807H265.724V29.3887L278.012 12.7807H285.74L273.26 29.2447L286.412 47.0527ZM320.893 29.8687C320.893 32.5247 320.557 34.9407 319.885 37.1167C319.245 39.2607 318.253 41.1167 316.909 42.6847C315.597 44.2527 313.901 45.4527 311.821 46.2847C309.773 47.1167 307.357 47.5327 304.573 47.5327C301.789 47.5327 299.357 47.1167 297.277 46.2847C295.229 45.4207 293.533 44.2207 292.189 42.6847C290.877 41.1167 289.885 39.2447 289.213 37.0687C288.573 34.8927 288.253 32.4767 288.253 29.8207C288.253 26.2687 288.829 23.1807 289.981 20.5567C291.165 17.9327 292.957 15.9007 295.357 14.4607C297.789 12.9887 300.877 12.2527 304.621 12.2527C308.333 12.2527 311.389 12.9887 313.789 14.4607C316.189 15.9007 317.965 17.9487 319.117 20.6047C320.301 23.2287 320.893 26.3167 320.893 29.8687ZM295.885 29.8687C295.885 32.2687 296.189 34.3327 296.797 36.0607C297.405 37.7887 298.349 39.1167 299.629 40.0447C300.909 40.9727 302.557 41.4367 304.573 41.4367C306.653 41.4367 308.317 40.9727 309.565 40.0447C310.845 39.1167 311.773 37.7887 312.349 36.0607C312.957 34.3327 313.261 32.2687 313.261 29.8687C313.261 26.2527 312.589 23.4207 311.245 21.3727C309.901 19.3247 307.693 18.3007 304.621 18.3007C302.573 18.3007 300.909 18.7647 299.629 19.6927C298.349 20.6207 297.405 21.9487 296.797 23.6767C296.189 25.4047 295.885 27.4687 295.885 29.8687ZM354.174 47.0527H346.926V18.8287H338.526C338.334 20.3007 338.126 21.9007 337.902 23.6287C337.71 25.3567 337.486 27.1167 337.23 28.9087C337.006 30.6687 336.766 32.3487 336.51 33.9487C336.254 35.5167 335.998 36.9087 335.742 38.1247C335.326 40.1087 334.766 41.8047 334.062 43.2127C333.39 44.6207 332.446 45.6927 331.23 46.4287C330.046 47.1647 328.494 47.5327 326.574 47.5327C325.934 47.5327 325.326 47.4847 324.75 47.3887C324.174 47.2927 323.63 47.1647 323.118 47.0047V41.0527C323.534 41.1807 323.934 41.2927 324.318 41.3887C324.734 41.4847 325.182 41.5327 325.662 41.5327C326.302 41.5327 326.83 41.3247 327.246 40.9087C327.662 40.4927 328.03 39.7887 328.35 38.7967C328.67 37.7727 328.99 36.3647 329.31 34.5727C329.47 33.8047 329.662 32.7167 329.886 31.3087C330.11 29.8687 330.366 28.1887 330.654 26.2687C330.974 24.3167 331.294 22.2047 331.614 19.9327C331.934 17.6287 332.238 15.2447 332.526 12.7807H354.174V47.0527ZM383.796 47.0527L381.3 38.8927H368.82L366.324 47.0527H358.5L370.596 12.6367H379.476L391.62 47.0527H383.796ZM377.076 24.8287C376.916 24.2847 376.708 23.5967 376.452 22.7647C376.196 21.9327 375.94 21.0847 375.684 20.2207C375.428 19.3567 375.22 18.6047 375.06 17.9647C374.9 18.6047 374.676 19.4047 374.388 20.3647C374.132 21.2927 373.876 22.1887 373.62 23.0527C373.396 23.8847 373.22 24.4767 373.092 24.8287L370.644 32.7967H379.572L377.076 24.8287ZM421.558 47.6287C418.166 47.6287 415.254 46.9087 412.822 45.4687C410.39 43.9967 408.518 41.9647 407.206 39.3727C405.894 36.7487 405.238 33.7247 405.238 30.3007C405.238 26.8767 405.894 23.8527 407.206 21.2287C408.518 18.6047 410.39 16.5567 412.822 15.0847C415.254 13.6127 418.166 12.8767 421.558 12.8767C425.59 12.8767 428.886 13.8847 431.446 15.9007C434.038 17.8847 435.654 20.6847 436.294 24.3007H429.526C429.11 22.4767 428.214 21.0527 426.838 20.0287C425.494 18.9727 423.702 18.4447 421.462 18.4447C418.358 18.4447 415.926 19.5007 414.166 21.6127C412.406 23.7247 411.526 26.6207 411.526 30.3007C411.526 33.9807 412.406 36.8767 414.166 38.9887C415.926 41.0687 418.358 42.1087 421.462 42.1087C423.702 42.1087 425.494 41.6287 426.838 40.6687C428.214 39.6767 429.11 38.3167 429.526 36.5887H436.294C435.654 40.0447 434.038 42.7487 431.446 44.7007C428.886 46.6527 425.59 47.6287 421.558 47.6287ZM449.135 47.0527V18.3967H439.343V13.4527H465.119V18.3967H455.279V47.0527H449.135ZM469.67 47.0527V13.4527H491.366V18.3967H475.814V27.8047H488.39V32.6527H475.814V47.0527H469.67ZM506.729 47.0527V42.5887C508.777 40.8927 510.761 39.2127 512.681 37.5487C514.633 35.8847 516.361 34.2367 517.865 32.6047C519.401 30.9727 520.617 29.3887 521.513 27.8527C522.441 26.2847 522.905 24.7647 522.905 23.2927C522.905 21.9167 522.521 20.7007 521.753 19.6447C521.017 18.5887 519.785 18.0607 518.057 18.0607C516.297 18.0607 514.969 18.6367 514.073 19.7887C513.177 20.9407 512.729 22.3327 512.729 23.9647H506.777C506.841 21.5007 507.385 19.4527 508.409 17.8207C509.433 16.1567 510.793 14.9247 512.489 14.1247C514.185 13.2927 516.089 12.8767 518.201 12.8767C521.625 12.8767 524.281 13.8207 526.169 15.7087C528.089 17.5647 529.049 19.9807 529.049 22.9567C529.049 24.8127 528.617 26.6207 527.753 28.3807C526.921 30.1407 525.817 31.8367 524.441 33.4687C523.065 35.1007 521.577 36.6367 519.977 38.0767C518.377 39.4847 516.825 40.7967 515.321 42.0127H529.865V47.0527H506.729ZM548.509 47.6287C545.405 47.6287 542.749 46.9087 540.541 45.4687C538.333 43.9967 536.621 41.9647 535.405 39.3727C534.221 36.7487 533.629 33.7087 533.629 30.2527C533.629 26.8287 534.221 23.8047 535.405 21.1807C536.621 18.5567 538.333 16.5247 540.541 15.0847C542.749 13.6127 545.405 12.8767 548.509 12.8767C551.613 12.8767 554.269 13.6127 556.477 15.0847C558.685 16.5247 560.381 18.5567 561.565 21.1807C562.781 23.8047 563.389 26.8287 563.389 30.2527C563.389 33.7087 562.781 36.7487 561.565 39.3727C560.381 41.9647 558.685 43.9967 556.477 45.4687C554.269 46.9087 551.613 47.6287 548.509 47.6287ZM548.509 42.1087C551.037 42.1087 553.101 41.0527 554.701 38.9407C556.301 36.8287 557.101 33.9327 557.101 30.2527C557.101 26.5727 556.301 23.6767 554.701 21.5647C553.101 19.4527 551.037 18.3967 548.509 18.3967C545.949 18.3967 543.869 19.4527 542.269 21.5647C540.701 23.6767 539.917 26.5727 539.917 30.2527C539.917 33.9327 540.701 36.8287 542.269 38.9407C543.869 41.0527 545.949 42.1087 548.509 42.1087ZM567.761 47.0527V42.5887C569.809 40.8927 571.793 39.2127 573.713 37.5487C575.665 35.8847 577.393 34.2367 578.897 32.6047C580.433 30.9727 581.649 29.3887 582.545 27.8527C583.473 26.2847 583.937 24.7647 583.937 23.2927C583.937 21.9167 583.553 20.7007 582.785 19.6447C582.049 18.5887 580.817 18.0607 579.089 18.0607C577.329 18.0607 576.001 18.6367 575.105 19.7887C574.209 20.9407 573.761 22.3327 573.761 23.9647H567.809C567.873 21.5007 568.417 19.4527 569.441 17.8207C570.465 16.1567 571.825 14.9247 573.521 14.1247C575.217 13.2927 577.121 12.8767 579.233 12.8767C582.657 12.8767 585.313 13.8207 587.201 15.7087C589.121 17.5647 590.081 19.9807 590.081 22.9567C590.081 24.8127 589.649 26.6207 588.785 28.3807C587.953 30.1407 586.849 31.8367 585.473 33.4687C584.097 35.1007 582.609 36.6367 581.009 38.0767C579.409 39.4847 577.857 40.7967 576.353 42.0127H590.897V47.0527H567.761ZM606.99 47.6287C604.782 47.6287 602.782 47.2447 600.99 46.4767C599.198 45.6767 597.758 44.4607 596.67 42.8287C595.582 41.1967 595.006 39.1487 594.942 36.6847H600.99C601.022 38.3167 601.55 39.6927 602.574 40.8127C603.63 41.9007 605.102 42.4447 606.99 42.4447C608.782 42.4447 610.158 41.9487 611.118 40.9567C612.078 39.9647 612.558 38.7167 612.558 37.2127C612.558 35.4527 611.918 34.1247 610.638 33.2287C609.39 32.3007 607.774 31.8367 605.79 31.8367H603.294V26.7967H605.838C607.47 26.7967 608.83 26.4127 609.918 25.6447C611.006 24.8767 611.55 23.7407 611.55 22.2367C611.55 20.9887 611.134 19.9967 610.302 19.2607C609.502 18.4927 608.382 18.1087 606.942 18.1087C605.374 18.1087 604.142 18.5727 603.246 19.5007C602.382 20.4287 601.902 21.5647 601.806 22.9087H595.806C595.934 19.8047 597.006 17.3567 599.022 15.5647C601.07 13.7727 603.71 12.8767 606.942 12.8767C609.246 12.8767 611.182 13.2927 612.75 14.1247C614.35 14.9247 615.55 15.9967 616.35 17.3407C617.182 18.6847 617.598 20.1727 617.598 21.8047C617.598 23.6927 617.07 25.2927 616.014 26.6047C614.99 27.8847 613.71 28.7487 612.174 29.1967C614.062 29.5807 615.598 30.5087 616.782 31.9807C617.966 33.4207 618.558 35.2447 618.558 37.4527C618.558 39.3087 618.11 41.0047 617.214 42.5407C616.318 44.0767 615.006 45.3087 613.278 46.2367C611.582 47.1647 609.486 47.6287 606.99 47.6287Z" fill="white"/>
<path d="M665.44 47.0527H658.192V18.8287H649.792C649.6 20.3007 649.392 21.9007 649.168 23.6287C648.976 25.3567 648.752 27.1167 648.496 28.9087C648.272 30.6687 648.032 32.3487 647.776 33.9487C647.52 35.5167 647.264 36.9087 647.008 38.1247C646.592 40.1087 646.032 41.8047 645.328 43.2127C644.656 44.6207 643.712 45.6927 642.496 46.4287C641.312 47.1647 639.76 47.5327 637.84 47.5327C637.2 47.5327 636.592 47.4847 636.016 47.3887C635.44 47.2927 634.896 47.1647 634.384 47.0047V41.0527C634.8 41.1807 635.2 41.2927 635.584 41.3887C636 41.4847 636.448 41.5327 636.928 41.5327C637.568 41.5327 638.096 41.3247 638.512 40.9087C638.928 40.4927 639.296 39.7887 639.616 38.7967C639.936 37.7727 640.256 36.3647 640.576 34.5727C640.736 33.8047 640.928 32.7167 641.152 31.3087C641.376 29.8687 641.632 28.1887 641.92 26.2687C642.24 24.3167 642.56 22.2047 642.88 19.9327C643.2 17.6287 643.504 15.2447 643.792 12.7807H665.44V47.0527ZM693.814 47.0527H674.086V12.7807H693.814V18.7327H681.334V26.2687H692.95V32.2207H681.334V41.0527H693.814V47.0527ZM714.145 47.0527H706.897V18.8287H697.585V12.7807H723.457V18.8287H714.145V47.0527ZM756.822 47.0527H749.574V32.2687H735.99V47.0527H728.742V12.7807H735.99V26.2207H749.574V12.7807H756.822V47.0527ZM776.965 33.9007L768.949 47.0527H760.885L770.629 31.9807C769.701 31.5967 768.773 31.0367 767.845 30.3007C766.917 29.5327 766.149 28.5247 765.541 27.2767C764.933 25.9967 764.629 24.4287 764.629 22.5727C764.629 19.4047 765.765 16.9887 768.037 15.3247C770.309 13.6287 773.493 12.7807 777.589 12.7807H788.725V47.0527H781.477V33.9007H776.965ZM777.877 18.7327C776.629 18.7327 775.557 18.8767 774.661 19.1647C773.797 19.4527 773.125 19.9167 772.645 20.5567C772.197 21.1967 771.973 22.0447 771.973 23.1007C771.973 24.6047 772.469 25.8047 773.461 26.7007C774.485 27.5647 776.021 27.9967 778.069 27.9967H781.477V18.7327H777.877ZM808.887 33.9007L800.871 47.0527H792.807L802.551 31.9807C801.623 31.5967 800.695 31.0367 799.767 30.3007C798.839 29.5327 798.071 28.5247 797.463 27.2767C796.855 25.9967 796.551 24.4287 796.551 22.5727C796.551 19.4047 797.687 16.9887 799.959 15.3247C802.231 13.6287 805.415 12.7807 809.511 12.7807H820.647V47.0527H813.399V33.9007H808.887ZM809.799 18.7327C808.551 18.7327 807.479 18.8767 806.583 19.1647C805.719 19.4527 805.047 19.9167 804.567 20.5567C804.119 21.1967 803.895 22.0447 803.895 23.1007C803.895 24.6047 804.391 25.8047 805.383 26.7007C806.407 27.5647 807.943 27.9967 809.991 27.9967H813.399V18.7327H809.799ZM883.83 47.0527H840.726V12.7807H847.974V41.0047H858.63V12.7807H865.926V41.0047H876.582V12.7807H883.83V47.0527ZM920.412 47.0527H912.156L899.724 29.6767V47.0527H892.476V12.7807H899.724V29.3887L912.012 12.7807H919.74L907.26 29.2447L920.412 47.0527ZM954.893 29.8687C954.893 32.5247 954.557 34.9407 953.885 37.1167C953.245 39.2607 952.253 41.1167 950.909 42.6847C949.597 44.2527 947.901 45.4527 945.821 46.2847C943.773 47.1167 941.357 47.5327 938.573 47.5327C935.789 47.5327 933.357 47.1167 931.277 46.2847C929.229 45.4207 927.533 44.2207 926.189 42.6847C924.877 41.1167 923.885 39.2447 923.213 37.0687C922.573 34.8927 922.253 32.4767 922.253 29.8207C922.253 26.2687 922.829 23.1807 923.981 20.5567C925.165 17.9327 926.957 15.9007 929.357 14.4607C931.789 12.9887 934.877 12.2527 938.621 12.2527C942.333 12.2527 945.389 12.9887 947.789 14.4607C950.189 15.9007 951.965 17.9487 953.117 20.6047C954.301 23.2287 954.893 26.3167 954.893 29.8687ZM929.885 29.8687C929.885 32.2687 930.189 34.3327 930.797 36.0607C931.405 37.7887 932.349 39.1167 933.629 40.0447C934.909 40.9727 936.557 41.4367 938.573 41.4367C940.653 41.4367 942.317 40.9727 943.565 40.0447C944.845 39.1167 945.773 37.7887 946.349 36.0607C946.957 34.3327 947.261 32.2687 947.261 29.8687C947.261 26.2527 946.589 23.4207 945.245 21.3727C943.901 19.3247 941.693 18.3007 938.621 18.3007C936.573 18.3007 934.909 18.7647 933.629 19.6927C932.349 20.6207 931.405 21.9487 930.797 23.6767C930.189 25.4047 929.885 27.4687 929.885 29.8687ZM988.174 47.0527H980.926V18.8287H972.526C972.334 20.3007 972.126 21.9007 971.902 23.6287C971.71 25.3567 971.486 27.1167 971.23 28.9087C971.006 30.6687 970.766 32.3487 970.51 33.9487C970.254 35.5167 969.998 36.9087 969.742 38.1247C969.326 40.1087 968.766 41.8047 968.062 43.2127C967.39 44.6207 966.446 45.6927 965.23 46.4287C964.046 47.1647 962.494 47.5327 960.574 47.5327C959.934 47.5327 959.326 47.4847 958.75 47.3887C958.174 47.2927 957.63 47.1647 957.118 47.0047V41.0527C957.534 41.1807 957.934 41.2927 958.318 41.3887C958.734 41.4847 959.182 41.5327 959.662 41.5327C960.302 41.5327 960.83 41.3247 961.246 40.9087C961.662 40.4927 962.03 39.7887 962.35 38.7967C962.67 37.7727 962.99 36.3647 963.31 34.5727C963.47 33.8047 963.662 32.7167 963.886 31.3087C964.11 29.8687 964.366 28.1887 964.654 26.2687C964.974 24.3167 965.294 22.2047 965.614 19.9327C965.934 17.6287 966.238 15.2447 966.526 12.7807H988.174V47.0527ZM1017.8 47.0527L1015.3 38.8927H1002.82L1000.32 47.0527H992.5L1004.6 12.6367H1013.48L1025.62 47.0527H1017.8ZM1011.08 24.8287C1010.92 24.2847 1010.71 23.5967 1010.45 22.7647C1010.2 21.9327 1009.94 21.0847 1009.68 20.2207C1009.43 19.3567 1009.22 18.6047 1009.06 17.9647C1008.9 18.6047 1008.68 19.4047 1008.39 20.3647C1008.13 21.2927 1007.88 22.1887 1007.62 23.0527C1007.4 23.8847 1007.22 24.4767 1007.09 24.8287L1004.64 32.7967H1013.57L1011.08 24.8287ZM1055.56 47.6287C1052.17 47.6287 1049.25 46.9087 1046.82 45.4687C1044.39 43.9967 1042.52 41.9647 1041.21 39.3727C1039.89 36.7487 1039.24 33.7247 1039.24 30.3007C1039.24 26.8767 1039.89 23.8527 1041.21 21.2287C1042.52 18.6047 1044.39 16.5567 1046.82 15.0847C1049.25 13.6127 1052.17 12.8767 1055.56 12.8767C1059.59 12.8767 1062.89 13.8847 1065.45 15.9007C1068.04 17.8847 1069.65 20.6847 1070.29 24.3007H1063.53C1063.11 22.4767 1062.21 21.0527 1060.84 20.0287C1059.49 18.9727 1057.7 18.4447 1055.46 18.4447C1052.36 18.4447 1049.93 19.5007 1048.17 21.6127C1046.41 23.7247 1045.53 26.6207 1045.53 30.3007C1045.53 33.9807 1046.41 36.8767 1048.17 38.9887C1049.93 41.0687 1052.36 42.1087 1055.46 42.1087C1057.7 42.1087 1059.49 41.6287 1060.84 40.6687C1062.21 39.6767 1063.11 38.3167 1063.53 36.5887H1070.29C1069.65 40.0447 1068.04 42.7487 1065.45 44.7007C1062.89 46.6527 1059.59 47.6287 1055.56 47.6287ZM1083.13 47.0527V18.3967H1073.34V13.4527H1099.12V18.3967H1089.28V47.0527H1083.13ZM1103.67 47.0527V13.4527H1125.37V18.3967H1109.81V27.8047H1122.39V32.6527H1109.81V47.0527H1103.67ZM1140.73 47.0527V42.5887C1142.78 40.8927 1144.76 39.2127 1146.68 37.5487C1148.63 35.8847 1150.36 34.2367 1151.87 32.6047C1153.4 30.9727 1154.62 29.3887 1155.51 27.8527C1156.44 26.2847 1156.91 24.7647 1156.91 23.2927C1156.91 21.9167 1156.52 20.7007 1155.75 19.6447C1155.02 18.5887 1153.79 18.0607 1152.06 18.0607C1150.3 18.0607 1148.97 18.6367 1148.07 19.7887C1147.18 20.9407 1146.73 22.3327 1146.73 23.9647H1140.78C1140.84 21.5007 1141.39 19.4527 1142.41 17.8207C1143.43 16.1567 1144.79 14.9247 1146.49 14.1247C1148.19 13.2927 1150.09 12.8767 1152.2 12.8767C1155.63 12.8767 1158.28 13.8207 1160.17 15.7087C1162.09 17.5647 1163.05 19.9807 1163.05 22.9567C1163.05 24.8127 1162.62 26.6207 1161.75 28.3807C1160.92 30.1407 1159.82 31.8367 1158.44 33.4687C1157.07 35.1007 1155.58 36.6367 1153.98 38.0767C1152.38 39.4847 1150.83 40.7967 1149.32 42.0127H1163.87V47.0527H1140.73ZM1182.51 47.6287C1179.4 47.6287 1176.75 46.9087 1174.54 45.4687C1172.33 43.9967 1170.62 41.9647 1169.4 39.3727C1168.22 36.7487 1167.63 33.7087 1167.63 30.2527C1167.63 26.8287 1168.22 23.8047 1169.4 21.1807C1170.62 18.5567 1172.33 16.5247 1174.54 15.0847C1176.75 13.6127 1179.4 12.8767 1182.51 12.8767C1185.61 12.8767 1188.27 13.6127 1190.48 15.0847C1192.68 16.5247 1194.38 18.5567 1195.56 21.1807C1196.78 23.8047 1197.39 26.8287 1197.39 30.2527C1197.39 33.7087 1196.78 36.7487 1195.56 39.3727C1194.38 41.9647 1192.68 43.9967 1190.48 45.4687C1188.27 46.9087 1185.61 47.6287 1182.51 47.6287ZM1182.51 42.1087C1185.04 42.1087 1187.1 41.0527 1188.7 38.9407C1190.3 36.8287 1191.1 33.9327 1191.1 30.2527C1191.1 26.5727 1190.3 23.6767 1188.7 21.5647C1187.1 19.4527 1185.04 18.3967 1182.51 18.3967C1179.95 18.3967 1177.87 19.4527 1176.27 21.5647C1174.7 23.6767 1173.92 26.5727 1173.92 30.2527C1173.92 33.9327 1174.7 36.8287 1176.27 38.9407C1177.87 41.0527 1179.95 42.1087 1182.51 42.1087ZM1201.76 47.0527V42.5887C1203.81 40.8927 1205.79 39.2127 1207.71 37.5487C1209.66 35.8847 1211.39 34.2367 1212.9 32.6047C1214.43 30.9727 1215.65 29.3887 1216.54 27.8527C1217.47 26.2847 1217.94 24.7647 1217.94 23.2927C1217.94 21.9167 1217.55 20.7007 1216.78 19.6447C1216.05 18.5887 1214.82 18.0607 1213.09 18.0607C1211.33 18.0607 1210 18.6367 1209.1 19.7887C1208.21 20.9407 1207.76 22.3327 1207.76 23.9647H1201.81C1201.87 21.5007 1202.42 19.4527 1203.44 17.8207C1204.46 16.1567 1205.82 14.9247 1207.52 14.1247C1209.22 13.2927 1211.12 12.8767 1213.23 12.8767C1216.66 12.8767 1219.31 13.8207 1221.2 15.7087C1223.12 17.5647 1224.08 19.9807 1224.08 22.9567C1224.08 24.8127 1223.65 26.6207 1222.78 28.3807C1221.95 30.1407 1220.85 31.8367 1219.47 33.4687C1218.1 35.1007 1216.61 36.6367 1215.01 38.0767C1213.41 39.4847 1211.86 40.7967 1210.35 42.0127H1224.9V47.0527H1201.76ZM1240.99 47.6287C1238.78 47.6287 1236.78 47.2447 1234.99 46.4767C1233.2 45.6767 1231.76 44.4607 1230.67 42.8287C1229.58 41.1967 1229.01 39.1487 1228.94 36.6847H1234.99C1235.02 38.3167 1235.55 39.6927 1236.57 40.8127C1237.63 41.9007 1239.1 42.4447 1240.99 42.4447C1242.78 42.4447 1244.16 41.9487 1245.12 40.9567C1246.08 39.9647 1246.56 38.7167 1246.56 37.2127C1246.56 35.4527 1245.92 34.1247 1244.64 33.2287C1243.39 32.3007 1241.77 31.8367 1239.79 31.8367H1237.29V26.7967H1239.84C1241.47 26.7967 1242.83 26.4127 1243.92 25.6447C1245.01 24.8767 1245.55 23.7407 1245.55 22.2367C1245.55 20.9887 1245.13 19.9967 1244.3 19.2607C1243.5 18.4927 1242.38 18.1087 1240.94 18.1087C1239.37 18.1087 1238.14 18.5727 1237.25 19.5007C1236.38 20.4287 1235.9 21.5647 1235.81 22.9087H1229.81C1229.93 19.8047 1231.01 17.3567 1233.02 15.5647C1235.07 13.7727 1237.71 12.8767 1240.94 12.8767C1243.25 12.8767 1245.18 13.2927 1246.75 14.1247C1248.35 14.9247 1249.55 15.9967 1250.35 17.3407C1251.18 18.6847 1251.6 20.1727 1251.6 21.8047C1251.6 23.6927 1251.07 25.2927 1250.01 26.6047C1248.99 27.8847 1247.71 28.7487 1246.17 29.1967C1248.06 29.5807 1249.6 30.5087 1250.78 31.9807C1251.97 33.4207 1252.56 35.2447 1252.56 37.4527C1252.56 39.3087 1252.11 41.0047 1251.21 42.5407C1250.32 44.0767 1249.01 45.3087 1247.28 46.2367C1245.58 47.1647 1243.49 47.6287 1240.99 47.6287Z" fill="white"/>
<path d="M1299.44 47.0527H1292.19V18.8287H1283.79C1283.6 20.3007 1283.39 21.9007 1283.17 23.6287C1282.98 25.3567 1282.75 27.1167 1282.5 28.9087C1282.27 30.6687 1282.03 32.3487 1281.78 33.9487C1281.52 35.5167 1281.26 36.9087 1281.01 38.1247C1280.59 40.1087 1280.03 41.8047 1279.33 43.2127C1278.66 44.6207 1277.71 45.6927 1276.5 46.4287C1275.31 47.1647 1273.76 47.5327 1271.84 47.5327C1271.2 47.5327 1270.59 47.4847 1270.02 47.3887C1269.44 47.2927 1268.9 47.1647 1268.38 47.0047V41.0527C1268.8 41.1807 1269.2 41.2927 1269.58 41.3887C1270 41.4847 1270.45 41.5327 1270.93 41.5327C1271.57 41.5327 1272.1 41.3247 1272.51 40.9087C1272.93 40.4927 1273.3 39.7887 1273.62 38.7967C1273.94 37.7727 1274.26 36.3647 1274.58 34.5727C1274.74 33.8047 1274.93 32.7167 1275.15 31.3087C1275.38 29.8687 1275.63 28.1887 1275.92 26.2687C1276.24 24.3167 1276.56 22.2047 1276.88 19.9327C1277.2 17.6287 1277.5 15.2447 1277.79 12.7807H1299.44V47.0527ZM1327.81 47.0527H1308.09V12.7807H1327.81V18.7327H1315.33V26.2687H1326.95V32.2207H1315.33V41.0527H1327.81V47.0527ZM1348.15 47.0527H1340.9V18.8287H1331.59V12.7807H1357.46V18.8287H1348.15V47.0527ZM1390.82 47.0527H1383.57V32.2687H1369.99V47.0527H1362.74V12.7807H1369.99V26.2207H1383.57V12.7807H1390.82V47.0527ZM1410.97 33.9007L1402.95 47.0527H1394.88L1404.63 31.9807C1403.7 31.5967 1402.77 31.0367 1401.85 30.3007C1400.92 29.5327 1400.15 28.5247 1399.54 27.2767C1398.93 25.9967 1398.63 24.4287 1398.63 22.5727C1398.63 19.4047 1399.77 16.9887 1402.04 15.3247C1404.31 13.6287 1407.49 12.7807 1411.59 12.7807H1422.73V47.0527H1415.48V33.9007H1410.97ZM1411.88 18.7327C1410.63 18.7327 1409.56 18.8767 1408.66 19.1647C1407.8 19.4527 1407.13 19.9167 1406.65 20.5567C1406.2 21.1967 1405.97 22.0447 1405.97 23.1007C1405.97 24.6047 1406.47 25.8047 1407.46 26.7007C1408.49 27.5647 1410.02 27.9967 1412.07 27.9967H1415.48V18.7327H1411.88ZM1442.89 33.9007L1434.87 47.0527H1426.81L1436.55 31.9807C1435.62 31.5967 1434.69 31.0367 1433.77 30.3007C1432.84 29.5327 1432.07 28.5247 1431.46 27.2767C1430.85 25.9967 1430.55 24.4287 1430.55 22.5727C1430.55 19.4047 1431.69 16.9887 1433.96 15.3247C1436.23 13.6287 1439.41 12.7807 1443.51 12.7807H1454.65V47.0527H1447.4V33.9007H1442.89ZM1443.8 18.7327C1442.55 18.7327 1441.48 18.8767 1440.58 19.1647C1439.72 19.4527 1439.05 19.9167 1438.57 20.5567C1438.12 21.1967 1437.89 22.0447 1437.89 23.1007C1437.89 24.6047 1438.39 25.8047 1439.38 26.7007C1440.41 27.5647 1441.94 27.9967 1443.99 27.9967H1447.4V18.7327H1443.8ZM1517.83 47.0527H1474.73V12.7807H1481.97V41.0047H1492.63V12.7807H1499.93V41.0047H1510.58V12.7807H1517.83V47.0527ZM1554.41 47.0527H1546.16L1533.72 29.6767V47.0527H1526.48V12.7807H1533.72V29.3887L1546.01 12.7807H1553.74L1541.26 29.2447L1554.41 47.0527ZM1588.89 29.8687C1588.89 32.5247 1588.56 34.9407 1587.88 37.1167C1587.24 39.2607 1586.25 41.1167 1584.91 42.6847C1583.6 44.2527 1581.9 45.4527 1579.82 46.2847C1577.77 47.1167 1575.36 47.5327 1572.57 47.5327C1569.79 47.5327 1567.36 47.1167 1565.28 46.2847C1563.23 45.4207 1561.53 44.2207 1560.19 42.6847C1558.88 41.1167 1557.88 39.2447 1557.21 37.0687C1556.57 34.8927 1556.25 32.4767 1556.25 29.8207C1556.25 26.2687 1556.83 23.1807 1557.98 20.5567C1559.16 17.9327 1560.96 15.9007 1563.36 14.4607C1565.79 12.9887 1568.88 12.2527 1572.62 12.2527C1576.33 12.2527 1579.39 12.9887 1581.79 14.4607C1584.19 15.9007 1585.96 17.9487 1587.12 20.6047C1588.3 23.2287 1588.89 26.3167 1588.89 29.8687ZM1563.88 29.8687C1563.88 32.2687 1564.19 34.3327 1564.8 36.0607C1565.4 37.7887 1566.35 39.1167 1567.63 40.0447C1568.91 40.9727 1570.56 41.4367 1572.57 41.4367C1574.65 41.4367 1576.32 40.9727 1577.56 40.0447C1578.84 39.1167 1579.77 37.7887 1580.35 36.0607C1580.96 34.3327 1581.26 32.2687 1581.26 29.8687C1581.26 26.2527 1580.59 23.4207 1579.24 21.3727C1577.9 19.3247 1575.69 18.3007 1572.62 18.3007C1570.57 18.3007 1568.91 18.7647 1567.63 19.6927C1566.35 20.6207 1565.4 21.9487 1564.8 23.6767C1564.19 25.4047 1563.88 27.4687 1563.88 29.8687ZM1622.17 47.0527H1614.93V18.8287H1606.53C1606.33 20.3007 1606.13 21.9007 1605.9 23.6287C1605.71 25.3567 1605.49 27.1167 1605.23 28.9087C1605.01 30.6687 1604.77 32.3487 1604.51 33.9487C1604.25 35.5167 1604 36.9087 1603.74 38.1247C1603.33 40.1087 1602.77 41.8047 1602.06 43.2127C1601.39 44.6207 1600.45 45.6927 1599.23 46.4287C1598.05 47.1647 1596.49 47.5327 1594.57 47.5327C1593.93 47.5327 1593.33 47.4847 1592.75 47.3887C1592.17 47.2927 1591.63 47.1647 1591.12 47.0047V41.0527C1591.53 41.1807 1591.93 41.2927 1592.32 41.3887C1592.73 41.4847 1593.18 41.5327 1593.66 41.5327C1594.3 41.5327 1594.83 41.3247 1595.25 40.9087C1595.66 40.4927 1596.03 39.7887 1596.35 38.7967C1596.67 37.7727 1596.99 36.3647 1597.31 34.5727C1597.47 33.8047 1597.66 32.7167 1597.89 31.3087C1598.11 29.8687 1598.37 28.1887 1598.65 26.2687C1598.97 24.3167 1599.29 22.2047 1599.61 19.9327C1599.93 17.6287 1600.24 15.2447 1600.53 12.7807H1622.17V47.0527ZM1651.8 47.0527L1649.3 38.8927H1636.82L1634.32 47.0527H1626.5L1638.6 12.6367H1647.48L1659.62 47.0527H1651.8ZM1645.08 24.8287C1644.92 24.2847 1644.71 23.5967 1644.45 22.7647C1644.2 21.9327 1643.94 21.0847 1643.68 20.2207C1643.43 19.3567 1643.22 18.6047 1643.06 17.9647C1642.9 18.6047 1642.68 19.4047 1642.39 20.3647C1642.13 21.2927 1641.88 22.1887 1641.62 23.0527C1641.4 23.8847 1641.22 24.4767 1641.09 24.8287L1638.64 32.7967H1647.57L1645.08 24.8287ZM1689.56 47.6287C1686.17 47.6287 1683.25 46.9087 1680.82 45.4687C1678.39 43.9967 1676.52 41.9647 1675.21 39.3727C1673.89 36.7487 1673.24 33.7247 1673.24 30.3007C1673.24 26.8767 1673.89 23.8527 1675.21 21.2287C1676.52 18.6047 1678.39 16.5567 1680.82 15.0847C1683.25 13.6127 1686.17 12.8767 1689.56 12.8767C1693.59 12.8767 1696.89 13.8847 1699.45 15.9007C1702.04 17.8847 1703.65 20.6847 1704.29 24.3007H1697.53C1697.11 22.4767 1696.21 21.0527 1694.84 20.0287C1693.49 18.9727 1691.7 18.4447 1689.46 18.4447C1686.36 18.4447 1683.93 19.5007 1682.17 21.6127C1680.41 23.7247 1679.53 26.6207 1679.53 30.3007C1679.53 33.9807 1680.41 36.8767 1682.17 38.9887C1683.93 41.0687 1686.36 42.1087 1689.46 42.1087C1691.7 42.1087 1693.49 41.6287 1694.84 40.6687C1696.21 39.6767 1697.11 38.3167 1697.53 36.5887H1704.29C1703.65 40.0447 1702.04 42.7487 1699.45 44.7007C1696.89 46.6527 1693.59 47.6287 1689.56 47.6287ZM1717.13 47.0527V18.3967H1707.34V13.4527H1733.12V18.3967H1723.28V47.0527H1717.13ZM1737.67 47.0527V13.4527H1759.37V18.3967H1743.81V27.8047H1756.39V32.6527H1743.81V47.0527H1737.67ZM1774.73 47.0527V42.5887C1776.78 40.8927 1778.76 39.2127 1780.68 37.5487C1782.63 35.8847 1784.36 34.2367 1785.87 32.6047C1787.4 30.9727 1788.62 29.3887 1789.51 27.8527C1790.44 26.2847 1790.91 24.7647 1790.91 23.2927C1790.91 21.9167 1790.52 20.7007 1789.75 19.6447C1789.02 18.5887 1787.79 18.0607 1786.06 18.0607C1784.3 18.0607 1782.97 18.6367 1782.07 19.7887C1781.18 20.9407 1780.73 22.3327 1780.73 23.9647H1774.78C1774.84 21.5007 1775.39 19.4527 1776.41 17.8207C1777.43 16.1567 1778.79 14.9247 1780.49 14.1247C1782.19 13.2927 1784.09 12.8767 1786.2 12.8767C1789.63 12.8767 1792.28 13.8207 1794.17 15.7087C1796.09 17.5647 1797.05 19.9807 1797.05 22.9567C1797.05 24.8127 1796.62 26.6207 1795.75 28.3807C1794.92 30.1407 1793.82 31.8367 1792.44 33.4687C1791.07 35.1007 1789.58 36.6367 1787.98 38.0767C1786.38 39.4847 1784.83 40.7967 1783.32 42.0127H1797.87V47.0527H1774.73ZM1816.51 47.6287C1813.4 47.6287 1810.75 46.9087 1808.54 45.4687C1806.33 43.9967 1804.62 41.9647 1803.4 39.3727C1802.22 36.7487 1801.63 33.7087 1801.63 30.2527C1801.63 26.8287 1802.22 23.8047 1803.4 21.1807C1804.62 18.5567 1806.33 16.5247 1808.54 15.0847C1810.75 13.6127 1813.4 12.8767 1816.51 12.8767C1819.61 12.8767 1822.27 13.6127 1824.48 15.0847C1826.68 16.5247 1828.38 18.5567 1829.56 21.1807C1830.78 23.8047 1831.39 26.8287 1831.39 30.2527C1831.39 33.7087 1830.78 36.7487 1829.56 39.3727C1828.38 41.9647 1826.68 43.9967 1824.48 45.4687C1822.27 46.9087 1819.61 47.6287 1816.51 47.6287ZM1816.51 42.1087C1819.04 42.1087 1821.1 41.0527 1822.7 38.9407C1824.3 36.8287 1825.1 33.9327 1825.1 30.2527C1825.1 26.5727 1824.3 23.6767 1822.7 21.5647C1821.1 19.4527 1819.04 18.3967 1816.51 18.3967C1813.95 18.3967 1811.87 19.4527 1810.27 21.5647C1808.7 23.6767 1807.92 26.5727 1807.92 30.2527C1807.92 33.9327 1808.7 36.8287 1810.27 38.9407C1811.87 41.0527 1813.95 42.1087 1816.51 42.1087ZM1835.76 47.0527V42.5887C1837.81 40.8927 1839.79 39.2127 1841.71 37.5487C1843.66 35.8847 1845.39 34.2367 1846.9 32.6047C1848.43 30.9727 1849.65 29.3887 1850.54 27.8527C1851.47 26.2847 1851.94 24.7647 1851.94 23.2927C1851.94 21.9167 1851.55 20.7007 1850.78 19.6447C1850.05 18.5887 1848.82 18.0607 1847.09 18.0607C1845.33 18.0607 1844 18.6367 1843.1 19.7887C1842.21 20.9407 1841.76 22.3327 1841.76 23.9647H1835.81C1835.87 21.5007 1836.42 19.4527 1837.44 17.8207C1838.46 16.1567 1839.82 14.9247 1841.52 14.1247C1843.22 13.2927 1845.12 12.8767 1847.23 12.8767C1850.66 12.8767 1853.31 13.8207 1855.2 15.7087C1857.12 17.5647 1858.08 19.9807 1858.08 22.9567C1858.08 24.8127 1857.65 26.6207 1856.78 28.3807C1855.95 30.1407 1854.85 31.8367 1853.47 33.4687C1852.1 35.1007 1850.61 36.6367 1849.01 38.0767C1847.41 39.4847 1845.86 40.7967 1844.35 42.0127H1858.9V47.0527H1835.76ZM1874.99 47.6287C1872.78 47.6287 1870.78 47.2447 1868.99 46.4767C1867.2 45.6767 1865.76 44.4607 1864.67 42.8287C1863.58 41.1967 1863.01 39.1487 1862.94 36.6847H1868.99C1869.02 38.3167 1869.55 39.6927 1870.57 40.8127C1871.63 41.9007 1873.1 42.4447 1874.99 42.4447C1876.78 42.4447 1878.16 41.9487 1879.12 40.9567C1880.08 39.9647 1880.56 38.7167 1880.56 37.2127C1880.56 35.4527 1879.92 34.1247 1878.64 33.2287C1877.39 32.3007 1875.77 31.8367 1873.79 31.8367H1871.29V26.7967H1873.84C1875.47 26.7967 1876.83 26.4127 1877.92 25.6447C1879.01 24.8767 1879.55 23.7407 1879.55 22.2367C1879.55 20.9887 1879.13 19.9967 1878.3 19.2607C1877.5 18.4927 1876.38 18.1087 1874.94 18.1087C1873.37 18.1087 1872.14 18.5727 1871.25 19.5007C1870.38 20.4287 1869.9 21.5647 1869.81 22.9087H1863.81C1863.93 19.8047 1865.01 17.3567 1867.02 15.5647C1869.07 13.7727 1871.71 12.8767 1874.94 12.8767C1877.25 12.8767 1879.18 13.2927 1880.75 14.1247C1882.35 14.9247 1883.55 15.9967 1884.35 17.3407C1885.18 18.6847 1885.6 20.1727 1885.6 21.8047C1885.6 23.6927 1885.07 25.2927 1884.01 26.6047C1882.99 27.8847 1881.71 28.7487 1880.17 29.1967C1882.06 29.5807 1883.6 30.5087 1884.78 31.9807C1885.97 33.4207 1886.56 35.2447 1886.56 37.4527C1886.56 39.3087 1886.11 41.0047 1885.21 42.5407C1884.32 44.0767 1883.01 45.3087 1881.28 46.2367C1879.58 47.1647 1877.49 47.6287 1874.99 47.6287Z" fill="white"/>
<path d="M1924.44 47.0527H1917.19V18.8287H1908.79C1908.6 20.3007 1908.39 21.9007 1908.17 23.6287C1907.98 25.3567 1907.75 27.1167 1907.5 28.9087C1907.27 30.6687 1907.03 32.3487 1906.78 33.9487C1906.52 35.5167 1906.26 36.9087 1906.01 38.1247C1905.59 40.1087 1905.03 41.8047 1904.33 43.2127C1903.66 44.6207 1902.71 45.6927 1901.5 46.4287C1900.31 47.1647 1898.76 47.5327 1896.84 47.5327C1896.2 47.5327 1895.59 47.4847 1895.02 47.3887C1894.44 47.2927 1893.9 47.1647 1893.38 47.0047V41.0527C1893.8 41.1807 1894.2 41.2927 1894.58 41.3887C1895 41.4847 1895.45 41.5327 1895.93 41.5327C1896.57 41.5327 1897.1 41.3247 1897.51 40.9087C1897.93 40.4927 1898.3 39.7887 1898.62 38.7967C1898.94 37.7727 1899.26 36.3647 1899.58 34.5727C1899.74 33.8047 1899.93 32.7167 1900.15 31.3087C1900.38 29.8687 1900.63 28.1887 1900.92 26.2687C1901.24 24.3167 1901.56 22.2047 1901.88 19.9327C1902.2 17.6287 1902.5 15.2447 1902.79 12.7807H1924.44V47.0527ZM1952.81 47.0527H1933.09V12.7807H1952.81V18.7327H1940.33V26.2687H1951.95V32.2207H1940.33V41.0527H1952.81V47.0527ZM1973.15 47.0527H1965.9V18.8287H1956.59V12.7807H1982.46V18.8287H1973.15V47.0527ZM2015.82 47.0527H2008.57V32.2687H1994.99V47.0527H1987.74V12.7807H1994.99V26.2207H2008.57V12.7807H2015.82V47.0527ZM2035.97 33.9007L2027.95 47.0527H2019.88L2029.63 31.9807C2028.7 31.5967 2027.77 31.0367 2026.85 30.3007C2025.92 29.5327 2025.15 28.5247 2024.54 27.2767C2023.93 25.9967 2023.63 24.4287 2023.63 22.5727C2023.63 19.4047 2024.77 16.9887 2027.04 15.3247C2029.31 13.6287 2032.49 12.7807 2036.59 12.7807H2047.73V47.0527H2040.48V33.9007H2035.97ZM2036.88 18.7327C2035.63 18.7327 2034.56 18.8767 2033.66 19.1647C2032.8 19.4527 2032.13 19.9167 2031.65 20.5567C2031.2 21.1967 2030.97 22.0447 2030.97 23.1007C2030.97 24.6047 2031.47 25.8047 2032.46 26.7007C2033.49 27.5647 2035.02 27.9967 2037.07 27.9967H2040.48V18.7327H2036.88ZM2067.89 33.9007L2059.87 47.0527H2051.81L2061.55 31.9807C2060.62 31.5967 2059.69 31.0367 2058.77 30.3007C2057.84 29.5327 2057.07 28.5247 2056.46 27.2767C2055.85 25.9967 2055.55 24.4287 2055.55 22.5727C2055.55 19.4047 2056.69 16.9887 2058.96 15.3247C2061.23 13.6287 2064.41 12.7807 2068.51 12.7807H2079.65V47.0527H2072.4V33.9007H2067.89ZM2068.8 18.7327C2067.55 18.7327 2066.48 18.8767 2065.58 19.1647C2064.72 19.4527 2064.05 19.9167 2063.57 20.5567C2063.12 21.1967 2062.89 22.0447 2062.89 23.1007C2062.89 24.6047 2063.39 25.8047 2064.38 26.7007C2065.41 27.5647 2066.94 27.9967 2068.99 27.9967H2072.4V18.7327H2068.8ZM2142.83 47.0527H2099.73V12.7807H2106.97V41.0047H2117.63V12.7807H2124.93V41.0047H2135.58V12.7807H2142.83V47.0527ZM2179.41 47.0527H2171.16L2158.72 29.6767V47.0527H2151.48V12.7807H2158.72V29.3887L2171.01 12.7807H2178.74L2166.26 29.2447L2179.41 47.0527ZM2213.89 29.8687C2213.89 32.5247 2213.56 34.9407 2212.88 37.1167C2212.24 39.2607 2211.25 41.1167 2209.91 42.6847C2208.6 44.2527 2206.9 45.4527 2204.82 46.2847C2202.77 47.1167 2200.36 47.5327 2197.57 47.5327C2194.79 47.5327 2192.36 47.1167 2190.28 46.2847C2188.23 45.4207 2186.53 44.2207 2185.19 42.6847C2183.88 41.1167 2182.88 39.2447 2182.21 37.0687C2181.57 34.8927 2181.25 32.4767 2181.25 29.8207C2181.25 26.2687 2181.83 23.1807 2182.98 20.5567C2184.16 17.9327 2185.96 15.9007 2188.36 14.4607C2190.79 12.9887 2193.88 12.2527 2197.62 12.2527C2201.33 12.2527 2204.39 12.9887 2206.79 14.4607C2209.19 15.9007 2210.96 17.9487 2212.12 20.6047C2213.3 23.2287 2213.89 26.3167 2213.89 29.8687ZM2188.88 29.8687C2188.88 32.2687 2189.19 34.3327 2189.8 36.0607C2190.4 37.7887 2191.35 39.1167 2192.63 40.0447C2193.91 40.9727 2195.56 41.4367 2197.57 41.4367C2199.65 41.4367 2201.32 40.9727 2202.56 40.0447C2203.84 39.1167 2204.77 37.7887 2205.35 36.0607C2205.96 34.3327 2206.26 32.2687 2206.26 29.8687C2206.26 26.2527 2205.59 23.4207 2204.24 21.3727C2202.9 19.3247 2200.69 18.3007 2197.62 18.3007C2195.57 18.3007 2193.91 18.7647 2192.63 19.6927C2191.35 20.6207 2190.4 21.9487 2189.8 23.6767C2189.19 25.4047 2188.88 27.4687 2188.88 29.8687ZM2247.17 47.0527H2239.93V18.8287H2231.53C2231.33 20.3007 2231.13 21.9007 2230.9 23.6287C2230.71 25.3567 2230.49 27.1167 2230.23 28.9087C2230.01 30.6687 2229.77 32.3487 2229.51 33.9487C2229.25 35.5167 2229 36.9087 2228.74 38.1247C2228.33 40.1087 2227.77 41.8047 2227.06 43.2127C2226.39 44.6207 2225.45 45.6927 2224.23 46.4287C2223.05 47.1647 2221.49 47.5327 2219.57 47.5327C2218.93 47.5327 2218.33 47.4847 2217.75 47.3887C2217.17 47.2927 2216.63 47.1647 2216.12 47.0047V41.0527C2216.53 41.1807 2216.93 41.2927 2217.32 41.3887C2217.73 41.4847 2218.18 41.5327 2218.66 41.5327C2219.3 41.5327 2219.83 41.3247 2220.25 40.9087C2220.66 40.4927 2221.03 39.7887 2221.35 38.7967C2221.67 37.7727 2221.99 36.3647 2222.31 34.5727C2222.47 33.8047 2222.66 32.7167 2222.89 31.3087C2223.11 29.8687 2223.37 28.1887 2223.65 26.2687C2223.97 24.3167 2224.29 22.2047 2224.61 19.9327C2224.93 17.6287 2225.24 15.2447 2225.53 12.7807H2247.17V47.0527ZM2276.8 47.0527L2274.3 38.8927H2261.82L2259.32 47.0527H2251.5L2263.6 12.6367H2272.48L2284.62 47.0527H2276.8ZM2270.08 24.8287C2269.92 24.2847 2269.71 23.5967 2269.45 22.7647C2269.2 21.9327 2268.94 21.0847 2268.68 20.2207C2268.43 19.3567 2268.22 18.6047 2268.06 17.9647C2267.9 18.6047 2267.68 19.4047 2267.39 20.3647C2267.13 21.2927 2266.88 22.1887 2266.62 23.0527C2266.4 23.8847 2266.22 24.4767 2266.09 24.8287L2263.64 32.7967H2272.57L2270.08 24.8287ZM2314.56 47.6287C2311.17 47.6287 2308.25 46.9087 2305.82 45.4687C2303.39 43.9967 2301.52 41.9647 2300.21 39.3727C2298.89 36.7487 2298.24 33.7247 2298.24 30.3007C2298.24 26.8767 2298.89 23.8527 2300.21 21.2287C2301.52 18.6047 2303.39 16.5567 2305.82 15.0847C2308.25 13.6127 2311.17 12.8767 2314.56 12.8767C2318.59 12.8767 2321.89 13.8847 2324.45 15.9007C2327.04 17.8847 2328.65 20.6847 2329.29 24.3007H2322.53C2322.11 22.4767 2321.21 21.0527 2319.84 20.0287C2318.49 18.9727 2316.7 18.4447 2314.46 18.4447C2311.36 18.4447 2308.93 19.5007 2307.17 21.6127C2305.41 23.7247 2304.53 26.6207 2304.53 30.3007C2304.53 33.9807 2305.41 36.8767 2307.17 38.9887C2308.93 41.0687 2311.36 42.1087 2314.46 42.1087C2316.7 42.1087 2318.49 41.6287 2319.84 40.6687C2321.21 39.6767 2322.11 38.3167 2322.53 36.5887H2329.29C2328.65 40.0447 2327.04 42.7487 2324.45 44.7007C2321.89 46.6527 2318.59 47.6287 2314.56 47.6287ZM2342.13 47.0527V18.3967H2332.34V13.4527H2358.12V18.3967H2348.28V47.0527H2342.13ZM2362.67 47.0527V13.4527H2384.37V18.3967H2368.81V27.8047H2381.39V32.6527H2368.81V47.0527H2362.67ZM2399.73 47.0527V42.5887C2401.78 40.8927 2403.76 39.2127 2405.68 37.5487C2407.63 35.8847 2409.36 34.2367 2410.87 32.6047C2412.4 30.9727 2413.62 29.3887 2414.51 27.8527C2415.44 26.2847 2415.91 24.7647 2415.91 23.2927C2415.91 21.9167 2415.52 20.7007 2414.75 19.6447C2414.02 18.5887 2412.79 18.0607 2411.06 18.0607C2409.3 18.0607 2407.97 18.6367 2407.07 19.7887C2406.18 20.9407 2405.73 22.3327 2405.73 23.9647H2399.78C2399.84 21.5007 2400.39 19.4527 2401.41 17.8207C2402.43 16.1567 2403.79 14.9247 2405.49 14.1247C2407.19 13.2927 2409.09 12.8767 2411.2 12.8767C2414.63 12.8767 2417.28 13.8207 2419.17 15.7087C2421.09 17.5647 2422.05 19.9807 2422.05 22.9567C2422.05 24.8127 2421.62 26.6207 2420.75 28.3807C2419.92 30.1407 2418.82 31.8367 2417.44 33.4687C2416.07 35.1007 2414.58 36.6367 2412.98 38.0767C2411.38 39.4847 2409.83 40.7967 2408.32 42.0127H2422.87V47.0527H2399.73ZM2441.51 47.6287C2438.4 47.6287 2435.75 46.9087 2433.54 45.4687C2431.33 43.9967 2429.62 41.9647 2428.4 39.3727C2427.22 36.7487 2426.63 33.7087 2426.63 30.2527C2426.63 26.8287 2427.22 23.8047 2428.4 21.1807C2429.62 18.5567 2431.33 16.5247 2433.54 15.0847C2435.75 13.6127 2438.4 12.8767 2441.51 12.8767C2444.61 12.8767 2447.27 13.6127 2449.48 15.0847C2451.68 16.5247 2453.38 18.5567 2454.56 21.1807C2455.78 23.8047 2456.39 26.8287 2456.39 30.2527C2456.39 33.7087 2455.78 36.7487 2454.56 39.3727C2453.38 41.9647 2451.68 43.9967 2449.48 45.4687C2447.27 46.9087 2444.61 47.6287 2441.51 47.6287ZM2441.51 42.1087C2444.04 42.1087 2446.1 41.0527 2447.7 38.9407C2449.3 36.8287 2450.1 33.9327 2450.1 30.2527C2450.1 26.5727 2449.3 23.6767 2447.7 21.5647C2446.1 19.4527 2444.04 18.3967 2441.51 18.3967C2438.95 18.3967 2436.87 19.4527 2435.27 21.5647C2433.7 23.6767 2432.92 26.5727 2432.92 30.2527C2432.92 33.9327 2433.7 36.8287 2435.27 38.9407C2436.87 41.0527 2438.95 42.1087 2441.51 42.1087ZM2460.76 47.0527V42.5887C2462.81 40.8927 2464.79 39.2127 2466.71 37.5487C2468.66 35.8847 2470.39 34.2367 2471.9 32.6047C2473.43 30.9727 2474.65 29.3887 2475.54 27.8527C2476.47 26.2847 2476.94 24.7647 2476.94 23.2927C2476.94 21.9167 2476.55 20.7007 2475.78 19.6447C2475.05 18.5887 2473.82 18.0607 2472.09 18.0607C2470.33 18.0607 2469 18.6367 2468.1 19.7887C2467.21 20.9407 2466.76 22.3327 2466.76 23.9647H2460.81C2460.87 21.5007 2461.42 19.4527 2462.44 17.8207C2463.46 16.1567 2464.82 14.9247 2466.52 14.1247C2468.22 13.2927 2470.12 12.8767 2472.23 12.8767C2475.66 12.8767 2478.31 13.8207 2480.2 15.7087C2482.12 17.5647 2483.08 19.9807 2483.08 22.9567C2483.08 24.8127 2482.65 26.6207 2481.78 28.3807C2480.95 30.1407 2479.85 31.8367 2478.47 33.4687C2477.1 35.1007 2475.61 36.6367 2474.01 38.0767C2472.41 39.4847 2470.86 40.7967 2469.35 42.0127H2483.9V47.0527H2460.76ZM2499.99 47.6287C2497.78 47.6287 2495.78 47.2447 2493.99 46.4767C2492.2 45.6767 2490.76 44.4607 2489.67 42.8287C2488.58 41.1967 2488.01 39.1487 2487.94 36.6847H2493.99C2494.02 38.3167 2494.55 39.6927 2495.57 40.8127C2496.63 41.9007 2498.1 42.4447 2499.99 42.4447C2501.78 42.4447 2503.16 41.9487 2504.12 40.9567C2505.08 39.9647 2505.56 38.7167 2505.56 37.2127C2505.56 35.4527 2504.92 34.1247 2503.64 33.2287C2502.39 32.3007 2500.77 31.8367 2498.79 31.8367H2496.29V26.7967H2498.84C2500.47 26.7967 2501.83 26.4127 2502.92 25.6447C2504.01 24.8767 2504.55 23.7407 2504.55 22.2367C2504.55 20.9887 2504.13 19.9967 2503.3 19.2607C2502.5 18.4927 2501.38 18.1087 2499.94 18.1087C2498.37 18.1087 2497.14 18.5727 2496.25 19.5007C2495.38 20.4287 2494.9 21.5647 2494.81 22.9087H2488.81C2488.93 19.8047 2490.01 17.3567 2492.02 15.5647C2494.07 13.7727 2496.71 12.8767 2499.94 12.8767C2502.25 12.8767 2504.18 13.2927 2505.75 14.1247C2507.35 14.9247 2508.55 15.9967 2509.35 17.3407C2510.18 18.6847 2510.6 20.1727 2510.6 21.8047C2510.6 23.6927 2510.07 25.2927 2509.01 26.6047C2507.99 27.8847 2506.71 28.7487 2505.17 29.1967C2507.06 29.5807 2508.6 30.5087 2509.78 31.9807C2510.97 33.4207 2511.56 35.2447 2511.56 37.4527C2511.56 39.3087 2511.11 41.0047 2510.21 42.5407C2509.32 44.0767 2508.01 45.3087 2506.28 46.2367C2504.58 47.1647 2502.49 47.6287 2499.99 47.6287Z" fill="white"/>
</svg>
