<svg width="278" height="32" viewBox="0 0 278 32" fill="none" xmlns="http://www.w3.org/2000/svg">
<path d="M16.8849 31.9277C13.6687 31.9277 10.7741 31.2553 8.20122 29.9103C5.65752 28.5361 3.65473 26.6357 2.19284 24.2089C0.730946 21.7822 0 19.0338 0 15.9639C0 12.8939 0.730946 10.1455 2.19284 7.71879C3.65473 5.29205 5.65752 3.40621 8.20122 2.06127C10.7741 0.68709 13.6687 0 16.8849 0C19.6917 0 22.2208 0.497043 24.4721 1.49113C26.7234 2.48522 28.5946 3.91787 30.0857 5.7891L24.5598 10.7888C22.5716 8.39126 20.1595 7.19251 17.3234 7.19251C15.6569 7.19251 14.1657 7.55799 12.85 8.28893C11.5636 9.01988 10.5549 10.0578 9.82392 11.4028C9.12221 12.7185 8.77135 14.2388 8.77135 15.9639C8.77135 17.6889 9.12221 19.2239 9.82392 20.5688C10.5549 21.8845 11.5636 22.9079 12.85 23.6388C14.1657 24.3697 15.6569 24.7352 17.3234 24.7352C20.1595 24.7352 22.5716 23.5365 24.5598 21.139L30.0857 26.1386C28.5946 28.0099 26.7234 29.4425 24.4721 30.4366C22.2208 31.4307 19.6917 31.9277 16.8849 31.9277Z" fill="white"/>
<path d="M40.2352 7.49951H30.806V0.613995H58.3041V7.49951H48.9188V31.3137H40.2352V7.49951Z" fill="white"/>
<path d="M70.2229 7.32408V14.078H83.7747V20.7881H70.2229V31.3137H61.5393V0.613995H85.6166V7.32408H70.2229Z" fill="white"/>
<path fill-rule="evenodd" clip-rule="evenodd" d="M115.047 31.2451L114.972 17.389L108.402 28.3514H103.948L97.4279 17.7732V31.2451H88.3936V0.578369H96.2959L106.292 16.9051L116.044 0.578369H123.949L124.037 31.2451H115.047ZM106.299 18.1764L95.9257 1.23364H89.0524V30.5899H96.769V15.4504L104.317 27.6962H108.028L115.618 15.0311L115.702 30.5899H123.376L123.292 1.23364H116.419L106.299 18.1764ZM151.38 30.5899L149.06 24.8864H136.579L134.26 30.5899H125.742L138.772 1.23364H146.994L160.066 30.5899H151.38ZM137.023 25.5416L134.704 31.2451H124.731L138.342 0.578369H147.423L161.078 31.2451H150.935L148.616 25.5416H137.023ZM142.82 9.36951L139.025 18.7635H146.615L142.82 9.36951ZM142.82 11.1271L139.999 18.1082H145.64L142.82 11.1271ZM180.691 30.5899L175.336 22.7895H170.782V30.5899H162.433V1.23364H175.927C178.597 1.23364 180.916 1.68097 182.884 2.57564C184.852 3.44235 186.37 4.70047 187.438 6.35001C188.506 7.97159 189.041 9.88674 189.041 12.0954C189.041 14.2203 188.534 16.0795 187.522 17.6731C186.646 19.0686 185.422 20.1976 183.853 21.06C183.662 21.1652 183.465 21.2664 183.264 21.3636L189.631 30.5899H180.691ZM184.228 21.6026L190.882 31.2451H180.343L174.988 23.4448H171.441V31.2451H161.774V0.578369H175.927C178.669 0.578369 181.084 1.03738 183.155 1.97812C185.226 2.89119 186.847 4.22787 187.99 5.99228C189.138 7.73463 189.699 9.77802 189.699 12.0954C189.699 14.3277 189.166 16.3114 188.08 18.0225M179.948 12.0954C179.948 10.8751 179.567 10.0087 178.867 9.40233C178.162 8.7916 177.051 8.43116 175.421 8.43116H171.441V15.7178H175.421C177.053 15.7178 178.166 15.3706 178.872 14.7844C179.569 14.1782 179.948 13.313 179.948 12.0954ZM179.3 15.2827C178.428 16.0096 177.135 16.3731 175.421 16.3731H170.782V7.77589H175.421C177.135 7.77589 178.428 8.15332 179.3 8.9082C180.171 9.66307 180.607 10.7255 180.607 12.0954C180.607 13.4654 180.171 14.5278 179.3 15.2827ZM213.465 30.5899L205.032 19.9377L201.911 23.2508V30.5899H193.647V1.23364H201.911V13.4374L213.339 1.23364H222.531L210.471 14.2343L223.164 30.5899H213.465ZM211.333 14.2719L224.504 31.2451H213.145L204.988 20.9423L202.57 23.5098V31.2451H192.988V0.578369H202.57V11.7723L213.052 0.578369H224.035L211.333 14.2719ZM249.711 23.5182V31.2451H224.695V0.578369H249.163V8.30535H234.278V11.9434H247.392V19.4607H234.278V23.5182H249.711ZM233.619 18.8054H246.733V12.5987H233.619V7.65007H248.504V1.23364H225.354V30.5899H249.052V24.1734H233.619V18.8054ZM250.243 8.47309V0.578369H278V8.47309H268.976V31.2451H259.309V8.47309H250.243ZM259.968 7.81782V30.5899H268.317V7.81782H277.341V1.23364H250.902V7.81782H259.968Z" fill="url(#paint0_linear_17_191)"/>
<defs>
<linearGradient id="paint0_linear_17_191" x1="89.045" y1="19.1226" x2="269.407" y2="15.479" gradientUnits="userSpaceOnUse">
<stop stop-color="#62FFE3"/>
<stop offset="0.505208" stop-color="#FF63DD"/>
<stop offset="0.994792" stop-color="#FF6E58"/>
</linearGradient>
</defs>
</svg>
