<svg width="1052" height="589" viewBox="0 0 1052 589" fill="none" xmlns="http://www.w3.org/2000/svg">
<g clip-path="url(#clip0_652_1053)">
<path d="M0 0H1052V589H0V0Z" fill="white"/>
<g filter="url(#filter0_f_652_1053)">
<path fill-rule="evenodd" clip-rule="evenodd" d="M1098.13 202.507C1168.29 254.709 1243.55 316.986 1249.79 404.21C1255.92 489.851 1184.23 555.092 1128.03 620.004C1074.93 681.329 1021.02 747.316 941.04 760.829C857.283 774.98 772.32 744.353 705.971 691.311C639.506 638.176 597.715 561.314 586.039 477.025C574.001 390.127 587.14 298.529 642.088 230.142C697.003 161.794 783.485 127.666 870.999 122.363C954.309 117.314 1031.17 152.684 1098.13 202.507Z" stroke="#42D4BA" stroke-width="4"/>
</g>
<path fill-rule="evenodd" clip-rule="evenodd" d="M1098.13 202.507C1168.29 254.709 1243.55 316.986 1249.79 404.21C1255.92 489.851 1184.23 555.092 1128.03 620.004C1074.93 681.329 1021.02 747.316 941.04 760.829C857.283 774.98 772.32 744.353 705.971 691.311C639.506 638.176 597.715 561.314 586.039 477.025C574.001 390.127 587.14 298.529 642.088 230.142C697.003 161.794 783.485 127.666 870.999 122.363C954.309 117.314 1031.17 152.684 1098.13 202.507Z" fill="#2C2D2D" stroke="#42D4BA" stroke-width="4"/>
</g>
<path d="M92.512 132.704C94.9867 133.643 96.928 135.051 98.336 136.928C99.744 138.805 100.448 140.96 100.448 143.392C100.448 146.165 99.5093 148.576 97.632 150.624C95.7547 152.672 93.216 154.251 90.016 155.36C86.816 156.427 83.296 156.96 79.456 156.96C76.4267 156.96 73.3333 156.597 70.176 155.872C67.0613 155.147 64.0747 154.059 61.216 152.608L64.992 143.776C66.9973 144.8 69.1307 145.589 71.392 146.144C73.696 146.656 75.9147 146.912 78.048 146.912C80.864 146.912 83.168 146.464 84.96 145.568C86.752 144.629 87.648 143.328 87.648 141.664C87.648 140.341 87.0933 139.36 85.984 138.72C84.8747 138.08 83.3813 137.76 81.504 137.76H70.048V128.48H80.48C82.1867 128.48 83.5093 128.139 84.448 127.456C85.3867 126.773 85.856 125.856 85.856 124.704C85.856 123.253 85.1307 122.144 83.68 121.376C82.2293 120.565 80.352 120.16 78.048 120.16C76.1707 120.16 74.1867 120.437 72.096 120.992C70.0053 121.504 68.0213 122.251 66.144 123.232L62.432 113.632C67.2107 111.328 72.4587 110.176 78.176 110.176C81.8453 110.176 85.2373 110.709 88.352 111.776C91.5093 112.8 94.0053 114.293 95.84 116.256C97.7173 118.219 98.656 120.544 98.656 123.232C98.656 125.323 98.1013 127.2 96.992 128.864C95.9253 130.485 94.432 131.765 92.512 132.704ZM121.452 120.736C127.212 120.736 131.607 122.059 134.636 124.704C137.666 127.307 139.18 131.317 139.18 136.736V156H127.852V151.52C126.103 154.891 122.69 156.576 117.612 156.576C114.924 156.576 112.599 156.107 110.636 155.168C108.674 154.229 107.18 152.971 106.156 151.392C105.175 149.771 104.684 147.936 104.684 145.888C104.684 142.603 105.943 140.064 108.46 138.272C110.978 136.437 114.86 135.52 120.108 135.52H127.02C126.807 131.851 124.354 130.016 119.66 130.016C117.996 130.016 116.311 130.293 114.604 130.848C112.898 131.36 111.447 132.085 110.252 133.024L106.156 124.768C108.076 123.488 110.402 122.507 113.132 121.824C115.906 121.099 118.679 120.736 121.452 120.736ZM121.004 148.896C122.412 148.896 123.65 148.555 124.716 147.872C125.783 147.189 126.551 146.187 127.02 144.864V141.856H121.772C118.231 141.856 116.46 143.029 116.46 145.376C116.46 146.443 116.866 147.296 117.676 147.936C118.487 148.576 119.596 148.896 121.004 148.896ZM169.16 156L162.952 146.912L156.296 156H143.112L156.296 138.656L143.496 121.312H157.192L163.336 130.08L169.736 121.312H182.6L169.8 138.208L183.048 156H169.16ZM215.826 137.824C219.794 139.147 221.778 141.877 221.778 146.016C221.778 149.131 220.562 151.584 218.13 153.376C215.698 155.125 212.114 156 207.378 156H187.858V121.312H206.482C211.004 121.312 214.503 122.101 216.978 123.68C219.495 125.259 220.754 127.477 220.754 130.336C220.754 132 220.327 133.472 219.474 134.752C218.62 136.032 217.404 137.056 215.826 137.824ZM198.738 135.264H205.394C208.21 135.264 209.618 134.219 209.618 132.128C209.618 130.123 208.21 129.12 205.394 129.12H198.738V135.264ZM206.29 148.128C209.234 148.128 210.706 147.061 210.706 144.928C210.706 142.795 209.276 141.728 206.418 141.728H198.738V148.128H206.29ZM242.776 120.736C248.536 120.736 252.931 122.059 255.96 124.704C258.99 127.307 260.504 131.317 260.504 136.736V156H249.176V151.52C247.427 154.891 244.014 156.576 238.936 156.576C236.248 156.576 233.923 156.107 231.96 155.168C229.998 154.229 228.504 152.971 227.48 151.392C226.499 149.771 226.008 147.936 226.008 145.888C226.008 142.603 227.267 140.064 229.784 138.272C232.302 136.437 236.184 135.52 241.432 135.52H248.344C248.131 131.851 245.678 130.016 240.984 130.016C239.32 130.016 237.635 130.293 235.928 130.848C234.222 131.36 232.771 132.085 231.576 133.024L227.48 124.768C229.4 123.488 231.726 122.507 234.456 121.824C237.23 121.099 240.003 120.736 242.776 120.736ZM242.328 148.896C243.736 148.896 244.974 148.555 246.04 147.872C247.107 147.189 247.875 146.187 248.344 144.864V141.856H243.096C239.555 141.856 237.784 143.029 237.784 145.376C237.784 146.443 238.19 147.296 239 147.936C239.811 148.576 240.92 148.896 242.328 148.896ZM299.508 130.976H288.372V156H276.276V130.976H265.076V121.312H299.508V130.976ZM304.932 121.312H317.028V139.488L331.556 121.312H342.756V156H330.596V137.76L316.196 156H304.932V121.312ZM421.221 138.528C421.221 143.947 419.408 148.213 415.781 151.328C412.154 154.4 406.97 156.192 400.229 156.704V168.416H389.477V156.768C382.693 156.213 377.488 154.4 373.861 151.328C370.277 148.213 368.485 143.947 368.485 138.528C368.485 133.152 370.256 128.971 373.797 125.984C377.381 122.997 382.608 121.248 389.477 120.736V108.512H400.229V120.736C407.013 121.291 412.197 123.061 415.781 126.048C419.408 129.035 421.221 133.195 421.221 138.528ZM380.069 138.528C380.069 141.344 380.794 143.499 382.245 144.992C383.738 146.443 386.149 147.381 389.477 147.808V129.632C386.106 130.059 383.696 130.976 382.245 132.384C380.794 133.792 380.069 135.84 380.069 138.528ZM400.229 147.808C403.6 147.381 406.01 146.443 407.461 144.992C408.954 143.499 409.701 141.344 409.701 138.528C409.701 135.84 408.954 133.792 407.461 132.384C406.01 130.976 403.6 130.08 400.229 129.696V147.808ZM462.334 121.312V156H450.174V130.976H441.406L441.15 136.288C440.979 140.811 440.531 144.544 439.806 147.488C439.08 150.432 437.886 152.736 436.222 154.4C434.558 156.021 432.275 156.832 429.374 156.832C427.88 156.832 425.918 156.555 423.486 156L423.998 146.08C424.766 146.165 425.278 146.208 425.534 146.208C426.856 146.208 427.859 145.781 428.542 144.928C429.224 144.075 429.694 142.944 429.95 141.536C430.206 140.085 430.376 138.165 430.462 135.776L430.974 121.312H462.334ZM485.362 120.736C491.122 120.736 495.517 122.059 498.546 124.704C501.575 127.307 503.09 131.317 503.09 136.736V156H491.762V151.52C490.013 154.891 486.599 156.576 481.522 156.576C478.834 156.576 476.509 156.107 474.546 155.168C472.583 154.229 471.09 152.971 470.066 151.392C469.085 149.771 468.594 147.936 468.594 145.888C468.594 142.603 469.853 140.064 472.37 138.272C474.887 136.437 478.77 135.52 484.018 135.52H490.93C490.717 131.851 488.263 130.016 483.57 130.016C481.906 130.016 480.221 130.293 478.514 130.848C476.807 131.36 475.357 132.085 474.162 133.024L470.066 124.768C471.986 123.488 474.311 122.507 477.042 121.824C479.815 121.099 482.589 120.736 485.362 120.736ZM484.914 148.896C486.322 148.896 487.559 148.555 488.626 147.872C489.693 147.189 490.461 146.187 490.93 144.864V141.856H485.682C482.141 141.856 480.37 143.029 480.37 145.376C480.37 146.443 480.775 147.296 481.586 147.936C482.397 148.576 483.506 148.896 484.914 148.896ZM540.174 130.976H523.214V156H511.118V121.312H540.174V130.976ZM546.945 156.576C544.897 156.576 543.169 155.893 541.761 154.528C540.353 153.163 539.649 151.435 539.649 149.344C539.649 147.211 540.332 145.483 541.697 144.16C543.105 142.837 544.855 142.176 546.945 142.176C549.079 142.176 550.828 142.837 552.193 144.16C553.559 145.483 554.241 147.211 554.241 149.344C554.241 151.435 553.537 153.163 552.129 154.528C550.764 155.893 549.036 156.576 546.945 156.576ZM565.783 156.576C563.735 156.576 562.007 155.893 560.599 154.528C559.191 153.163 558.487 151.435 558.487 149.344C558.487 147.211 559.169 145.483 560.535 144.16C561.943 142.837 563.692 142.176 565.783 142.176C567.916 142.176 569.665 142.837 571.031 144.16C572.396 145.483 573.079 147.211 573.079 149.344C573.079 151.435 572.375 153.163 570.967 154.528C569.601 155.893 567.873 156.576 565.783 156.576ZM584.62 156.576C582.572 156.576 580.844 155.893 579.436 154.528C578.028 153.163 577.324 151.435 577.324 149.344C577.324 147.211 578.006 145.483 579.372 144.16C580.78 142.837 582.529 142.176 584.62 142.176C586.753 142.176 588.502 142.837 589.868 144.16C591.233 145.483 591.916 147.211 591.916 149.344C591.916 151.435 591.212 153.163 589.804 154.528C588.438 155.893 586.71 156.576 584.62 156.576ZM64.096 228.312H76.192V246.488L90.72 228.312H101.92V263H89.76V244.76L75.36 263H64.096V228.312ZM165.985 228.312V263H153.889V237.976H142.241V263H130.145V228.312H165.985ZM189.127 227.736C194.887 227.736 199.281 229.059 202.311 231.704C205.34 234.307 206.855 238.317 206.855 243.736V263H195.527V258.52C193.777 261.891 190.364 263.576 185.287 263.576C182.599 263.576 180.273 263.107 178.311 262.168C176.348 261.229 174.855 259.971 173.831 258.392C172.849 256.771 172.359 254.936 172.359 252.888C172.359 249.603 173.617 247.064 176.135 245.272C178.652 243.437 182.535 242.52 187.783 242.52H194.695C194.481 238.851 192.028 237.016 187.335 237.016C185.671 237.016 183.985 237.293 182.279 237.848C180.572 238.36 179.121 239.085 177.927 240.024L173.831 231.768C175.751 230.488 178.076 229.507 180.807 228.824C183.58 228.099 186.353 227.736 189.127 227.736ZM188.679 255.896C190.087 255.896 191.324 255.555 192.391 254.872C193.457 254.189 194.225 253.187 194.695 251.864V248.856H189.447C185.905 248.856 184.135 250.029 184.135 252.376C184.135 253.443 184.54 254.296 185.351 254.936C186.161 255.576 187.271 255.896 188.679 255.896ZM236.706 227.736C239.864 227.736 242.722 228.483 245.282 229.976C247.885 231.427 249.933 233.517 251.426 236.248C252.962 238.936 253.73 242.072 253.73 245.656C253.73 249.24 252.962 252.397 251.426 255.128C249.933 257.816 247.885 259.907 245.282 261.4C242.722 262.851 239.864 263.576 236.706 263.576C232.653 263.576 229.432 262.36 227.042 259.928V275.416H214.882V228.312H226.466V231.768C228.728 229.08 232.141 227.736 236.706 227.736ZM234.146 253.912C236.28 253.912 238.029 253.187 239.394 251.736C240.76 250.243 241.442 248.216 241.442 245.656C241.442 243.096 240.76 241.091 239.394 239.64C238.029 238.147 236.28 237.4 234.146 237.4C232.013 237.4 230.264 238.147 228.898 239.64C227.533 241.091 226.85 243.096 226.85 245.656C226.85 248.216 227.533 250.243 228.898 251.736C230.264 253.187 232.013 253.912 234.146 253.912ZM296.336 228.312L281.36 264.408C279.611 268.675 277.478 271.661 274.96 273.368C272.443 275.117 269.371 275.992 265.744 275.992C263.91 275.992 262.054 275.693 260.176 275.096C258.342 274.541 256.848 273.795 255.696 272.856L259.92 264.344C260.603 264.984 261.414 265.475 262.352 265.816C263.334 266.2 264.315 266.392 265.296 266.392C266.448 266.392 267.387 266.157 268.112 265.688C268.88 265.219 269.52 264.472 270.032 263.448L255.184 228.312H267.664L276.176 249.496L284.752 228.312H296.336Z" fill="#2C2D2D"/>
<path d="M339.184 265L337.55 266.153L338.148 267H339.184V265ZM327.664 248.68L326.647 246.958L324.779 248.061L326.03 249.833L327.664 248.68ZM335.792 243.88L337.416 242.713L336.35 241.228L334.775 242.158L335.792 243.88ZM350.96 265V267H354.859L352.584 263.833L350.96 265ZM314.8 265H312.8V267H314.8V265ZM314.8 230.568V228.568H312.8V230.568H314.8ZM324.784 230.568H326.784V228.568H324.784V230.568ZM324.784 265V267H326.784V265H324.784ZM321.84 251.944H319.84V253.944H321.84V251.944ZM321.84 243.944V241.944H319.84V243.944H321.84ZM333.872 243.944H335.872V241.944H333.872V243.944ZM333.872 251.944V253.944H335.872V251.944H333.872ZM336.752 248.936L336.534 250.924L337.686 251.05L338.369 250.113L336.752 248.936ZM327.408 247.912L325.768 246.768L323.839 249.533L327.19 249.9L327.408 247.912ZM339.504 230.568V228.568H338.46L337.864 229.424L339.504 230.568ZM350.128 230.568L351.745 231.745L354.059 228.568H350.128V230.568ZM340.818 263.847L329.298 247.527L326.03 249.833L337.55 266.153L340.818 263.847ZM328.681 250.402L336.809 245.602L334.775 242.158L326.647 246.958L328.681 250.402ZM334.168 245.047L349.336 266.167L352.584 263.833L337.416 242.713L334.168 245.047ZM350.96 263H339.184V267H350.96V263ZM316.8 265V230.568H312.8V265H316.8ZM314.8 232.568H324.784V228.568H314.8V232.568ZM322.784 230.568V265H326.784V230.568H322.784ZM324.784 263H314.8V267H324.784V263ZM323.84 251.944V243.944H319.84V251.944H323.84ZM321.84 245.944H333.872V241.944H321.84V245.944ZM331.872 243.944V251.944H335.872V243.944H331.872ZM333.872 249.944H321.84V253.944H333.872V249.944ZM336.97 246.948L327.626 245.924L327.19 249.9L336.534 250.924L336.97 246.948ZM329.048 249.056L341.144 231.712L337.864 229.424L325.768 246.768L329.048 249.056ZM339.504 232.568H350.128V228.568H339.504V232.568ZM348.511 229.391L335.135 247.759L338.369 250.113L351.745 231.745L348.511 229.391ZM369.247 263.592L368.233 265.316L369.247 263.592ZM364.127 257.768L362.304 258.591L362.312 258.609L362.32 258.627L364.127 257.768ZM364.063 237.8L362.234 236.991L364.063 237.8ZM369.055 231.976L368.041 230.252L369.055 231.976ZM385.567 232.296L384.559 234.024L384.576 234.033L384.593 234.043L385.567 232.296ZM391.711 238.44L389.969 239.423L389.975 239.434L389.981 239.444L391.711 238.44ZM391.711 257.192L389.981 256.188L389.975 256.198L389.969 256.209L391.711 257.192ZM385.567 263.336L384.593 261.589L384.581 261.596L385.567 263.336ZM356.511 277.416H354.511V279.416H356.511V277.416ZM356.511 230.568V228.568H354.511V230.568H356.511ZM366.047 230.568H368.047V228.568H366.047V230.568ZM366.047 237.608L368.046 237.645L368.047 237.627V237.608H366.047ZM365.855 247.848L363.855 247.811L363.854 247.892L363.859 247.974L365.855 247.848ZM366.495 258.024H368.495V257.961L368.491 257.898L366.495 258.024ZM366.495 277.416V279.416H368.495V277.416H366.495ZM379.551 256.168L378.546 254.438L378.534 254.446L378.522 254.453L379.551 256.168ZM382.687 252.904L380.941 251.928L380.936 251.937L380.931 251.946L382.687 252.904ZM382.687 242.664L380.931 243.622L380.942 243.642L380.953 243.662L382.687 242.664ZM379.551 239.4L378.522 241.115L378.534 241.122L378.546 241.13L379.551 239.4ZM370.655 239.4L371.659 241.13H371.659L370.655 239.4ZM367.519 242.664L369.274 243.622L367.519 242.664ZM367.519 252.904L365.751 253.84L365.757 253.851L365.763 253.862L367.519 252.904ZM370.655 256.168L371.659 254.438H371.659L370.655 256.168ZM376.863 263.512C374.264 263.512 372.086 262.942 370.261 261.868L368.233 265.316C370.759 266.802 373.659 267.512 376.863 267.512V263.512ZM370.261 261.868C368.476 260.819 367.024 259.204 365.933 256.909L362.32 258.627C363.704 261.538 365.665 263.805 368.233 265.316L370.261 261.868ZM365.949 256.945C364.907 254.637 364.335 251.612 364.335 247.784H360.335C360.335 251.977 360.957 255.608 362.304 258.591L365.949 256.945ZM364.335 247.784C364.335 243.9 364.89 240.873 365.892 238.609L362.234 236.991C360.932 239.932 360.335 243.561 360.335 247.784H364.335ZM365.892 238.609C366.897 236.339 368.298 234.741 370.069 233.7L368.041 230.252C365.459 231.771 363.533 234.056 362.234 236.991L365.892 238.609ZM370.069 233.7C371.881 232.634 374.118 232.056 376.863 232.056V228.056C373.548 228.056 370.58 228.758 368.041 230.252L370.069 233.7ZM376.863 232.056C379.786 232.056 382.333 232.725 384.559 234.024L386.574 230.568C383.68 228.88 380.425 228.056 376.863 228.056V232.056ZM384.593 234.043C386.868 235.311 388.653 237.092 389.969 239.423L393.452 237.457C391.782 234.498 389.471 232.182 386.54 230.549L384.593 234.043ZM389.981 239.444C391.312 241.736 392.015 244.492 392.015 247.784H396.015C396.015 243.908 395.182 240.435 393.44 237.436L389.981 239.444ZM392.015 247.784C392.015 251.124 391.31 253.9 389.981 256.188L393.44 258.196C395.184 255.194 396.015 251.698 396.015 247.784H392.015ZM389.969 256.209C388.653 258.54 386.868 260.321 384.593 261.589L386.54 265.083C389.471 263.45 391.782 261.134 393.452 258.175L389.969 256.209ZM384.581 261.596C382.351 262.859 379.796 263.512 376.863 263.512V267.512C380.415 267.512 383.662 266.714 386.553 265.076L384.581 261.596ZM358.511 277.416V230.568H354.511V277.416H358.511ZM356.511 232.568H366.047V228.568H356.511V232.568ZM364.047 230.568V237.608H368.047V230.568H364.047ZM364.047 237.571L363.855 247.811L367.854 247.885L368.046 237.645L364.047 237.571ZM363.859 247.974L364.499 258.15L368.491 257.898L367.851 247.722L363.859 247.974ZM364.495 258.024V277.416H368.495V258.024H364.495ZM366.495 275.416H356.511V279.416H366.495V275.416ZM375.135 259.32C377.118 259.32 378.954 258.858 380.58 257.883L378.522 254.453C377.587 255.014 376.479 255.32 375.135 255.32V259.32ZM380.555 257.898C382.21 256.937 383.508 255.575 384.442 253.862L380.931 251.946C380.329 253.049 379.537 253.863 378.546 254.438L380.555 257.898ZM384.433 253.88C385.438 252.081 385.903 250.026 385.903 247.784H381.903C381.903 249.467 381.557 250.826 380.941 251.928L384.433 253.88ZM385.903 247.784C385.903 245.51 385.442 243.441 384.42 241.666L380.953 243.662C381.553 244.703 381.903 246.048 381.903 247.784H385.903ZM384.442 241.706C383.508 239.993 382.21 238.631 380.555 237.67L378.546 241.13C379.537 241.705 380.329 242.519 380.931 243.622L384.442 241.706ZM380.58 237.685C378.954 236.71 377.118 236.248 375.135 236.248V240.248C376.479 240.248 377.587 240.554 378.522 241.115L380.58 237.685ZM375.135 236.248C373.15 236.248 371.305 236.71 369.65 237.67L371.659 241.13C372.65 240.554 373.791 240.248 375.135 240.248V236.248ZM369.65 237.67C367.996 238.631 366.697 239.993 365.763 241.706L369.274 243.622C369.876 242.519 370.668 241.705 371.659 241.13L369.65 237.67ZM365.763 241.706C364.799 243.473 364.367 245.526 364.367 247.784H368.367C368.367 246.031 368.702 244.671 369.274 243.622L365.763 241.706ZM364.367 247.784C364.367 250.009 364.803 252.049 365.751 253.84L369.286 251.968C368.698 250.857 368.367 249.484 368.367 247.784H364.367ZM365.763 253.862C366.697 255.575 367.996 256.937 369.65 257.898L371.659 254.438C370.668 253.863 369.876 253.049 369.274 251.946L365.763 253.862ZM369.65 257.898C371.305 258.858 373.15 259.32 375.135 259.32V255.32C373.791 255.32 372.65 255.014 371.659 254.438L369.65 257.898ZM400.147 277.096L400.751 275.19L400.147 277.096ZM395.859 274.792L394.08 273.878L393.37 275.261L394.534 276.29L395.859 274.792ZM399.507 267.688L400.836 266.193L398.907 264.479L397.728 266.774L399.507 267.688ZM402.131 269.288L401.402 271.15L401.415 271.156L401.429 271.161L402.131 269.288ZM408.467 268.84L407.267 267.24L407.222 267.274L407.179 267.31L408.467 268.84ZM410.771 265.576L412.599 266.388L412.605 266.373L412.612 266.357L410.771 265.576ZM412.563 261.352L410.929 260.199L410.805 260.374L410.722 260.571L412.563 261.352ZM413.331 260.264L414.965 261.417L415.092 261.237L415.178 261.032L413.331 260.264ZM425.683 230.568V228.568H424.349L423.836 229.8L425.683 230.568ZM435.283 230.568L437.123 231.351L438.308 228.568H435.283V230.568ZM419.731 267.112L417.891 266.329L417.882 266.349L417.874 266.369L419.731 267.112ZM415.891 273.64L414.418 272.287L414.408 272.298L414.398 272.309L415.891 273.64ZM411.155 276.968L410.468 275.09L410.46 275.093L410.453 275.095L411.155 276.968ZM411.347 266.344L409.509 267.133L410.685 269.873L412.774 267.745L411.347 266.344ZM395.987 230.568V228.568H392.952L394.149 231.357L395.987 230.568ZM406.291 230.568L408.139 229.804L407.628 228.568H406.291V230.568ZM418.195 259.368L419.622 260.769L420.548 259.826L420.043 258.604L418.195 259.368ZM405.459 275.928C403.877 275.928 402.31 275.684 400.751 275.19L399.542 279.002C401.482 279.618 403.457 279.928 405.459 279.928V275.928ZM400.751 275.19C399.206 274.7 398.041 274.052 397.184 273.294L394.534 276.29C395.896 277.495 397.589 278.383 399.542 279.002L400.751 275.19ZM397.638 275.706L401.286 268.602L397.728 266.774L394.08 273.878L397.638 275.706ZM398.178 269.183C399.127 270.027 400.206 270.683 401.402 271.15L402.86 267.426C402.093 267.125 401.422 266.715 400.836 266.193L398.178 269.183ZM401.429 271.161C402.652 271.619 403.892 271.864 405.139 271.864V267.864C404.423 267.864 403.658 267.725 402.833 267.415L401.429 271.161ZM405.139 271.864C406.862 271.864 408.48 271.444 409.755 270.37L407.179 267.31C406.832 267.602 406.232 267.864 405.139 267.864V271.864ZM409.667 270.44C410.907 269.51 411.85 268.074 412.599 266.388L408.943 264.764C408.327 266.15 407.734 266.89 407.267 267.24L409.667 270.44ZM412.612 266.357L414.404 262.133L410.722 260.571L408.93 264.795L412.612 266.357ZM414.197 262.505L414.965 261.417L411.697 259.111L410.929 260.199L414.197 262.505ZM415.178 261.032L427.53 231.336L423.836 229.8L411.484 259.496L415.178 261.032ZM425.683 232.568H435.283V228.568H425.683V232.568ZM433.443 229.785L417.891 266.329L421.571 267.895L437.123 231.351L433.443 229.785ZM417.874 266.369C416.822 268.999 415.654 270.942 414.418 272.287L417.364 274.993C419.029 273.181 420.421 270.771 421.588 267.855L417.874 266.369ZM414.398 272.309C413.18 273.675 411.868 274.578 410.468 275.09L411.842 278.846C413.941 278.078 415.786 276.762 417.383 274.971L414.398 272.309ZM410.453 275.095C409.001 275.64 407.345 275.928 405.459 275.928V279.928C407.755 279.928 409.895 279.576 411.857 278.841L410.453 275.095ZM413.185 265.555L397.825 229.779L394.149 231.357L409.509 267.133L413.185 265.555ZM395.987 232.568H406.291V228.568H395.987V232.568ZM404.443 231.332L416.347 260.132L420.043 258.604L408.139 229.804L404.443 231.332ZM416.768 257.967L409.92 264.943L412.774 267.745L419.622 260.769L416.768 257.967ZM480.282 265L478.538 265.978L479.111 267H480.282V265ZM471.13 248.68L470.107 246.961L468.432 247.958L469.386 249.658L471.13 248.68ZM479.194 243.88L480.9 242.836L479.869 241.151L478.171 242.161L479.194 243.88ZM492.122 265V267H495.691L493.828 263.956L492.122 265ZM465.242 251.944H463.242V253.944H465.242V251.944ZM465.242 243.944V241.944H463.242V243.944H465.242ZM477.21 243.944H479.21V241.944H477.21V243.944ZM477.21 251.944V253.944H479.21V251.944H477.21ZM480.218 248.936L480.002 250.924L481.272 251.062L481.931 249.968L480.218 248.936ZM470.81 247.912L469.074 246.919L467.558 249.57L470.594 249.9L470.81 247.912ZM480.73 230.568V228.568H479.57L478.994 229.575L480.73 230.568ZM491.29 230.568L493.003 231.6L494.831 228.568H491.29V230.568ZM446.234 265V267H447.406L447.979 265.978L446.234 265ZM434.458 265L432.75 263.96L430.898 267H434.458V265ZM447.322 243.88L448.345 242.161L446.644 241.149L445.614 242.84L447.322 243.88ZM455.386 248.68L457.131 249.658L458.084 247.958L456.409 246.961L455.386 248.68ZM468.186 265V267H470.186V265H468.186ZM458.33 265H456.33V267H458.33V265ZM458.33 230.568V228.568H456.33V230.568H458.33ZM468.186 230.568H470.186V228.568H468.186V230.568ZM461.274 251.944V253.944H463.274V251.944H461.274ZM449.37 251.944H447.37V253.944H449.37V251.944ZM449.37 243.944V241.944H447.37V243.944H449.37ZM461.274 243.944H463.274V241.944H461.274V243.944ZM446.298 248.936L444.585 249.968L445.245 251.063L446.516 250.924L446.298 248.936ZM435.226 230.568V228.568H431.685L433.513 231.6L435.226 230.568ZM445.786 230.568L447.525 229.58L446.95 228.568H445.786V230.568ZM455.642 247.912L455.86 249.9L458.884 249.569L457.381 246.924L455.642 247.912ZM482.027 264.022L472.875 247.702L469.386 249.658L478.538 265.978L482.027 264.022ZM472.153 250.399L480.217 245.599L478.171 242.161L470.107 246.961L472.153 250.399ZM477.488 244.924L490.416 266.044L493.828 263.956L480.9 242.836L477.488 244.924ZM492.122 263H480.282V267H492.122V263ZM467.242 251.944V243.944H463.242V251.944H467.242ZM465.242 245.944H477.21V241.944H465.242V245.944ZM475.21 243.944V251.944H479.21V243.944H475.21ZM477.21 249.944H465.242V253.944H477.21V249.944ZM480.434 246.948L471.027 245.924L470.594 249.9L480.002 250.924L480.434 246.948ZM472.546 248.905L482.466 231.561L478.994 229.575L469.074 246.919L472.546 248.905ZM480.73 232.568H491.29V228.568H480.73V232.568ZM489.577 229.535L478.505 247.903L481.931 249.968L493.003 231.6L489.577 229.535ZM446.234 263H434.458V267H446.234V263ZM436.166 266.04L449.03 244.92L445.614 242.84L432.75 263.96L436.166 266.04ZM446.299 245.599L454.363 250.399L456.409 246.961L448.345 242.161L446.299 245.599ZM453.642 247.702L444.49 264.022L447.979 265.978L457.131 249.658L453.642 247.702ZM468.186 263H458.33V267H468.186V263ZM460.33 265V230.568H456.33V265H460.33ZM458.33 232.568H468.186V228.568H458.33V232.568ZM466.186 230.568V265H470.186V230.568H466.186ZM461.274 249.944H449.37V253.944H461.274V249.944ZM451.37 251.944V243.944H447.37V251.944H451.37ZM449.37 245.944H461.274V241.944H449.37V245.944ZM459.274 243.944V251.944H463.274V243.944H459.274ZM448.011 247.903L436.939 229.535L433.513 231.6L444.585 249.968L448.011 247.903ZM435.226 232.568H445.786V228.568H435.226V232.568ZM444.047 231.556L453.903 248.9L457.381 246.924L447.525 229.58L444.047 231.556ZM455.424 245.924L446.08 246.948L446.516 250.924L455.86 249.9L455.424 245.924ZM503.425 263.208L502.5 264.981L502.511 264.987L503.425 263.208ZM496.577 256.936L494.865 257.969L494.868 257.975L494.872 257.981L496.577 256.936ZM496.513 238.632L494.801 237.599L494.796 237.607L496.513 238.632ZM503.105 232.36L504.053 234.121L504.064 234.115L504.074 234.11L503.105 232.36ZM521.601 232.232L520.651 233.992L520.668 234.001L520.685 234.01L521.601 232.232ZM528.065 238.376L526.341 239.389L526.348 239.401L528.065 238.376ZM530.369 249.256L532.361 249.437L532.362 249.43L532.362 249.422L530.369 249.256ZM530.241 250.6V252.6H532.051L532.231 250.799L530.241 250.6ZM502.273 250.6H500.273V252.6H502.273V250.6ZM502.273 244.776V242.776H500.273V244.776H502.273ZM524.993 244.776L525.814 246.6L524.993 242.776V244.776ZM521.153 246.504H519.153V249.597L521.974 248.328L521.153 246.504ZM517.057 238.76L516.028 240.475L516.05 240.488L516.071 240.5L517.057 238.76ZM508.033 238.76L509.019 240.5L509.028 240.495L509.038 240.49L508.033 238.76ZM505.025 241.896L506.779 242.858L506.785 242.846L506.792 242.834L505.025 241.896ZM505.153 253.16L503.407 254.136L503.425 254.166L503.443 254.197L505.153 253.16ZM508.673 256.424L507.759 258.203L507.789 258.218L507.819 258.232L508.673 256.424ZM518.849 256.68L518.116 254.819L518.106 254.823L518.097 254.827L518.849 256.68ZM522.689 254.184L524.16 252.828L522.774 251.326L521.302 252.743L522.689 254.184ZM528.001 259.944L529.502 261.266L530.694 259.913L529.472 258.588L528.001 259.944ZM522.049 264.104L522.781 265.965L522.795 265.96L522.809 265.954L522.049 264.104ZM513.793 263.512C510.132 263.512 507 262.797 504.34 261.429L502.511 264.987C505.824 266.691 509.603 267.512 513.793 267.512V263.512ZM504.35 261.435C501.704 260.054 499.701 258.206 498.282 255.891L494.872 257.981C496.696 260.957 499.258 263.29 502.5 264.981L504.35 261.435ZM498.29 255.903C496.873 253.554 496.145 250.866 496.145 247.784H492.145C492.145 251.528 493.039 254.942 494.865 257.969L498.29 255.903ZM496.145 247.784C496.145 244.644 496.859 241.956 498.231 239.657L494.796 237.607C493.01 240.599 492.145 244.012 492.145 247.784H496.145ZM498.226 239.665C499.662 237.285 501.594 235.445 504.053 234.121L502.157 230.599C499.07 232.262 496.608 234.603 494.801 237.599L498.226 239.665ZM504.074 234.11C506.521 232.754 509.318 232.056 512.513 232.056V228.056C508.712 228.056 505.236 228.894 502.136 230.61L504.074 234.11ZM512.513 232.056C515.587 232.056 518.285 232.715 520.651 233.992L522.551 230.472C519.542 228.848 516.181 228.056 512.513 228.056V232.056ZM520.685 234.01C523.074 235.242 524.951 237.022 526.341 239.389L529.79 237.363C528.023 234.354 525.59 232.038 522.518 230.454L520.685 234.01ZM526.348 239.401C527.707 241.678 528.433 244.487 528.433 247.912H532.433C532.433 243.913 531.581 240.364 529.783 237.351L526.348 239.401ZM528.433 247.912C528.433 248.226 528.416 248.616 528.376 249.09L532.362 249.422C532.408 248.872 532.433 248.366 532.433 247.912H528.433ZM528.378 249.075C528.335 249.539 528.293 249.981 528.251 250.401L532.231 250.799C532.275 250.366 532.318 249.912 532.361 249.437L528.378 249.075ZM530.241 248.6H502.273V252.6H530.241V248.6ZM504.273 250.6V244.776H500.273V250.6H504.273ZM502.273 246.776H524.993V242.776H502.273V246.776ZM524.173 242.952L520.333 244.68L521.974 248.328L525.814 246.6L524.173 242.952ZM523.153 246.504C523.153 244.439 522.734 242.539 521.819 240.87L518.312 242.794C518.847 243.771 519.153 244.985 519.153 246.504H523.153ZM521.819 240.87C520.92 239.231 519.655 237.933 518.043 237.02L516.071 240.5C517.02 241.037 517.76 241.788 518.312 242.794L521.819 240.87ZM518.086 237.045C516.453 236.065 514.593 235.608 512.577 235.608V239.608C513.974 239.608 515.102 239.919 516.028 240.475L518.086 237.045ZM512.577 235.608C510.56 235.608 508.691 236.065 507.029 237.03L509.038 240.49C510.021 239.919 511.182 239.608 512.577 239.608V235.608ZM507.047 237.02C505.419 237.943 504.153 239.274 503.259 240.958L506.792 242.834C507.348 241.787 508.088 241.028 509.019 240.5L507.047 237.02ZM503.272 240.934C502.353 242.609 501.937 244.533 501.937 246.632H505.937C505.937 245.061 506.247 243.828 506.779 242.858L503.272 240.934ZM501.937 246.632V248.168H505.937V246.632H501.937ZM501.937 248.168C501.937 250.342 502.409 252.35 503.407 254.136L506.899 252.184C506.276 251.069 505.937 249.749 505.937 248.168H501.937ZM503.443 254.197C504.492 255.927 505.943 257.269 507.759 258.203L509.588 254.645C508.416 254.043 507.521 253.209 506.864 252.123L503.443 254.197ZM507.819 258.232C509.672 259.107 511.766 259.512 514.049 259.512V255.512C512.237 255.512 510.747 255.191 509.527 254.616L507.819 258.232ZM514.049 259.512C516.081 259.512 517.947 259.205 519.602 258.533L518.097 254.827C517.021 255.264 515.687 255.512 514.049 255.512V259.512ZM519.582 258.541C521.247 257.885 522.747 256.905 524.077 255.625L521.302 252.743C520.328 253.682 519.267 254.366 518.116 254.819L519.582 258.541ZM521.219 255.54L526.531 261.3L529.472 258.588L524.16 252.828L521.219 255.54ZM526.501 258.622C525.141 260.165 523.418 261.38 521.289 262.254L522.809 265.954C525.459 264.866 527.704 263.307 529.502 261.266L526.501 258.622ZM521.318 262.243C519.205 263.072 516.71 263.512 513.793 263.512V267.512C517.106 267.512 520.114 267.013 522.781 265.965L521.318 262.243ZM563.182 265L561.549 266.153L562.146 267H563.182V265ZM551.662 248.68L550.645 246.958L548.777 248.061L550.029 249.833L551.662 248.68ZM559.79 243.88L561.415 242.713L560.348 241.228L558.773 242.158L559.79 243.88ZM574.958 265V267H578.857L576.583 263.833L574.958 265ZM538.798 265H536.798V267H538.798V265ZM538.798 230.568V228.568H536.798V230.568H538.798ZM548.782 230.568H550.782V228.568H548.782V230.568ZM548.782 265V267H550.782V265H548.782ZM545.838 251.944H543.838V253.944H545.838V251.944ZM545.838 243.944V241.944H543.838V243.944H545.838ZM557.87 243.944H559.87V241.944H557.87V243.944ZM557.87 251.944V253.944H559.87V251.944H557.87ZM560.75 248.936L560.533 250.924L561.685 251.05L562.367 250.113L560.75 248.936ZM551.406 247.912L549.766 246.768L547.838 249.533L551.189 249.9L551.406 247.912ZM563.502 230.568V228.568H562.459L561.862 229.424L563.502 230.568ZM574.126 230.568L575.743 231.745L578.057 228.568H574.126V230.568ZM564.816 263.847L553.296 247.527L550.029 249.833L561.549 266.153L564.816 263.847ZM552.679 250.402L560.807 245.602L558.773 242.158L550.645 246.958L552.679 250.402ZM558.166 245.047L573.334 266.167L576.583 263.833L561.415 242.713L558.166 245.047ZM574.958 263H563.182V267H574.958V263ZM540.798 265V230.568H536.798V265H540.798ZM538.798 232.568H548.782V228.568H538.798V232.568ZM546.782 230.568V265H550.782V230.568H546.782ZM548.782 263H538.798V267H548.782V263ZM547.838 251.944V243.944H543.838V251.944H547.838ZM545.838 245.944H557.87V241.944H545.838V245.944ZM555.87 243.944V251.944H559.87V243.944H555.87ZM557.87 249.944H545.838V253.944H557.87V249.944ZM560.968 246.948L551.624 245.924L551.189 249.9L560.533 250.924L560.968 246.948ZM553.047 249.056L565.143 231.712L561.862 229.424L549.766 246.768L553.047 249.056ZM563.502 232.568H574.126V228.568H563.502V232.568ZM572.51 229.391L559.134 247.759L562.367 250.113L575.743 231.745L572.51 229.391Z" fill="#42D4BA"/>
<g filter="url(#filter1_f_652_1053)">
<path d="M339.184 265L337.55 266.153L338.148 267H339.184V265ZM327.664 248.68L326.647 246.958L324.779 248.061L326.03 249.833L327.664 248.68ZM335.792 243.88L337.416 242.713L336.35 241.228L334.775 242.158L335.792 243.88ZM350.96 265V267H354.859L352.584 263.833L350.96 265ZM314.8 265H312.8V267H314.8V265ZM314.8 230.568V228.568H312.8V230.568H314.8ZM324.784 230.568H326.784V228.568H324.784V230.568ZM324.784 265V267H326.784V265H324.784ZM321.84 251.944H319.84V253.944H321.84V251.944ZM321.84 243.944V241.944H319.84V243.944H321.84ZM333.872 243.944H335.872V241.944H333.872V243.944ZM333.872 251.944V253.944H335.872V251.944H333.872ZM336.752 248.936L336.534 250.924L337.686 251.05L338.369 250.113L336.752 248.936ZM327.408 247.912L325.768 246.768L323.839 249.533L327.19 249.9L327.408 247.912ZM339.504 230.568V228.568H338.46L337.864 229.424L339.504 230.568ZM350.128 230.568L351.745 231.745L354.059 228.568H350.128V230.568ZM340.818 263.847L329.298 247.527L326.03 249.833L337.55 266.153L340.818 263.847ZM328.681 250.402L336.809 245.602L334.775 242.158L326.647 246.958L328.681 250.402ZM334.168 245.047L349.336 266.167L352.584 263.833L337.416 242.713L334.168 245.047ZM350.96 263H339.184V267H350.96V263ZM316.8 265V230.568H312.8V265H316.8ZM314.8 232.568H324.784V228.568H314.8V232.568ZM322.784 230.568V265H326.784V230.568H322.784ZM324.784 263H314.8V267H324.784V263ZM323.84 251.944V243.944H319.84V251.944H323.84ZM321.84 245.944H333.872V241.944H321.84V245.944ZM331.872 243.944V251.944H335.872V243.944H331.872ZM333.872 249.944H321.84V253.944H333.872V249.944ZM336.97 246.948L327.626 245.924L327.19 249.9L336.534 250.924L336.97 246.948ZM329.048 249.056L341.144 231.712L337.864 229.424L325.768 246.768L329.048 249.056ZM339.504 232.568H350.128V228.568H339.504V232.568ZM348.511 229.391L335.135 247.759L338.369 250.113L351.745 231.745L348.511 229.391ZM369.247 263.592L368.233 265.316L369.247 263.592ZM364.127 257.768L362.304 258.591L362.312 258.609L362.32 258.627L364.127 257.768ZM364.063 237.8L362.234 236.991L364.063 237.8ZM369.055 231.976L368.041 230.252L369.055 231.976ZM385.567 232.296L384.559 234.024L384.576 234.033L384.593 234.043L385.567 232.296ZM391.711 238.44L389.969 239.423L389.975 239.434L389.981 239.444L391.711 238.44ZM391.711 257.192L389.981 256.188L389.975 256.198L389.969 256.209L391.711 257.192ZM385.567 263.336L384.593 261.589L384.581 261.596L385.567 263.336ZM356.511 277.416H354.511V279.416H356.511V277.416ZM356.511 230.568V228.568H354.511V230.568H356.511ZM366.047 230.568H368.047V228.568H366.047V230.568ZM366.047 237.608L368.046 237.645L368.047 237.627V237.608H366.047ZM365.855 247.848L363.855 247.811L363.854 247.892L363.859 247.974L365.855 247.848ZM366.495 258.024H368.495V257.961L368.491 257.898L366.495 258.024ZM366.495 277.416V279.416H368.495V277.416H366.495ZM379.551 256.168L378.546 254.438L378.534 254.446L378.522 254.453L379.551 256.168ZM382.687 252.904L380.941 251.928L380.936 251.937L380.931 251.946L382.687 252.904ZM382.687 242.664L380.931 243.622L380.942 243.642L380.953 243.662L382.687 242.664ZM379.551 239.4L378.522 241.115L378.534 241.122L378.546 241.13L379.551 239.4ZM370.655 239.4L371.659 241.13H371.659L370.655 239.4ZM367.519 242.664L369.274 243.622L367.519 242.664ZM367.519 252.904L365.751 253.84L365.757 253.851L365.763 253.862L367.519 252.904ZM370.655 256.168L371.659 254.438H371.659L370.655 256.168ZM376.863 263.512C374.264 263.512 372.086 262.942 370.261 261.868L368.233 265.316C370.759 266.802 373.659 267.512 376.863 267.512V263.512ZM370.261 261.868C368.476 260.819 367.024 259.204 365.933 256.909L362.32 258.627C363.704 261.538 365.665 263.805 368.233 265.316L370.261 261.868ZM365.949 256.945C364.907 254.637 364.335 251.612 364.335 247.784H360.335C360.335 251.977 360.957 255.608 362.304 258.591L365.949 256.945ZM364.335 247.784C364.335 243.9 364.89 240.873 365.892 238.609L362.234 236.991C360.932 239.932 360.335 243.561 360.335 247.784H364.335ZM365.892 238.609C366.897 236.339 368.298 234.741 370.069 233.7L368.041 230.252C365.459 231.771 363.533 234.056 362.234 236.991L365.892 238.609ZM370.069 233.7C371.881 232.634 374.118 232.056 376.863 232.056V228.056C373.548 228.056 370.58 228.758 368.041 230.252L370.069 233.7ZM376.863 232.056C379.786 232.056 382.333 232.725 384.559 234.024L386.574 230.568C383.68 228.88 380.425 228.056 376.863 228.056V232.056ZM384.593 234.043C386.868 235.311 388.653 237.092 389.969 239.423L393.452 237.457C391.782 234.498 389.471 232.182 386.54 230.549L384.593 234.043ZM389.981 239.444C391.312 241.736 392.015 244.492 392.015 247.784H396.015C396.015 243.908 395.182 240.435 393.44 237.436L389.981 239.444ZM392.015 247.784C392.015 251.124 391.31 253.9 389.981 256.188L393.44 258.196C395.184 255.194 396.015 251.698 396.015 247.784H392.015ZM389.969 256.209C388.653 258.54 386.868 260.321 384.593 261.589L386.54 265.083C389.471 263.45 391.782 261.134 393.452 258.175L389.969 256.209ZM384.581 261.596C382.351 262.859 379.796 263.512 376.863 263.512V267.512C380.415 267.512 383.662 266.714 386.553 265.076L384.581 261.596ZM358.511 277.416V230.568H354.511V277.416H358.511ZM356.511 232.568H366.047V228.568H356.511V232.568ZM364.047 230.568V237.608H368.047V230.568H364.047ZM364.047 237.571L363.855 247.811L367.854 247.885L368.046 237.645L364.047 237.571ZM363.859 247.974L364.499 258.15L368.491 257.898L367.851 247.722L363.859 247.974ZM364.495 258.024V277.416H368.495V258.024H364.495ZM366.495 275.416H356.511V279.416H366.495V275.416ZM375.135 259.32C377.118 259.32 378.954 258.858 380.58 257.883L378.522 254.453C377.587 255.014 376.479 255.32 375.135 255.32V259.32ZM380.555 257.898C382.21 256.937 383.508 255.575 384.442 253.862L380.931 251.946C380.329 253.049 379.537 253.863 378.546 254.438L380.555 257.898ZM384.433 253.88C385.438 252.081 385.903 250.026 385.903 247.784H381.903C381.903 249.467 381.557 250.826 380.941 251.928L384.433 253.88ZM385.903 247.784C385.903 245.51 385.442 243.441 384.42 241.666L380.953 243.662C381.553 244.703 381.903 246.048 381.903 247.784H385.903ZM384.442 241.706C383.508 239.993 382.21 238.631 380.555 237.67L378.546 241.13C379.537 241.705 380.329 242.519 380.931 243.622L384.442 241.706ZM380.58 237.685C378.954 236.71 377.118 236.248 375.135 236.248V240.248C376.479 240.248 377.587 240.554 378.522 241.115L380.58 237.685ZM375.135 236.248C373.15 236.248 371.305 236.71 369.65 237.67L371.659 241.13C372.65 240.554 373.791 240.248 375.135 240.248V236.248ZM369.65 237.67C367.996 238.631 366.697 239.993 365.763 241.706L369.274 243.622C369.876 242.519 370.668 241.705 371.659 241.13L369.65 237.67ZM365.763 241.706C364.799 243.473 364.367 245.526 364.367 247.784H368.367C368.367 246.031 368.702 244.671 369.274 243.622L365.763 241.706ZM364.367 247.784C364.367 250.009 364.803 252.049 365.751 253.84L369.286 251.968C368.698 250.857 368.367 249.484 368.367 247.784H364.367ZM365.763 253.862C366.697 255.575 367.996 256.937 369.65 257.898L371.659 254.438C370.668 253.863 369.876 253.049 369.274 251.946L365.763 253.862ZM369.65 257.898C371.305 258.858 373.15 259.32 375.135 259.32V255.32C373.791 255.32 372.65 255.014 371.659 254.438L369.65 257.898ZM400.147 277.096L400.751 275.19L400.147 277.096ZM395.859 274.792L394.08 273.878L393.37 275.261L394.534 276.29L395.859 274.792ZM399.507 267.688L400.836 266.193L398.907 264.479L397.728 266.774L399.507 267.688ZM402.131 269.288L401.402 271.15L401.415 271.156L401.429 271.161L402.131 269.288ZM408.467 268.84L407.267 267.24L407.222 267.274L407.179 267.31L408.467 268.84ZM410.771 265.576L412.599 266.388L412.605 266.373L412.612 266.357L410.771 265.576ZM412.563 261.352L410.929 260.199L410.805 260.374L410.722 260.571L412.563 261.352ZM413.331 260.264L414.965 261.417L415.092 261.237L415.178 261.032L413.331 260.264ZM425.683 230.568V228.568H424.349L423.836 229.8L425.683 230.568ZM435.283 230.568L437.123 231.351L438.308 228.568H435.283V230.568ZM419.731 267.112L417.891 266.329L417.882 266.349L417.874 266.369L419.731 267.112ZM415.891 273.64L414.418 272.287L414.408 272.298L414.398 272.309L415.891 273.64ZM411.155 276.968L410.468 275.09L410.46 275.093L410.453 275.095L411.155 276.968ZM411.347 266.344L409.509 267.133L410.685 269.873L412.774 267.745L411.347 266.344ZM395.987 230.568V228.568H392.952L394.149 231.357L395.987 230.568ZM406.291 230.568L408.139 229.804L407.628 228.568H406.291V230.568ZM418.195 259.368L419.622 260.769L420.548 259.826L420.043 258.604L418.195 259.368ZM405.459 275.928C403.877 275.928 402.31 275.684 400.751 275.19L399.542 279.002C401.482 279.618 403.457 279.928 405.459 279.928V275.928ZM400.751 275.19C399.206 274.7 398.041 274.052 397.184 273.294L394.534 276.29C395.896 277.495 397.589 278.383 399.542 279.002L400.751 275.19ZM397.638 275.706L401.286 268.602L397.728 266.774L394.08 273.878L397.638 275.706ZM398.178 269.183C399.127 270.027 400.206 270.683 401.402 271.15L402.86 267.426C402.093 267.125 401.422 266.715 400.836 266.193L398.178 269.183ZM401.429 271.161C402.652 271.619 403.892 271.864 405.139 271.864V267.864C404.423 267.864 403.658 267.725 402.833 267.415L401.429 271.161ZM405.139 271.864C406.862 271.864 408.48 271.444 409.755 270.37L407.179 267.31C406.832 267.602 406.232 267.864 405.139 267.864V271.864ZM409.667 270.44C410.907 269.51 411.85 268.074 412.599 266.388L408.943 264.764C408.327 266.15 407.734 266.89 407.267 267.24L409.667 270.44ZM412.612 266.357L414.404 262.133L410.722 260.571L408.93 264.795L412.612 266.357ZM414.197 262.505L414.965 261.417L411.697 259.111L410.929 260.199L414.197 262.505ZM415.178 261.032L427.53 231.336L423.836 229.8L411.484 259.496L415.178 261.032ZM425.683 232.568H435.283V228.568H425.683V232.568ZM433.443 229.785L417.891 266.329L421.571 267.895L437.123 231.351L433.443 229.785ZM417.874 266.369C416.822 268.999 415.654 270.942 414.418 272.287L417.364 274.993C419.029 273.181 420.421 270.771 421.588 267.855L417.874 266.369ZM414.398 272.309C413.18 273.675 411.868 274.578 410.468 275.09L411.842 278.846C413.941 278.078 415.786 276.762 417.383 274.971L414.398 272.309ZM410.453 275.095C409.001 275.64 407.345 275.928 405.459 275.928V279.928C407.755 279.928 409.895 279.576 411.857 278.841L410.453 275.095ZM413.185 265.555L397.825 229.779L394.149 231.357L409.509 267.133L413.185 265.555ZM395.987 232.568H406.291V228.568H395.987V232.568ZM404.443 231.332L416.347 260.132L420.043 258.604L408.139 229.804L404.443 231.332ZM416.768 257.967L409.92 264.943L412.774 267.745L419.622 260.769L416.768 257.967ZM480.282 265L478.538 265.978L479.111 267H480.282V265ZM471.13 248.68L470.107 246.961L468.432 247.958L469.386 249.658L471.13 248.68ZM479.194 243.88L480.9 242.836L479.869 241.151L478.171 242.161L479.194 243.88ZM492.122 265V267H495.691L493.828 263.956L492.122 265ZM465.242 251.944H463.242V253.944H465.242V251.944ZM465.242 243.944V241.944H463.242V243.944H465.242ZM477.21 243.944H479.21V241.944H477.21V243.944ZM477.21 251.944V253.944H479.21V251.944H477.21ZM480.218 248.936L480.002 250.924L481.272 251.062L481.931 249.968L480.218 248.936ZM470.81 247.912L469.074 246.919L467.558 249.57L470.594 249.9L470.81 247.912ZM480.73 230.568V228.568H479.57L478.994 229.575L480.73 230.568ZM491.29 230.568L493.003 231.6L494.831 228.568H491.29V230.568ZM446.234 265V267H447.406L447.979 265.978L446.234 265ZM434.458 265L432.75 263.96L430.898 267H434.458V265ZM447.322 243.88L448.345 242.161L446.644 241.149L445.614 242.84L447.322 243.88ZM455.386 248.68L457.131 249.658L458.084 247.958L456.409 246.961L455.386 248.68ZM468.186 265V267H470.186V265H468.186ZM458.33 265H456.33V267H458.33V265ZM458.33 230.568V228.568H456.33V230.568H458.33ZM468.186 230.568H470.186V228.568H468.186V230.568ZM461.274 251.944V253.944H463.274V251.944H461.274ZM449.37 251.944H447.37V253.944H449.37V251.944ZM449.37 243.944V241.944H447.37V243.944H449.37ZM461.274 243.944H463.274V241.944H461.274V243.944ZM446.298 248.936L444.585 249.968L445.245 251.063L446.516 250.924L446.298 248.936ZM435.226 230.568V228.568H431.685L433.513 231.6L435.226 230.568ZM445.786 230.568L447.525 229.58L446.95 228.568H445.786V230.568ZM455.642 247.912L455.86 249.9L458.884 249.569L457.381 246.924L455.642 247.912ZM482.027 264.022L472.875 247.702L469.386 249.658L478.538 265.978L482.027 264.022ZM472.153 250.399L480.217 245.599L478.171 242.161L470.107 246.961L472.153 250.399ZM477.488 244.924L490.416 266.044L493.828 263.956L480.9 242.836L477.488 244.924ZM492.122 263H480.282V267H492.122V263ZM467.242 251.944V243.944H463.242V251.944H467.242ZM465.242 245.944H477.21V241.944H465.242V245.944ZM475.21 243.944V251.944H479.21V243.944H475.21ZM477.21 249.944H465.242V253.944H477.21V249.944ZM480.434 246.948L471.027 245.924L470.594 249.9L480.002 250.924L480.434 246.948ZM472.546 248.905L482.466 231.561L478.994 229.575L469.074 246.919L472.546 248.905ZM480.73 232.568H491.29V228.568H480.73V232.568ZM489.577 229.535L478.505 247.903L481.931 249.968L493.003 231.6L489.577 229.535ZM446.234 263H434.458V267H446.234V263ZM436.166 266.04L449.03 244.92L445.614 242.84L432.75 263.96L436.166 266.04ZM446.299 245.599L454.363 250.399L456.409 246.961L448.345 242.161L446.299 245.599ZM453.642 247.702L444.49 264.022L447.979 265.978L457.131 249.658L453.642 247.702ZM468.186 263H458.33V267H468.186V263ZM460.33 265V230.568H456.33V265H460.33ZM458.33 232.568H468.186V228.568H458.33V232.568ZM466.186 230.568V265H470.186V230.568H466.186ZM461.274 249.944H449.37V253.944H461.274V249.944ZM451.37 251.944V243.944H447.37V251.944H451.37ZM449.37 245.944H461.274V241.944H449.37V245.944ZM459.274 243.944V251.944H463.274V243.944H459.274ZM448.011 247.903L436.939 229.535L433.513 231.6L444.585 249.968L448.011 247.903ZM435.226 232.568H445.786V228.568H435.226V232.568ZM444.047 231.556L453.903 248.9L457.381 246.924L447.525 229.58L444.047 231.556ZM455.424 245.924L446.08 246.948L446.516 250.924L455.86 249.9L455.424 245.924ZM503.425 263.208L502.5 264.981L502.511 264.987L503.425 263.208ZM496.577 256.936L494.865 257.969L494.868 257.975L494.872 257.981L496.577 256.936ZM496.513 238.632L494.801 237.599L494.796 237.607L496.513 238.632ZM503.105 232.36L504.053 234.121L504.064 234.115L504.074 234.11L503.105 232.36ZM521.601 232.232L520.651 233.992L520.668 234.001L520.685 234.01L521.601 232.232ZM528.065 238.376L526.341 239.389L526.348 239.401L528.065 238.376ZM530.369 249.256L532.361 249.437L532.362 249.43L532.362 249.422L530.369 249.256ZM530.241 250.6V252.6H532.051L532.231 250.799L530.241 250.6ZM502.273 250.6H500.273V252.6H502.273V250.6ZM502.273 244.776V242.776H500.273V244.776H502.273ZM524.993 244.776L525.814 246.6L524.993 242.776V244.776ZM521.153 246.504H519.153V249.597L521.974 248.328L521.153 246.504ZM517.057 238.76L516.028 240.475L516.05 240.488L516.071 240.5L517.057 238.76ZM508.033 238.76L509.019 240.5L509.028 240.495L509.038 240.49L508.033 238.76ZM505.025 241.896L506.779 242.858L506.785 242.846L506.792 242.834L505.025 241.896ZM505.153 253.16L503.407 254.136L503.425 254.166L503.443 254.197L505.153 253.16ZM508.673 256.424L507.759 258.203L507.789 258.218L507.819 258.232L508.673 256.424ZM518.849 256.68L518.116 254.819L518.106 254.823L518.097 254.827L518.849 256.68ZM522.689 254.184L524.16 252.828L522.774 251.326L521.302 252.743L522.689 254.184ZM528.001 259.944L529.502 261.266L530.694 259.913L529.472 258.588L528.001 259.944ZM522.049 264.104L522.781 265.965L522.795 265.96L522.809 265.954L522.049 264.104ZM513.793 263.512C510.132 263.512 507 262.797 504.34 261.429L502.511 264.987C505.824 266.691 509.603 267.512 513.793 267.512V263.512ZM504.35 261.435C501.704 260.054 499.701 258.206 498.282 255.891L494.872 257.981C496.696 260.957 499.258 263.29 502.5 264.981L504.35 261.435ZM498.29 255.903C496.873 253.554 496.145 250.866 496.145 247.784H492.145C492.145 251.528 493.039 254.942 494.865 257.969L498.29 255.903ZM496.145 247.784C496.145 244.644 496.859 241.956 498.231 239.657L494.796 237.607C493.01 240.599 492.145 244.012 492.145 247.784H496.145ZM498.226 239.665C499.662 237.285 501.594 235.445 504.053 234.121L502.157 230.599C499.07 232.262 496.608 234.603 494.801 237.599L498.226 239.665ZM504.074 234.11C506.521 232.754 509.318 232.056 512.513 232.056V228.056C508.712 228.056 505.236 228.894 502.136 230.61L504.074 234.11ZM512.513 232.056C515.587 232.056 518.285 232.715 520.651 233.992L522.551 230.472C519.542 228.848 516.181 228.056 512.513 228.056V232.056ZM520.685 234.01C523.074 235.242 524.951 237.022 526.341 239.389L529.79 237.363C528.023 234.354 525.59 232.038 522.518 230.454L520.685 234.01ZM526.348 239.401C527.707 241.678 528.433 244.487 528.433 247.912H532.433C532.433 243.913 531.581 240.364 529.783 237.351L526.348 239.401ZM528.433 247.912C528.433 248.226 528.416 248.616 528.376 249.09L532.362 249.422C532.408 248.872 532.433 248.366 532.433 247.912H528.433ZM528.378 249.075C528.335 249.539 528.293 249.981 528.251 250.401L532.231 250.799C532.275 250.366 532.318 249.912 532.361 249.437L528.378 249.075ZM530.241 248.6H502.273V252.6H530.241V248.6ZM504.273 250.6V244.776H500.273V250.6H504.273ZM502.273 246.776H524.993V242.776H502.273V246.776ZM524.173 242.952L520.333 244.68L521.974 248.328L525.814 246.6L524.173 242.952ZM523.153 246.504C523.153 244.439 522.734 242.539 521.819 240.87L518.312 242.794C518.847 243.771 519.153 244.985 519.153 246.504H523.153ZM521.819 240.87C520.92 239.231 519.655 237.933 518.043 237.02L516.071 240.5C517.02 241.037 517.76 241.788 518.312 242.794L521.819 240.87ZM518.086 237.045C516.453 236.065 514.593 235.608 512.577 235.608V239.608C513.974 239.608 515.102 239.919 516.028 240.475L518.086 237.045ZM512.577 235.608C510.56 235.608 508.691 236.065 507.029 237.03L509.038 240.49C510.021 239.919 511.182 239.608 512.577 239.608V235.608ZM507.047 237.02C505.419 237.943 504.153 239.274 503.259 240.958L506.792 242.834C507.348 241.787 508.088 241.028 509.019 240.5L507.047 237.02ZM503.272 240.934C502.353 242.609 501.937 244.533 501.937 246.632H505.937C505.937 245.061 506.247 243.828 506.779 242.858L503.272 240.934ZM501.937 246.632V248.168H505.937V246.632H501.937ZM501.937 248.168C501.937 250.342 502.409 252.35 503.407 254.136L506.899 252.184C506.276 251.069 505.937 249.749 505.937 248.168H501.937ZM503.443 254.197C504.492 255.927 505.943 257.269 507.759 258.203L509.588 254.645C508.416 254.043 507.521 253.209 506.864 252.123L503.443 254.197ZM507.819 258.232C509.672 259.107 511.766 259.512 514.049 259.512V255.512C512.237 255.512 510.747 255.191 509.527 254.616L507.819 258.232ZM514.049 259.512C516.081 259.512 517.947 259.205 519.602 258.533L518.097 254.827C517.021 255.264 515.687 255.512 514.049 255.512V259.512ZM519.582 258.541C521.247 257.885 522.747 256.905 524.077 255.625L521.302 252.743C520.328 253.682 519.267 254.366 518.116 254.819L519.582 258.541ZM521.219 255.54L526.531 261.3L529.472 258.588L524.16 252.828L521.219 255.54ZM526.501 258.622C525.141 260.165 523.418 261.38 521.289 262.254L522.809 265.954C525.459 264.866 527.704 263.307 529.502 261.266L526.501 258.622ZM521.318 262.243C519.205 263.072 516.71 263.512 513.793 263.512V267.512C517.106 267.512 520.114 267.013 522.781 265.965L521.318 262.243ZM563.182 265L561.549 266.153L562.146 267H563.182V265ZM551.662 248.68L550.645 246.958L548.777 248.061L550.029 249.833L551.662 248.68ZM559.79 243.88L561.415 242.713L560.348 241.228L558.773 242.158L559.79 243.88ZM574.958 265V267H578.857L576.583 263.833L574.958 265ZM538.798 265H536.798V267H538.798V265ZM538.798 230.568V228.568H536.798V230.568H538.798ZM548.782 230.568H550.782V228.568H548.782V230.568ZM548.782 265V267H550.782V265H548.782ZM545.838 251.944H543.838V253.944H545.838V251.944ZM545.838 243.944V241.944H543.838V243.944H545.838ZM557.87 243.944H559.87V241.944H557.87V243.944ZM557.87 251.944V253.944H559.87V251.944H557.87ZM560.75 248.936L560.533 250.924L561.685 251.05L562.367 250.113L560.75 248.936ZM551.406 247.912L549.766 246.768L547.838 249.533L551.189 249.9L551.406 247.912ZM563.502 230.568V228.568H562.459L561.862 229.424L563.502 230.568ZM574.126 230.568L575.743 231.745L578.057 228.568H574.126V230.568ZM564.816 263.847L553.296 247.527L550.029 249.833L561.549 266.153L564.816 263.847ZM552.679 250.402L560.807 245.602L558.773 242.158L550.645 246.958L552.679 250.402ZM558.166 245.047L573.334 266.167L576.583 263.833L561.415 242.713L558.166 245.047ZM574.958 263H563.182V267H574.958V263ZM540.798 265V230.568H536.798V265H540.798ZM538.798 232.568H548.782V228.568H538.798V232.568ZM546.782 230.568V265H550.782V230.568H546.782ZM548.782 263H538.798V267H548.782V263ZM547.838 251.944V243.944H543.838V251.944H547.838ZM545.838 245.944H557.87V241.944H545.838V245.944ZM555.87 243.944V251.944H559.87V243.944H555.87ZM557.87 249.944H545.838V253.944H557.87V249.944ZM560.968 246.948L551.624 245.924L551.189 249.9L560.533 250.924L560.968 246.948ZM553.047 249.056L565.143 231.712L561.862 229.424L549.766 246.768L553.047 249.056ZM563.502 232.568H574.126V228.568H563.502V232.568ZM572.51 229.391L559.134 247.759L562.367 250.113L575.743 231.745L572.51 229.391Z" fill="#42D4BA"/>
</g>
<path d="M64.5 520V484.3H92.75V520H85.2V490.6H72.05V520H64.5ZM126.668 506.3C126.668 508.567 126.351 510.583 125.718 512.35C125.118 514.117 124.235 515.617 123.068 516.85C121.935 518.05 120.551 518.967 118.918 519.6C117.285 520.2 115.435 520.5 113.368 520.5C111.468 520.5 109.701 520.2 108.068 519.6C106.468 518.967 105.085 518.05 103.918 516.85C102.751 515.617 101.835 514.117 101.168 512.35C100.535 510.583 100.218 508.567 100.218 506.3C100.218 503.267 100.751 500.717 101.818 498.65C102.885 496.55 104.418 494.95 106.418 493.85C108.418 492.75 110.785 492.2 113.518 492.2C116.085 492.2 118.351 492.75 120.318 493.85C122.285 494.95 123.835 496.55 124.968 498.65C126.101 500.717 126.668 503.267 126.668 506.3ZM107.818 506.3C107.818 508.1 108.001 509.617 108.368 510.85C108.768 512.05 109.385 512.967 110.218 513.6C111.051 514.2 112.135 514.5 113.468 514.5C114.801 514.5 115.868 514.2 116.668 513.6C117.501 512.967 118.101 512.05 118.468 510.85C118.868 509.617 119.068 508.1 119.068 506.3C119.068 504.5 118.868 503 118.468 501.8C118.101 500.6 117.501 499.7 116.668 499.1C115.835 498.5 114.751 498.2 113.418 498.2C111.451 498.2 110.018 498.883 109.118 500.25C108.251 501.583 107.818 503.6 107.818 506.3ZM158.087 492.7V514.55H162.087V529.8H155.387V520H137.037V529.8H130.337V514.55H132.637C133.837 512.717 134.854 510.633 135.687 508.3C136.521 505.933 137.187 503.417 137.687 500.75C138.187 498.083 138.554 495.4 138.787 492.7H158.087ZM145.037 498.3C144.771 500.3 144.437 502.25 144.037 504.15C143.637 506.017 143.137 507.817 142.537 509.55C141.971 511.283 141.271 512.95 140.437 514.55H150.637V498.3H145.037ZM182.653 492.2C185.719 492.2 188.203 493.4 190.103 495.8C192.003 498.167 192.953 501.667 192.953 506.3C192.953 509.4 192.503 512.017 191.603 514.15C190.703 516.25 189.469 517.833 187.903 518.9C186.336 519.967 184.519 520.5 182.453 520.5C181.153 520.5 180.019 520.333 179.053 520C178.119 519.667 177.319 519.233 176.653 518.7C175.986 518.167 175.403 517.6 174.903 517H174.503C174.636 517.633 174.736 518.3 174.803 519C174.869 519.667 174.903 520.333 174.903 521V532H167.453V492.7H173.503L174.553 496.25H174.903C175.403 495.517 176.003 494.85 176.703 494.25C177.403 493.617 178.236 493.117 179.203 492.75C180.203 492.383 181.353 492.2 182.653 492.2ZM180.253 498.15C178.953 498.15 177.919 498.417 177.153 498.95C176.386 499.483 175.819 500.3 175.453 501.4C175.119 502.467 174.936 503.817 174.903 505.45V506.25C174.903 508.017 175.069 509.517 175.403 510.75C175.736 511.95 176.303 512.867 177.103 513.5C177.903 514.133 178.986 514.45 180.353 514.45C181.486 514.45 182.419 514.133 183.153 513.5C183.886 512.867 184.436 511.933 184.803 510.7C185.169 509.467 185.353 507.967 185.353 506.2C185.353 503.533 184.936 501.533 184.103 500.2C183.303 498.833 182.019 498.15 180.253 498.15ZM224.605 506.3C224.605 508.567 224.289 510.583 223.655 512.35C223.055 514.117 222.172 515.617 221.005 516.85C219.872 518.05 218.489 518.967 216.855 519.6C215.222 520.2 213.372 520.5 211.305 520.5C209.405 520.5 207.639 520.2 206.005 519.6C204.405 518.967 203.022 518.05 201.855 516.85C200.689 515.617 199.772 514.117 199.105 512.35C198.472 510.583 198.155 508.567 198.155 506.3C198.155 503.267 198.689 500.717 199.755 498.65C200.822 496.55 202.355 494.95 204.355 493.85C206.355 492.75 208.722 492.2 211.455 492.2C214.022 492.2 216.289 492.75 218.255 493.85C220.222 494.95 221.772 496.55 222.905 498.65C224.039 500.717 224.605 503.267 224.605 506.3ZM205.755 506.3C205.755 508.1 205.939 509.617 206.305 510.85C206.705 512.05 207.322 512.967 208.155 513.6C208.989 514.2 210.072 514.5 211.405 514.5C212.739 514.5 213.805 514.2 214.605 513.6C215.439 512.967 216.039 512.05 216.405 510.85C216.805 509.617 217.005 508.1 217.005 506.3C217.005 504.5 216.805 503 216.405 501.8C216.039 500.6 215.439 499.7 214.605 499.1C213.772 498.5 212.689 498.2 211.355 498.2C209.389 498.2 207.955 498.883 207.055 500.25C206.189 501.583 205.755 503.6 205.755 506.3ZM229.825 503.65C229.825 499.617 230.325 496.2 231.325 493.4C232.325 490.567 233.908 488.317 236.075 486.65C238.241 484.95 241.075 483.8 244.575 483.2C246.341 482.9 248.125 482.65 249.925 482.45C251.758 482.217 253.641 481.983 255.575 481.75L256.425 488.25C255.591 488.35 254.675 488.467 253.675 488.6C252.675 488.7 251.658 488.817 250.625 488.95C249.625 489.05 248.658 489.167 247.725 489.3C246.791 489.433 245.941 489.55 245.175 489.65C243.941 489.85 242.858 490.133 241.925 490.5C240.991 490.833 240.208 491.317 239.575 491.95C238.941 492.583 238.441 493.45 238.075 494.55C237.741 495.617 237.525 497 237.425 498.7H237.775C238.175 498.067 238.725 497.433 239.425 496.8C240.158 496.167 241.058 495.633 242.125 495.2C243.191 494.767 244.408 494.55 245.775 494.55C247.941 494.55 249.825 495 251.425 495.9C253.025 496.8 254.258 498.133 255.125 499.9C255.991 501.667 256.425 503.867 256.425 506.5C256.425 509.6 255.858 512.183 254.725 514.25C253.591 516.317 252.025 517.883 250.025 518.95C248.025 519.983 245.708 520.5 243.075 520.5C241.075 520.5 239.258 520.133 237.625 519.4C235.991 518.667 234.591 517.583 233.425 516.15C232.258 514.717 231.358 512.95 230.725 510.85C230.125 508.75 229.825 506.35 229.825 503.65ZM243.525 514.45C244.591 514.45 245.508 514.217 246.275 513.75C247.075 513.283 247.691 512.517 248.125 511.45C248.591 510.383 248.825 508.95 248.825 507.15C248.825 504.983 248.458 503.267 247.725 502C247.025 500.7 245.791 500.05 244.025 500.05C242.958 500.05 241.958 500.317 241.025 500.85C240.125 501.35 239.358 501.933 238.725 502.6C238.091 503.233 237.658 503.783 237.425 504.25C237.425 505.55 237.525 506.817 237.725 508.05C237.925 509.25 238.258 510.333 238.725 511.3C239.191 512.267 239.808 513.033 240.575 513.6C241.375 514.167 242.358 514.45 243.525 514.45ZM270.74 492.7V503.2H281.14V492.7H288.59V520H281.14V508.75H270.74V520H263.29V492.7H270.74ZM308.358 492.2C310.891 492.2 313.058 492.683 314.858 493.65C316.691 494.617 318.108 496.017 319.108 497.85C320.108 499.683 320.608 501.933 320.608 504.6V508.2H303.008C303.075 510.3 303.691 511.95 304.858 513.15C306.058 514.35 307.708 514.95 309.808 514.95C311.575 514.95 313.175 514.783 314.608 514.45C316.041 514.083 317.525 513.533 319.058 512.8V518.55C317.725 519.217 316.308 519.7 314.808 520C313.341 520.333 311.558 520.5 309.458 520.5C306.725 520.5 304.308 520 302.208 519C300.108 517.967 298.458 516.417 297.258 514.35C296.058 512.283 295.458 509.683 295.458 506.55C295.458 503.35 295.991 500.7 297.058 498.6C298.158 496.467 299.675 494.867 301.608 493.8C303.541 492.733 305.791 492.2 308.358 492.2ZM308.408 497.5C306.975 497.5 305.775 497.967 304.808 498.9C303.875 499.833 303.325 501.283 303.158 503.25H313.608C313.608 502.15 313.408 501.167 313.008 500.3C312.641 499.433 312.075 498.75 311.308 498.25C310.541 497.75 309.575 497.5 308.408 497.5ZM338.611 492.2C341.145 492.2 343.311 492.683 345.111 493.65C346.945 494.617 348.361 496.017 349.361 497.85C350.361 499.683 350.861 501.933 350.861 504.6V508.2H333.261C333.328 510.3 333.945 511.95 335.111 513.15C336.311 514.35 337.961 514.95 340.061 514.95C341.828 514.95 343.428 514.783 344.861 514.45C346.295 514.083 347.778 513.533 349.311 512.8V518.55C347.978 519.217 346.561 519.7 345.061 520C343.595 520.333 341.811 520.5 339.711 520.5C336.978 520.5 334.561 520 332.461 519C330.361 517.967 328.711 516.417 327.511 514.35C326.311 512.283 325.711 509.683 325.711 506.55C325.711 503.35 326.245 500.7 327.311 498.6C328.411 496.467 329.928 494.867 331.861 493.8C333.795 492.733 336.045 492.2 338.611 492.2ZM338.661 497.5C337.228 497.5 336.028 497.967 335.061 498.9C334.128 499.833 333.578 501.283 333.411 503.25H343.861C343.861 502.15 343.661 501.167 343.261 500.3C342.895 499.433 342.328 498.75 341.561 498.25C340.795 497.75 339.828 497.5 338.661 497.5Z" fill="#42D4BA"/>
<path d="M405.539 502.504H430.194" stroke="#42D4BA" stroke-width="3.09077" stroke-linecap="round" stroke-linejoin="round"/>
<path d="M417.867 490.172L430.195 502.499L417.867 514.827" stroke="#42D4BA" stroke-width="3.09077" stroke-linecap="round" stroke-linejoin="round"/>
<defs>
<filter id="filter0_f_652_1053" x="570.93" y="110.883" width="690.227" height="664.395" filterUnits="userSpaceOnUse" color-interpolation-filters="sRGB">
<feFlood flood-opacity="0" result="BackgroundImageFix"/>
<feBlend mode="normal" in="SourceGraphic" in2="BackgroundImageFix" result="shape"/>
<feGaussianBlur stdDeviation="4.5" result="effect1_foregroundBlur_652_1053"/>
</filter>
<filter id="filter1_f_652_1053" x="310.797" y="226.055" width="268.164" height="55.875" filterUnits="userSpaceOnUse" color-interpolation-filters="sRGB">
<feFlood flood-opacity="0" result="BackgroundImageFix"/>
<feBlend mode="normal" in="SourceGraphic" in2="BackgroundImageFix" result="shape"/>
<feGaussianBlur stdDeviation="2" result="effect1_foregroundBlur_652_1053"/>
</filter>
<clipPath id="clip0_652_1053">
<rect width="1052" height="589" fill="white"/>
</clipPath>
</defs>
</svg>
