<svg width="5073" height="176" viewBox="0 0 5073 176" fill="none" xmlns="http://www.w3.org/2000/svg">
<path d="M1653.02 154.957C1642.43 154.957 1632.9 152.126 1624.42 146.464C1616.04 140.678 1609.45 132.676 1604.63 122.459C1599.82 112.242 1597.41 100.671 1597.41 87.7453C1597.41 74.8199 1599.82 63.2486 1604.63 53.0314C1609.45 42.8141 1616.04 34.8742 1624.42 29.2117C1632.9 23.426 1642.43 20.5332 1653.02 20.5332C1662.27 20.5332 1670.6 22.6259 1678.01 26.8113C1685.43 30.9966 1691.59 37.0285 1696.5 44.9068L1678.3 65.9568C1671.75 55.8626 1663.81 50.8156 1654.47 50.8156C1648.98 50.8156 1644.07 52.3543 1639.73 55.4318C1635.5 58.5093 1632.17 62.8793 1629.77 68.5418C1627.45 74.0813 1626.3 80.4824 1626.3 87.7453C1626.3 95.0081 1627.45 101.471 1629.77 107.133C1632.17 112.673 1635.5 116.981 1639.73 120.059C1644.07 123.136 1648.98 124.675 1654.47 124.675C1663.81 124.675 1671.75 119.628 1678.3 109.534L1696.5 130.584C1691.59 138.462 1685.43 144.494 1678.01 148.679C1670.6 152.865 1662.27 154.957 1653.02 154.957Z" fill="white"/>
<path d="M1729.93 52.1081H1698.87V23.1183H1789.45V52.1081H1758.53V152.372H1729.93V52.1081Z" fill="white"/>
<path d="M1828.7 51.3695V79.8054H1873.34V108.057H1828.7V152.372H1800.1V23.1183H1879.41V51.3695H1828.7Z" fill="white"/>
<path d="M716.308 152.424C705.715 152.424 696.181 149.593 687.706 143.93C679.328 138.145 672.731 130.143 667.916 119.926C663.101 109.709 660.694 98.1375 660.694 85.2121C660.694 72.2867 663.101 60.7154 667.916 50.4982C672.731 40.2809 679.328 32.341 687.706 26.6785C696.181 20.8928 705.715 18 716.308 18C725.553 18 733.883 20.0927 741.298 24.2781C748.713 28.4634 754.876 34.4953 759.788 42.3736L741.587 63.4236C735.038 53.3294 727.094 48.2824 717.752 48.2824C712.263 48.2824 707.352 49.8211 703.018 52.8986C698.781 55.9761 695.459 60.3461 693.051 66.0086C690.74 71.5481 689.584 77.9492 689.584 85.2121C689.584 92.4749 690.74 98.9376 693.051 104.6C695.459 110.14 698.781 114.448 703.018 117.526C707.352 120.603 712.263 122.142 717.752 122.142C727.094 122.142 735.038 117.095 741.587 107.001L759.788 128.051C754.876 135.929 748.713 141.961 741.298 146.146C733.883 150.331 725.553 152.424 716.308 152.424Z" fill="white"/>
<path d="M793.217 49.5749H762.16V20.5851H852.731V49.5749H821.819V149.839H793.217V49.5749Z" fill="white"/>
<path d="M891.988 48.8363V77.2722H936.624V105.523H891.988V149.839H863.387V20.5851H942.691V48.8363H891.988Z" fill="white"/>
<g filter="url(#filter0_f_505_869)">
<path fill-rule="evenodd" clip-rule="evenodd" d="M1041.15 152.798L1040.92 96.8587L1020.64 140.351H1004.49L984.386 98.4353V152.798H951.946V18.0684H980.114L1012.94 86.9713L1044.96 18.0684H1073.14L1073.44 151.43L1119.49 18.0684H1151.32L1197.53 151.446V18.0684H1246C1255.29 18.0684 1263.54 20.0678 1270.64 24.2132C1277.74 28.2412 1283.34 34.1615 1287.29 42.0003C1291.27 49.7535 1293.19 58.8176 1293.19 69.0175C1293.19 78.8474 1291.36 87.6454 1287.6 95.2569C1284.58 101.435 1280.48 106.465 1275.36 110.37L1298.14 152.798H1260.2L1242.27 119.245H1232.09V152.798H1161.61L1153.85 128.264H1116.54L1108.78 152.798H1041.15ZM1114.31 124.037H1156.08L1163.84 148.57H1192.92L1149.17 22.2963H1121.65L1078.04 148.57H1106.55L1114.31 124.037ZM1228.78 115.017H1244.02L1261.94 148.57H1291.86L1270.55 108.884C1271.57 108.253 1272.55 107.584 1273.48 106.877C1278.28 103.263 1282.05 98.6409 1284.8 93.0094C1288.19 86.1546 1289.88 78.1572 1289.88 69.0175C1289.88 59.5169 1288.1 51.279 1284.52 44.3039C1280.95 37.2086 1275.87 31.7968 1269.28 28.0688C1262.69 24.2204 1254.93 22.2963 1246 22.2963H1200.84V148.57H1228.78V115.017ZM1012.97 95.1741L978.256 22.2963H955.253V148.57H981.078V83.4487L1006.34 136.123H1018.76L1044.16 81.6448L1044.44 148.57H1070.13L1069.84 22.2963H1046.84L1012.97 95.1741ZM1135.2 57.2921L1122.5 97.6996H1147.9L1135.2 57.2921ZM1135.2 68.6324L1127.39 93.4717H1143L1135.2 68.6324ZM1258.35 69.0175C1258.35 64.0898 1257.17 60.7851 1255.11 58.4959C1253.03 56.1789 1249.62 54.6651 1244.3 54.6651H1232.09V83.1894H1244.3C1249.62 83.1894 1253.05 81.7324 1255.14 79.5129C1257.18 77.2247 1258.35 73.9264 1258.35 69.0175ZM1257.28 82.7271C1254.37 85.8539 1250.04 87.4173 1244.3 87.4173H1228.78V50.4372H1244.3C1250.04 50.4372 1254.37 52.0607 1257.28 55.3078C1260.2 58.5548 1261.66 63.1247 1261.66 69.0175C1261.66 74.9102 1260.2 79.4801 1257.28 82.7271ZM1371.63 148.57L1343.4 102.75L1332.96 117.001V148.57H1305.3V22.2963H1332.96V74.7899L1371.2 22.2963H1401.97L1361.61 78.2174L1404.08 148.57H1371.63ZM1365.93 78.4604L1408.11 148.315V20.0228L1365.93 78.4604ZM1492.2 18.0684V54.1239H1442.38V66.9542H1486.27V102.108H1442.38V116.742H1494.03V152.798H1370.02L1343.18 109.232L1336.27 118.672V152.798H1301.99V18.0684H1336.27V64.0463L1369.76 18.0684H1492.2ZM1439.07 120.97V97.8799H1482.96V71.1821H1439.07V49.896H1488.89V22.2963H1411.42V148.57H1490.73V120.97H1439.07ZM1493.61 54.8455V18.0684H1588.71V54.8455H1558.51V152.798H1523.95V54.8455H1493.61ZM1527.26 50.6176V148.57H1555.2V50.6176H1585.4V22.2963H1496.92V50.6176H1527.26Z" fill="#42D4BA"/>
<path fill-rule="evenodd" clip-rule="evenodd" d="M1041.15 152.798L1040.92 96.8587L1020.64 140.351H1004.49L984.386 98.4353V152.798H951.946V18.0684H980.114L1012.94 86.9713L1044.96 18.0684H1073.14L1073.44 151.43L1119.49 18.0684H1151.32L1197.53 151.446V18.0684H1246C1255.29 18.0684 1263.54 20.0678 1270.64 24.2132C1277.74 28.2412 1283.34 34.1615 1287.29 42.0003C1291.27 49.7535 1293.19 58.8176 1293.19 69.0175C1293.19 78.8474 1291.36 87.6454 1287.6 95.2569C1284.58 101.435 1280.48 106.465 1275.36 110.37L1298.14 152.798H1260.2L1242.27 119.245H1232.09V152.798H1161.61L1153.85 128.264H1116.54L1108.78 152.798H1041.15ZM1114.31 124.037H1156.08L1163.84 148.57H1192.92L1149.17 22.2963H1121.65L1078.04 148.57H1106.55L1114.31 124.037ZM1228.78 115.017H1244.02L1261.94 148.57H1291.86L1270.55 108.884C1271.57 108.253 1272.55 107.584 1273.48 106.877C1278.28 103.263 1282.05 98.6409 1284.8 93.0094C1288.19 86.1546 1289.88 78.1572 1289.88 69.0175C1289.88 59.5169 1288.1 51.279 1284.52 44.3039C1280.95 37.2086 1275.87 31.7968 1269.28 28.0688C1262.69 24.2204 1254.93 22.2963 1246 22.2963H1200.84V148.57H1228.78V115.017ZM1012.97 95.1741L978.256 22.2963H955.253V148.57H981.078V83.4487L1006.34 136.123H1018.76L1044.16 81.6448L1044.44 148.57H1070.13L1069.84 22.2963H1046.84L1012.97 95.1741ZM1135.2 57.2921L1122.5 97.6996H1147.9L1135.2 57.2921ZM1135.2 68.6324L1127.39 93.4717H1143L1135.2 68.6324ZM1258.35 69.0175C1258.35 64.0898 1257.17 60.7851 1255.11 58.4959C1253.03 56.1789 1249.62 54.6651 1244.3 54.6651H1232.09V83.1894H1244.3C1249.62 83.1894 1253.05 81.7324 1255.14 79.5129C1257.18 77.2247 1258.35 73.9264 1258.35 69.0175ZM1257.28 82.7271C1254.37 85.8539 1250.04 87.4173 1244.3 87.4173H1228.78V50.4372H1244.3C1250.04 50.4372 1254.37 52.0607 1257.28 55.3078C1260.2 58.5548 1261.66 63.1247 1261.66 69.0175C1261.66 74.9102 1260.2 79.4801 1257.28 82.7271ZM1371.63 148.57L1343.4 102.75L1332.96 117.001V148.57H1305.3V22.2963H1332.96V74.7899L1371.2 22.2963H1401.97L1361.61 78.2174L1404.08 148.57H1371.63ZM1365.93 78.4604L1408.11 148.315V20.0228L1365.93 78.4604ZM1492.2 18.0684V54.1239H1442.38V66.9542H1486.27V102.108H1442.38V116.742H1494.03V152.798H1370.02L1343.18 109.232L1336.27 118.672V152.798H1301.99V18.0684H1336.27V64.0463L1369.76 18.0684H1492.2ZM1439.07 120.97V97.8799H1482.96V71.1821H1439.07V49.896H1488.89V22.2963H1411.42V148.57H1490.73V120.97H1439.07ZM1493.61 54.8455V18.0684H1588.71V54.8455H1558.51V152.798H1523.95V54.8455H1493.61ZM1527.26 50.6176V148.57H1555.2V50.6176H1585.4V22.2963H1496.92V50.6176H1527.26Z" fill="#42D4BA"/>
<path fill-rule="evenodd" clip-rule="evenodd" d="M1041.15 152.798L1040.92 96.8587L1020.64 140.351H1004.49L984.386 98.4353V152.798H951.946V18.0684H980.114L1012.94 86.9713L1044.96 18.0684H1073.14L1073.44 151.43L1119.49 18.0684H1151.32L1197.53 151.446V18.0684H1246C1255.29 18.0684 1263.54 20.0678 1270.64 24.2132C1277.74 28.2412 1283.34 34.1615 1287.29 42.0003C1291.27 49.7535 1293.19 58.8176 1293.19 69.0175C1293.19 78.8474 1291.36 87.6454 1287.6 95.2569C1284.58 101.435 1280.48 106.465 1275.36 110.37L1298.14 152.798H1260.2L1242.27 119.245H1232.09V152.798H1161.61L1153.85 128.264H1116.54L1108.78 152.798H1041.15ZM1114.31 124.037H1156.08L1163.84 148.57H1192.92L1149.17 22.2963H1121.65L1078.04 148.57H1106.55L1114.31 124.037ZM1228.78 115.017H1244.02L1261.94 148.57H1291.86L1270.55 108.884C1271.57 108.253 1272.55 107.584 1273.48 106.877C1278.28 103.263 1282.05 98.6409 1284.8 93.0094C1288.19 86.1546 1289.88 78.1572 1289.88 69.0175C1289.88 59.5169 1288.1 51.279 1284.52 44.3039C1280.95 37.2086 1275.87 31.7968 1269.28 28.0688C1262.69 24.2204 1254.93 22.2963 1246 22.2963H1200.84V148.57H1228.78V115.017ZM1012.97 95.1741L978.256 22.2963H955.253V148.57H981.078V83.4487L1006.34 136.123H1018.76L1044.16 81.6448L1044.44 148.57H1070.13L1069.84 22.2963H1046.84L1012.97 95.1741ZM1135.2 57.2921L1122.5 97.6996H1147.9L1135.2 57.2921ZM1135.2 68.6324L1127.39 93.4717H1143L1135.2 68.6324ZM1258.35 69.0175C1258.35 64.0898 1257.17 60.7851 1255.11 58.4959C1253.03 56.1789 1249.62 54.6651 1244.3 54.6651H1232.09V83.1894H1244.3C1249.62 83.1894 1253.05 81.7324 1255.14 79.5129C1257.18 77.2247 1258.35 73.9264 1258.35 69.0175ZM1257.28 82.7271C1254.37 85.8539 1250.04 87.4173 1244.3 87.4173H1228.78V50.4372H1244.3C1250.04 50.4372 1254.37 52.0607 1257.28 55.3078C1260.2 58.5548 1261.66 63.1247 1261.66 69.0175C1261.66 74.9102 1260.2 79.4801 1257.28 82.7271ZM1371.63 148.57L1343.4 102.75L1332.96 117.001V148.57H1305.3V22.2963H1332.96V74.7899L1371.2 22.2963H1401.97L1361.61 78.2174L1404.08 148.57H1371.63ZM1365.93 78.4604L1408.11 148.315V20.0228L1365.93 78.4604ZM1492.2 18.0684V54.1239H1442.38V66.9542H1486.27V102.108H1442.38V116.742H1494.03V152.798H1370.02L1343.18 109.232L1336.27 118.672V152.798H1301.99V18.0684H1336.27V64.0463L1369.76 18.0684H1492.2ZM1439.07 120.97V97.8799H1482.96V71.1821H1439.07V49.896H1488.89V22.2963H1411.42V148.57H1490.73V120.97H1439.07ZM1493.61 54.8455V18.0684H1588.71V54.8455H1558.51V152.798H1523.95V54.8455H1493.61ZM1527.26 50.6176V148.57H1555.2V50.6176H1585.4V22.2963H1496.92V50.6176H1527.26Z" fill="#42D4BA"/>
</g>
<path fill-rule="evenodd" clip-rule="evenodd" d="M1041.15 152.798L1040.92 96.8587L1020.64 140.351H1004.49L984.386 98.4353V152.798H951.946V18.0684H980.114L1012.94 86.9713L1044.96 18.0684H1073.14L1073.44 151.43L1119.49 18.0684H1151.32L1197.53 151.446V18.0684H1246C1255.29 18.0684 1263.54 20.0678 1270.64 24.2132C1277.74 28.2412 1283.34 34.1615 1287.29 42.0003C1291.27 49.7535 1293.19 58.8176 1293.19 69.0175C1293.19 78.8474 1291.36 87.6454 1287.6 95.2569C1284.58 101.435 1280.48 106.465 1275.36 110.37L1298.14 152.798H1260.2L1242.27 119.245H1232.09V152.798H1161.61L1153.85 128.264H1116.54L1108.78 152.798H1041.15ZM1114.31 124.037H1156.08L1163.84 148.57H1192.92L1149.17 22.2963H1121.65L1078.04 148.57H1106.55L1114.31 124.037ZM1228.78 115.017H1244.02L1261.94 148.57H1291.86L1270.55 108.884C1271.57 108.253 1272.55 107.584 1273.48 106.877C1278.28 103.263 1282.05 98.6409 1284.8 93.0094C1288.19 86.1546 1289.88 78.1572 1289.88 69.0175C1289.88 59.5169 1288.1 51.279 1284.52 44.3039C1280.95 37.2086 1275.87 31.7968 1269.28 28.0688C1262.69 24.2204 1254.93 22.2963 1246 22.2963H1200.84V148.57H1228.78V115.017ZM1012.97 95.1741L978.256 22.2963H955.253V148.57H981.078V83.4487L1006.34 136.123H1018.76L1044.16 81.6448L1044.44 148.57H1070.13L1069.84 22.2963H1046.84L1012.97 95.1741ZM1135.2 57.2921L1122.5 97.6996H1147.9L1135.2 57.2921ZM1135.2 68.6324L1127.39 93.4717H1143L1135.2 68.6324ZM1258.35 69.0175C1258.35 64.0898 1257.17 60.7851 1255.11 58.4959C1253.03 56.1789 1249.62 54.6651 1244.3 54.6651H1232.09V83.1894H1244.3C1249.62 83.1894 1253.05 81.7324 1255.14 79.5129C1257.18 77.2247 1258.35 73.9264 1258.35 69.0175ZM1257.28 82.7271C1254.37 85.8539 1250.04 87.4173 1244.3 87.4173H1228.78V50.4372H1244.3C1250.04 50.4372 1254.37 52.0607 1257.28 55.3078C1260.2 58.5548 1261.66 63.1247 1261.66 69.0175C1261.66 74.9102 1260.2 79.4801 1257.28 82.7271ZM1371.63 148.57L1343.4 102.75L1332.96 117.001V148.57H1305.3V22.2963H1332.96V74.7899L1371.2 22.2963H1401.97L1361.61 78.2174L1404.08 148.57H1371.63ZM1365.93 78.4604L1408.11 148.315V20.0228L1365.93 78.4604ZM1492.2 18.0684V54.1239H1442.38V66.9542H1486.27V102.108H1442.38V116.742H1494.03V152.798H1370.02L1343.18 109.232L1336.27 118.672V152.798H1301.99V18.0684H1336.27V64.0463L1369.76 18.0684H1492.2ZM1439.07 120.97V97.8799H1482.96V71.1821H1439.07V49.896H1488.89V22.2963H1411.42V148.57H1490.73V120.97H1439.07ZM1493.61 54.8455V18.0684H1588.71V54.8455H1558.51V152.798H1523.95V54.8455H1493.61ZM1527.26 50.6176V148.57H1555.2V50.6176H1585.4V22.2963H1496.92V50.6176H1527.26Z" fill="#42D4BA"/>
<path fill-rule="evenodd" clip-rule="evenodd" d="M1041.15 152.798L1040.92 96.8587L1020.64 140.351H1004.49L984.386 98.4353V152.798H951.946V18.0684H980.114L1012.94 86.9713L1044.96 18.0684H1073.14L1073.44 151.43L1119.49 18.0684H1151.32L1197.53 151.446V18.0684H1246C1255.29 18.0684 1263.54 20.0678 1270.64 24.2132C1277.74 28.2412 1283.34 34.1615 1287.29 42.0003C1291.27 49.7535 1293.19 58.8176 1293.19 69.0175C1293.19 78.8474 1291.36 87.6454 1287.6 95.2569C1284.58 101.435 1280.48 106.465 1275.36 110.37L1298.14 152.798H1260.2L1242.27 119.245H1232.09V152.798H1161.61L1153.85 128.264H1116.54L1108.78 152.798H1041.15ZM1114.31 124.037H1156.08L1163.84 148.57H1192.92L1149.17 22.2963H1121.65L1078.04 148.57H1106.55L1114.31 124.037ZM1228.78 115.017H1244.02L1261.94 148.57H1291.86L1270.55 108.884C1271.57 108.253 1272.55 107.584 1273.48 106.877C1278.28 103.263 1282.05 98.6409 1284.8 93.0094C1288.19 86.1546 1289.88 78.1572 1289.88 69.0175C1289.88 59.5169 1288.1 51.279 1284.52 44.3039C1280.95 37.2086 1275.87 31.7968 1269.28 28.0688C1262.69 24.2204 1254.93 22.2963 1246 22.2963H1200.84V148.57H1228.78V115.017ZM1012.97 95.1741L978.256 22.2963H955.253V148.57H981.078V83.4487L1006.34 136.123H1018.76L1044.16 81.6448L1044.44 148.57H1070.13L1069.84 22.2963H1046.84L1012.97 95.1741ZM1135.2 57.2921L1122.5 97.6996H1147.9L1135.2 57.2921ZM1135.2 68.6324L1127.39 93.4717H1143L1135.2 68.6324ZM1258.35 69.0175C1258.35 64.0898 1257.17 60.7851 1255.11 58.4959C1253.03 56.1789 1249.62 54.6651 1244.3 54.6651H1232.09V83.1894H1244.3C1249.62 83.1894 1253.05 81.7324 1255.14 79.5129C1257.18 77.2247 1258.35 73.9264 1258.35 69.0175ZM1257.28 82.7271C1254.37 85.8539 1250.04 87.4173 1244.3 87.4173H1228.78V50.4372H1244.3C1250.04 50.4372 1254.37 52.0607 1257.28 55.3078C1260.2 58.5548 1261.66 63.1247 1261.66 69.0175C1261.66 74.9102 1260.2 79.4801 1257.28 82.7271ZM1371.63 148.57L1343.4 102.75L1332.96 117.001V148.57H1305.3V22.2963H1332.96V74.7899L1371.2 22.2963H1401.97L1361.61 78.2174L1404.08 148.57H1371.63ZM1365.93 78.4604L1408.11 148.315V20.0228L1365.93 78.4604ZM1492.2 18.0684V54.1239H1442.38V66.9542H1486.27V102.108H1442.38V116.742H1494.03V152.798H1370.02L1343.18 109.232L1336.27 118.672V152.798H1301.99V18.0684H1336.27V64.0463L1369.76 18.0684H1492.2ZM1439.07 120.97V97.8799H1482.96V71.1821H1439.07V49.896H1488.89V22.2963H1411.42V148.57H1490.73V120.97H1439.07ZM1493.61 54.8455V18.0684H1588.71V54.8455H1558.51V152.798H1523.95V54.8455H1493.61ZM1527.26 50.6176V148.57H1555.2V50.6176H1585.4V22.2963H1496.92V50.6176H1527.26Z" fill="#42D4BA"/>
<path fill-rule="evenodd" clip-rule="evenodd" d="M1041.15 152.798L1040.92 96.8587L1020.64 140.351H1004.49L984.386 98.4353V152.798H951.946V18.0684H980.114L1012.94 86.9713L1044.96 18.0684H1073.14L1073.44 151.43L1119.49 18.0684H1151.32L1197.53 151.446V18.0684H1246C1255.29 18.0684 1263.54 20.0678 1270.64 24.2132C1277.74 28.2412 1283.34 34.1615 1287.29 42.0003C1291.27 49.7535 1293.19 58.8176 1293.19 69.0175C1293.19 78.8474 1291.36 87.6454 1287.6 95.2569C1284.58 101.435 1280.48 106.465 1275.36 110.37L1298.14 152.798H1260.2L1242.27 119.245H1232.09V152.798H1161.61L1153.85 128.264H1116.54L1108.78 152.798H1041.15ZM1114.31 124.037H1156.08L1163.84 148.57H1192.92L1149.17 22.2963H1121.65L1078.04 148.57H1106.55L1114.31 124.037ZM1228.78 115.017H1244.02L1261.94 148.57H1291.86L1270.55 108.884C1271.57 108.253 1272.55 107.584 1273.48 106.877C1278.28 103.263 1282.05 98.6409 1284.8 93.0094C1288.19 86.1546 1289.88 78.1572 1289.88 69.0175C1289.88 59.5169 1288.1 51.279 1284.52 44.3039C1280.95 37.2086 1275.87 31.7968 1269.28 28.0688C1262.69 24.2204 1254.93 22.2963 1246 22.2963H1200.84V148.57H1228.78V115.017ZM1012.97 95.1741L978.256 22.2963H955.253V148.57H981.078V83.4487L1006.34 136.123H1018.76L1044.16 81.6448L1044.44 148.57H1070.13L1069.84 22.2963H1046.84L1012.97 95.1741ZM1135.2 57.2921L1122.5 97.6996H1147.9L1135.2 57.2921ZM1135.2 68.6324L1127.39 93.4717H1143L1135.2 68.6324ZM1258.35 69.0175C1258.35 64.0898 1257.17 60.7851 1255.11 58.4959C1253.03 56.1789 1249.62 54.6651 1244.3 54.6651H1232.09V83.1894H1244.3C1249.62 83.1894 1253.05 81.7324 1255.14 79.5129C1257.18 77.2247 1258.35 73.9264 1258.35 69.0175ZM1257.28 82.7271C1254.37 85.8539 1250.04 87.4173 1244.3 87.4173H1228.78V50.4372H1244.3C1250.04 50.4372 1254.37 52.0607 1257.28 55.3078C1260.2 58.5548 1261.66 63.1247 1261.66 69.0175C1261.66 74.9102 1260.2 79.4801 1257.28 82.7271ZM1371.63 148.57L1343.4 102.75L1332.96 117.001V148.57H1305.3V22.2963H1332.96V74.7899L1371.2 22.2963H1401.97L1361.61 78.2174L1404.08 148.57H1371.63ZM1365.93 78.4604L1408.11 148.315V20.0228L1365.93 78.4604ZM1492.2 18.0684V54.1239H1442.38V66.9542H1486.27V102.108H1442.38V116.742H1494.03V152.798H1370.02L1343.18 109.232L1336.27 118.672V152.798H1301.99V18.0684H1336.27V64.0463L1369.76 18.0684H1492.2ZM1439.07 120.97V97.8799H1482.96V71.1821H1439.07V49.896H1488.89V22.2963H1411.42V148.57H1490.73V120.97H1439.07ZM1493.61 54.8455V18.0684H1588.71V54.8455H1558.51V152.798H1523.95V54.8455H1493.61ZM1527.26 50.6176V148.57H1555.2V50.6176H1585.4V22.2963H1496.92V50.6176H1527.26Z" fill="#42D4BA"/>
<g filter="url(#filter1_f_505_869)">
<path fill-rule="evenodd" clip-rule="evenodd" d="M107.206 152.798L106.97 96.8587L86.691 140.351H70.5413L50.4401 98.4353V152.798H18V18.0684H46.1687L78.9909 86.9713L111.013 18.0684H139.196L139.494 151.43L185.548 18.0684H217.374L263.583 151.446V18.0684H312.049C321.345 18.0684 329.59 20.0678 336.692 24.2132C343.799 28.2412 349.396 34.1615 353.349 42.0003C357.32 49.7535 359.246 58.8176 359.246 69.0175C359.246 78.8474 357.418 87.6454 353.659 95.2569C350.637 101.435 346.53 106.465 341.414 110.37L364.196 152.798H326.249L308.327 119.245H298.14V152.798H227.668L219.907 128.264H182.595L174.834 152.798H107.206ZM180.365 124.037H222.137L229.898 148.57H258.969L215.222 22.2963H187.703L144.097 148.57H172.603L180.365 124.037ZM294.833 115.017H310.074L327.996 148.57H357.914L336.604 108.884C337.622 108.253 338.6 107.584 339.538 106.877C344.331 103.263 348.104 98.6409 350.858 93.0094C354.245 86.1546 355.938 78.1572 355.938 69.0175C355.938 59.5169 354.15 51.279 350.575 44.3039C347 37.2086 341.92 31.7968 335.334 28.0688C328.749 24.2204 320.987 22.2963 312.049 22.2963H266.891V148.57H294.833V115.017ZM79.0259 95.1741L44.3102 22.2963H21.3075V148.57H47.1326V83.4487L72.3933 136.123H84.8119L110.214 81.6448L110.496 148.57H136.18L135.898 22.2963H112.895L79.0259 95.1741ZM201.251 57.2921L188.55 97.6996H213.952L201.251 57.2921ZM201.251 68.6324L193.443 93.4717H209.058L201.251 68.6324ZM324.406 69.0175C324.406 64.0898 323.223 60.7851 321.167 58.4959C319.086 56.1789 315.672 54.6651 310.356 54.6651H298.14V83.1894H310.356C315.677 83.1894 319.104 81.7324 321.19 79.5129C323.232 77.2247 324.406 73.9264 324.406 69.0175ZM323.339 82.7271C320.423 85.8539 316.095 87.4173 310.356 87.4173H294.833V50.4372H310.356C316.095 50.4372 320.423 52.0607 323.339 55.3078C326.256 58.5548 327.714 63.1247 327.714 69.0175C327.714 74.9102 326.256 79.4801 323.339 82.7271ZM437.68 148.57L409.456 102.75L399.013 117.001V148.57H371.353V22.2963H399.013V74.7899L437.257 22.2963H468.021L427.66 78.2174L470.138 148.57H437.68ZM431.985 78.4604L474.162 148.315V20.0228L431.985 78.4604ZM558.252 18.0684V54.1239H508.437V66.9542H552.325V102.108H508.437V116.742H560.087V152.798H436.075L409.238 109.232L402.32 118.672V152.798H368.046V18.0684H402.32V64.0463L435.817 18.0684H558.252ZM505.129 120.97V97.8799H549.018V71.1821H505.129V49.896H554.945V22.2963H477.469V148.57H556.779V120.97H505.129ZM559.664 54.8455V18.0684H654.761V54.8455H624.561V152.798H590.004V54.8455H559.664ZM593.312 50.6176V148.57H621.254V50.6176H651.454V22.2963H562.971V50.6176H593.312Z" fill="#42D4BA"/>
<path fill-rule="evenodd" clip-rule="evenodd" d="M107.206 152.798L106.97 96.8587L86.691 140.351H70.5413L50.4401 98.4353V152.798H18V18.0684H46.1687L78.9909 86.9713L111.013 18.0684H139.196L139.494 151.43L185.548 18.0684H217.374L263.583 151.446V18.0684H312.049C321.345 18.0684 329.59 20.0678 336.692 24.2132C343.799 28.2412 349.396 34.1615 353.349 42.0003C357.32 49.7535 359.246 58.8176 359.246 69.0175C359.246 78.8474 357.418 87.6454 353.659 95.2569C350.637 101.435 346.53 106.465 341.414 110.37L364.196 152.798H326.249L308.327 119.245H298.14V152.798H227.668L219.907 128.264H182.595L174.834 152.798H107.206ZM180.365 124.037H222.137L229.898 148.57H258.969L215.222 22.2963H187.703L144.097 148.57H172.603L180.365 124.037ZM294.833 115.017H310.074L327.996 148.57H357.914L336.604 108.884C337.622 108.253 338.6 107.584 339.538 106.877C344.331 103.263 348.104 98.6409 350.858 93.0094C354.245 86.1546 355.938 78.1572 355.938 69.0175C355.938 59.5169 354.15 51.279 350.575 44.3039C347 37.2086 341.92 31.7968 335.334 28.0688C328.749 24.2204 320.987 22.2963 312.049 22.2963H266.891V148.57H294.833V115.017ZM79.0259 95.1741L44.3102 22.2963H21.3075V148.57H47.1326V83.4487L72.3933 136.123H84.8119L110.214 81.6448L110.496 148.57H136.18L135.898 22.2963H112.895L79.0259 95.1741ZM201.251 57.2921L188.55 97.6996H213.952L201.251 57.2921ZM201.251 68.6324L193.443 93.4717H209.058L201.251 68.6324ZM324.406 69.0175C324.406 64.0898 323.223 60.7851 321.167 58.4959C319.086 56.1789 315.672 54.6651 310.356 54.6651H298.14V83.1894H310.356C315.677 83.1894 319.104 81.7324 321.19 79.5129C323.232 77.2247 324.406 73.9264 324.406 69.0175ZM323.339 82.7271C320.423 85.8539 316.095 87.4173 310.356 87.4173H294.833V50.4372H310.356C316.095 50.4372 320.423 52.0607 323.339 55.3078C326.256 58.5548 327.714 63.1247 327.714 69.0175C327.714 74.9102 326.256 79.4801 323.339 82.7271ZM437.68 148.57L409.456 102.75L399.013 117.001V148.57H371.353V22.2963H399.013V74.7899L437.257 22.2963H468.021L427.66 78.2174L470.138 148.57H437.68ZM431.985 78.4604L474.162 148.315V20.0228L431.985 78.4604ZM558.252 18.0684V54.1239H508.437V66.9542H552.325V102.108H508.437V116.742H560.087V152.798H436.075L409.238 109.232L402.32 118.672V152.798H368.046V18.0684H402.32V64.0463L435.817 18.0684H558.252ZM505.129 120.97V97.8799H549.018V71.1821H505.129V49.896H554.945V22.2963H477.469V148.57H556.779V120.97H505.129ZM559.664 54.8455V18.0684H654.761V54.8455H624.561V152.798H590.004V54.8455H559.664ZM593.312 50.6176V148.57H621.254V50.6176H651.454V22.2963H562.971V50.6176H593.312Z" fill="#42D4BA"/>
<path fill-rule="evenodd" clip-rule="evenodd" d="M107.206 152.798L106.97 96.8587L86.691 140.351H70.5413L50.4401 98.4353V152.798H18V18.0684H46.1687L78.9909 86.9713L111.013 18.0684H139.196L139.494 151.43L185.548 18.0684H217.374L263.583 151.446V18.0684H312.049C321.345 18.0684 329.59 20.0678 336.692 24.2132C343.799 28.2412 349.396 34.1615 353.349 42.0003C357.32 49.7535 359.246 58.8176 359.246 69.0175C359.246 78.8474 357.418 87.6454 353.659 95.2569C350.637 101.435 346.53 106.465 341.414 110.37L364.196 152.798H326.249L308.327 119.245H298.14V152.798H227.668L219.907 128.264H182.595L174.834 152.798H107.206ZM180.365 124.037H222.137L229.898 148.57H258.969L215.222 22.2963H187.703L144.097 148.57H172.603L180.365 124.037ZM294.833 115.017H310.074L327.996 148.57H357.914L336.604 108.884C337.622 108.253 338.6 107.584 339.538 106.877C344.331 103.263 348.104 98.6409 350.858 93.0094C354.245 86.1546 355.938 78.1572 355.938 69.0175C355.938 59.5169 354.15 51.279 350.575 44.3039C347 37.2086 341.92 31.7968 335.334 28.0688C328.749 24.2204 320.987 22.2963 312.049 22.2963H266.891V148.57H294.833V115.017ZM79.0259 95.1741L44.3102 22.2963H21.3075V148.57H47.1326V83.4487L72.3933 136.123H84.8119L110.214 81.6448L110.496 148.57H136.18L135.898 22.2963H112.895L79.0259 95.1741ZM201.251 57.2921L188.55 97.6996H213.952L201.251 57.2921ZM201.251 68.6324L193.443 93.4717H209.058L201.251 68.6324ZM324.406 69.0175C324.406 64.0898 323.223 60.7851 321.167 58.4959C319.086 56.1789 315.672 54.6651 310.356 54.6651H298.14V83.1894H310.356C315.677 83.1894 319.104 81.7324 321.19 79.5129C323.232 77.2247 324.406 73.9264 324.406 69.0175ZM323.339 82.7271C320.423 85.8539 316.095 87.4173 310.356 87.4173H294.833V50.4372H310.356C316.095 50.4372 320.423 52.0607 323.339 55.3078C326.256 58.5548 327.714 63.1247 327.714 69.0175C327.714 74.9102 326.256 79.4801 323.339 82.7271ZM437.68 148.57L409.456 102.75L399.013 117.001V148.57H371.353V22.2963H399.013V74.7899L437.257 22.2963H468.021L427.66 78.2174L470.138 148.57H437.68ZM431.985 78.4604L474.162 148.315V20.0228L431.985 78.4604ZM558.252 18.0684V54.1239H508.437V66.9542H552.325V102.108H508.437V116.742H560.087V152.798H436.075L409.238 109.232L402.32 118.672V152.798H368.046V18.0684H402.32V64.0463L435.817 18.0684H558.252ZM505.129 120.97V97.8799H549.018V71.1821H505.129V49.896H554.945V22.2963H477.469V148.57H556.779V120.97H505.129ZM559.664 54.8455V18.0684H654.761V54.8455H624.561V152.798H590.004V54.8455H559.664ZM593.312 50.6176V148.57H621.254V50.6176H651.454V22.2963H562.971V50.6176H593.312Z" fill="#42D4BA"/>
</g>
<path fill-rule="evenodd" clip-rule="evenodd" d="M107.206 152.798L106.97 96.8587L86.691 140.351H70.5413L50.4401 98.4353V152.798H18V18.0684H46.1687L78.9909 86.9713L111.013 18.0684H139.196L139.494 151.43L185.548 18.0684H217.374L263.583 151.446V18.0684H312.049C321.345 18.0684 329.59 20.0678 336.692 24.2132C343.799 28.2412 349.396 34.1615 353.349 42.0003C357.32 49.7535 359.246 58.8176 359.246 69.0175C359.246 78.8474 357.418 87.6454 353.659 95.2569C350.637 101.435 346.53 106.465 341.414 110.37L364.196 152.798H326.249L308.327 119.245H298.14V152.798H227.668L219.907 128.264H182.595L174.834 152.798H107.206ZM180.365 124.037H222.137L229.898 148.57H258.969L215.222 22.2963H187.703L144.097 148.57H172.603L180.365 124.037ZM294.833 115.017H310.074L327.996 148.57H357.914L336.604 108.884C337.622 108.253 338.6 107.584 339.538 106.877C344.331 103.263 348.104 98.6409 350.858 93.0094C354.245 86.1546 355.938 78.1572 355.938 69.0175C355.938 59.5169 354.15 51.279 350.575 44.3039C347 37.2086 341.92 31.7968 335.334 28.0688C328.749 24.2204 320.987 22.2963 312.049 22.2963H266.891V148.57H294.833V115.017ZM79.0259 95.1741L44.3102 22.2963H21.3075V148.57H47.1326V83.4487L72.3933 136.123H84.8119L110.214 81.6448L110.496 148.57H136.18L135.898 22.2963H112.895L79.0259 95.1741ZM201.251 57.2921L188.55 97.6996H213.952L201.251 57.2921ZM201.251 68.6324L193.443 93.4717H209.058L201.251 68.6324ZM324.406 69.0175C324.406 64.0898 323.223 60.7851 321.167 58.4959C319.086 56.1789 315.672 54.6651 310.356 54.6651H298.14V83.1894H310.356C315.677 83.1894 319.104 81.7324 321.19 79.5129C323.232 77.2247 324.406 73.9264 324.406 69.0175ZM323.339 82.7271C320.423 85.8539 316.095 87.4173 310.356 87.4173H294.833V50.4372H310.356C316.095 50.4372 320.423 52.0607 323.339 55.3078C326.256 58.5548 327.714 63.1247 327.714 69.0175C327.714 74.9102 326.256 79.4801 323.339 82.7271ZM437.68 148.57L409.456 102.75L399.013 117.001V148.57H371.353V22.2963H399.013V74.7899L437.257 22.2963H468.021L427.66 78.2174L470.138 148.57H437.68ZM431.985 78.4604L474.162 148.315V20.0228L431.985 78.4604ZM558.252 18.0684V54.1239H508.437V66.9542H552.325V102.108H508.437V116.742H560.087V152.798H436.075L409.238 109.232L402.32 118.672V152.798H368.046V18.0684H402.32V64.0463L435.817 18.0684H558.252ZM505.129 120.97V97.8799H549.018V71.1821H505.129V49.896H554.945V22.2963H477.469V148.57H556.779V120.97H505.129ZM559.664 54.8455V18.0684H654.761V54.8455H624.561V152.798H590.004V54.8455H559.664ZM593.312 50.6176V148.57H621.254V50.6176H651.454V22.2963H562.971V50.6176H593.312Z" fill="#42D4BA"/>
<path fill-rule="evenodd" clip-rule="evenodd" d="M107.206 152.798L106.97 96.8587L86.691 140.351H70.5413L50.4401 98.4353V152.798H18V18.0684H46.1687L78.9909 86.9713L111.013 18.0684H139.196L139.494 151.43L185.548 18.0684H217.374L263.583 151.446V18.0684H312.049C321.345 18.0684 329.59 20.0678 336.692 24.2132C343.799 28.2412 349.396 34.1615 353.349 42.0003C357.32 49.7535 359.246 58.8176 359.246 69.0175C359.246 78.8474 357.418 87.6454 353.659 95.2569C350.637 101.435 346.53 106.465 341.414 110.37L364.196 152.798H326.249L308.327 119.245H298.14V152.798H227.668L219.907 128.264H182.595L174.834 152.798H107.206ZM180.365 124.037H222.137L229.898 148.57H258.969L215.222 22.2963H187.703L144.097 148.57H172.603L180.365 124.037ZM294.833 115.017H310.074L327.996 148.57H357.914L336.604 108.884C337.622 108.253 338.6 107.584 339.538 106.877C344.331 103.263 348.104 98.6409 350.858 93.0094C354.245 86.1546 355.938 78.1572 355.938 69.0175C355.938 59.5169 354.15 51.279 350.575 44.3039C347 37.2086 341.92 31.7968 335.334 28.0688C328.749 24.2204 320.987 22.2963 312.049 22.2963H266.891V148.57H294.833V115.017ZM79.0259 95.1741L44.3102 22.2963H21.3075V148.57H47.1326V83.4487L72.3933 136.123H84.8119L110.214 81.6448L110.496 148.57H136.18L135.898 22.2963H112.895L79.0259 95.1741ZM201.251 57.2921L188.55 97.6996H213.952L201.251 57.2921ZM201.251 68.6324L193.443 93.4717H209.058L201.251 68.6324ZM324.406 69.0175C324.406 64.0898 323.223 60.7851 321.167 58.4959C319.086 56.1789 315.672 54.6651 310.356 54.6651H298.14V83.1894H310.356C315.677 83.1894 319.104 81.7324 321.19 79.5129C323.232 77.2247 324.406 73.9264 324.406 69.0175ZM323.339 82.7271C320.423 85.8539 316.095 87.4173 310.356 87.4173H294.833V50.4372H310.356C316.095 50.4372 320.423 52.0607 323.339 55.3078C326.256 58.5548 327.714 63.1247 327.714 69.0175C327.714 74.9102 326.256 79.4801 323.339 82.7271ZM437.68 148.57L409.456 102.75L399.013 117.001V148.57H371.353V22.2963H399.013V74.7899L437.257 22.2963H468.021L427.66 78.2174L470.138 148.57H437.68ZM431.985 78.4604L474.162 148.315V20.0228L431.985 78.4604ZM558.252 18.0684V54.1239H508.437V66.9542H552.325V102.108H508.437V116.742H560.087V152.798H436.075L409.238 109.232L402.32 118.672V152.798H368.046V18.0684H402.32V64.0463L435.817 18.0684H558.252ZM505.129 120.97V97.8799H549.018V71.1821H505.129V49.896H554.945V22.2963H477.469V148.57H556.779V120.97H505.129ZM559.664 54.8455V18.0684H654.761V54.8455H624.561V152.798H590.004V54.8455H559.664ZM593.312 50.6176V148.57H621.254V50.6176H651.454V22.2963H562.971V50.6176H593.312Z" fill="#42D4BA"/>
<path fill-rule="evenodd" clip-rule="evenodd" d="M107.206 152.798L106.97 96.8587L86.691 140.351H70.5413L50.4401 98.4353V152.798H18V18.0684H46.1687L78.9909 86.9713L111.013 18.0684H139.196L139.494 151.43L185.548 18.0684H217.374L263.583 151.446V18.0684H312.049C321.345 18.0684 329.59 20.0678 336.692 24.2132C343.799 28.2412 349.396 34.1615 353.349 42.0003C357.32 49.7535 359.246 58.8176 359.246 69.0175C359.246 78.8474 357.418 87.6454 353.659 95.2569C350.637 101.435 346.53 106.465 341.414 110.37L364.196 152.798H326.249L308.327 119.245H298.14V152.798H227.668L219.907 128.264H182.595L174.834 152.798H107.206ZM180.365 124.037H222.137L229.898 148.57H258.969L215.222 22.2963H187.703L144.097 148.57H172.603L180.365 124.037ZM294.833 115.017H310.074L327.996 148.57H357.914L336.604 108.884C337.622 108.253 338.6 107.584 339.538 106.877C344.331 103.263 348.104 98.6409 350.858 93.0094C354.245 86.1546 355.938 78.1572 355.938 69.0175C355.938 59.5169 354.15 51.279 350.575 44.3039C347 37.2086 341.92 31.7968 335.334 28.0688C328.749 24.2204 320.987 22.2963 312.049 22.2963H266.891V148.57H294.833V115.017ZM79.0259 95.1741L44.3102 22.2963H21.3075V148.57H47.1326V83.4487L72.3933 136.123H84.8119L110.214 81.6448L110.496 148.57H136.18L135.898 22.2963H112.895L79.0259 95.1741ZM201.251 57.2921L188.55 97.6996H213.952L201.251 57.2921ZM201.251 68.6324L193.443 93.4717H209.058L201.251 68.6324ZM324.406 69.0175C324.406 64.0898 323.223 60.7851 321.167 58.4959C319.086 56.1789 315.672 54.6651 310.356 54.6651H298.14V83.1894H310.356C315.677 83.1894 319.104 81.7324 321.19 79.5129C323.232 77.2247 324.406 73.9264 324.406 69.0175ZM323.339 82.7271C320.423 85.8539 316.095 87.4173 310.356 87.4173H294.833V50.4372H310.356C316.095 50.4372 320.423 52.0607 323.339 55.3078C326.256 58.5548 327.714 63.1247 327.714 69.0175C327.714 74.9102 326.256 79.4801 323.339 82.7271ZM437.68 148.57L409.456 102.75L399.013 117.001V148.57H371.353V22.2963H399.013V74.7899L437.257 22.2963H468.021L427.66 78.2174L470.138 148.57H437.68ZM431.985 78.4604L474.162 148.315V20.0228L431.985 78.4604ZM558.252 18.0684V54.1239H508.437V66.9542H552.325V102.108H508.437V116.742H560.087V152.798H436.075L409.238 109.232L402.32 118.672V152.798H368.046V18.0684H402.32V64.0463L435.817 18.0684H558.252ZM505.129 120.97V97.8799H549.018V71.1821H505.129V49.896H554.945V22.2963H477.469V148.57H556.779V120.97H505.129ZM559.664 54.8455V18.0684H654.761V54.8455H624.561V152.798H590.004V54.8455H559.664ZM593.312 50.6176V148.57H621.254V50.6176H651.454V22.2963H562.971V50.6176H593.312Z" fill="#42D4BA"/>
<g filter="url(#filter2_f_505_869)">
<path fill-rule="evenodd" clip-rule="evenodd" d="M1978.15 155.399L1977.91 99.4602L1957.64 142.952H1941.49L1921.38 101.037V155.399H1888.94V20.6699H1917.11L1949.94 89.5729L1981.96 20.6699H2010.14L2010.44 154.031L2056.49 20.6699H2088.32L2134.53 154.048V20.6699H2182.99C2192.29 20.6699 2200.53 22.6694 2207.64 26.8147C2214.74 30.8428 2220.34 36.7631 2224.29 44.6019C2228.26 52.3551 2230.19 61.4192 2230.19 71.619C2230.19 81.4489 2228.36 90.2469 2224.6 97.8585C2221.58 104.036 2217.47 109.067 2212.36 112.971L2235.14 155.399H2197.19L2179.27 121.847H2169.08V155.399H2098.61L2090.85 130.866H2053.54L2045.78 155.399H1978.15ZM2051.31 126.638H2093.08L2100.84 151.171H2129.91L2086.17 24.8978H2058.65L2015.04 151.171H2043.55L2051.31 126.638ZM2165.78 117.619H2181.02L2198.94 151.171H2228.86L2207.55 111.485C2208.57 110.855 2209.54 110.186 2210.48 109.478C2215.28 105.865 2219.05 101.242 2221.8 95.611C2225.19 88.7561 2226.88 80.7588 2226.88 71.619C2226.88 62.1184 2225.09 53.8806 2221.52 46.9055C2217.94 39.8101 2212.86 34.3984 2206.28 30.6703C2199.69 26.822 2191.93 24.8978 2182.99 24.8978H2137.84V151.171H2165.78V117.619ZM1949.97 97.7757L1915.25 24.8978H1892.25V151.171H1918.08V86.0503L1943.34 138.724H1955.76L1981.16 84.2463L1981.44 151.171H2007.12L2006.84 24.8978H1983.84L1949.97 97.7757ZM2072.2 59.8936L2059.49 100.301H2084.9L2072.2 59.8936ZM2072.2 71.234L2064.39 96.0732H2080L2072.2 71.234ZM2195.35 71.619C2195.35 66.6914 2194.17 63.3867 2192.11 61.0975C2190.03 58.7805 2186.62 57.2667 2181.3 57.2667H2169.08V85.791H2181.3C2186.62 85.791 2190.05 84.334 2192.13 82.1145C2194.18 79.8263 2195.35 76.528 2195.35 71.619ZM2194.28 85.3287C2191.37 88.4555 2187.04 90.0189 2181.3 90.0189H2165.78V53.0388H2181.3C2187.04 53.0388 2191.37 54.6623 2194.28 57.9093C2197.2 61.1564 2198.66 65.7263 2198.66 71.619C2198.66 77.5118 2197.2 82.0817 2194.28 85.3287ZM2308.62 151.171L2280.4 105.352L2269.96 119.603V151.171H2242.3V24.8978H2269.96V77.3915L2308.2 24.8978H2338.97L2298.6 80.8189L2341.08 151.171H2308.62ZM2302.93 81.0619L2345.11 150.916V22.6244L2302.93 81.0619ZM2429.2 20.6699V56.7255H2379.38V69.5558H2423.27V104.709H2379.38V119.344H2431.03V155.399H2307.02L2280.18 111.833L2273.26 121.274V155.399H2238.99V20.6699H2273.26V66.6478L2306.76 20.6699H2429.2ZM2376.07 123.572V100.482H2419.96V73.7837H2376.07V52.4976H2425.89V24.8978H2348.41V151.171H2427.72V123.572H2376.07ZM2430.61 57.4471V20.6699H2525.71V57.4471H2495.51V155.399H2460.95V57.4471H2430.61ZM2464.26 53.2192V151.171H2492.2V53.2192H2522.4V24.8978H2433.92V53.2192H2464.26Z" fill="#42D4BA"/>
<path fill-rule="evenodd" clip-rule="evenodd" d="M1978.15 155.399L1977.91 99.4602L1957.64 142.952H1941.49L1921.38 101.037V155.399H1888.94V20.6699H1917.11L1949.94 89.5729L1981.96 20.6699H2010.14L2010.44 154.031L2056.49 20.6699H2088.32L2134.53 154.048V20.6699H2182.99C2192.29 20.6699 2200.53 22.6694 2207.64 26.8147C2214.74 30.8428 2220.34 36.7631 2224.29 44.6019C2228.26 52.3551 2230.19 61.4192 2230.19 71.619C2230.19 81.4489 2228.36 90.2469 2224.6 97.8585C2221.58 104.036 2217.47 109.067 2212.36 112.971L2235.14 155.399H2197.19L2179.27 121.847H2169.08V155.399H2098.61L2090.85 130.866H2053.54L2045.78 155.399H1978.15ZM2051.31 126.638H2093.08L2100.84 151.171H2129.91L2086.17 24.8978H2058.65L2015.04 151.171H2043.55L2051.31 126.638ZM2165.78 117.619H2181.02L2198.94 151.171H2228.86L2207.55 111.485C2208.57 110.855 2209.54 110.186 2210.48 109.478C2215.28 105.865 2219.05 101.242 2221.8 95.611C2225.19 88.7561 2226.88 80.7588 2226.88 71.619C2226.88 62.1184 2225.09 53.8806 2221.52 46.9055C2217.94 39.8101 2212.86 34.3984 2206.28 30.6703C2199.69 26.822 2191.93 24.8978 2182.99 24.8978H2137.84V151.171H2165.78V117.619ZM1949.97 97.7757L1915.25 24.8978H1892.25V151.171H1918.08V86.0503L1943.34 138.724H1955.76L1981.16 84.2463L1981.44 151.171H2007.12L2006.84 24.8978H1983.84L1949.97 97.7757ZM2072.2 59.8936L2059.49 100.301H2084.9L2072.2 59.8936ZM2072.2 71.234L2064.39 96.0732H2080L2072.2 71.234ZM2195.35 71.619C2195.35 66.6914 2194.17 63.3867 2192.11 61.0975C2190.03 58.7805 2186.62 57.2667 2181.3 57.2667H2169.08V85.791H2181.3C2186.62 85.791 2190.05 84.334 2192.13 82.1145C2194.18 79.8263 2195.35 76.528 2195.35 71.619ZM2194.28 85.3287C2191.37 88.4555 2187.04 90.0189 2181.3 90.0189H2165.78V53.0388H2181.3C2187.04 53.0388 2191.37 54.6623 2194.28 57.9093C2197.2 61.1564 2198.66 65.7263 2198.66 71.619C2198.66 77.5118 2197.2 82.0817 2194.28 85.3287ZM2308.62 151.171L2280.4 105.352L2269.96 119.603V151.171H2242.3V24.8978H2269.96V77.3915L2308.2 24.8978H2338.97L2298.6 80.8189L2341.08 151.171H2308.62ZM2302.93 81.0619L2345.11 150.916V22.6244L2302.93 81.0619ZM2429.2 20.6699V56.7255H2379.38V69.5558H2423.27V104.709H2379.38V119.344H2431.03V155.399H2307.02L2280.18 111.833L2273.26 121.274V155.399H2238.99V20.6699H2273.26V66.6478L2306.76 20.6699H2429.2ZM2376.07 123.572V100.482H2419.96V73.7837H2376.07V52.4976H2425.89V24.8978H2348.41V151.171H2427.72V123.572H2376.07ZM2430.61 57.4471V20.6699H2525.71V57.4471H2495.51V155.399H2460.95V57.4471H2430.61ZM2464.26 53.2192V151.171H2492.2V53.2192H2522.4V24.8978H2433.92V53.2192H2464.26Z" fill="#42D4BA"/>
<path fill-rule="evenodd" clip-rule="evenodd" d="M1978.15 155.399L1977.91 99.4602L1957.64 142.952H1941.49L1921.38 101.037V155.399H1888.94V20.6699H1917.11L1949.94 89.5729L1981.96 20.6699H2010.14L2010.44 154.031L2056.49 20.6699H2088.32L2134.53 154.048V20.6699H2182.99C2192.29 20.6699 2200.53 22.6694 2207.64 26.8147C2214.74 30.8428 2220.34 36.7631 2224.29 44.6019C2228.26 52.3551 2230.19 61.4192 2230.19 71.619C2230.19 81.4489 2228.36 90.2469 2224.6 97.8585C2221.58 104.036 2217.47 109.067 2212.36 112.971L2235.14 155.399H2197.19L2179.27 121.847H2169.08V155.399H2098.61L2090.85 130.866H2053.54L2045.78 155.399H1978.15ZM2051.31 126.638H2093.08L2100.84 151.171H2129.91L2086.17 24.8978H2058.65L2015.04 151.171H2043.55L2051.31 126.638ZM2165.78 117.619H2181.02L2198.94 151.171H2228.86L2207.55 111.485C2208.57 110.855 2209.54 110.186 2210.48 109.478C2215.28 105.865 2219.05 101.242 2221.8 95.611C2225.19 88.7561 2226.88 80.7588 2226.88 71.619C2226.88 62.1184 2225.09 53.8806 2221.52 46.9055C2217.94 39.8101 2212.86 34.3984 2206.28 30.6703C2199.69 26.822 2191.93 24.8978 2182.99 24.8978H2137.84V151.171H2165.78V117.619ZM1949.97 97.7757L1915.25 24.8978H1892.25V151.171H1918.08V86.0503L1943.34 138.724H1955.76L1981.16 84.2463L1981.44 151.171H2007.12L2006.84 24.8978H1983.84L1949.97 97.7757ZM2072.2 59.8936L2059.49 100.301H2084.9L2072.2 59.8936ZM2072.2 71.234L2064.39 96.0732H2080L2072.2 71.234ZM2195.35 71.619C2195.35 66.6914 2194.17 63.3867 2192.11 61.0975C2190.03 58.7805 2186.62 57.2667 2181.3 57.2667H2169.08V85.791H2181.3C2186.62 85.791 2190.05 84.334 2192.13 82.1145C2194.18 79.8263 2195.35 76.528 2195.35 71.619ZM2194.28 85.3287C2191.37 88.4555 2187.04 90.0189 2181.3 90.0189H2165.78V53.0388H2181.3C2187.04 53.0388 2191.37 54.6623 2194.28 57.9093C2197.2 61.1564 2198.66 65.7263 2198.66 71.619C2198.66 77.5118 2197.2 82.0817 2194.28 85.3287ZM2308.62 151.171L2280.4 105.352L2269.96 119.603V151.171H2242.3V24.8978H2269.96V77.3915L2308.2 24.8978H2338.97L2298.6 80.8189L2341.08 151.171H2308.62ZM2302.93 81.0619L2345.11 150.916V22.6244L2302.93 81.0619ZM2429.2 20.6699V56.7255H2379.38V69.5558H2423.27V104.709H2379.38V119.344H2431.03V155.399H2307.02L2280.18 111.833L2273.26 121.274V155.399H2238.99V20.6699H2273.26V66.6478L2306.76 20.6699H2429.2ZM2376.07 123.572V100.482H2419.96V73.7837H2376.07V52.4976H2425.89V24.8978H2348.41V151.171H2427.72V123.572H2376.07ZM2430.61 57.4471V20.6699H2525.71V57.4471H2495.51V155.399H2460.95V57.4471H2430.61ZM2464.26 53.2192V151.171H2492.2V53.2192H2522.4V24.8978H2433.92V53.2192H2464.26Z" fill="#42D4BA"/>
</g>
<path fill-rule="evenodd" clip-rule="evenodd" d="M1978.15 155.399L1977.91 99.4602L1957.64 142.952H1941.49L1921.38 101.037V155.399H1888.94V20.6699H1917.11L1949.94 89.5729L1981.96 20.6699H2010.14L2010.44 154.031L2056.49 20.6699H2088.32L2134.53 154.048V20.6699H2182.99C2192.29 20.6699 2200.53 22.6694 2207.64 26.8147C2214.74 30.8428 2220.34 36.7631 2224.29 44.6019C2228.26 52.3551 2230.19 61.4192 2230.19 71.619C2230.19 81.4489 2228.36 90.2469 2224.6 97.8585C2221.58 104.036 2217.47 109.067 2212.36 112.971L2235.14 155.399H2197.19L2179.27 121.847H2169.08V155.399H2098.61L2090.85 130.866H2053.54L2045.78 155.399H1978.15ZM2051.31 126.638H2093.08L2100.84 151.171H2129.91L2086.17 24.8978H2058.65L2015.04 151.171H2043.55L2051.31 126.638ZM2165.78 117.619H2181.02L2198.94 151.171H2228.86L2207.55 111.485C2208.57 110.855 2209.54 110.186 2210.48 109.478C2215.28 105.865 2219.05 101.242 2221.8 95.611C2225.19 88.7561 2226.88 80.7588 2226.88 71.619C2226.88 62.1184 2225.09 53.8806 2221.52 46.9055C2217.94 39.8101 2212.86 34.3984 2206.28 30.6703C2199.69 26.822 2191.93 24.8978 2182.99 24.8978H2137.84V151.171H2165.78V117.619ZM1949.97 97.7757L1915.25 24.8978H1892.25V151.171H1918.08V86.0503L1943.34 138.724H1955.76L1981.16 84.2463L1981.44 151.171H2007.12L2006.84 24.8978H1983.84L1949.97 97.7757ZM2072.2 59.8936L2059.49 100.301H2084.9L2072.2 59.8936ZM2072.2 71.234L2064.39 96.0732H2080L2072.2 71.234ZM2195.35 71.619C2195.35 66.6914 2194.17 63.3867 2192.11 61.0975C2190.03 58.7805 2186.62 57.2667 2181.3 57.2667H2169.08V85.791H2181.3C2186.62 85.791 2190.05 84.334 2192.13 82.1145C2194.18 79.8263 2195.35 76.528 2195.35 71.619ZM2194.28 85.3287C2191.37 88.4555 2187.04 90.0189 2181.3 90.0189H2165.78V53.0388H2181.3C2187.04 53.0388 2191.37 54.6623 2194.28 57.9093C2197.2 61.1564 2198.66 65.7263 2198.66 71.619C2198.66 77.5118 2197.2 82.0817 2194.28 85.3287ZM2308.62 151.171L2280.4 105.352L2269.96 119.603V151.171H2242.3V24.8978H2269.96V77.3915L2308.2 24.8978H2338.97L2298.6 80.8189L2341.08 151.171H2308.62ZM2302.93 81.0619L2345.11 150.916V22.6244L2302.93 81.0619ZM2429.2 20.6699V56.7255H2379.38V69.5558H2423.27V104.709H2379.38V119.344H2431.03V155.399H2307.02L2280.18 111.833L2273.26 121.274V155.399H2238.99V20.6699H2273.26V66.6478L2306.76 20.6699H2429.2ZM2376.07 123.572V100.482H2419.96V73.7837H2376.07V52.4976H2425.89V24.8978H2348.41V151.171H2427.72V123.572H2376.07ZM2430.61 57.4471V20.6699H2525.71V57.4471H2495.51V155.399H2460.95V57.4471H2430.61ZM2464.26 53.2192V151.171H2492.2V53.2192H2522.4V24.8978H2433.92V53.2192H2464.26Z" fill="#42D4BA"/>
<path fill-rule="evenodd" clip-rule="evenodd" d="M1978.15 155.399L1977.91 99.4602L1957.64 142.952H1941.49L1921.38 101.037V155.399H1888.94V20.6699H1917.11L1949.94 89.5729L1981.96 20.6699H2010.14L2010.44 154.031L2056.49 20.6699H2088.32L2134.53 154.048V20.6699H2182.99C2192.29 20.6699 2200.53 22.6694 2207.64 26.8147C2214.74 30.8428 2220.34 36.7631 2224.29 44.6019C2228.26 52.3551 2230.19 61.4192 2230.19 71.619C2230.19 81.4489 2228.36 90.2469 2224.6 97.8585C2221.58 104.036 2217.47 109.067 2212.36 112.971L2235.14 155.399H2197.19L2179.27 121.847H2169.08V155.399H2098.61L2090.85 130.866H2053.54L2045.78 155.399H1978.15ZM2051.31 126.638H2093.08L2100.84 151.171H2129.91L2086.17 24.8978H2058.65L2015.04 151.171H2043.55L2051.31 126.638ZM2165.78 117.619H2181.02L2198.94 151.171H2228.86L2207.55 111.485C2208.57 110.855 2209.54 110.186 2210.48 109.478C2215.28 105.865 2219.05 101.242 2221.8 95.611C2225.19 88.7561 2226.88 80.7588 2226.88 71.619C2226.88 62.1184 2225.09 53.8806 2221.52 46.9055C2217.94 39.8101 2212.86 34.3984 2206.28 30.6703C2199.69 26.822 2191.93 24.8978 2182.99 24.8978H2137.84V151.171H2165.78V117.619ZM1949.97 97.7757L1915.25 24.8978H1892.25V151.171H1918.08V86.0503L1943.34 138.724H1955.76L1981.16 84.2463L1981.44 151.171H2007.12L2006.84 24.8978H1983.84L1949.97 97.7757ZM2072.2 59.8936L2059.49 100.301H2084.9L2072.2 59.8936ZM2072.2 71.234L2064.39 96.0732H2080L2072.2 71.234ZM2195.35 71.619C2195.35 66.6914 2194.17 63.3867 2192.11 61.0975C2190.03 58.7805 2186.62 57.2667 2181.3 57.2667H2169.08V85.791H2181.3C2186.62 85.791 2190.05 84.334 2192.13 82.1145C2194.18 79.8263 2195.35 76.528 2195.35 71.619ZM2194.28 85.3287C2191.37 88.4555 2187.04 90.0189 2181.3 90.0189H2165.78V53.0388H2181.3C2187.04 53.0388 2191.37 54.6623 2194.28 57.9093C2197.2 61.1564 2198.66 65.7263 2198.66 71.619C2198.66 77.5118 2197.2 82.0817 2194.28 85.3287ZM2308.62 151.171L2280.4 105.352L2269.96 119.603V151.171H2242.3V24.8978H2269.96V77.3915L2308.2 24.8978H2338.97L2298.6 80.8189L2341.08 151.171H2308.62ZM2302.93 81.0619L2345.11 150.916V22.6244L2302.93 81.0619ZM2429.2 20.6699V56.7255H2379.38V69.5558H2423.27V104.709H2379.38V119.344H2431.03V155.399H2307.02L2280.18 111.833L2273.26 121.274V155.399H2238.99V20.6699H2273.26V66.6478L2306.76 20.6699H2429.2ZM2376.07 123.572V100.482H2419.96V73.7837H2376.07V52.4976H2425.89V24.8978H2348.41V151.171H2427.72V123.572H2376.07ZM2430.61 57.4471V20.6699H2525.71V57.4471H2495.51V155.399H2460.95V57.4471H2430.61ZM2464.26 53.2192V151.171H2492.2V53.2192H2522.4V24.8978H2433.92V53.2192H2464.26Z" fill="#42D4BA"/>
<path fill-rule="evenodd" clip-rule="evenodd" d="M1978.15 155.399L1977.91 99.4602L1957.64 142.952H1941.49L1921.38 101.037V155.399H1888.94V20.6699H1917.11L1949.94 89.5729L1981.96 20.6699H2010.14L2010.44 154.031L2056.49 20.6699H2088.32L2134.53 154.048V20.6699H2182.99C2192.29 20.6699 2200.53 22.6694 2207.64 26.8147C2214.74 30.8428 2220.34 36.7631 2224.29 44.6019C2228.26 52.3551 2230.19 61.4192 2230.19 71.619C2230.19 81.4489 2228.36 90.2469 2224.6 97.8585C2221.58 104.036 2217.47 109.067 2212.36 112.971L2235.14 155.399H2197.19L2179.27 121.847H2169.08V155.399H2098.61L2090.85 130.866H2053.54L2045.78 155.399H1978.15ZM2051.31 126.638H2093.08L2100.84 151.171H2129.91L2086.17 24.8978H2058.65L2015.04 151.171H2043.55L2051.31 126.638ZM2165.78 117.619H2181.02L2198.94 151.171H2228.86L2207.55 111.485C2208.57 110.855 2209.54 110.186 2210.48 109.478C2215.28 105.865 2219.05 101.242 2221.8 95.611C2225.19 88.7561 2226.88 80.7588 2226.88 71.619C2226.88 62.1184 2225.09 53.8806 2221.52 46.9055C2217.94 39.8101 2212.86 34.3984 2206.28 30.6703C2199.69 26.822 2191.93 24.8978 2182.99 24.8978H2137.84V151.171H2165.78V117.619ZM1949.97 97.7757L1915.25 24.8978H1892.25V151.171H1918.08V86.0503L1943.34 138.724H1955.76L1981.16 84.2463L1981.44 151.171H2007.12L2006.84 24.8978H1983.84L1949.97 97.7757ZM2072.2 59.8936L2059.49 100.301H2084.9L2072.2 59.8936ZM2072.2 71.234L2064.39 96.0732H2080L2072.2 71.234ZM2195.35 71.619C2195.35 66.6914 2194.17 63.3867 2192.11 61.0975C2190.03 58.7805 2186.62 57.2667 2181.3 57.2667H2169.08V85.791H2181.3C2186.62 85.791 2190.05 84.334 2192.13 82.1145C2194.18 79.8263 2195.35 76.528 2195.35 71.619ZM2194.28 85.3287C2191.37 88.4555 2187.04 90.0189 2181.3 90.0189H2165.78V53.0388H2181.3C2187.04 53.0388 2191.37 54.6623 2194.28 57.9093C2197.2 61.1564 2198.66 65.7263 2198.66 71.619C2198.66 77.5118 2197.2 82.0817 2194.28 85.3287ZM2308.62 151.171L2280.4 105.352L2269.96 119.603V151.171H2242.3V24.8978H2269.96V77.3915L2308.2 24.8978H2338.97L2298.6 80.8189L2341.08 151.171H2308.62ZM2302.93 81.0619L2345.11 150.916V22.6244L2302.93 81.0619ZM2429.2 20.6699V56.7255H2379.38V69.5558H2423.27V104.709H2379.38V119.344H2431.03V155.399H2307.02L2280.18 111.833L2273.26 121.274V155.399H2238.99V20.6699H2273.26V66.6478L2306.76 20.6699H2429.2ZM2376.07 123.572V100.482H2419.96V73.7837H2376.07V52.4976H2425.89V24.8978H2348.41V151.171H2427.72V123.572H2376.07ZM2430.61 57.4471V20.6699H2525.71V57.4471H2495.51V155.399H2460.95V57.4471H2430.61ZM2464.26 53.2192V151.171H2492.2V53.2192H2522.4V24.8978H2433.92V53.2192H2464.26Z" fill="#42D4BA"/>
<path d="M4181.76 157.626C4171.16 157.626 4161.63 154.795 4153.16 149.132C4144.78 143.347 4138.18 135.345 4133.37 125.128C4128.55 114.911 4126.14 103.34 4126.14 90.4142C4126.14 77.4888 4128.55 65.9175 4133.37 55.7003C4138.18 45.4831 4144.78 37.5432 4153.16 31.8806C4161.63 26.095 4171.16 23.2021 4181.76 23.2021C4191 23.2021 4199.33 25.2948 4206.75 29.4802C4214.16 33.6656 4220.33 39.6974 4225.24 47.5758L4207.04 68.6257C4200.49 58.5316 4192.54 53.4845 4183.2 53.4845C4177.71 53.4845 4172.8 55.0233 4168.47 58.1007C4164.23 61.1782 4160.91 65.5482 4158.5 71.2108C4156.19 76.7502 4155.03 83.1514 4155.03 90.4142C4155.03 97.6771 4156.19 104.14 4158.5 109.802C4160.91 115.342 4164.23 119.65 4168.47 122.728C4172.8 125.805 4177.71 127.344 4183.2 127.344C4192.54 127.344 4200.49 122.297 4207.04 112.203L4225.24 133.253C4220.33 141.131 4214.16 147.163 4206.75 151.348C4199.33 155.534 4191 157.626 4181.76 157.626Z" fill="white"/>
<path d="M4258.67 54.7771H4227.61V25.7872H4318.18V54.7771H4287.27V155.041H4258.67V54.7771Z" fill="white"/>
<path d="M4357.44 54.0385V82.4744H4402.07V110.726H4357.44V155.041H4328.84V25.7872H4408.14V54.0385H4357.44Z" fill="white"/>
<path d="M3245.49 155.026C3234.9 155.026 3225.36 152.194 3216.89 146.532C3208.51 140.746 3201.91 132.745 3197.1 122.528C3192.28 112.31 3189.88 100.739 3189.88 87.8137C3189.88 74.8883 3192.28 63.3169 3197.1 53.0997C3201.91 42.8825 3208.51 34.9426 3216.89 29.28C3225.36 23.4944 3234.9 20.6016 3245.49 20.6016C3254.74 20.6016 3263.07 22.6942 3270.48 26.8796C3277.9 31.065 3284.06 37.0968 3288.97 44.9752L3270.77 66.0251C3264.22 55.931 3256.28 50.8839 3246.94 50.8839C3241.45 50.8839 3236.53 52.4227 3232.2 55.5001C3227.96 58.5776 3224.64 62.9476 3222.23 68.6102C3219.92 74.1497 3218.77 80.5508 3218.77 87.8137C3218.77 95.0765 3219.92 101.539 3222.23 107.202C3224.64 112.741 3227.96 117.05 3232.2 120.127C3236.53 123.205 3241.45 124.743 3246.94 124.743C3256.28 124.743 3264.22 119.696 3270.77 109.602L3288.97 130.652C3284.06 138.53 3277.9 144.562 3270.48 148.748C3263.07 152.933 3254.74 155.026 3245.49 155.026Z" fill="white"/>
<path d="M3322.4 52.1765H3291.34V23.1866H3381.91V52.1765H3351V152.441H3322.4V52.1765Z" fill="white"/>
<path d="M3421.17 51.4379V79.8738H3465.81V108.125H3421.17V152.441H3392.57V23.1866H3471.87V51.4379H3421.17Z" fill="white"/>
<g filter="url(#filter3_f_505_869)">
<path fill-rule="evenodd" clip-rule="evenodd" d="M3570.34 155.399L3570.1 99.4602L3549.82 142.952H3533.67L3513.57 101.037V155.399H3481.13V20.6699H3509.3L3542.12 89.5729L3574.14 20.6699H3602.32L3602.62 154.031L3648.68 20.6699H3680.5L3726.71 154.048V20.6699H3775.18C3784.47 20.6699 3792.72 22.6694 3799.82 26.8147C3806.93 30.8428 3812.53 36.7631 3816.48 44.6019C3820.45 52.3551 3822.37 61.4192 3822.37 71.619C3822.37 81.4489 3820.55 90.2469 3816.79 97.8585C3813.77 104.036 3809.66 109.067 3804.54 112.971L3827.32 155.399H3789.38L3771.46 121.847H3761.27V155.399H3690.8L3683.04 130.866H3645.72L3637.96 155.399H3570.34ZM3643.49 126.638H3685.27L3693.03 151.171H3722.1L3678.35 24.8978H3650.83L3607.23 151.171H3635.73L3643.49 126.638ZM3757.96 117.619H3773.2L3791.13 151.171H3821.04L3799.73 111.485C3800.75 110.855 3801.73 110.186 3802.67 109.478C3807.46 105.865 3811.23 101.242 3813.99 95.611C3817.37 88.7561 3819.07 80.7588 3819.07 71.619C3819.07 62.1184 3817.28 53.8806 3813.7 46.9055C3810.13 39.8101 3805.05 34.3984 3798.46 30.6703C3791.88 26.822 3784.12 24.8978 3775.18 24.8978H3730.02V151.171H3757.96V117.619ZM3542.15 97.7757L3507.44 24.8978H3484.44V151.171H3510.26V86.0503L3535.52 138.724H3547.94L3573.34 84.2463L3573.62 151.171H3599.31L3599.03 24.8978H3576.02L3542.15 97.7757ZM3664.38 59.8936L3651.68 100.301H3677.08L3664.38 59.8936ZM3664.38 71.234L3656.57 96.0732H3672.19L3664.38 71.234ZM3787.54 71.619C3787.54 66.6914 3786.35 63.3867 3784.3 61.0975C3782.21 58.7805 3778.8 57.2667 3773.48 57.2667H3761.27V85.791H3773.48C3778.81 85.791 3782.23 84.334 3784.32 82.1145C3786.36 79.8263 3787.54 76.528 3787.54 71.619ZM3786.47 85.3287C3783.55 88.4555 3779.22 90.0189 3773.48 90.0189H3757.96V53.0388H3773.48C3779.22 53.0388 3783.55 54.6623 3786.47 57.9093C3789.38 61.1564 3790.84 65.7263 3790.84 71.619C3790.84 77.5118 3789.38 82.0817 3786.47 85.3287ZM3900.81 151.171L3872.58 105.352L3862.14 119.603V151.171H3834.48V24.8978H3862.14V77.3915L3900.39 24.8978H3931.15L3890.79 80.8189L3933.27 151.171H3900.81ZM3895.11 81.0619L3937.29 150.916V22.6244L3895.11 81.0619ZM4021.38 20.6699V56.7255H3971.57V69.5558H4015.45V104.709H3971.57V119.344H4023.22V155.399H3899.2L3872.37 111.833L3865.45 121.274V155.399H3831.17V20.6699H3865.45V66.6478L3898.95 20.6699H4021.38ZM3968.26 123.572V100.482H4012.15V73.7837H3968.26V52.4976H4018.07V24.8978H3940.6V151.171H4019.91V123.572H3968.26ZM4022.79 57.4471V20.6699H4117.89V57.4471H4087.69V155.399H4053.13V57.4471H4022.79ZM4056.44 53.2192V151.171H4084.38V53.2192H4114.58V24.8978H4026.1V53.2192H4056.44Z" fill="#42D4BA"/>
<path fill-rule="evenodd" clip-rule="evenodd" d="M3570.34 155.399L3570.1 99.4602L3549.82 142.952H3533.67L3513.57 101.037V155.399H3481.13V20.6699H3509.3L3542.12 89.5729L3574.14 20.6699H3602.32L3602.62 154.031L3648.68 20.6699H3680.5L3726.71 154.048V20.6699H3775.18C3784.47 20.6699 3792.72 22.6694 3799.82 26.8147C3806.93 30.8428 3812.53 36.7631 3816.48 44.6019C3820.45 52.3551 3822.37 61.4192 3822.37 71.619C3822.37 81.4489 3820.55 90.2469 3816.79 97.8585C3813.77 104.036 3809.66 109.067 3804.54 112.971L3827.32 155.399H3789.38L3771.46 121.847H3761.27V155.399H3690.8L3683.04 130.866H3645.72L3637.96 155.399H3570.34ZM3643.49 126.638H3685.27L3693.03 151.171H3722.1L3678.35 24.8978H3650.83L3607.23 151.171H3635.73L3643.49 126.638ZM3757.96 117.619H3773.2L3791.13 151.171H3821.04L3799.73 111.485C3800.75 110.855 3801.73 110.186 3802.67 109.478C3807.46 105.865 3811.23 101.242 3813.99 95.611C3817.37 88.7561 3819.07 80.7588 3819.07 71.619C3819.07 62.1184 3817.28 53.8806 3813.7 46.9055C3810.13 39.8101 3805.05 34.3984 3798.46 30.6703C3791.88 26.822 3784.12 24.8978 3775.18 24.8978H3730.02V151.171H3757.96V117.619ZM3542.15 97.7757L3507.44 24.8978H3484.44V151.171H3510.26V86.0503L3535.52 138.724H3547.94L3573.34 84.2463L3573.62 151.171H3599.31L3599.03 24.8978H3576.02L3542.15 97.7757ZM3664.38 59.8936L3651.68 100.301H3677.08L3664.38 59.8936ZM3664.38 71.234L3656.57 96.0732H3672.19L3664.38 71.234ZM3787.54 71.619C3787.54 66.6914 3786.35 63.3867 3784.3 61.0975C3782.21 58.7805 3778.8 57.2667 3773.48 57.2667H3761.27V85.791H3773.48C3778.81 85.791 3782.23 84.334 3784.32 82.1145C3786.36 79.8263 3787.54 76.528 3787.54 71.619ZM3786.47 85.3287C3783.55 88.4555 3779.22 90.0189 3773.48 90.0189H3757.96V53.0388H3773.48C3779.22 53.0388 3783.55 54.6623 3786.47 57.9093C3789.38 61.1564 3790.84 65.7263 3790.84 71.619C3790.84 77.5118 3789.38 82.0817 3786.47 85.3287ZM3900.81 151.171L3872.58 105.352L3862.14 119.603V151.171H3834.48V24.8978H3862.14V77.3915L3900.39 24.8978H3931.15L3890.79 80.8189L3933.27 151.171H3900.81ZM3895.11 81.0619L3937.29 150.916V22.6244L3895.11 81.0619ZM4021.38 20.6699V56.7255H3971.57V69.5558H4015.45V104.709H3971.57V119.344H4023.22V155.399H3899.2L3872.37 111.833L3865.45 121.274V155.399H3831.17V20.6699H3865.45V66.6478L3898.95 20.6699H4021.38ZM3968.26 123.572V100.482H4012.15V73.7837H3968.26V52.4976H4018.07V24.8978H3940.6V151.171H4019.91V123.572H3968.26ZM4022.79 57.4471V20.6699H4117.89V57.4471H4087.69V155.399H4053.13V57.4471H4022.79ZM4056.44 53.2192V151.171H4084.38V53.2192H4114.58V24.8978H4026.1V53.2192H4056.44Z" fill="#42D4BA"/>
<path fill-rule="evenodd" clip-rule="evenodd" d="M3570.34 155.399L3570.1 99.4602L3549.82 142.952H3533.67L3513.57 101.037V155.399H3481.13V20.6699H3509.3L3542.12 89.5729L3574.14 20.6699H3602.32L3602.62 154.031L3648.68 20.6699H3680.5L3726.71 154.048V20.6699H3775.18C3784.47 20.6699 3792.72 22.6694 3799.82 26.8147C3806.93 30.8428 3812.53 36.7631 3816.48 44.6019C3820.45 52.3551 3822.37 61.4192 3822.37 71.619C3822.37 81.4489 3820.55 90.2469 3816.79 97.8585C3813.77 104.036 3809.66 109.067 3804.54 112.971L3827.32 155.399H3789.38L3771.46 121.847H3761.27V155.399H3690.8L3683.04 130.866H3645.72L3637.96 155.399H3570.34ZM3643.49 126.638H3685.27L3693.03 151.171H3722.1L3678.35 24.8978H3650.83L3607.23 151.171H3635.73L3643.49 126.638ZM3757.96 117.619H3773.2L3791.13 151.171H3821.04L3799.73 111.485C3800.75 110.855 3801.73 110.186 3802.67 109.478C3807.46 105.865 3811.23 101.242 3813.99 95.611C3817.37 88.7561 3819.07 80.7588 3819.07 71.619C3819.07 62.1184 3817.28 53.8806 3813.7 46.9055C3810.13 39.8101 3805.05 34.3984 3798.46 30.6703C3791.88 26.822 3784.12 24.8978 3775.18 24.8978H3730.02V151.171H3757.96V117.619ZM3542.15 97.7757L3507.44 24.8978H3484.44V151.171H3510.26V86.0503L3535.52 138.724H3547.94L3573.34 84.2463L3573.62 151.171H3599.31L3599.03 24.8978H3576.02L3542.15 97.7757ZM3664.38 59.8936L3651.68 100.301H3677.08L3664.38 59.8936ZM3664.38 71.234L3656.57 96.0732H3672.19L3664.38 71.234ZM3787.54 71.619C3787.54 66.6914 3786.35 63.3867 3784.3 61.0975C3782.21 58.7805 3778.8 57.2667 3773.48 57.2667H3761.27V85.791H3773.48C3778.81 85.791 3782.23 84.334 3784.32 82.1145C3786.36 79.8263 3787.54 76.528 3787.54 71.619ZM3786.47 85.3287C3783.55 88.4555 3779.22 90.0189 3773.48 90.0189H3757.96V53.0388H3773.48C3779.22 53.0388 3783.55 54.6623 3786.47 57.9093C3789.38 61.1564 3790.84 65.7263 3790.84 71.619C3790.84 77.5118 3789.38 82.0817 3786.47 85.3287ZM3900.81 151.171L3872.58 105.352L3862.14 119.603V151.171H3834.48V24.8978H3862.14V77.3915L3900.39 24.8978H3931.15L3890.79 80.8189L3933.27 151.171H3900.81ZM3895.11 81.0619L3937.29 150.916V22.6244L3895.11 81.0619ZM4021.38 20.6699V56.7255H3971.57V69.5558H4015.45V104.709H3971.57V119.344H4023.22V155.399H3899.2L3872.37 111.833L3865.45 121.274V155.399H3831.17V20.6699H3865.45V66.6478L3898.95 20.6699H4021.38ZM3968.26 123.572V100.482H4012.15V73.7837H3968.26V52.4976H4018.07V24.8978H3940.6V151.171H4019.91V123.572H3968.26ZM4022.79 57.4471V20.6699H4117.89V57.4471H4087.69V155.399H4053.13V57.4471H4022.79ZM4056.44 53.2192V151.171H4084.38V53.2192H4114.58V24.8978H4026.1V53.2192H4056.44Z" fill="#42D4BA"/>
</g>
<path fill-rule="evenodd" clip-rule="evenodd" d="M3570.34 155.399L3570.1 99.4602L3549.82 142.952H3533.67L3513.57 101.037V155.399H3481.13V20.6699H3509.3L3542.12 89.5729L3574.14 20.6699H3602.32L3602.62 154.031L3648.68 20.6699H3680.5L3726.71 154.048V20.6699H3775.18C3784.47 20.6699 3792.72 22.6694 3799.82 26.8147C3806.93 30.8428 3812.53 36.7631 3816.48 44.6019C3820.45 52.3551 3822.37 61.4192 3822.37 71.619C3822.37 81.4489 3820.55 90.2469 3816.79 97.8585C3813.77 104.036 3809.66 109.067 3804.54 112.971L3827.32 155.399H3789.38L3771.46 121.847H3761.27V155.399H3690.8L3683.04 130.866H3645.72L3637.96 155.399H3570.34ZM3643.49 126.638H3685.27L3693.03 151.171H3722.1L3678.35 24.8978H3650.83L3607.23 151.171H3635.73L3643.49 126.638ZM3757.96 117.619H3773.2L3791.13 151.171H3821.04L3799.73 111.485C3800.75 110.855 3801.73 110.186 3802.67 109.478C3807.46 105.865 3811.23 101.242 3813.99 95.611C3817.37 88.7561 3819.07 80.7588 3819.07 71.619C3819.07 62.1184 3817.28 53.8806 3813.7 46.9055C3810.13 39.8101 3805.05 34.3984 3798.46 30.6703C3791.88 26.822 3784.12 24.8978 3775.18 24.8978H3730.02V151.171H3757.96V117.619ZM3542.15 97.7757L3507.44 24.8978H3484.44V151.171H3510.26V86.0503L3535.52 138.724H3547.94L3573.34 84.2463L3573.62 151.171H3599.31L3599.03 24.8978H3576.02L3542.15 97.7757ZM3664.38 59.8936L3651.68 100.301H3677.08L3664.38 59.8936ZM3664.38 71.234L3656.57 96.0732H3672.19L3664.38 71.234ZM3787.54 71.619C3787.54 66.6914 3786.35 63.3867 3784.3 61.0975C3782.21 58.7805 3778.8 57.2667 3773.48 57.2667H3761.27V85.791H3773.48C3778.81 85.791 3782.23 84.334 3784.32 82.1145C3786.36 79.8263 3787.54 76.528 3787.54 71.619ZM3786.47 85.3287C3783.55 88.4555 3779.22 90.0189 3773.48 90.0189H3757.96V53.0388H3773.48C3779.22 53.0388 3783.55 54.6623 3786.47 57.9093C3789.38 61.1564 3790.84 65.7263 3790.84 71.619C3790.84 77.5118 3789.38 82.0817 3786.47 85.3287ZM3900.81 151.171L3872.58 105.352L3862.14 119.603V151.171H3834.48V24.8978H3862.14V77.3915L3900.39 24.8978H3931.15L3890.79 80.8189L3933.27 151.171H3900.81ZM3895.11 81.0619L3937.29 150.916V22.6244L3895.11 81.0619ZM4021.38 20.6699V56.7255H3971.57V69.5558H4015.45V104.709H3971.57V119.344H4023.22V155.399H3899.2L3872.37 111.833L3865.45 121.274V155.399H3831.17V20.6699H3865.45V66.6478L3898.95 20.6699H4021.38ZM3968.26 123.572V100.482H4012.15V73.7837H3968.26V52.4976H4018.07V24.8978H3940.6V151.171H4019.91V123.572H3968.26ZM4022.79 57.4471V20.6699H4117.89V57.4471H4087.69V155.399H4053.13V57.4471H4022.79ZM4056.44 53.2192V151.171H4084.38V53.2192H4114.58V24.8978H4026.1V53.2192H4056.44Z" fill="#42D4BA"/>
<path fill-rule="evenodd" clip-rule="evenodd" d="M3570.34 155.399L3570.1 99.4602L3549.82 142.952H3533.67L3513.57 101.037V155.399H3481.13V20.6699H3509.3L3542.12 89.5729L3574.14 20.6699H3602.32L3602.62 154.031L3648.68 20.6699H3680.5L3726.71 154.048V20.6699H3775.18C3784.47 20.6699 3792.72 22.6694 3799.82 26.8147C3806.93 30.8428 3812.53 36.7631 3816.48 44.6019C3820.45 52.3551 3822.37 61.4192 3822.37 71.619C3822.37 81.4489 3820.55 90.2469 3816.79 97.8585C3813.77 104.036 3809.66 109.067 3804.54 112.971L3827.32 155.399H3789.38L3771.46 121.847H3761.27V155.399H3690.8L3683.04 130.866H3645.72L3637.96 155.399H3570.34ZM3643.49 126.638H3685.27L3693.03 151.171H3722.1L3678.35 24.8978H3650.83L3607.23 151.171H3635.73L3643.49 126.638ZM3757.96 117.619H3773.2L3791.13 151.171H3821.04L3799.73 111.485C3800.75 110.855 3801.73 110.186 3802.67 109.478C3807.46 105.865 3811.23 101.242 3813.99 95.611C3817.37 88.7561 3819.07 80.7588 3819.07 71.619C3819.07 62.1184 3817.28 53.8806 3813.7 46.9055C3810.13 39.8101 3805.05 34.3984 3798.46 30.6703C3791.88 26.822 3784.12 24.8978 3775.18 24.8978H3730.02V151.171H3757.96V117.619ZM3542.15 97.7757L3507.44 24.8978H3484.44V151.171H3510.26V86.0503L3535.52 138.724H3547.94L3573.34 84.2463L3573.62 151.171H3599.31L3599.03 24.8978H3576.02L3542.15 97.7757ZM3664.38 59.8936L3651.68 100.301H3677.08L3664.38 59.8936ZM3664.38 71.234L3656.57 96.0732H3672.19L3664.38 71.234ZM3787.54 71.619C3787.54 66.6914 3786.35 63.3867 3784.3 61.0975C3782.21 58.7805 3778.8 57.2667 3773.48 57.2667H3761.27V85.791H3773.48C3778.81 85.791 3782.23 84.334 3784.32 82.1145C3786.36 79.8263 3787.54 76.528 3787.54 71.619ZM3786.47 85.3287C3783.55 88.4555 3779.22 90.0189 3773.48 90.0189H3757.96V53.0388H3773.48C3779.22 53.0388 3783.55 54.6623 3786.47 57.9093C3789.38 61.1564 3790.84 65.7263 3790.84 71.619C3790.84 77.5118 3789.38 82.0817 3786.47 85.3287ZM3900.81 151.171L3872.58 105.352L3862.14 119.603V151.171H3834.48V24.8978H3862.14V77.3915L3900.39 24.8978H3931.15L3890.79 80.8189L3933.27 151.171H3900.81ZM3895.11 81.0619L3937.29 150.916V22.6244L3895.11 81.0619ZM4021.38 20.6699V56.7255H3971.57V69.5558H4015.45V104.709H3971.57V119.344H4023.22V155.399H3899.2L3872.37 111.833L3865.45 121.274V155.399H3831.17V20.6699H3865.45V66.6478L3898.95 20.6699H4021.38ZM3968.26 123.572V100.482H4012.15V73.7837H3968.26V52.4976H4018.07V24.8978H3940.6V151.171H4019.91V123.572H3968.26ZM4022.79 57.4471V20.6699H4117.89V57.4471H4087.69V155.399H4053.13V57.4471H4022.79ZM4056.44 53.2192V151.171H4084.38V53.2192H4114.58V24.8978H4026.1V53.2192H4056.44Z" fill="#42D4BA"/>
<path fill-rule="evenodd" clip-rule="evenodd" d="M3570.34 155.399L3570.1 99.4602L3549.82 142.952H3533.67L3513.57 101.037V155.399H3481.13V20.6699H3509.3L3542.12 89.5729L3574.14 20.6699H3602.32L3602.62 154.031L3648.68 20.6699H3680.5L3726.71 154.048V20.6699H3775.18C3784.47 20.6699 3792.72 22.6694 3799.82 26.8147C3806.93 30.8428 3812.53 36.7631 3816.48 44.6019C3820.45 52.3551 3822.37 61.4192 3822.37 71.619C3822.37 81.4489 3820.55 90.2469 3816.79 97.8585C3813.77 104.036 3809.66 109.067 3804.54 112.971L3827.32 155.399H3789.38L3771.46 121.847H3761.27V155.399H3690.8L3683.04 130.866H3645.72L3637.96 155.399H3570.34ZM3643.49 126.638H3685.27L3693.03 151.171H3722.1L3678.35 24.8978H3650.83L3607.23 151.171H3635.73L3643.49 126.638ZM3757.96 117.619H3773.2L3791.13 151.171H3821.04L3799.73 111.485C3800.75 110.855 3801.73 110.186 3802.67 109.478C3807.46 105.865 3811.23 101.242 3813.99 95.611C3817.37 88.7561 3819.07 80.7588 3819.07 71.619C3819.07 62.1184 3817.28 53.8806 3813.7 46.9055C3810.13 39.8101 3805.05 34.3984 3798.46 30.6703C3791.88 26.822 3784.12 24.8978 3775.18 24.8978H3730.02V151.171H3757.96V117.619ZM3542.15 97.7757L3507.44 24.8978H3484.44V151.171H3510.26V86.0503L3535.52 138.724H3547.94L3573.34 84.2463L3573.62 151.171H3599.31L3599.03 24.8978H3576.02L3542.15 97.7757ZM3664.38 59.8936L3651.68 100.301H3677.08L3664.38 59.8936ZM3664.38 71.234L3656.57 96.0732H3672.19L3664.38 71.234ZM3787.54 71.619C3787.54 66.6914 3786.35 63.3867 3784.3 61.0975C3782.21 58.7805 3778.8 57.2667 3773.48 57.2667H3761.27V85.791H3773.48C3778.81 85.791 3782.23 84.334 3784.32 82.1145C3786.36 79.8263 3787.54 76.528 3787.54 71.619ZM3786.47 85.3287C3783.55 88.4555 3779.22 90.0189 3773.48 90.0189H3757.96V53.0388H3773.48C3779.22 53.0388 3783.55 54.6623 3786.47 57.9093C3789.38 61.1564 3790.84 65.7263 3790.84 71.619C3790.84 77.5118 3789.38 82.0817 3786.47 85.3287ZM3900.81 151.171L3872.58 105.352L3862.14 119.603V151.171H3834.48V24.8978H3862.14V77.3915L3900.39 24.8978H3931.15L3890.79 80.8189L3933.27 151.171H3900.81ZM3895.11 81.0619L3937.29 150.916V22.6244L3895.11 81.0619ZM4021.38 20.6699V56.7255H3971.57V69.5558H4015.45V104.709H3971.57V119.344H4023.22V155.399H3899.2L3872.37 111.833L3865.45 121.274V155.399H3831.17V20.6699H3865.45V66.6478L3898.95 20.6699H4021.38ZM3968.26 123.572V100.482H4012.15V73.7837H3968.26V52.4976H4018.07V24.8978H3940.6V151.171H4019.91V123.572H3968.26ZM4022.79 57.4471V20.6699H4117.89V57.4471H4087.69V155.399H4053.13V57.4471H4022.79ZM4056.44 53.2192V151.171H4084.38V53.2192H4114.58V24.8978H4026.1V53.2192H4056.44Z" fill="#42D4BA"/>
<g filter="url(#filter4_f_505_869)">
<path fill-rule="evenodd" clip-rule="evenodd" d="M2636.39 155.399L2636.15 99.4602L2615.87 142.952H2599.72L2579.62 101.037V155.399H2547.18V20.6699H2575.35L2608.17 89.5729L2640.2 20.6699H2668.38L2668.68 154.031L2714.73 20.6699H2746.56L2792.77 154.048V20.6699H2841.23C2850.53 20.6699 2858.77 22.6694 2865.88 26.8147C2872.98 30.8428 2878.58 36.7631 2882.53 44.6019C2886.5 52.3551 2888.43 61.4192 2888.43 71.619C2888.43 81.4489 2886.6 90.2469 2882.84 97.8585C2879.82 104.036 2875.71 109.067 2870.6 112.971L2893.38 155.399H2855.43L2837.51 121.847H2827.32V155.399H2756.85L2749.09 130.866H2711.78L2704.02 155.399H2636.39ZM2709.55 126.638H2751.32L2759.08 151.171H2788.15L2744.41 24.8978H2716.89L2673.28 151.171H2701.79L2709.55 126.638ZM2824.02 117.619H2839.26L2857.18 151.171H2887.1L2865.79 111.485C2866.81 110.855 2867.78 110.186 2868.72 109.478C2873.51 105.865 2877.29 101.242 2880.04 95.611C2883.43 88.7561 2885.12 80.7588 2885.12 71.619C2885.12 62.1184 2883.33 53.8806 2879.76 46.9055C2876.18 39.8101 2871.1 34.3984 2864.52 30.6703C2857.93 26.822 2850.17 24.8978 2841.23 24.8978H2796.07V151.171H2824.02V117.619ZM2608.21 97.7757L2573.49 24.8978H2550.49V151.171H2576.32V86.0503L2601.58 138.724H2614L2639.4 84.2463L2639.68 151.171H2665.36L2665.08 24.8978H2642.08L2608.21 97.7757ZM2730.43 59.8936L2717.73 100.301H2743.14L2730.43 59.8936ZM2730.43 71.234L2722.63 96.0732H2738.24L2730.43 71.234ZM2853.59 71.619C2853.59 66.6914 2852.41 63.3867 2850.35 61.0975C2848.27 58.7805 2844.86 57.2667 2839.54 57.2667H2827.32V85.791H2839.54C2844.86 85.791 2848.29 84.334 2850.37 82.1145C2852.42 79.8263 2853.59 76.528 2853.59 71.619ZM2852.52 85.3287C2849.61 88.4555 2845.28 90.0189 2839.54 90.0189H2824.02V53.0388H2839.54C2845.28 53.0388 2849.61 54.6623 2852.52 57.9093C2855.44 61.1564 2856.9 65.7263 2856.9 71.619C2856.9 77.5118 2855.44 82.0817 2852.52 85.3287ZM2966.86 151.171L2938.64 105.352L2928.2 119.603V151.171H2900.54V24.8978H2928.2V77.3915L2966.44 24.8978H2997.2L2956.84 80.8189L2999.32 151.171H2966.86ZM2961.17 81.0619L3003.35 150.916V22.6244L2961.17 81.0619ZM3087.44 20.6699V56.7255H3037.62V69.5558H3081.51V104.709H3037.62V119.344H3089.27V155.399H2965.26L2938.42 111.833L2931.5 121.274V155.399H2897.23V20.6699H2931.5V66.6478L2965 20.6699H3087.44ZM3034.31 123.572V100.482H3078.2V73.7837H3034.31V52.4976H3084.13V24.8978H3006.65V151.171H3085.96V123.572H3034.31ZM3088.85 57.4471V20.6699H3183.94V57.4471H3153.75V155.399H3119.19V57.4471H3088.85ZM3122.5 53.2192V151.171H3150.44V53.2192H3180.64V24.8978H3092.15V53.2192H3122.5Z" fill="#42D4BA"/>
<path fill-rule="evenodd" clip-rule="evenodd" d="M2636.39 155.399L2636.15 99.4602L2615.87 142.952H2599.72L2579.62 101.037V155.399H2547.18V20.6699H2575.35L2608.17 89.5729L2640.2 20.6699H2668.38L2668.68 154.031L2714.73 20.6699H2746.56L2792.77 154.048V20.6699H2841.23C2850.53 20.6699 2858.77 22.6694 2865.88 26.8147C2872.98 30.8428 2878.58 36.7631 2882.53 44.6019C2886.5 52.3551 2888.43 61.4192 2888.43 71.619C2888.43 81.4489 2886.6 90.2469 2882.84 97.8585C2879.82 104.036 2875.71 109.067 2870.6 112.971L2893.38 155.399H2855.43L2837.51 121.847H2827.32V155.399H2756.85L2749.09 130.866H2711.78L2704.02 155.399H2636.39ZM2709.55 126.638H2751.32L2759.08 151.171H2788.15L2744.41 24.8978H2716.89L2673.28 151.171H2701.79L2709.55 126.638ZM2824.02 117.619H2839.26L2857.18 151.171H2887.1L2865.79 111.485C2866.81 110.855 2867.78 110.186 2868.72 109.478C2873.51 105.865 2877.29 101.242 2880.04 95.611C2883.43 88.7561 2885.12 80.7588 2885.12 71.619C2885.12 62.1184 2883.33 53.8806 2879.76 46.9055C2876.18 39.8101 2871.1 34.3984 2864.52 30.6703C2857.93 26.822 2850.17 24.8978 2841.23 24.8978H2796.07V151.171H2824.02V117.619ZM2608.21 97.7757L2573.49 24.8978H2550.49V151.171H2576.32V86.0503L2601.58 138.724H2614L2639.4 84.2463L2639.68 151.171H2665.36L2665.08 24.8978H2642.08L2608.21 97.7757ZM2730.43 59.8936L2717.73 100.301H2743.14L2730.43 59.8936ZM2730.43 71.234L2722.63 96.0732H2738.24L2730.43 71.234ZM2853.59 71.619C2853.59 66.6914 2852.41 63.3867 2850.35 61.0975C2848.27 58.7805 2844.86 57.2667 2839.54 57.2667H2827.32V85.791H2839.54C2844.86 85.791 2848.29 84.334 2850.37 82.1145C2852.42 79.8263 2853.59 76.528 2853.59 71.619ZM2852.52 85.3287C2849.61 88.4555 2845.28 90.0189 2839.54 90.0189H2824.02V53.0388H2839.54C2845.28 53.0388 2849.61 54.6623 2852.52 57.9093C2855.44 61.1564 2856.9 65.7263 2856.9 71.619C2856.9 77.5118 2855.44 82.0817 2852.52 85.3287ZM2966.86 151.171L2938.64 105.352L2928.2 119.603V151.171H2900.54V24.8978H2928.2V77.3915L2966.44 24.8978H2997.2L2956.84 80.8189L2999.32 151.171H2966.86ZM2961.17 81.0619L3003.35 150.916V22.6244L2961.17 81.0619ZM3087.44 20.6699V56.7255H3037.62V69.5558H3081.51V104.709H3037.62V119.344H3089.27V155.399H2965.26L2938.42 111.833L2931.5 121.274V155.399H2897.23V20.6699H2931.5V66.6478L2965 20.6699H3087.44ZM3034.31 123.572V100.482H3078.2V73.7837H3034.31V52.4976H3084.13V24.8978H3006.65V151.171H3085.96V123.572H3034.31ZM3088.85 57.4471V20.6699H3183.94V57.4471H3153.75V155.399H3119.19V57.4471H3088.85ZM3122.5 53.2192V151.171H3150.44V53.2192H3180.64V24.8978H3092.15V53.2192H3122.5Z" fill="#42D4BA"/>
<path fill-rule="evenodd" clip-rule="evenodd" d="M2636.39 155.399L2636.15 99.4602L2615.87 142.952H2599.72L2579.62 101.037V155.399H2547.18V20.6699H2575.35L2608.17 89.5729L2640.2 20.6699H2668.38L2668.68 154.031L2714.73 20.6699H2746.56L2792.77 154.048V20.6699H2841.23C2850.53 20.6699 2858.77 22.6694 2865.88 26.8147C2872.98 30.8428 2878.58 36.7631 2882.53 44.6019C2886.5 52.3551 2888.43 61.4192 2888.43 71.619C2888.43 81.4489 2886.6 90.2469 2882.84 97.8585C2879.82 104.036 2875.71 109.067 2870.6 112.971L2893.38 155.399H2855.43L2837.51 121.847H2827.32V155.399H2756.85L2749.09 130.866H2711.78L2704.02 155.399H2636.39ZM2709.55 126.638H2751.32L2759.08 151.171H2788.15L2744.41 24.8978H2716.89L2673.28 151.171H2701.79L2709.55 126.638ZM2824.02 117.619H2839.26L2857.18 151.171H2887.1L2865.79 111.485C2866.81 110.855 2867.78 110.186 2868.72 109.478C2873.51 105.865 2877.29 101.242 2880.04 95.611C2883.43 88.7561 2885.12 80.7588 2885.12 71.619C2885.12 62.1184 2883.33 53.8806 2879.76 46.9055C2876.18 39.8101 2871.1 34.3984 2864.52 30.6703C2857.93 26.822 2850.17 24.8978 2841.23 24.8978H2796.07V151.171H2824.02V117.619ZM2608.21 97.7757L2573.49 24.8978H2550.49V151.171H2576.32V86.0503L2601.58 138.724H2614L2639.4 84.2463L2639.68 151.171H2665.36L2665.08 24.8978H2642.08L2608.21 97.7757ZM2730.43 59.8936L2717.73 100.301H2743.14L2730.43 59.8936ZM2730.43 71.234L2722.63 96.0732H2738.24L2730.43 71.234ZM2853.59 71.619C2853.59 66.6914 2852.41 63.3867 2850.35 61.0975C2848.27 58.7805 2844.86 57.2667 2839.54 57.2667H2827.32V85.791H2839.54C2844.86 85.791 2848.29 84.334 2850.37 82.1145C2852.42 79.8263 2853.59 76.528 2853.59 71.619ZM2852.52 85.3287C2849.61 88.4555 2845.28 90.0189 2839.54 90.0189H2824.02V53.0388H2839.54C2845.28 53.0388 2849.61 54.6623 2852.52 57.9093C2855.44 61.1564 2856.9 65.7263 2856.9 71.619C2856.9 77.5118 2855.44 82.0817 2852.52 85.3287ZM2966.86 151.171L2938.64 105.352L2928.2 119.603V151.171H2900.54V24.8978H2928.2V77.3915L2966.44 24.8978H2997.2L2956.84 80.8189L2999.32 151.171H2966.86ZM2961.17 81.0619L3003.35 150.916V22.6244L2961.17 81.0619ZM3087.44 20.6699V56.7255H3037.62V69.5558H3081.51V104.709H3037.62V119.344H3089.27V155.399H2965.26L2938.42 111.833L2931.5 121.274V155.399H2897.23V20.6699H2931.5V66.6478L2965 20.6699H3087.44ZM3034.31 123.572V100.482H3078.2V73.7837H3034.31V52.4976H3084.13V24.8978H3006.65V151.171H3085.96V123.572H3034.31ZM3088.85 57.4471V20.6699H3183.94V57.4471H3153.75V155.399H3119.19V57.4471H3088.85ZM3122.5 53.2192V151.171H3150.44V53.2192H3180.64V24.8978H3092.15V53.2192H3122.5Z" fill="#42D4BA"/>
</g>
<path fill-rule="evenodd" clip-rule="evenodd" d="M2636.39 155.399L2636.15 99.4602L2615.87 142.952H2599.72L2579.62 101.037V155.399H2547.18V20.6699H2575.35L2608.17 89.5729L2640.2 20.6699H2668.38L2668.68 154.031L2714.73 20.6699H2746.56L2792.77 154.048V20.6699H2841.23C2850.53 20.6699 2858.77 22.6694 2865.88 26.8147C2872.98 30.8428 2878.58 36.7631 2882.53 44.6019C2886.5 52.3551 2888.43 61.4192 2888.43 71.619C2888.43 81.4489 2886.6 90.2469 2882.84 97.8585C2879.82 104.036 2875.71 109.067 2870.6 112.971L2893.38 155.399H2855.43L2837.51 121.847H2827.32V155.399H2756.85L2749.09 130.866H2711.78L2704.02 155.399H2636.39ZM2709.55 126.638H2751.32L2759.08 151.171H2788.15L2744.41 24.8978H2716.89L2673.28 151.171H2701.79L2709.55 126.638ZM2824.02 117.619H2839.26L2857.18 151.171H2887.1L2865.79 111.485C2866.81 110.855 2867.78 110.186 2868.72 109.478C2873.51 105.865 2877.29 101.242 2880.04 95.611C2883.43 88.7561 2885.12 80.7588 2885.12 71.619C2885.12 62.1184 2883.33 53.8806 2879.76 46.9055C2876.18 39.8101 2871.1 34.3984 2864.52 30.6703C2857.93 26.822 2850.17 24.8978 2841.23 24.8978H2796.07V151.171H2824.02V117.619ZM2608.21 97.7757L2573.49 24.8978H2550.49V151.171H2576.32V86.0503L2601.58 138.724H2614L2639.4 84.2463L2639.68 151.171H2665.36L2665.08 24.8978H2642.08L2608.21 97.7757ZM2730.43 59.8936L2717.73 100.301H2743.14L2730.43 59.8936ZM2730.43 71.234L2722.63 96.0732H2738.24L2730.43 71.234ZM2853.59 71.619C2853.59 66.6914 2852.41 63.3867 2850.35 61.0975C2848.27 58.7805 2844.86 57.2667 2839.54 57.2667H2827.32V85.791H2839.54C2844.86 85.791 2848.29 84.334 2850.37 82.1145C2852.42 79.8263 2853.59 76.528 2853.59 71.619ZM2852.52 85.3287C2849.61 88.4555 2845.28 90.0189 2839.54 90.0189H2824.02V53.0388H2839.54C2845.28 53.0388 2849.61 54.6623 2852.52 57.9093C2855.44 61.1564 2856.9 65.7263 2856.9 71.619C2856.9 77.5118 2855.44 82.0817 2852.52 85.3287ZM2966.86 151.171L2938.64 105.352L2928.2 119.603V151.171H2900.54V24.8978H2928.2V77.3915L2966.44 24.8978H2997.2L2956.84 80.8189L2999.32 151.171H2966.86ZM2961.17 81.0619L3003.35 150.916V22.6244L2961.17 81.0619ZM3087.44 20.6699V56.7255H3037.62V69.5558H3081.51V104.709H3037.62V119.344H3089.27V155.399H2965.26L2938.42 111.833L2931.5 121.274V155.399H2897.23V20.6699H2931.5V66.6478L2965 20.6699H3087.44ZM3034.31 123.572V100.482H3078.2V73.7837H3034.31V52.4976H3084.13V24.8978H3006.65V151.171H3085.96V123.572H3034.31ZM3088.85 57.4471V20.6699H3183.94V57.4471H3153.75V155.399H3119.19V57.4471H3088.85ZM3122.5 53.2192V151.171H3150.44V53.2192H3180.64V24.8978H3092.15V53.2192H3122.5Z" fill="#42D4BA"/>
<path fill-rule="evenodd" clip-rule="evenodd" d="M2636.39 155.399L2636.15 99.4602L2615.87 142.952H2599.72L2579.62 101.037V155.399H2547.18V20.6699H2575.35L2608.17 89.5729L2640.2 20.6699H2668.38L2668.68 154.031L2714.73 20.6699H2746.56L2792.77 154.048V20.6699H2841.23C2850.53 20.6699 2858.77 22.6694 2865.88 26.8147C2872.98 30.8428 2878.58 36.7631 2882.53 44.6019C2886.5 52.3551 2888.43 61.4192 2888.43 71.619C2888.43 81.4489 2886.6 90.2469 2882.84 97.8585C2879.82 104.036 2875.71 109.067 2870.6 112.971L2893.38 155.399H2855.43L2837.51 121.847H2827.32V155.399H2756.85L2749.09 130.866H2711.78L2704.02 155.399H2636.39ZM2709.55 126.638H2751.32L2759.08 151.171H2788.15L2744.41 24.8978H2716.89L2673.28 151.171H2701.79L2709.55 126.638ZM2824.02 117.619H2839.26L2857.18 151.171H2887.1L2865.79 111.485C2866.81 110.855 2867.78 110.186 2868.72 109.478C2873.51 105.865 2877.29 101.242 2880.04 95.611C2883.43 88.7561 2885.12 80.7588 2885.12 71.619C2885.12 62.1184 2883.33 53.8806 2879.76 46.9055C2876.18 39.8101 2871.1 34.3984 2864.52 30.6703C2857.93 26.822 2850.17 24.8978 2841.23 24.8978H2796.07V151.171H2824.02V117.619ZM2608.21 97.7757L2573.49 24.8978H2550.49V151.171H2576.32V86.0503L2601.58 138.724H2614L2639.4 84.2463L2639.68 151.171H2665.36L2665.08 24.8978H2642.08L2608.21 97.7757ZM2730.43 59.8936L2717.73 100.301H2743.14L2730.43 59.8936ZM2730.43 71.234L2722.63 96.0732H2738.24L2730.43 71.234ZM2853.59 71.619C2853.59 66.6914 2852.41 63.3867 2850.35 61.0975C2848.27 58.7805 2844.86 57.2667 2839.54 57.2667H2827.32V85.791H2839.54C2844.86 85.791 2848.29 84.334 2850.37 82.1145C2852.42 79.8263 2853.59 76.528 2853.59 71.619ZM2852.52 85.3287C2849.61 88.4555 2845.28 90.0189 2839.54 90.0189H2824.02V53.0388H2839.54C2845.28 53.0388 2849.61 54.6623 2852.52 57.9093C2855.44 61.1564 2856.9 65.7263 2856.9 71.619C2856.9 77.5118 2855.44 82.0817 2852.52 85.3287ZM2966.86 151.171L2938.64 105.352L2928.2 119.603V151.171H2900.54V24.8978H2928.2V77.3915L2966.44 24.8978H2997.2L2956.84 80.8189L2999.32 151.171H2966.86ZM2961.17 81.0619L3003.35 150.916V22.6244L2961.17 81.0619ZM3087.44 20.6699V56.7255H3037.62V69.5558H3081.51V104.709H3037.62V119.344H3089.27V155.399H2965.26L2938.42 111.833L2931.5 121.274V155.399H2897.23V20.6699H2931.5V66.6478L2965 20.6699H3087.44ZM3034.31 123.572V100.482H3078.2V73.7837H3034.31V52.4976H3084.13V24.8978H3006.65V151.171H3085.96V123.572H3034.31ZM3088.85 57.4471V20.6699H3183.94V57.4471H3153.75V155.399H3119.19V57.4471H3088.85ZM3122.5 53.2192V151.171H3150.44V53.2192H3180.64V24.8978H3092.15V53.2192H3122.5Z" fill="#42D4BA"/>
<path fill-rule="evenodd" clip-rule="evenodd" d="M2636.39 155.399L2636.15 99.4602L2615.87 142.952H2599.72L2579.62 101.037V155.399H2547.18V20.6699H2575.35L2608.17 89.5729L2640.2 20.6699H2668.38L2668.68 154.031L2714.73 20.6699H2746.56L2792.77 154.048V20.6699H2841.23C2850.53 20.6699 2858.77 22.6694 2865.88 26.8147C2872.98 30.8428 2878.58 36.7631 2882.53 44.6019C2886.5 52.3551 2888.43 61.4192 2888.43 71.619C2888.43 81.4489 2886.6 90.2469 2882.84 97.8585C2879.82 104.036 2875.71 109.067 2870.6 112.971L2893.38 155.399H2855.43L2837.51 121.847H2827.32V155.399H2756.85L2749.09 130.866H2711.78L2704.02 155.399H2636.39ZM2709.55 126.638H2751.32L2759.08 151.171H2788.15L2744.41 24.8978H2716.89L2673.28 151.171H2701.79L2709.55 126.638ZM2824.02 117.619H2839.26L2857.18 151.171H2887.1L2865.79 111.485C2866.81 110.855 2867.78 110.186 2868.72 109.478C2873.51 105.865 2877.29 101.242 2880.04 95.611C2883.43 88.7561 2885.12 80.7588 2885.12 71.619C2885.12 62.1184 2883.33 53.8806 2879.76 46.9055C2876.18 39.8101 2871.1 34.3984 2864.52 30.6703C2857.93 26.822 2850.17 24.8978 2841.23 24.8978H2796.07V151.171H2824.02V117.619ZM2608.21 97.7757L2573.49 24.8978H2550.49V151.171H2576.32V86.0503L2601.58 138.724H2614L2639.4 84.2463L2639.68 151.171H2665.36L2665.08 24.8978H2642.08L2608.21 97.7757ZM2730.43 59.8936L2717.73 100.301H2743.14L2730.43 59.8936ZM2730.43 71.234L2722.63 96.0732H2738.24L2730.43 71.234ZM2853.59 71.619C2853.59 66.6914 2852.41 63.3867 2850.35 61.0975C2848.27 58.7805 2844.86 57.2667 2839.54 57.2667H2827.32V85.791H2839.54C2844.86 85.791 2848.29 84.334 2850.37 82.1145C2852.42 79.8263 2853.59 76.528 2853.59 71.619ZM2852.52 85.3287C2849.61 88.4555 2845.28 90.0189 2839.54 90.0189H2824.02V53.0388H2839.54C2845.28 53.0388 2849.61 54.6623 2852.52 57.9093C2855.44 61.1564 2856.9 65.7263 2856.9 71.619C2856.9 77.5118 2855.44 82.0817 2852.52 85.3287ZM2966.86 151.171L2938.64 105.352L2928.2 119.603V151.171H2900.54V24.8978H2928.2V77.3915L2966.44 24.8978H2997.2L2956.84 80.8189L2999.32 151.171H2966.86ZM2961.17 81.0619L3003.35 150.916V22.6244L2961.17 81.0619ZM3087.44 20.6699V56.7255H3037.62V69.5558H3081.51V104.709H3037.62V119.344H3089.27V155.399H2965.26L2938.42 111.833L2931.5 121.274V155.399H2897.23V20.6699H2931.5V66.6478L2965 20.6699H3087.44ZM3034.31 123.572V100.482H3078.2V73.7837H3034.31V52.4976H3084.13V24.8978H3006.65V151.171H3085.96V123.572H3034.31ZM3088.85 57.4471V20.6699H3183.94V57.4471H3153.75V155.399H3119.19V57.4471H3088.85ZM3122.5 53.2192V151.171H3150.44V53.2192H3180.64V24.8978H3092.15V53.2192H3122.5Z" fill="#42D4BA"/>
<g filter="url(#filter5_f_505_869)">
<path fill-rule="evenodd" clip-rule="evenodd" d="M4507.33 158L4507.1 102.061L4486.82 145.553H4470.67L4450.57 103.637V158H4418.13V23.2705H4446.3L4479.12 92.1735L4511.14 23.2705H4539.32L4539.62 156.632L4585.68 23.2705H4617.5L4663.71 156.649V23.2705H4712.18C4721.47 23.2705 4729.72 25.27 4736.82 29.4153C4743.93 33.4434 4749.52 39.3637 4753.48 47.2025C4757.45 54.9557 4759.37 64.0197 4759.37 74.2196C4759.37 84.0495 4757.55 92.8475 4753.79 100.459C4750.77 106.637 4746.66 111.667 4741.54 115.572L4764.32 158H4726.38L4708.46 124.447H4698.27V158H4627.8L4620.03 133.467H4582.72L4574.96 158H4507.33ZM4580.49 129.239H4622.26L4630.03 153.772H4659.1L4615.35 27.4984H4587.83L4544.22 153.772H4572.73L4580.49 129.239ZM4694.96 120.219H4710.2L4728.12 153.772H4758.04L4736.73 114.086C4737.75 113.456 4738.73 112.786 4739.67 112.079C4744.46 108.465 4748.23 103.843 4750.99 98.2115C4754.37 91.3567 4756.07 83.3594 4756.07 74.2196C4756.07 64.719 4754.28 56.4812 4750.7 49.5061C4747.13 42.4107 4742.05 36.999 4735.46 33.2709C4728.88 29.4226 4721.12 27.4984 4712.18 27.4984H4667.02V153.772H4694.96V120.219ZM4479.15 100.376L4444.44 27.4984H4421.44V153.772H4447.26V88.6508L4472.52 141.325H4484.94L4510.34 86.8469L4510.62 153.772H4536.31L4536.03 27.4984H4513.02L4479.15 100.376ZM4601.38 62.4942L4588.68 102.902H4614.08L4601.38 62.4942ZM4601.38 73.8346L4593.57 98.6738H4609.19L4601.38 73.8346ZM4724.53 74.2196C4724.53 69.2919 4723.35 65.9873 4721.29 63.6981C4719.21 61.3811 4715.8 59.8673 4710.48 59.8673H4698.27V88.3915H4710.48C4715.8 88.3915 4719.23 86.9346 4721.32 84.7151C4723.36 82.4269 4724.53 79.1286 4724.53 74.2196ZM4723.47 87.9293C4720.55 91.0561 4716.22 92.6194 4710.48 92.6194H4694.96V55.6394H4710.48C4716.22 55.6394 4720.55 57.2629 4723.47 60.5099C4726.38 63.7569 4727.84 68.3268 4727.84 74.2196C4727.84 80.1124 4726.38 84.6823 4723.47 87.9293ZM4837.81 153.772L4809.58 107.953L4799.14 122.204V153.772H4771.48V27.4984H4799.14V79.9921L4837.38 27.4984H4868.15L4827.79 83.4195L4870.27 153.772H4837.81ZM4832.11 83.6625L4874.29 153.517V25.225L4832.11 83.6625ZM4958.38 23.2705V59.3261H4908.56V72.1564H4952.45V107.31H4908.56V121.944H4960.21V158H4836.2L4809.37 114.434L4802.45 123.874V158H4768.17V23.2705H4802.45V69.2484L4835.95 23.2705H4958.38ZM4905.26 126.172V103.082H4949.15V76.3843H4905.26V55.0982H4955.07V27.4984H4877.6V153.772H4956.91V126.172H4905.26ZM4959.79 60.0477V23.2705H5054.89V60.0477H5024.69V158H4990.13V60.0477H4959.79ZM4993.44 55.8197V153.772H5021.38V55.8197H5051.58V27.4984H4963.1V55.8197H4993.44Z" fill="#42D4BA"/>
<path fill-rule="evenodd" clip-rule="evenodd" d="M4507.33 158L4507.1 102.061L4486.82 145.553H4470.67L4450.57 103.637V158H4418.13V23.2705H4446.3L4479.12 92.1735L4511.14 23.2705H4539.32L4539.62 156.632L4585.68 23.2705H4617.5L4663.71 156.649V23.2705H4712.18C4721.47 23.2705 4729.72 25.27 4736.82 29.4153C4743.93 33.4434 4749.52 39.3637 4753.48 47.2025C4757.45 54.9557 4759.37 64.0197 4759.37 74.2196C4759.37 84.0495 4757.55 92.8475 4753.79 100.459C4750.77 106.637 4746.66 111.667 4741.54 115.572L4764.32 158H4726.38L4708.46 124.447H4698.27V158H4627.8L4620.03 133.467H4582.72L4574.96 158H4507.33ZM4580.49 129.239H4622.26L4630.03 153.772H4659.1L4615.35 27.4984H4587.83L4544.22 153.772H4572.73L4580.49 129.239ZM4694.96 120.219H4710.2L4728.12 153.772H4758.04L4736.73 114.086C4737.75 113.456 4738.73 112.786 4739.67 112.079C4744.46 108.465 4748.23 103.843 4750.99 98.2115C4754.37 91.3567 4756.07 83.3594 4756.07 74.2196C4756.07 64.719 4754.28 56.4812 4750.7 49.5061C4747.13 42.4107 4742.05 36.999 4735.46 33.2709C4728.88 29.4226 4721.12 27.4984 4712.18 27.4984H4667.02V153.772H4694.96V120.219ZM4479.15 100.376L4444.44 27.4984H4421.44V153.772H4447.26V88.6508L4472.52 141.325H4484.94L4510.34 86.8469L4510.62 153.772H4536.31L4536.03 27.4984H4513.02L4479.15 100.376ZM4601.38 62.4942L4588.68 102.902H4614.08L4601.38 62.4942ZM4601.38 73.8346L4593.57 98.6738H4609.19L4601.38 73.8346ZM4724.53 74.2196C4724.53 69.2919 4723.35 65.9873 4721.29 63.6981C4719.21 61.3811 4715.8 59.8673 4710.48 59.8673H4698.27V88.3915H4710.48C4715.8 88.3915 4719.23 86.9346 4721.32 84.7151C4723.36 82.4269 4724.53 79.1286 4724.53 74.2196ZM4723.47 87.9293C4720.55 91.0561 4716.22 92.6194 4710.48 92.6194H4694.96V55.6394H4710.48C4716.22 55.6394 4720.55 57.2629 4723.47 60.5099C4726.38 63.7569 4727.84 68.3268 4727.84 74.2196C4727.84 80.1124 4726.38 84.6823 4723.47 87.9293ZM4837.81 153.772L4809.58 107.953L4799.14 122.204V153.772H4771.48V27.4984H4799.14V79.9921L4837.38 27.4984H4868.15L4827.79 83.4195L4870.27 153.772H4837.81ZM4832.11 83.6625L4874.29 153.517V25.225L4832.11 83.6625ZM4958.38 23.2705V59.3261H4908.56V72.1564H4952.45V107.31H4908.56V121.944H4960.21V158H4836.2L4809.37 114.434L4802.45 123.874V158H4768.17V23.2705H4802.45V69.2484L4835.95 23.2705H4958.38ZM4905.26 126.172V103.082H4949.15V76.3843H4905.26V55.0982H4955.07V27.4984H4877.6V153.772H4956.91V126.172H4905.26ZM4959.79 60.0477V23.2705H5054.89V60.0477H5024.69V158H4990.13V60.0477H4959.79ZM4993.44 55.8197V153.772H5021.38V55.8197H5051.58V27.4984H4963.1V55.8197H4993.44Z" fill="#42D4BA"/>
<path fill-rule="evenodd" clip-rule="evenodd" d="M4507.33 158L4507.1 102.061L4486.82 145.553H4470.67L4450.57 103.637V158H4418.13V23.2705H4446.3L4479.12 92.1735L4511.14 23.2705H4539.32L4539.62 156.632L4585.68 23.2705H4617.5L4663.71 156.649V23.2705H4712.18C4721.47 23.2705 4729.72 25.27 4736.82 29.4153C4743.93 33.4434 4749.52 39.3637 4753.48 47.2025C4757.45 54.9557 4759.37 64.0197 4759.37 74.2196C4759.37 84.0495 4757.55 92.8475 4753.79 100.459C4750.77 106.637 4746.66 111.667 4741.54 115.572L4764.32 158H4726.38L4708.46 124.447H4698.27V158H4627.8L4620.03 133.467H4582.72L4574.96 158H4507.33ZM4580.49 129.239H4622.26L4630.03 153.772H4659.1L4615.35 27.4984H4587.83L4544.22 153.772H4572.73L4580.49 129.239ZM4694.96 120.219H4710.2L4728.12 153.772H4758.04L4736.73 114.086C4737.75 113.456 4738.73 112.786 4739.67 112.079C4744.46 108.465 4748.23 103.843 4750.99 98.2115C4754.37 91.3567 4756.07 83.3594 4756.07 74.2196C4756.07 64.719 4754.28 56.4812 4750.7 49.5061C4747.13 42.4107 4742.05 36.999 4735.46 33.2709C4728.88 29.4226 4721.12 27.4984 4712.18 27.4984H4667.02V153.772H4694.96V120.219ZM4479.15 100.376L4444.44 27.4984H4421.44V153.772H4447.26V88.6508L4472.52 141.325H4484.94L4510.34 86.8469L4510.62 153.772H4536.31L4536.03 27.4984H4513.02L4479.15 100.376ZM4601.38 62.4942L4588.68 102.902H4614.08L4601.38 62.4942ZM4601.38 73.8346L4593.57 98.6738H4609.19L4601.38 73.8346ZM4724.53 74.2196C4724.53 69.2919 4723.35 65.9873 4721.29 63.6981C4719.21 61.3811 4715.8 59.8673 4710.48 59.8673H4698.27V88.3915H4710.48C4715.8 88.3915 4719.23 86.9346 4721.32 84.7151C4723.36 82.4269 4724.53 79.1286 4724.53 74.2196ZM4723.47 87.9293C4720.55 91.0561 4716.22 92.6194 4710.48 92.6194H4694.96V55.6394H4710.48C4716.22 55.6394 4720.55 57.2629 4723.47 60.5099C4726.38 63.7569 4727.84 68.3268 4727.84 74.2196C4727.84 80.1124 4726.38 84.6823 4723.47 87.9293ZM4837.81 153.772L4809.58 107.953L4799.14 122.204V153.772H4771.48V27.4984H4799.14V79.9921L4837.38 27.4984H4868.15L4827.79 83.4195L4870.27 153.772H4837.81ZM4832.11 83.6625L4874.29 153.517V25.225L4832.11 83.6625ZM4958.38 23.2705V59.3261H4908.56V72.1564H4952.45V107.31H4908.56V121.944H4960.21V158H4836.2L4809.37 114.434L4802.45 123.874V158H4768.17V23.2705H4802.45V69.2484L4835.95 23.2705H4958.38ZM4905.26 126.172V103.082H4949.15V76.3843H4905.26V55.0982H4955.07V27.4984H4877.6V153.772H4956.91V126.172H4905.26ZM4959.79 60.0477V23.2705H5054.89V60.0477H5024.69V158H4990.13V60.0477H4959.79ZM4993.44 55.8197V153.772H5021.38V55.8197H5051.58V27.4984H4963.1V55.8197H4993.44Z" fill="#42D4BA"/>
</g>
<path fill-rule="evenodd" clip-rule="evenodd" d="M4507.33 158L4507.1 102.061L4486.82 145.553H4470.67L4450.57 103.637V158H4418.13V23.2705H4446.3L4479.12 92.1735L4511.14 23.2705H4539.32L4539.62 156.632L4585.68 23.2705H4617.5L4663.71 156.649V23.2705H4712.18C4721.47 23.2705 4729.72 25.27 4736.82 29.4153C4743.93 33.4434 4749.52 39.3637 4753.48 47.2025C4757.45 54.9557 4759.37 64.0197 4759.37 74.2196C4759.37 84.0495 4757.55 92.8475 4753.79 100.459C4750.77 106.637 4746.66 111.667 4741.54 115.572L4764.32 158H4726.38L4708.46 124.447H4698.27V158H4627.8L4620.03 133.467H4582.72L4574.96 158H4507.33ZM4580.49 129.239H4622.26L4630.03 153.772H4659.1L4615.35 27.4984H4587.83L4544.22 153.772H4572.73L4580.49 129.239ZM4694.96 120.219H4710.2L4728.12 153.772H4758.04L4736.73 114.086C4737.75 113.456 4738.73 112.786 4739.67 112.079C4744.46 108.465 4748.23 103.843 4750.99 98.2115C4754.37 91.3567 4756.07 83.3594 4756.07 74.2196C4756.07 64.719 4754.28 56.4812 4750.7 49.5061C4747.13 42.4107 4742.05 36.999 4735.46 33.2709C4728.88 29.4226 4721.12 27.4984 4712.18 27.4984H4667.02V153.772H4694.96V120.219ZM4479.15 100.376L4444.44 27.4984H4421.44V153.772H4447.26V88.6508L4472.52 141.325H4484.94L4510.34 86.8469L4510.62 153.772H4536.31L4536.03 27.4984H4513.02L4479.15 100.376ZM4601.38 62.4942L4588.68 102.902H4614.08L4601.38 62.4942ZM4601.38 73.8346L4593.57 98.6738H4609.19L4601.38 73.8346ZM4724.53 74.2196C4724.53 69.2919 4723.35 65.9873 4721.29 63.6981C4719.21 61.3811 4715.8 59.8673 4710.48 59.8673H4698.27V88.3915H4710.48C4715.8 88.3915 4719.23 86.9346 4721.32 84.7151C4723.36 82.4269 4724.53 79.1286 4724.53 74.2196ZM4723.47 87.9293C4720.55 91.0561 4716.22 92.6194 4710.48 92.6194H4694.96V55.6394H4710.48C4716.22 55.6394 4720.55 57.2629 4723.47 60.5099C4726.38 63.7569 4727.84 68.3268 4727.84 74.2196C4727.84 80.1124 4726.38 84.6823 4723.47 87.9293ZM4837.81 153.772L4809.58 107.953L4799.14 122.204V153.772H4771.48V27.4984H4799.14V79.9921L4837.38 27.4984H4868.15L4827.79 83.4195L4870.27 153.772H4837.81ZM4832.11 83.6625L4874.29 153.517V25.225L4832.11 83.6625ZM4958.38 23.2705V59.3261H4908.56V72.1564H4952.45V107.31H4908.56V121.944H4960.21V158H4836.2L4809.37 114.434L4802.45 123.874V158H4768.17V23.2705H4802.45V69.2484L4835.95 23.2705H4958.38ZM4905.26 126.172V103.082H4949.15V76.3843H4905.26V55.0982H4955.07V27.4984H4877.6V153.772H4956.91V126.172H4905.26ZM4959.79 60.0477V23.2705H5054.89V60.0477H5024.69V158H4990.13V60.0477H4959.79ZM4993.44 55.8197V153.772H5021.38V55.8197H5051.58V27.4984H4963.1V55.8197H4993.44Z" fill="#42D4BA"/>
<path fill-rule="evenodd" clip-rule="evenodd" d="M4507.33 158L4507.1 102.061L4486.82 145.553H4470.67L4450.57 103.637V158H4418.13V23.2705H4446.3L4479.12 92.1735L4511.14 23.2705H4539.32L4539.62 156.632L4585.68 23.2705H4617.5L4663.71 156.649V23.2705H4712.18C4721.47 23.2705 4729.72 25.27 4736.82 29.4153C4743.93 33.4434 4749.52 39.3637 4753.48 47.2025C4757.45 54.9557 4759.37 64.0197 4759.37 74.2196C4759.37 84.0495 4757.55 92.8475 4753.79 100.459C4750.77 106.637 4746.66 111.667 4741.54 115.572L4764.32 158H4726.38L4708.46 124.447H4698.27V158H4627.8L4620.03 133.467H4582.72L4574.96 158H4507.33ZM4580.49 129.239H4622.26L4630.03 153.772H4659.1L4615.35 27.4984H4587.83L4544.22 153.772H4572.73L4580.49 129.239ZM4694.96 120.219H4710.2L4728.12 153.772H4758.04L4736.73 114.086C4737.75 113.456 4738.73 112.786 4739.67 112.079C4744.46 108.465 4748.23 103.843 4750.99 98.2115C4754.37 91.3567 4756.07 83.3594 4756.07 74.2196C4756.07 64.719 4754.28 56.4812 4750.7 49.5061C4747.13 42.4107 4742.05 36.999 4735.46 33.2709C4728.88 29.4226 4721.12 27.4984 4712.18 27.4984H4667.02V153.772H4694.96V120.219ZM4479.15 100.376L4444.44 27.4984H4421.44V153.772H4447.26V88.6508L4472.52 141.325H4484.94L4510.34 86.8469L4510.62 153.772H4536.31L4536.03 27.4984H4513.02L4479.15 100.376ZM4601.38 62.4942L4588.68 102.902H4614.08L4601.38 62.4942ZM4601.38 73.8346L4593.57 98.6738H4609.19L4601.38 73.8346ZM4724.53 74.2196C4724.53 69.2919 4723.35 65.9873 4721.29 63.6981C4719.21 61.3811 4715.8 59.8673 4710.48 59.8673H4698.27V88.3915H4710.48C4715.8 88.3915 4719.23 86.9346 4721.32 84.7151C4723.36 82.4269 4724.53 79.1286 4724.53 74.2196ZM4723.47 87.9293C4720.55 91.0561 4716.22 92.6194 4710.48 92.6194H4694.96V55.6394H4710.48C4716.22 55.6394 4720.55 57.2629 4723.47 60.5099C4726.38 63.7569 4727.84 68.3268 4727.84 74.2196C4727.84 80.1124 4726.38 84.6823 4723.47 87.9293ZM4837.81 153.772L4809.58 107.953L4799.14 122.204V153.772H4771.48V27.4984H4799.14V79.9921L4837.38 27.4984H4868.15L4827.79 83.4195L4870.27 153.772H4837.81ZM4832.11 83.6625L4874.29 153.517V25.225L4832.11 83.6625ZM4958.38 23.2705V59.3261H4908.56V72.1564H4952.45V107.31H4908.56V121.944H4960.21V158H4836.2L4809.37 114.434L4802.45 123.874V158H4768.17V23.2705H4802.45V69.2484L4835.95 23.2705H4958.38ZM4905.26 126.172V103.082H4949.15V76.3843H4905.26V55.0982H4955.07V27.4984H4877.6V153.772H4956.91V126.172H4905.26ZM4959.79 60.0477V23.2705H5054.89V60.0477H5024.69V158H4990.13V60.0477H4959.79ZM4993.44 55.8197V153.772H5021.38V55.8197H5051.58V27.4984H4963.1V55.8197H4993.44Z" fill="#42D4BA"/>
<path fill-rule="evenodd" clip-rule="evenodd" d="M4507.33 158L4507.1 102.061L4486.82 145.553H4470.67L4450.57 103.637V158H4418.13V23.2705H4446.3L4479.12 92.1735L4511.14 23.2705H4539.32L4539.62 156.632L4585.68 23.2705H4617.5L4663.71 156.649V23.2705H4712.18C4721.47 23.2705 4729.72 25.27 4736.82 29.4153C4743.93 33.4434 4749.52 39.3637 4753.48 47.2025C4757.45 54.9557 4759.37 64.0197 4759.37 74.2196C4759.37 84.0495 4757.55 92.8475 4753.79 100.459C4750.77 106.637 4746.66 111.667 4741.54 115.572L4764.32 158H4726.38L4708.46 124.447H4698.27V158H4627.8L4620.03 133.467H4582.72L4574.96 158H4507.33ZM4580.49 129.239H4622.26L4630.03 153.772H4659.1L4615.35 27.4984H4587.83L4544.22 153.772H4572.73L4580.49 129.239ZM4694.96 120.219H4710.2L4728.12 153.772H4758.04L4736.73 114.086C4737.75 113.456 4738.73 112.786 4739.67 112.079C4744.46 108.465 4748.23 103.843 4750.99 98.2115C4754.37 91.3567 4756.07 83.3594 4756.07 74.2196C4756.07 64.719 4754.28 56.4812 4750.7 49.5061C4747.13 42.4107 4742.05 36.999 4735.46 33.2709C4728.88 29.4226 4721.12 27.4984 4712.18 27.4984H4667.02V153.772H4694.96V120.219ZM4479.15 100.376L4444.44 27.4984H4421.44V153.772H4447.26V88.6508L4472.52 141.325H4484.94L4510.34 86.8469L4510.62 153.772H4536.31L4536.03 27.4984H4513.02L4479.15 100.376ZM4601.38 62.4942L4588.68 102.902H4614.08L4601.38 62.4942ZM4601.38 73.8346L4593.57 98.6738H4609.19L4601.38 73.8346ZM4724.53 74.2196C4724.53 69.2919 4723.35 65.9873 4721.29 63.6981C4719.21 61.3811 4715.8 59.8673 4710.48 59.8673H4698.27V88.3915H4710.48C4715.8 88.3915 4719.23 86.9346 4721.32 84.7151C4723.36 82.4269 4724.53 79.1286 4724.53 74.2196ZM4723.47 87.9293C4720.55 91.0561 4716.22 92.6194 4710.48 92.6194H4694.96V55.6394H4710.48C4716.22 55.6394 4720.55 57.2629 4723.47 60.5099C4726.38 63.7569 4727.84 68.3268 4727.84 74.2196C4727.84 80.1124 4726.38 84.6823 4723.47 87.9293ZM4837.81 153.772L4809.58 107.953L4799.14 122.204V153.772H4771.48V27.4984H4799.14V79.9921L4837.38 27.4984H4868.15L4827.79 83.4195L4870.27 153.772H4837.81ZM4832.11 83.6625L4874.29 153.517V25.225L4832.11 83.6625ZM4958.38 23.2705V59.3261H4908.56V72.1564H4952.45V107.31H4908.56V121.944H4960.21V158H4836.2L4809.37 114.434L4802.45 123.874V158H4768.17V23.2705H4802.45V69.2484L4835.95 23.2705H4958.38ZM4905.26 126.172V103.082H4949.15V76.3843H4905.26V55.0982H4955.07V27.4984H4877.6V153.772H4956.91V126.172H4905.26ZM4959.79 60.0477V23.2705H5054.89V60.0477H5024.69V158H4990.13V60.0477H4959.79ZM4993.44 55.8197V153.772H5021.38V55.8197H5051.58V27.4984H4963.1V55.8197H4993.44Z" fill="#42D4BA"/>
<defs>
<filter id="filter0_f_505_869" x="933.946" y="0.0683594" width="672.761" height="170.729" filterUnits="userSpaceOnUse" color-interpolation-filters="sRGB">
<feFlood flood-opacity="0" result="BackgroundImageFix"/>
<feBlend mode="normal" in="SourceGraphic" in2="BackgroundImageFix" result="shape"/>
<feGaussianBlur stdDeviation="9" result="effect1_foregroundBlur_505_869"/>
</filter>
<filter id="filter1_f_505_869" x="0" y="0.0683594" width="672.761" height="170.729" filterUnits="userSpaceOnUse" color-interpolation-filters="sRGB">
<feFlood flood-opacity="0" result="BackgroundImageFix"/>
<feBlend mode="normal" in="SourceGraphic" in2="BackgroundImageFix" result="shape"/>
<feGaussianBlur stdDeviation="9" result="effect1_foregroundBlur_505_869"/>
</filter>
<filter id="filter2_f_505_869" x="1870.94" y="2.66992" width="672.762" height="170.729" filterUnits="userSpaceOnUse" color-interpolation-filters="sRGB">
<feFlood flood-opacity="0" result="BackgroundImageFix"/>
<feBlend mode="normal" in="SourceGraphic" in2="BackgroundImageFix" result="shape"/>
<feGaussianBlur stdDeviation="9" result="effect1_foregroundBlur_505_869"/>
</filter>
<filter id="filter3_f_505_869" x="3463.13" y="2.66992" width="672.762" height="170.729" filterUnits="userSpaceOnUse" color-interpolation-filters="sRGB">
<feFlood flood-opacity="0" result="BackgroundImageFix"/>
<feBlend mode="normal" in="SourceGraphic" in2="BackgroundImageFix" result="shape"/>
<feGaussianBlur stdDeviation="9" result="effect1_foregroundBlur_505_869"/>
</filter>
<filter id="filter4_f_505_869" x="2529.18" y="2.66992" width="672.762" height="170.729" filterUnits="userSpaceOnUse" color-interpolation-filters="sRGB">
<feFlood flood-opacity="0" result="BackgroundImageFix"/>
<feBlend mode="normal" in="SourceGraphic" in2="BackgroundImageFix" result="shape"/>
<feGaussianBlur stdDeviation="9" result="effect1_foregroundBlur_505_869"/>
</filter>
<filter id="filter5_f_505_869" x="4400.13" y="5.27051" width="672.762" height="170.729" filterUnits="userSpaceOnUse" color-interpolation-filters="sRGB">
<feFlood flood-opacity="0" result="BackgroundImageFix"/>
<feBlend mode="normal" in="SourceGraphic" in2="BackgroundImageFix" result="shape"/>
<feGaussianBlur stdDeviation="9" result="effect1_foregroundBlur_505_869"/>
</filter>
</defs>
</svg>
