<svg width="5073" height="144" viewBox="0 0 5073 144" fill="none" xmlns="http://www.w3.org/2000/svg">
<path d="M1653.02 123.311C1642.43 123.311 1632.89 121.134 1624.42 116.779C1616.04 112.331 1609.44 106.178 1604.63 98.3213C1599.81 90.4648 1597.41 81.567 1597.41 71.628C1597.41 61.689 1599.81 52.7913 1604.63 44.9348C1609.44 37.0782 1616.04 30.9728 1624.42 26.6186C1632.89 22.1698 1642.43 19.9453 1653.02 19.9453C1662.27 19.9453 1670.6 21.5545 1678.01 24.7728C1685.43 27.9912 1691.59 32.6293 1696.5 38.6874L1678.3 54.8737C1671.75 47.1119 1663.81 43.2309 1654.46 43.2309C1648.98 43.2309 1644.06 44.4141 1639.73 46.7806C1635.49 49.147 1632.17 52.5073 1629.76 56.8615C1627.45 61.1211 1626.3 66.0433 1626.3 71.628C1626.3 77.2128 1627.45 82.1823 1629.76 86.5365C1632.17 90.7961 1635.49 94.109 1639.73 96.4755C1644.06 98.8419 1648.98 100.025 1654.46 100.025C1663.81 100.025 1671.75 96.1442 1678.3 88.3823L1696.5 104.569C1691.59 110.627 1685.43 115.265 1678.01 118.483C1670.6 121.702 1662.27 123.311 1653.02 123.311Z" fill="white"/>
<path d="M1729.93 44.2248H1698.87V21.9331H1789.44V44.2248H1758.53V121.323H1729.93V44.2248Z" fill="white"/>
<path d="M1828.7 43.6569V65.5226H1873.34V87.2464H1828.7V121.323H1800.1V21.9331H1879.4V43.6569H1828.7Z" fill="white"/>
<path d="M716.309 121.365C705.716 121.365 696.182 119.188 687.708 114.834C679.33 110.385 672.733 104.233 667.918 96.376C663.103 88.5194 660.695 79.6217 660.695 69.6827C660.695 59.7437 663.103 50.846 667.918 42.9894C672.733 35.1329 679.33 29.0275 687.708 24.6733C696.182 20.2244 705.716 18 716.309 18C725.554 18 733.884 19.6092 741.299 22.8275C748.715 26.0458 754.878 30.684 759.789 36.7421L741.588 52.9284C735.04 45.1666 727.095 41.2856 717.754 41.2856C712.265 41.2856 707.353 42.4688 703.02 44.8352C698.782 47.2017 695.46 50.562 693.053 54.9162C690.741 59.1758 689.586 64.0979 689.586 69.6827C689.586 75.2675 690.741 80.237 693.053 84.5912C695.46 88.8507 698.782 92.1637 703.02 94.5302C707.353 96.8966 712.265 98.0798 717.754 98.0798C727.095 98.0798 735.04 94.1989 741.588 86.437L759.789 102.623C754.878 108.681 748.715 113.32 741.299 116.538C733.884 119.756 725.554 121.365 716.309 121.365Z" fill="white"/>
<path d="M793.219 42.2795H762.161V19.9878H852.733V42.2795H821.82V119.378H793.219V42.2795Z" fill="white"/>
<path d="M891.99 41.7116V63.5773H936.625V85.3011H891.99V119.378H863.388V19.9878H942.692V41.7116H891.99Z" fill="white"/>
<g filter="url(#filter0_f_523_2100)">
<path fill-rule="evenodd" clip-rule="evenodd" d="M1041.15 121.655L1040.92 78.6405L1020.64 112.084H1004.49L984.385 79.8528V121.655H951.945V18.0547H980.114L1012.94 71.0376L1044.96 18.0547H1073.14L1073.44 120.603L1119.49 18.0547H1151.32L1197.53 120.616V18.0547H1245.99C1255.29 18.0547 1263.53 19.5922 1270.64 22.7797C1277.74 25.8771 1283.34 30.4295 1287.29 36.4572C1291.26 42.419 1293.19 49.3888 1293.19 57.232C1293.19 64.7907 1291.36 71.5559 1287.6 77.4088C1284.58 82.1591 1280.48 86.0272 1275.36 89.0299L1298.14 121.655H1260.19L1242.27 95.8544H1232.09V121.655H1161.61L1153.85 102.79H1116.54L1108.78 121.655H1041.15ZM1114.31 99.5389H1156.08L1163.84 118.404H1192.91L1149.17 21.3057H1121.65L1078.04 118.404H1106.55L1114.31 99.5389ZM1228.78 92.6034H1244.02L1261.94 118.404H1291.86L1270.55 87.8872C1271.57 87.4025 1272.54 86.888 1273.48 86.3437C1278.28 83.5653 1282.05 80.0109 1284.8 75.6806C1288.19 70.4095 1289.88 64.26 1289.88 57.232C1289.88 49.9265 1288.1 43.592 1284.52 38.2285C1280.95 32.7725 1275.87 28.6112 1269.28 25.7445C1262.69 22.7853 1254.93 21.3057 1245.99 21.3057H1200.84V118.404H1228.78V92.6034ZM1012.97 77.3451L978.256 21.3057H955.253V118.404H981.078V68.3289L1006.34 108.833H1018.76L1044.16 66.9418L1044.44 118.404H1070.13L1069.84 21.3057H1046.84L1012.97 77.3451ZM1135.2 48.2157L1122.5 79.2871H1147.9L1135.2 48.2157ZM1135.2 56.9359L1127.39 76.036H1143L1135.2 56.9359ZM1258.35 57.232C1258.35 53.4428 1257.17 50.9017 1255.11 49.1415C1253.03 47.3598 1249.62 46.1957 1244.3 46.1957H1232.09V68.1295H1244.3C1249.62 68.1295 1253.05 67.0092 1255.14 65.3024C1257.18 63.543 1258.35 61.0067 1258.35 57.232ZM1257.28 67.774C1254.37 70.1784 1250.04 71.3805 1244.3 71.3805H1228.78V42.9447H1244.3C1250.04 42.9447 1254.37 44.1931 1257.28 46.6899C1260.2 49.1867 1261.66 52.7007 1261.66 57.232C1261.66 61.7632 1260.2 65.2772 1257.28 67.774ZM1371.63 118.404L1343.4 83.171L1332.96 94.1292V118.404H1305.3V21.3057H1332.96V61.6707L1371.2 21.3057H1401.97L1361.61 64.3062L1404.08 118.404H1371.63ZM1365.93 64.4931L1408.11 118.208V19.5576L1365.93 64.4931ZM1492.2 18.0547V45.7796H1442.38V55.6455H1486.27V82.6768H1442.38V93.9298H1494.03V121.655H1370.02L1343.18 88.1547L1336.27 95.414V121.655H1301.99V18.0547H1336.27V53.4094L1369.76 18.0547H1492.2ZM1439.07 97.1808V79.4258H1482.96V58.8965H1439.07V42.5286H1488.89V21.3057H1411.41V118.404H1490.72V97.1808H1439.07ZM1493.61 46.3345V18.0547H1588.71V46.3345H1558.51V121.655H1523.95V46.3345H1493.61ZM1527.26 43.0834V118.404H1555.2V43.0834H1585.4V21.3057H1496.92V43.0834H1527.26Z" fill="#42D4BA"/>
<path fill-rule="evenodd" clip-rule="evenodd" d="M1041.15 121.655L1040.92 78.6405L1020.64 112.084H1004.49L984.385 79.8528V121.655H951.945V18.0547H980.114L1012.94 71.0376L1044.96 18.0547H1073.14L1073.44 120.603L1119.49 18.0547H1151.32L1197.53 120.616V18.0547H1245.99C1255.29 18.0547 1263.53 19.5922 1270.64 22.7797C1277.74 25.8771 1283.34 30.4295 1287.29 36.4572C1291.26 42.419 1293.19 49.3888 1293.19 57.232C1293.19 64.7907 1291.36 71.5559 1287.6 77.4088C1284.58 82.1591 1280.48 86.0272 1275.36 89.0299L1298.14 121.655H1260.19L1242.27 95.8544H1232.09V121.655H1161.61L1153.85 102.79H1116.54L1108.78 121.655H1041.15ZM1114.31 99.5389H1156.08L1163.84 118.404H1192.91L1149.17 21.3057H1121.65L1078.04 118.404H1106.55L1114.31 99.5389ZM1228.78 92.6034H1244.02L1261.94 118.404H1291.86L1270.55 87.8872C1271.57 87.4025 1272.54 86.888 1273.48 86.3437C1278.28 83.5653 1282.05 80.0109 1284.8 75.6806C1288.19 70.4095 1289.88 64.26 1289.88 57.232C1289.88 49.9265 1288.1 43.592 1284.52 38.2285C1280.95 32.7725 1275.87 28.6112 1269.28 25.7445C1262.69 22.7853 1254.93 21.3057 1245.99 21.3057H1200.84V118.404H1228.78V92.6034ZM1012.97 77.3451L978.256 21.3057H955.253V118.404H981.078V68.3289L1006.34 108.833H1018.76L1044.16 66.9418L1044.44 118.404H1070.13L1069.84 21.3057H1046.84L1012.97 77.3451ZM1135.2 48.2157L1122.5 79.2871H1147.9L1135.2 48.2157ZM1135.2 56.9359L1127.39 76.036H1143L1135.2 56.9359ZM1258.35 57.232C1258.35 53.4428 1257.17 50.9017 1255.11 49.1415C1253.03 47.3598 1249.62 46.1957 1244.3 46.1957H1232.09V68.1295H1244.3C1249.62 68.1295 1253.05 67.0092 1255.14 65.3024C1257.18 63.543 1258.35 61.0067 1258.35 57.232ZM1257.28 67.774C1254.37 70.1784 1250.04 71.3805 1244.3 71.3805H1228.78V42.9447H1244.3C1250.04 42.9447 1254.37 44.1931 1257.28 46.6899C1260.2 49.1867 1261.66 52.7007 1261.66 57.232C1261.66 61.7632 1260.2 65.2772 1257.28 67.774ZM1371.63 118.404L1343.4 83.171L1332.96 94.1292V118.404H1305.3V21.3057H1332.96V61.6707L1371.2 21.3057H1401.97L1361.61 64.3062L1404.08 118.404H1371.63ZM1365.93 64.4931L1408.11 118.208V19.5576L1365.93 64.4931ZM1492.2 18.0547V45.7796H1442.38V55.6455H1486.27V82.6768H1442.38V93.9298H1494.03V121.655H1370.02L1343.18 88.1547L1336.27 95.414V121.655H1301.99V18.0547H1336.27V53.4094L1369.76 18.0547H1492.2ZM1439.07 97.1808V79.4258H1482.96V58.8965H1439.07V42.5286H1488.89V21.3057H1411.41V118.404H1490.72V97.1808H1439.07ZM1493.61 46.3345V18.0547H1588.71V46.3345H1558.51V121.655H1523.95V46.3345H1493.61ZM1527.26 43.0834V118.404H1555.2V43.0834H1585.4V21.3057H1496.92V43.0834H1527.26Z" fill="#42D4BA"/>
<path fill-rule="evenodd" clip-rule="evenodd" d="M1041.15 121.655L1040.92 78.6405L1020.64 112.084H1004.49L984.385 79.8528V121.655H951.945V18.0547H980.114L1012.94 71.0376L1044.96 18.0547H1073.14L1073.44 120.603L1119.49 18.0547H1151.32L1197.53 120.616V18.0547H1245.99C1255.29 18.0547 1263.53 19.5922 1270.64 22.7797C1277.74 25.8771 1283.34 30.4295 1287.29 36.4572C1291.26 42.419 1293.19 49.3888 1293.19 57.232C1293.19 64.7907 1291.36 71.5559 1287.6 77.4088C1284.58 82.1591 1280.48 86.0272 1275.36 89.0299L1298.14 121.655H1260.19L1242.27 95.8544H1232.09V121.655H1161.61L1153.85 102.79H1116.54L1108.78 121.655H1041.15ZM1114.31 99.5389H1156.08L1163.84 118.404H1192.91L1149.17 21.3057H1121.65L1078.04 118.404H1106.55L1114.31 99.5389ZM1228.78 92.6034H1244.02L1261.94 118.404H1291.86L1270.55 87.8872C1271.57 87.4025 1272.54 86.888 1273.48 86.3437C1278.28 83.5653 1282.05 80.0109 1284.8 75.6806C1288.19 70.4095 1289.88 64.26 1289.88 57.232C1289.88 49.9265 1288.1 43.592 1284.52 38.2285C1280.95 32.7725 1275.87 28.6112 1269.28 25.7445C1262.69 22.7853 1254.93 21.3057 1245.99 21.3057H1200.84V118.404H1228.78V92.6034ZM1012.97 77.3451L978.256 21.3057H955.253V118.404H981.078V68.3289L1006.34 108.833H1018.76L1044.16 66.9418L1044.44 118.404H1070.13L1069.84 21.3057H1046.84L1012.97 77.3451ZM1135.2 48.2157L1122.5 79.2871H1147.9L1135.2 48.2157ZM1135.2 56.9359L1127.39 76.036H1143L1135.2 56.9359ZM1258.35 57.232C1258.35 53.4428 1257.17 50.9017 1255.11 49.1415C1253.03 47.3598 1249.62 46.1957 1244.3 46.1957H1232.09V68.1295H1244.3C1249.62 68.1295 1253.05 67.0092 1255.14 65.3024C1257.18 63.543 1258.35 61.0067 1258.35 57.232ZM1257.28 67.774C1254.37 70.1784 1250.04 71.3805 1244.3 71.3805H1228.78V42.9447H1244.3C1250.04 42.9447 1254.37 44.1931 1257.28 46.6899C1260.2 49.1867 1261.66 52.7007 1261.66 57.232C1261.66 61.7632 1260.2 65.2772 1257.28 67.774ZM1371.63 118.404L1343.4 83.171L1332.96 94.1292V118.404H1305.3V21.3057H1332.96V61.6707L1371.2 21.3057H1401.97L1361.61 64.3062L1404.08 118.404H1371.63ZM1365.93 64.4931L1408.11 118.208V19.5576L1365.93 64.4931ZM1492.2 18.0547V45.7796H1442.38V55.6455H1486.27V82.6768H1442.38V93.9298H1494.03V121.655H1370.02L1343.18 88.1547L1336.27 95.414V121.655H1301.99V18.0547H1336.27V53.4094L1369.76 18.0547H1492.2ZM1439.07 97.1808V79.4258H1482.96V58.8965H1439.07V42.5286H1488.89V21.3057H1411.41V118.404H1490.72V97.1808H1439.07ZM1493.61 46.3345V18.0547H1588.71V46.3345H1558.51V121.655H1523.95V46.3345H1493.61ZM1527.26 43.0834V118.404H1555.2V43.0834H1585.4V21.3057H1496.92V43.0834H1527.26Z" fill="#42D4BA"/>
</g>
<path fill-rule="evenodd" clip-rule="evenodd" d="M1041.15 121.655L1040.92 78.6405L1020.64 112.084H1004.49L984.385 79.8528V121.655H951.945V18.0547H980.114L1012.94 71.0376L1044.96 18.0547H1073.14L1073.44 120.603L1119.49 18.0547H1151.32L1197.53 120.616V18.0547H1245.99C1255.29 18.0547 1263.53 19.5922 1270.64 22.7797C1277.74 25.8771 1283.34 30.4295 1287.29 36.4572C1291.26 42.419 1293.19 49.3888 1293.19 57.232C1293.19 64.7907 1291.36 71.5559 1287.6 77.4088C1284.58 82.1591 1280.48 86.0272 1275.36 89.0299L1298.14 121.655H1260.19L1242.27 95.8544H1232.09V121.655H1161.61L1153.85 102.79H1116.54L1108.78 121.655H1041.15ZM1114.31 99.5389H1156.08L1163.84 118.404H1192.91L1149.17 21.3057H1121.65L1078.04 118.404H1106.55L1114.31 99.5389ZM1228.78 92.6034H1244.02L1261.94 118.404H1291.86L1270.55 87.8872C1271.57 87.4025 1272.54 86.888 1273.48 86.3437C1278.28 83.5653 1282.05 80.0109 1284.8 75.6806C1288.19 70.4095 1289.88 64.26 1289.88 57.232C1289.88 49.9265 1288.1 43.592 1284.52 38.2285C1280.95 32.7725 1275.87 28.6112 1269.28 25.7445C1262.69 22.7853 1254.93 21.3057 1245.99 21.3057H1200.84V118.404H1228.78V92.6034ZM1012.97 77.3451L978.256 21.3057H955.253V118.404H981.078V68.3289L1006.34 108.833H1018.76L1044.16 66.9418L1044.44 118.404H1070.13L1069.84 21.3057H1046.84L1012.97 77.3451ZM1135.2 48.2157L1122.5 79.2871H1147.9L1135.2 48.2157ZM1135.2 56.9359L1127.39 76.036H1143L1135.2 56.9359ZM1258.35 57.232C1258.35 53.4428 1257.17 50.9017 1255.11 49.1415C1253.03 47.3598 1249.62 46.1957 1244.3 46.1957H1232.09V68.1295H1244.3C1249.62 68.1295 1253.05 67.0092 1255.14 65.3024C1257.18 63.543 1258.35 61.0067 1258.35 57.232ZM1257.28 67.774C1254.37 70.1784 1250.04 71.3805 1244.3 71.3805H1228.78V42.9447H1244.3C1250.04 42.9447 1254.37 44.1931 1257.28 46.6899C1260.2 49.1867 1261.66 52.7007 1261.66 57.232C1261.66 61.7632 1260.2 65.2772 1257.28 67.774ZM1371.63 118.404L1343.4 83.171L1332.96 94.1292V118.404H1305.3V21.3057H1332.96V61.6707L1371.2 21.3057H1401.97L1361.61 64.3062L1404.08 118.404H1371.63ZM1365.93 64.4931L1408.11 118.208V19.5576L1365.93 64.4931ZM1492.2 18.0547V45.7796H1442.38V55.6455H1486.27V82.6768H1442.38V93.9298H1494.03V121.655H1370.02L1343.18 88.1547L1336.27 95.414V121.655H1301.99V18.0547H1336.27V53.4094L1369.76 18.0547H1492.2ZM1439.07 97.1808V79.4258H1482.96V58.8965H1439.07V42.5286H1488.89V21.3057H1411.41V118.404H1490.72V97.1808H1439.07ZM1493.61 46.3345V18.0547H1588.71V46.3345H1558.51V121.655H1523.95V46.3345H1493.61ZM1527.26 43.0834V118.404H1555.2V43.0834H1585.4V21.3057H1496.92V43.0834H1527.26Z" fill="#42D4BA"/>
<path fill-rule="evenodd" clip-rule="evenodd" d="M1041.15 121.655L1040.92 78.6405L1020.64 112.084H1004.49L984.385 79.8528V121.655H951.945V18.0547H980.114L1012.94 71.0376L1044.96 18.0547H1073.14L1073.44 120.603L1119.49 18.0547H1151.32L1197.53 120.616V18.0547H1245.99C1255.29 18.0547 1263.53 19.5922 1270.64 22.7797C1277.74 25.8771 1283.34 30.4295 1287.29 36.4572C1291.26 42.419 1293.19 49.3888 1293.19 57.232C1293.19 64.7907 1291.36 71.5559 1287.6 77.4088C1284.58 82.1591 1280.48 86.0272 1275.36 89.0299L1298.14 121.655H1260.19L1242.27 95.8544H1232.09V121.655H1161.61L1153.85 102.79H1116.54L1108.78 121.655H1041.15ZM1114.31 99.5389H1156.08L1163.84 118.404H1192.91L1149.17 21.3057H1121.65L1078.04 118.404H1106.55L1114.31 99.5389ZM1228.78 92.6034H1244.02L1261.94 118.404H1291.86L1270.55 87.8872C1271.57 87.4025 1272.54 86.888 1273.48 86.3437C1278.28 83.5653 1282.05 80.0109 1284.8 75.6806C1288.19 70.4095 1289.88 64.26 1289.88 57.232C1289.88 49.9265 1288.1 43.592 1284.52 38.2285C1280.95 32.7725 1275.87 28.6112 1269.28 25.7445C1262.69 22.7853 1254.93 21.3057 1245.99 21.3057H1200.84V118.404H1228.78V92.6034ZM1012.97 77.3451L978.256 21.3057H955.253V118.404H981.078V68.3289L1006.34 108.833H1018.76L1044.16 66.9418L1044.44 118.404H1070.13L1069.84 21.3057H1046.84L1012.97 77.3451ZM1135.2 48.2157L1122.5 79.2871H1147.9L1135.2 48.2157ZM1135.2 56.9359L1127.39 76.036H1143L1135.2 56.9359ZM1258.35 57.232C1258.35 53.4428 1257.17 50.9017 1255.11 49.1415C1253.03 47.3598 1249.62 46.1957 1244.3 46.1957H1232.09V68.1295H1244.3C1249.62 68.1295 1253.05 67.0092 1255.14 65.3024C1257.18 63.543 1258.35 61.0067 1258.35 57.232ZM1257.28 67.774C1254.37 70.1784 1250.04 71.3805 1244.3 71.3805H1228.78V42.9447H1244.3C1250.04 42.9447 1254.37 44.1931 1257.28 46.6899C1260.2 49.1867 1261.66 52.7007 1261.66 57.232C1261.66 61.7632 1260.2 65.2772 1257.28 67.774ZM1371.63 118.404L1343.4 83.171L1332.96 94.1292V118.404H1305.3V21.3057H1332.96V61.6707L1371.2 21.3057H1401.97L1361.61 64.3062L1404.08 118.404H1371.63ZM1365.93 64.4931L1408.11 118.208V19.5576L1365.93 64.4931ZM1492.2 18.0547V45.7796H1442.38V55.6455H1486.27V82.6768H1442.38V93.9298H1494.03V121.655H1370.02L1343.18 88.1547L1336.27 95.414V121.655H1301.99V18.0547H1336.27V53.4094L1369.76 18.0547H1492.2ZM1439.07 97.1808V79.4258H1482.96V58.8965H1439.07V42.5286H1488.89V21.3057H1411.41V118.404H1490.72V97.1808H1439.07ZM1493.61 46.3345V18.0547H1588.71V46.3345H1558.51V121.655H1523.95V46.3345H1493.61ZM1527.26 43.0834V118.404H1555.2V43.0834H1585.4V21.3057H1496.92V43.0834H1527.26Z" fill="#42D4BA"/>
<path fill-rule="evenodd" clip-rule="evenodd" d="M1041.15 121.655L1040.92 78.6405L1020.64 112.084H1004.49L984.385 79.8528V121.655H951.945V18.0547H980.114L1012.94 71.0376L1044.96 18.0547H1073.14L1073.44 120.603L1119.49 18.0547H1151.32L1197.53 120.616V18.0547H1245.99C1255.29 18.0547 1263.53 19.5922 1270.64 22.7797C1277.74 25.8771 1283.34 30.4295 1287.29 36.4572C1291.26 42.419 1293.19 49.3888 1293.19 57.232C1293.19 64.7907 1291.36 71.5559 1287.6 77.4088C1284.58 82.1591 1280.48 86.0272 1275.36 89.0299L1298.14 121.655H1260.19L1242.27 95.8544H1232.09V121.655H1161.61L1153.85 102.79H1116.54L1108.78 121.655H1041.15ZM1114.31 99.5389H1156.08L1163.84 118.404H1192.91L1149.17 21.3057H1121.65L1078.04 118.404H1106.55L1114.31 99.5389ZM1228.78 92.6034H1244.02L1261.94 118.404H1291.86L1270.55 87.8872C1271.57 87.4025 1272.54 86.888 1273.48 86.3437C1278.28 83.5653 1282.05 80.0109 1284.8 75.6806C1288.19 70.4095 1289.88 64.26 1289.88 57.232C1289.88 49.9265 1288.1 43.592 1284.52 38.2285C1280.95 32.7725 1275.87 28.6112 1269.28 25.7445C1262.69 22.7853 1254.93 21.3057 1245.99 21.3057H1200.84V118.404H1228.78V92.6034ZM1012.97 77.3451L978.256 21.3057H955.253V118.404H981.078V68.3289L1006.34 108.833H1018.76L1044.16 66.9418L1044.44 118.404H1070.13L1069.84 21.3057H1046.84L1012.97 77.3451ZM1135.2 48.2157L1122.5 79.2871H1147.9L1135.2 48.2157ZM1135.2 56.9359L1127.39 76.036H1143L1135.2 56.9359ZM1258.35 57.232C1258.35 53.4428 1257.17 50.9017 1255.11 49.1415C1253.03 47.3598 1249.62 46.1957 1244.3 46.1957H1232.09V68.1295H1244.3C1249.62 68.1295 1253.05 67.0092 1255.14 65.3024C1257.18 63.543 1258.35 61.0067 1258.35 57.232ZM1257.28 67.774C1254.37 70.1784 1250.04 71.3805 1244.3 71.3805H1228.78V42.9447H1244.3C1250.04 42.9447 1254.37 44.1931 1257.28 46.6899C1260.2 49.1867 1261.66 52.7007 1261.66 57.232C1261.66 61.7632 1260.2 65.2772 1257.28 67.774ZM1371.63 118.404L1343.4 83.171L1332.96 94.1292V118.404H1305.3V21.3057H1332.96V61.6707L1371.2 21.3057H1401.97L1361.61 64.3062L1404.08 118.404H1371.63ZM1365.93 64.4931L1408.11 118.208V19.5576L1365.93 64.4931ZM1492.2 18.0547V45.7796H1442.38V55.6455H1486.27V82.6768H1442.38V93.9298H1494.03V121.655H1370.02L1343.18 88.1547L1336.27 95.414V121.655H1301.99V18.0547H1336.27V53.4094L1369.76 18.0547H1492.2ZM1439.07 97.1808V79.4258H1482.96V58.8965H1439.07V42.5286H1488.89V21.3057H1411.41V118.404H1490.72V97.1808H1439.07ZM1493.61 46.3345V18.0547H1588.71V46.3345H1558.51V121.655H1523.95V46.3345H1493.61ZM1527.26 43.0834V118.404H1555.2V43.0834H1585.4V21.3057H1496.92V43.0834H1527.26Z" fill="#42D4BA"/>
<g filter="url(#filter1_f_523_2100)">
<path fill-rule="evenodd" clip-rule="evenodd" d="M107.206 121.651L106.97 78.6366L86.691 112.08H70.5413L50.4401 79.8489V121.651H18V18.0508H46.1687L78.9909 71.0337L111.013 18.0508H139.196L139.494 120.599L185.548 18.0508H217.374L263.583 120.612V18.0508H312.049C321.345 18.0508 329.59 19.5883 336.692 22.7758C343.799 25.8732 349.396 30.4256 353.349 36.4532C357.32 42.4151 359.246 49.3849 359.246 57.2281C359.246 64.7868 357.418 71.552 353.659 77.4049C350.637 82.1551 346.53 86.0233 341.414 89.026L364.196 121.651H326.249L308.327 95.8505H298.14V121.651H227.668L219.907 102.786H182.595L174.834 121.651H107.206ZM180.365 99.535H222.137L229.898 118.4H258.969L215.222 21.3018H187.703L144.097 118.4H172.603L180.365 99.535ZM294.833 92.5994H310.074L327.996 118.4H357.914L336.604 87.8833C337.622 87.3985 338.6 86.8841 339.538 86.3398C344.331 83.5614 348.104 80.007 350.858 75.6767C354.245 70.4056 355.938 64.2561 355.938 57.2281C355.938 49.9226 354.15 43.5881 350.575 38.2246C347 32.7686 341.92 28.6073 335.334 25.7406C328.749 22.7814 320.987 21.3018 312.049 21.3018H266.891V118.4H294.833V92.5994ZM79.0259 77.3412L44.3102 21.3018H21.3075V118.4H47.1326V68.325L72.3933 108.829H84.8119L110.214 66.9378L110.496 118.4H136.18L135.898 21.3018H112.895L79.0259 77.3412ZM201.251 48.2118L188.55 79.2832H213.952L201.251 48.2118ZM201.251 56.932L193.443 76.0321H209.058L201.251 56.932ZM324.406 57.2281C324.406 53.4389 323.223 50.8978 321.167 49.1376C319.086 47.3559 315.672 46.1918 310.356 46.1918H298.14V68.1256H310.356C315.677 68.1256 319.104 67.0053 321.19 65.2985C323.232 63.539 324.406 61.0028 324.406 57.2281ZM323.339 67.7701C320.423 70.1744 316.095 71.3766 310.356 71.3766H294.833V42.9408H310.356C316.095 42.9408 320.423 44.1892 323.339 46.686C326.256 49.1828 327.714 52.6968 327.714 57.2281C327.714 61.7593 326.256 65.2733 323.339 67.7701ZM437.68 118.4L409.456 83.1671L399.013 94.1253V118.4H371.353V21.3018H399.013V61.6668L437.257 21.3018H468.021L427.66 64.3023L470.138 118.4H437.68ZM431.985 64.4892L474.162 118.204V19.5537L431.985 64.4892ZM558.252 18.0508V45.7757H508.437V55.6415H552.325V82.6729H508.437V93.9259H560.087V121.651H436.075L409.238 88.1508L402.32 95.4101V121.651H368.046V18.0508H402.32V53.4055L435.817 18.0508H558.252ZM505.129 97.1769V79.4219H549.018V58.8926H505.129V42.5247H554.945V21.3018H477.469V118.4H556.779V97.1769H505.129ZM559.664 46.3305V18.0508H654.761V46.3305H624.561V121.651H590.004V46.3305H559.664ZM593.312 43.0795V118.4H621.254V43.0795H651.454V21.3018H562.971V43.0795H593.312Z" fill="#42D4BA"/>
<path fill-rule="evenodd" clip-rule="evenodd" d="M107.206 121.651L106.97 78.6366L86.691 112.08H70.5413L50.4401 79.8489V121.651H18V18.0508H46.1687L78.9909 71.0337L111.013 18.0508H139.196L139.494 120.599L185.548 18.0508H217.374L263.583 120.612V18.0508H312.049C321.345 18.0508 329.59 19.5883 336.692 22.7758C343.799 25.8732 349.396 30.4256 353.349 36.4532C357.32 42.4151 359.246 49.3849 359.246 57.2281C359.246 64.7868 357.418 71.552 353.659 77.4049C350.637 82.1551 346.53 86.0233 341.414 89.026L364.196 121.651H326.249L308.327 95.8505H298.14V121.651H227.668L219.907 102.786H182.595L174.834 121.651H107.206ZM180.365 99.535H222.137L229.898 118.4H258.969L215.222 21.3018H187.703L144.097 118.4H172.603L180.365 99.535ZM294.833 92.5994H310.074L327.996 118.4H357.914L336.604 87.8833C337.622 87.3985 338.6 86.8841 339.538 86.3398C344.331 83.5614 348.104 80.007 350.858 75.6767C354.245 70.4056 355.938 64.2561 355.938 57.2281C355.938 49.9226 354.15 43.5881 350.575 38.2246C347 32.7686 341.92 28.6073 335.334 25.7406C328.749 22.7814 320.987 21.3018 312.049 21.3018H266.891V118.4H294.833V92.5994ZM79.0259 77.3412L44.3102 21.3018H21.3075V118.4H47.1326V68.325L72.3933 108.829H84.8119L110.214 66.9378L110.496 118.4H136.18L135.898 21.3018H112.895L79.0259 77.3412ZM201.251 48.2118L188.55 79.2832H213.952L201.251 48.2118ZM201.251 56.932L193.443 76.0321H209.058L201.251 56.932ZM324.406 57.2281C324.406 53.4389 323.223 50.8978 321.167 49.1376C319.086 47.3559 315.672 46.1918 310.356 46.1918H298.14V68.1256H310.356C315.677 68.1256 319.104 67.0053 321.19 65.2985C323.232 63.539 324.406 61.0028 324.406 57.2281ZM323.339 67.7701C320.423 70.1744 316.095 71.3766 310.356 71.3766H294.833V42.9408H310.356C316.095 42.9408 320.423 44.1892 323.339 46.686C326.256 49.1828 327.714 52.6968 327.714 57.2281C327.714 61.7593 326.256 65.2733 323.339 67.7701ZM437.68 118.4L409.456 83.1671L399.013 94.1253V118.4H371.353V21.3018H399.013V61.6668L437.257 21.3018H468.021L427.66 64.3023L470.138 118.4H437.68ZM431.985 64.4892L474.162 118.204V19.5537L431.985 64.4892ZM558.252 18.0508V45.7757H508.437V55.6415H552.325V82.6729H508.437V93.9259H560.087V121.651H436.075L409.238 88.1508L402.32 95.4101V121.651H368.046V18.0508H402.32V53.4055L435.817 18.0508H558.252ZM505.129 97.1769V79.4219H549.018V58.8926H505.129V42.5247H554.945V21.3018H477.469V118.4H556.779V97.1769H505.129ZM559.664 46.3305V18.0508H654.761V46.3305H624.561V121.651H590.004V46.3305H559.664ZM593.312 43.0795V118.4H621.254V43.0795H651.454V21.3018H562.971V43.0795H593.312Z" fill="#42D4BA"/>
<path fill-rule="evenodd" clip-rule="evenodd" d="M107.206 121.651L106.97 78.6366L86.691 112.08H70.5413L50.4401 79.8489V121.651H18V18.0508H46.1687L78.9909 71.0337L111.013 18.0508H139.196L139.494 120.599L185.548 18.0508H217.374L263.583 120.612V18.0508H312.049C321.345 18.0508 329.59 19.5883 336.692 22.7758C343.799 25.8732 349.396 30.4256 353.349 36.4532C357.32 42.4151 359.246 49.3849 359.246 57.2281C359.246 64.7868 357.418 71.552 353.659 77.4049C350.637 82.1551 346.53 86.0233 341.414 89.026L364.196 121.651H326.249L308.327 95.8505H298.14V121.651H227.668L219.907 102.786H182.595L174.834 121.651H107.206ZM180.365 99.535H222.137L229.898 118.4H258.969L215.222 21.3018H187.703L144.097 118.4H172.603L180.365 99.535ZM294.833 92.5994H310.074L327.996 118.4H357.914L336.604 87.8833C337.622 87.3985 338.6 86.8841 339.538 86.3398C344.331 83.5614 348.104 80.007 350.858 75.6767C354.245 70.4056 355.938 64.2561 355.938 57.2281C355.938 49.9226 354.15 43.5881 350.575 38.2246C347 32.7686 341.92 28.6073 335.334 25.7406C328.749 22.7814 320.987 21.3018 312.049 21.3018H266.891V118.4H294.833V92.5994ZM79.0259 77.3412L44.3102 21.3018H21.3075V118.4H47.1326V68.325L72.3933 108.829H84.8119L110.214 66.9378L110.496 118.4H136.18L135.898 21.3018H112.895L79.0259 77.3412ZM201.251 48.2118L188.55 79.2832H213.952L201.251 48.2118ZM201.251 56.932L193.443 76.0321H209.058L201.251 56.932ZM324.406 57.2281C324.406 53.4389 323.223 50.8978 321.167 49.1376C319.086 47.3559 315.672 46.1918 310.356 46.1918H298.14V68.1256H310.356C315.677 68.1256 319.104 67.0053 321.19 65.2985C323.232 63.539 324.406 61.0028 324.406 57.2281ZM323.339 67.7701C320.423 70.1744 316.095 71.3766 310.356 71.3766H294.833V42.9408H310.356C316.095 42.9408 320.423 44.1892 323.339 46.686C326.256 49.1828 327.714 52.6968 327.714 57.2281C327.714 61.7593 326.256 65.2733 323.339 67.7701ZM437.68 118.4L409.456 83.1671L399.013 94.1253V118.4H371.353V21.3018H399.013V61.6668L437.257 21.3018H468.021L427.66 64.3023L470.138 118.4H437.68ZM431.985 64.4892L474.162 118.204V19.5537L431.985 64.4892ZM558.252 18.0508V45.7757H508.437V55.6415H552.325V82.6729H508.437V93.9259H560.087V121.651H436.075L409.238 88.1508L402.32 95.4101V121.651H368.046V18.0508H402.32V53.4055L435.817 18.0508H558.252ZM505.129 97.1769V79.4219H549.018V58.8926H505.129V42.5247H554.945V21.3018H477.469V118.4H556.779V97.1769H505.129ZM559.664 46.3305V18.0508H654.761V46.3305H624.561V121.651H590.004V46.3305H559.664ZM593.312 43.0795V118.4H621.254V43.0795H651.454V21.3018H562.971V43.0795H593.312Z" fill="#42D4BA"/>
</g>
<path fill-rule="evenodd" clip-rule="evenodd" d="M107.206 121.651L106.97 78.6366L86.691 112.08H70.5413L50.4401 79.8489V121.651H18V18.0508H46.1687L78.9909 71.0337L111.013 18.0508H139.196L139.494 120.599L185.548 18.0508H217.374L263.583 120.612V18.0508H312.049C321.345 18.0508 329.59 19.5883 336.692 22.7758C343.799 25.8732 349.396 30.4256 353.349 36.4532C357.32 42.4151 359.246 49.3849 359.246 57.2281C359.246 64.7868 357.418 71.552 353.659 77.4049C350.637 82.1551 346.53 86.0233 341.414 89.026L364.196 121.651H326.249L308.327 95.8505H298.14V121.651H227.668L219.907 102.786H182.595L174.834 121.651H107.206ZM180.365 99.535H222.137L229.898 118.4H258.969L215.222 21.3018H187.703L144.097 118.4H172.603L180.365 99.535ZM294.833 92.5994H310.074L327.996 118.4H357.914L336.604 87.8833C337.622 87.3985 338.6 86.8841 339.538 86.3398C344.331 83.5614 348.104 80.007 350.858 75.6767C354.245 70.4056 355.938 64.2561 355.938 57.2281C355.938 49.9226 354.15 43.5881 350.575 38.2246C347 32.7686 341.92 28.6073 335.334 25.7406C328.749 22.7814 320.987 21.3018 312.049 21.3018H266.891V118.4H294.833V92.5994ZM79.0259 77.3412L44.3102 21.3018H21.3075V118.4H47.1326V68.325L72.3933 108.829H84.8119L110.214 66.9378L110.496 118.4H136.18L135.898 21.3018H112.895L79.0259 77.3412ZM201.251 48.2118L188.55 79.2832H213.952L201.251 48.2118ZM201.251 56.932L193.443 76.0321H209.058L201.251 56.932ZM324.406 57.2281C324.406 53.4389 323.223 50.8978 321.167 49.1376C319.086 47.3559 315.672 46.1918 310.356 46.1918H298.14V68.1256H310.356C315.677 68.1256 319.104 67.0053 321.19 65.2985C323.232 63.539 324.406 61.0028 324.406 57.2281ZM323.339 67.7701C320.423 70.1744 316.095 71.3766 310.356 71.3766H294.833V42.9408H310.356C316.095 42.9408 320.423 44.1892 323.339 46.686C326.256 49.1828 327.714 52.6968 327.714 57.2281C327.714 61.7593 326.256 65.2733 323.339 67.7701ZM437.68 118.4L409.456 83.1671L399.013 94.1253V118.4H371.353V21.3018H399.013V61.6668L437.257 21.3018H468.021L427.66 64.3023L470.138 118.4H437.68ZM431.985 64.4892L474.162 118.204V19.5537L431.985 64.4892ZM558.252 18.0508V45.7757H508.437V55.6415H552.325V82.6729H508.437V93.9259H560.087V121.651H436.075L409.238 88.1508L402.32 95.4101V121.651H368.046V18.0508H402.32V53.4055L435.817 18.0508H558.252ZM505.129 97.1769V79.4219H549.018V58.8926H505.129V42.5247H554.945V21.3018H477.469V118.4H556.779V97.1769H505.129ZM559.664 46.3305V18.0508H654.761V46.3305H624.561V121.651H590.004V46.3305H559.664ZM593.312 43.0795V118.4H621.254V43.0795H651.454V21.3018H562.971V43.0795H593.312Z" fill="#42D4BA"/>
<path fill-rule="evenodd" clip-rule="evenodd" d="M107.206 121.651L106.97 78.6366L86.691 112.08H70.5413L50.4401 79.8489V121.651H18V18.0508H46.1687L78.9909 71.0337L111.013 18.0508H139.196L139.494 120.599L185.548 18.0508H217.374L263.583 120.612V18.0508H312.049C321.345 18.0508 329.59 19.5883 336.692 22.7758C343.799 25.8732 349.396 30.4256 353.349 36.4532C357.32 42.4151 359.246 49.3849 359.246 57.2281C359.246 64.7868 357.418 71.552 353.659 77.4049C350.637 82.1551 346.53 86.0233 341.414 89.026L364.196 121.651H326.249L308.327 95.8505H298.14V121.651H227.668L219.907 102.786H182.595L174.834 121.651H107.206ZM180.365 99.535H222.137L229.898 118.4H258.969L215.222 21.3018H187.703L144.097 118.4H172.603L180.365 99.535ZM294.833 92.5994H310.074L327.996 118.4H357.914L336.604 87.8833C337.622 87.3985 338.6 86.8841 339.538 86.3398C344.331 83.5614 348.104 80.007 350.858 75.6767C354.245 70.4056 355.938 64.2561 355.938 57.2281C355.938 49.9226 354.15 43.5881 350.575 38.2246C347 32.7686 341.92 28.6073 335.334 25.7406C328.749 22.7814 320.987 21.3018 312.049 21.3018H266.891V118.4H294.833V92.5994ZM79.0259 77.3412L44.3102 21.3018H21.3075V118.4H47.1326V68.325L72.3933 108.829H84.8119L110.214 66.9378L110.496 118.4H136.18L135.898 21.3018H112.895L79.0259 77.3412ZM201.251 48.2118L188.55 79.2832H213.952L201.251 48.2118ZM201.251 56.932L193.443 76.0321H209.058L201.251 56.932ZM324.406 57.2281C324.406 53.4389 323.223 50.8978 321.167 49.1376C319.086 47.3559 315.672 46.1918 310.356 46.1918H298.14V68.1256H310.356C315.677 68.1256 319.104 67.0053 321.19 65.2985C323.232 63.539 324.406 61.0028 324.406 57.2281ZM323.339 67.7701C320.423 70.1744 316.095 71.3766 310.356 71.3766H294.833V42.9408H310.356C316.095 42.9408 320.423 44.1892 323.339 46.686C326.256 49.1828 327.714 52.6968 327.714 57.2281C327.714 61.7593 326.256 65.2733 323.339 67.7701ZM437.68 118.4L409.456 83.1671L399.013 94.1253V118.4H371.353V21.3018H399.013V61.6668L437.257 21.3018H468.021L427.66 64.3023L470.138 118.4H437.68ZM431.985 64.4892L474.162 118.204V19.5537L431.985 64.4892ZM558.252 18.0508V45.7757H508.437V55.6415H552.325V82.6729H508.437V93.9259H560.087V121.651H436.075L409.238 88.1508L402.32 95.4101V121.651H368.046V18.0508H402.32V53.4055L435.817 18.0508H558.252ZM505.129 97.1769V79.4219H549.018V58.8926H505.129V42.5247H554.945V21.3018H477.469V118.4H556.779V97.1769H505.129ZM559.664 46.3305V18.0508H654.761V46.3305H624.561V121.651H590.004V46.3305H559.664ZM593.312 43.0795V118.4H621.254V43.0795H651.454V21.3018H562.971V43.0795H593.312Z" fill="#42D4BA"/>
<path fill-rule="evenodd" clip-rule="evenodd" d="M107.206 121.651L106.97 78.6366L86.691 112.08H70.5413L50.4401 79.8489V121.651H18V18.0508H46.1687L78.9909 71.0337L111.013 18.0508H139.196L139.494 120.599L185.548 18.0508H217.374L263.583 120.612V18.0508H312.049C321.345 18.0508 329.59 19.5883 336.692 22.7758C343.799 25.8732 349.396 30.4256 353.349 36.4532C357.32 42.4151 359.246 49.3849 359.246 57.2281C359.246 64.7868 357.418 71.552 353.659 77.4049C350.637 82.1551 346.53 86.0233 341.414 89.026L364.196 121.651H326.249L308.327 95.8505H298.14V121.651H227.668L219.907 102.786H182.595L174.834 121.651H107.206ZM180.365 99.535H222.137L229.898 118.4H258.969L215.222 21.3018H187.703L144.097 118.4H172.603L180.365 99.535ZM294.833 92.5994H310.074L327.996 118.4H357.914L336.604 87.8833C337.622 87.3985 338.6 86.8841 339.538 86.3398C344.331 83.5614 348.104 80.007 350.858 75.6767C354.245 70.4056 355.938 64.2561 355.938 57.2281C355.938 49.9226 354.15 43.5881 350.575 38.2246C347 32.7686 341.92 28.6073 335.334 25.7406C328.749 22.7814 320.987 21.3018 312.049 21.3018H266.891V118.4H294.833V92.5994ZM79.0259 77.3412L44.3102 21.3018H21.3075V118.4H47.1326V68.325L72.3933 108.829H84.8119L110.214 66.9378L110.496 118.4H136.18L135.898 21.3018H112.895L79.0259 77.3412ZM201.251 48.2118L188.55 79.2832H213.952L201.251 48.2118ZM201.251 56.932L193.443 76.0321H209.058L201.251 56.932ZM324.406 57.2281C324.406 53.4389 323.223 50.8978 321.167 49.1376C319.086 47.3559 315.672 46.1918 310.356 46.1918H298.14V68.1256H310.356C315.677 68.1256 319.104 67.0053 321.19 65.2985C323.232 63.539 324.406 61.0028 324.406 57.2281ZM323.339 67.7701C320.423 70.1744 316.095 71.3766 310.356 71.3766H294.833V42.9408H310.356C316.095 42.9408 320.423 44.1892 323.339 46.686C326.256 49.1828 327.714 52.6968 327.714 57.2281C327.714 61.7593 326.256 65.2733 323.339 67.7701ZM437.68 118.4L409.456 83.1671L399.013 94.1253V118.4H371.353V21.3018H399.013V61.6668L437.257 21.3018H468.021L427.66 64.3023L470.138 118.4H437.68ZM431.985 64.4892L474.162 118.204V19.5537L431.985 64.4892ZM558.252 18.0508V45.7757H508.437V55.6415H552.325V82.6729H508.437V93.9259H560.087V121.651H436.075L409.238 88.1508L402.32 95.4101V121.651H368.046V18.0508H402.32V53.4055L435.817 18.0508H558.252ZM505.129 97.1769V79.4219H549.018V58.8926H505.129V42.5247H554.945V21.3018H477.469V118.4H556.779V97.1769H505.129ZM559.664 46.3305V18.0508H654.761V46.3305H624.561V121.651H590.004V46.3305H559.664ZM593.312 43.0795V118.4H621.254V43.0795H651.454V21.3018H562.971V43.0795H593.312Z" fill="#42D4BA"/>
<g filter="url(#filter2_f_523_2100)">
<path fill-rule="evenodd" clip-rule="evenodd" d="M1978.15 123.655L1977.92 80.6405L1957.64 114.084H1941.49L1921.39 81.8528V123.655H1888.95V20.0547H1917.11L1949.94 73.0376L1981.96 20.0547H2010.14L2010.44 122.603L2056.49 20.0547H2088.32L2134.53 122.616V20.0547H2182.99C2192.29 20.0547 2200.53 21.5922 2207.64 24.7797C2214.74 27.8771 2220.34 32.4295 2224.29 38.4572C2228.26 44.419 2230.19 51.3888 2230.19 59.232C2230.19 66.7907 2228.36 73.5559 2224.6 79.4088C2221.58 84.1591 2217.48 88.0272 2212.36 91.0299L2235.14 123.655H2197.19L2179.27 97.8544H2169.09V123.655H2098.61L2090.85 104.79H2053.54L2045.78 123.655H1978.15ZM2051.31 101.539H2093.08L2100.84 120.404H2129.91L2086.17 23.3057H2058.65L2015.04 120.404H2043.55L2051.31 101.539ZM2165.78 94.6034H2181.02L2198.94 120.404H2228.86L2207.55 89.8872C2208.57 89.4025 2209.54 88.888 2210.48 88.3437C2215.28 85.5653 2219.05 82.0109 2221.8 77.6806C2225.19 72.4095 2226.88 66.26 2226.88 59.232C2226.88 51.9265 2225.1 45.592 2221.52 40.2285C2217.95 34.7725 2212.87 30.6112 2206.28 27.7445C2199.69 24.7853 2191.93 23.3057 2182.99 23.3057H2137.84V120.404H2165.78V94.6034ZM1949.97 79.3451L1915.26 23.3057H1892.25V120.404H1918.08V70.3289L1943.34 110.833H1955.76L1981.16 68.9418L1981.44 120.404H2007.13L2006.84 23.3057H1983.84L1949.97 79.3451ZM2072.2 50.2157L2059.5 81.2871H2084.9L2072.2 50.2157ZM2072.2 58.9359L2064.39 78.036H2080L2072.2 58.9359ZM2195.35 59.232C2195.35 55.4428 2194.17 52.9017 2192.11 51.1415C2190.03 49.3598 2186.62 48.1957 2181.3 48.1957H2169.09V70.1295H2181.3C2186.62 70.1295 2190.05 69.0092 2192.14 67.3024C2194.18 65.543 2195.35 63.0067 2195.35 59.232ZM2194.28 69.774C2191.37 72.1784 2187.04 73.3805 2181.3 73.3805H2165.78V44.9447H2181.3C2187.04 44.9447 2191.37 46.1931 2194.28 48.6899C2197.2 51.1867 2198.66 54.7007 2198.66 59.232C2198.66 63.7632 2197.2 67.2772 2194.28 69.774ZM2308.63 120.404L2280.4 85.171L2269.96 96.1292V120.404H2242.3V23.3057H2269.96V63.6707L2308.2 23.3057H2338.97L2298.61 66.3062L2341.08 120.404H2308.63ZM2302.93 66.4931L2345.11 120.208V21.5576L2302.93 66.4931ZM2429.2 20.0547V47.7796H2379.38V57.6455H2423.27V84.6768H2379.38V95.9298H2431.03V123.655H2307.02L2280.18 90.1547L2273.27 97.414V123.655H2238.99V20.0547H2273.27V55.4094L2306.76 20.0547H2429.2ZM2376.07 99.1808V81.4258H2419.96V60.8965H2376.07V44.5286H2425.89V23.3057H2348.41V120.404H2427.72V99.1808H2376.07ZM2430.61 48.3345V20.0547H2525.71V48.3345H2495.51V123.655H2460.95V48.3345H2430.61ZM2464.26 45.0834V120.404H2492.2V45.0834H2522.4V23.3057H2433.92V45.0834H2464.26Z" fill="#42D4BA"/>
<path fill-rule="evenodd" clip-rule="evenodd" d="M1978.15 123.655L1977.92 80.6405L1957.64 114.084H1941.49L1921.39 81.8528V123.655H1888.95V20.0547H1917.11L1949.94 73.0376L1981.96 20.0547H2010.14L2010.44 122.603L2056.49 20.0547H2088.32L2134.53 122.616V20.0547H2182.99C2192.29 20.0547 2200.53 21.5922 2207.64 24.7797C2214.74 27.8771 2220.34 32.4295 2224.29 38.4572C2228.26 44.419 2230.19 51.3888 2230.19 59.232C2230.19 66.7907 2228.36 73.5559 2224.6 79.4088C2221.58 84.1591 2217.48 88.0272 2212.36 91.0299L2235.14 123.655H2197.19L2179.27 97.8544H2169.09V123.655H2098.61L2090.85 104.79H2053.54L2045.78 123.655H1978.15ZM2051.31 101.539H2093.08L2100.84 120.404H2129.91L2086.17 23.3057H2058.65L2015.04 120.404H2043.55L2051.31 101.539ZM2165.78 94.6034H2181.02L2198.94 120.404H2228.86L2207.55 89.8872C2208.57 89.4025 2209.54 88.888 2210.48 88.3437C2215.28 85.5653 2219.05 82.0109 2221.8 77.6806C2225.19 72.4095 2226.88 66.26 2226.88 59.232C2226.88 51.9265 2225.1 45.592 2221.52 40.2285C2217.95 34.7725 2212.87 30.6112 2206.28 27.7445C2199.69 24.7853 2191.93 23.3057 2182.99 23.3057H2137.84V120.404H2165.78V94.6034ZM1949.97 79.3451L1915.26 23.3057H1892.25V120.404H1918.08V70.3289L1943.34 110.833H1955.76L1981.16 68.9418L1981.44 120.404H2007.13L2006.84 23.3057H1983.84L1949.97 79.3451ZM2072.2 50.2157L2059.5 81.2871H2084.9L2072.2 50.2157ZM2072.2 58.9359L2064.39 78.036H2080L2072.2 58.9359ZM2195.35 59.232C2195.35 55.4428 2194.17 52.9017 2192.11 51.1415C2190.03 49.3598 2186.62 48.1957 2181.3 48.1957H2169.09V70.1295H2181.3C2186.62 70.1295 2190.05 69.0092 2192.14 67.3024C2194.18 65.543 2195.35 63.0067 2195.35 59.232ZM2194.28 69.774C2191.37 72.1784 2187.04 73.3805 2181.3 73.3805H2165.78V44.9447H2181.3C2187.04 44.9447 2191.37 46.1931 2194.28 48.6899C2197.2 51.1867 2198.66 54.7007 2198.66 59.232C2198.66 63.7632 2197.2 67.2772 2194.28 69.774ZM2308.63 120.404L2280.4 85.171L2269.96 96.1292V120.404H2242.3V23.3057H2269.96V63.6707L2308.2 23.3057H2338.97L2298.61 66.3062L2341.08 120.404H2308.63ZM2302.93 66.4931L2345.11 120.208V21.5576L2302.93 66.4931ZM2429.2 20.0547V47.7796H2379.38V57.6455H2423.27V84.6768H2379.38V95.9298H2431.03V123.655H2307.02L2280.18 90.1547L2273.27 97.414V123.655H2238.99V20.0547H2273.27V55.4094L2306.76 20.0547H2429.2ZM2376.07 99.1808V81.4258H2419.96V60.8965H2376.07V44.5286H2425.89V23.3057H2348.41V120.404H2427.72V99.1808H2376.07ZM2430.61 48.3345V20.0547H2525.71V48.3345H2495.51V123.655H2460.95V48.3345H2430.61ZM2464.26 45.0834V120.404H2492.2V45.0834H2522.4V23.3057H2433.92V45.0834H2464.26Z" fill="#42D4BA"/>
<path fill-rule="evenodd" clip-rule="evenodd" d="M1978.15 123.655L1977.92 80.6405L1957.64 114.084H1941.49L1921.39 81.8528V123.655H1888.95V20.0547H1917.11L1949.94 73.0376L1981.96 20.0547H2010.14L2010.44 122.603L2056.49 20.0547H2088.32L2134.53 122.616V20.0547H2182.99C2192.29 20.0547 2200.53 21.5922 2207.64 24.7797C2214.74 27.8771 2220.34 32.4295 2224.29 38.4572C2228.26 44.419 2230.19 51.3888 2230.19 59.232C2230.19 66.7907 2228.36 73.5559 2224.6 79.4088C2221.58 84.1591 2217.48 88.0272 2212.36 91.0299L2235.14 123.655H2197.19L2179.27 97.8544H2169.09V123.655H2098.61L2090.85 104.79H2053.54L2045.78 123.655H1978.15ZM2051.31 101.539H2093.08L2100.84 120.404H2129.91L2086.17 23.3057H2058.65L2015.04 120.404H2043.55L2051.31 101.539ZM2165.78 94.6034H2181.02L2198.94 120.404H2228.86L2207.55 89.8872C2208.57 89.4025 2209.54 88.888 2210.48 88.3437C2215.28 85.5653 2219.05 82.0109 2221.8 77.6806C2225.19 72.4095 2226.88 66.26 2226.88 59.232C2226.88 51.9265 2225.1 45.592 2221.52 40.2285C2217.95 34.7725 2212.87 30.6112 2206.28 27.7445C2199.69 24.7853 2191.93 23.3057 2182.99 23.3057H2137.84V120.404H2165.78V94.6034ZM1949.97 79.3451L1915.26 23.3057H1892.25V120.404H1918.08V70.3289L1943.34 110.833H1955.76L1981.16 68.9418L1981.44 120.404H2007.13L2006.84 23.3057H1983.84L1949.97 79.3451ZM2072.2 50.2157L2059.5 81.2871H2084.9L2072.2 50.2157ZM2072.2 58.9359L2064.39 78.036H2080L2072.2 58.9359ZM2195.35 59.232C2195.35 55.4428 2194.17 52.9017 2192.11 51.1415C2190.03 49.3598 2186.62 48.1957 2181.3 48.1957H2169.09V70.1295H2181.3C2186.62 70.1295 2190.05 69.0092 2192.14 67.3024C2194.18 65.543 2195.35 63.0067 2195.35 59.232ZM2194.28 69.774C2191.37 72.1784 2187.04 73.3805 2181.3 73.3805H2165.78V44.9447H2181.3C2187.04 44.9447 2191.37 46.1931 2194.28 48.6899C2197.2 51.1867 2198.66 54.7007 2198.66 59.232C2198.66 63.7632 2197.2 67.2772 2194.28 69.774ZM2308.63 120.404L2280.4 85.171L2269.96 96.1292V120.404H2242.3V23.3057H2269.96V63.6707L2308.2 23.3057H2338.97L2298.61 66.3062L2341.08 120.404H2308.63ZM2302.93 66.4931L2345.11 120.208V21.5576L2302.93 66.4931ZM2429.2 20.0547V47.7796H2379.38V57.6455H2423.27V84.6768H2379.38V95.9298H2431.03V123.655H2307.02L2280.18 90.1547L2273.27 97.414V123.655H2238.99V20.0547H2273.27V55.4094L2306.76 20.0547H2429.2ZM2376.07 99.1808V81.4258H2419.96V60.8965H2376.07V44.5286H2425.89V23.3057H2348.41V120.404H2427.72V99.1808H2376.07ZM2430.61 48.3345V20.0547H2525.71V48.3345H2495.51V123.655H2460.95V48.3345H2430.61ZM2464.26 45.0834V120.404H2492.2V45.0834H2522.4V23.3057H2433.92V45.0834H2464.26Z" fill="#42D4BA"/>
</g>
<path fill-rule="evenodd" clip-rule="evenodd" d="M1978.15 123.655L1977.92 80.6405L1957.64 114.084H1941.49L1921.39 81.8528V123.655H1888.95V20.0547H1917.11L1949.94 73.0376L1981.96 20.0547H2010.14L2010.44 122.603L2056.49 20.0547H2088.32L2134.53 122.616V20.0547H2182.99C2192.29 20.0547 2200.53 21.5922 2207.64 24.7797C2214.74 27.8771 2220.34 32.4295 2224.29 38.4572C2228.26 44.419 2230.19 51.3888 2230.19 59.232C2230.19 66.7907 2228.36 73.5559 2224.6 79.4088C2221.58 84.1591 2217.48 88.0272 2212.36 91.0299L2235.14 123.655H2197.19L2179.27 97.8544H2169.09V123.655H2098.61L2090.85 104.79H2053.54L2045.78 123.655H1978.15ZM2051.31 101.539H2093.08L2100.84 120.404H2129.91L2086.17 23.3057H2058.65L2015.04 120.404H2043.55L2051.31 101.539ZM2165.78 94.6034H2181.02L2198.94 120.404H2228.86L2207.55 89.8872C2208.57 89.4025 2209.54 88.888 2210.48 88.3437C2215.28 85.5653 2219.05 82.0109 2221.8 77.6806C2225.19 72.4095 2226.88 66.26 2226.88 59.232C2226.88 51.9265 2225.1 45.592 2221.52 40.2285C2217.95 34.7725 2212.87 30.6112 2206.28 27.7445C2199.69 24.7853 2191.93 23.3057 2182.99 23.3057H2137.84V120.404H2165.78V94.6034ZM1949.97 79.3451L1915.26 23.3057H1892.25V120.404H1918.08V70.3289L1943.34 110.833H1955.76L1981.16 68.9418L1981.44 120.404H2007.13L2006.84 23.3057H1983.84L1949.97 79.3451ZM2072.2 50.2157L2059.5 81.2871H2084.9L2072.2 50.2157ZM2072.2 58.9359L2064.39 78.036H2080L2072.2 58.9359ZM2195.35 59.232C2195.35 55.4428 2194.17 52.9017 2192.11 51.1415C2190.03 49.3598 2186.62 48.1957 2181.3 48.1957H2169.09V70.1295H2181.3C2186.62 70.1295 2190.05 69.0092 2192.14 67.3024C2194.18 65.543 2195.35 63.0067 2195.35 59.232ZM2194.28 69.774C2191.37 72.1784 2187.04 73.3805 2181.3 73.3805H2165.78V44.9447H2181.3C2187.04 44.9447 2191.37 46.1931 2194.28 48.6899C2197.2 51.1867 2198.66 54.7007 2198.66 59.232C2198.66 63.7632 2197.2 67.2772 2194.28 69.774ZM2308.63 120.404L2280.4 85.171L2269.96 96.1292V120.404H2242.3V23.3057H2269.96V63.6707L2308.2 23.3057H2338.97L2298.61 66.3062L2341.08 120.404H2308.63ZM2302.93 66.4931L2345.11 120.208V21.5576L2302.93 66.4931ZM2429.2 20.0547V47.7796H2379.38V57.6455H2423.27V84.6768H2379.38V95.9298H2431.03V123.655H2307.02L2280.18 90.1547L2273.27 97.414V123.655H2238.99V20.0547H2273.27V55.4094L2306.76 20.0547H2429.2ZM2376.07 99.1808V81.4258H2419.96V60.8965H2376.07V44.5286H2425.89V23.3057H2348.41V120.404H2427.72V99.1808H2376.07ZM2430.61 48.3345V20.0547H2525.71V48.3345H2495.51V123.655H2460.95V48.3345H2430.61ZM2464.26 45.0834V120.404H2492.2V45.0834H2522.4V23.3057H2433.92V45.0834H2464.26Z" fill="#42D4BA"/>
<path fill-rule="evenodd" clip-rule="evenodd" d="M1978.15 123.655L1977.92 80.6405L1957.64 114.084H1941.49L1921.39 81.8528V123.655H1888.95V20.0547H1917.11L1949.94 73.0376L1981.96 20.0547H2010.14L2010.44 122.603L2056.49 20.0547H2088.32L2134.53 122.616V20.0547H2182.99C2192.29 20.0547 2200.53 21.5922 2207.64 24.7797C2214.74 27.8771 2220.34 32.4295 2224.29 38.4572C2228.26 44.419 2230.19 51.3888 2230.19 59.232C2230.19 66.7907 2228.36 73.5559 2224.6 79.4088C2221.58 84.1591 2217.48 88.0272 2212.36 91.0299L2235.14 123.655H2197.19L2179.27 97.8544H2169.09V123.655H2098.61L2090.85 104.79H2053.54L2045.78 123.655H1978.15ZM2051.31 101.539H2093.08L2100.84 120.404H2129.91L2086.17 23.3057H2058.65L2015.04 120.404H2043.55L2051.31 101.539ZM2165.78 94.6034H2181.02L2198.94 120.404H2228.86L2207.55 89.8872C2208.57 89.4025 2209.54 88.888 2210.48 88.3437C2215.28 85.5653 2219.05 82.0109 2221.8 77.6806C2225.19 72.4095 2226.88 66.26 2226.88 59.232C2226.88 51.9265 2225.1 45.592 2221.52 40.2285C2217.95 34.7725 2212.87 30.6112 2206.28 27.7445C2199.69 24.7853 2191.93 23.3057 2182.99 23.3057H2137.84V120.404H2165.78V94.6034ZM1949.97 79.3451L1915.26 23.3057H1892.25V120.404H1918.08V70.3289L1943.34 110.833H1955.76L1981.16 68.9418L1981.44 120.404H2007.13L2006.84 23.3057H1983.84L1949.97 79.3451ZM2072.2 50.2157L2059.5 81.2871H2084.9L2072.2 50.2157ZM2072.2 58.9359L2064.39 78.036H2080L2072.2 58.9359ZM2195.35 59.232C2195.35 55.4428 2194.17 52.9017 2192.11 51.1415C2190.03 49.3598 2186.62 48.1957 2181.3 48.1957H2169.09V70.1295H2181.3C2186.62 70.1295 2190.05 69.0092 2192.14 67.3024C2194.18 65.543 2195.35 63.0067 2195.35 59.232ZM2194.28 69.774C2191.37 72.1784 2187.04 73.3805 2181.3 73.3805H2165.78V44.9447H2181.3C2187.04 44.9447 2191.37 46.1931 2194.28 48.6899C2197.2 51.1867 2198.66 54.7007 2198.66 59.232C2198.66 63.7632 2197.2 67.2772 2194.28 69.774ZM2308.63 120.404L2280.4 85.171L2269.96 96.1292V120.404H2242.3V23.3057H2269.96V63.6707L2308.2 23.3057H2338.97L2298.61 66.3062L2341.08 120.404H2308.63ZM2302.93 66.4931L2345.11 120.208V21.5576L2302.93 66.4931ZM2429.2 20.0547V47.7796H2379.38V57.6455H2423.27V84.6768H2379.38V95.9298H2431.03V123.655H2307.02L2280.18 90.1547L2273.27 97.414V123.655H2238.99V20.0547H2273.27V55.4094L2306.76 20.0547H2429.2ZM2376.07 99.1808V81.4258H2419.96V60.8965H2376.07V44.5286H2425.89V23.3057H2348.41V120.404H2427.72V99.1808H2376.07ZM2430.61 48.3345V20.0547H2525.71V48.3345H2495.51V123.655H2460.95V48.3345H2430.61ZM2464.26 45.0834V120.404H2492.2V45.0834H2522.4V23.3057H2433.92V45.0834H2464.26Z" fill="#42D4BA"/>
<path fill-rule="evenodd" clip-rule="evenodd" d="M1978.15 123.655L1977.92 80.6405L1957.64 114.084H1941.49L1921.39 81.8528V123.655H1888.95V20.0547H1917.11L1949.94 73.0376L1981.96 20.0547H2010.14L2010.44 122.603L2056.49 20.0547H2088.32L2134.53 122.616V20.0547H2182.99C2192.29 20.0547 2200.53 21.5922 2207.64 24.7797C2214.74 27.8771 2220.34 32.4295 2224.29 38.4572C2228.26 44.419 2230.19 51.3888 2230.19 59.232C2230.19 66.7907 2228.36 73.5559 2224.6 79.4088C2221.58 84.1591 2217.48 88.0272 2212.36 91.0299L2235.14 123.655H2197.19L2179.27 97.8544H2169.09V123.655H2098.61L2090.85 104.79H2053.54L2045.78 123.655H1978.15ZM2051.31 101.539H2093.08L2100.84 120.404H2129.91L2086.17 23.3057H2058.65L2015.04 120.404H2043.55L2051.31 101.539ZM2165.78 94.6034H2181.02L2198.94 120.404H2228.86L2207.55 89.8872C2208.57 89.4025 2209.54 88.888 2210.48 88.3437C2215.28 85.5653 2219.05 82.0109 2221.8 77.6806C2225.19 72.4095 2226.88 66.26 2226.88 59.232C2226.88 51.9265 2225.1 45.592 2221.52 40.2285C2217.95 34.7725 2212.87 30.6112 2206.28 27.7445C2199.69 24.7853 2191.93 23.3057 2182.99 23.3057H2137.84V120.404H2165.78V94.6034ZM1949.97 79.3451L1915.26 23.3057H1892.25V120.404H1918.08V70.3289L1943.34 110.833H1955.76L1981.16 68.9418L1981.44 120.404H2007.13L2006.84 23.3057H1983.84L1949.97 79.3451ZM2072.2 50.2157L2059.5 81.2871H2084.9L2072.2 50.2157ZM2072.2 58.9359L2064.39 78.036H2080L2072.2 58.9359ZM2195.35 59.232C2195.35 55.4428 2194.17 52.9017 2192.11 51.1415C2190.03 49.3598 2186.62 48.1957 2181.3 48.1957H2169.09V70.1295H2181.3C2186.62 70.1295 2190.05 69.0092 2192.14 67.3024C2194.18 65.543 2195.35 63.0067 2195.35 59.232ZM2194.28 69.774C2191.37 72.1784 2187.04 73.3805 2181.3 73.3805H2165.78V44.9447H2181.3C2187.04 44.9447 2191.37 46.1931 2194.28 48.6899C2197.2 51.1867 2198.66 54.7007 2198.66 59.232C2198.66 63.7632 2197.2 67.2772 2194.28 69.774ZM2308.63 120.404L2280.4 85.171L2269.96 96.1292V120.404H2242.3V23.3057H2269.96V63.6707L2308.2 23.3057H2338.97L2298.61 66.3062L2341.08 120.404H2308.63ZM2302.93 66.4931L2345.11 120.208V21.5576L2302.93 66.4931ZM2429.2 20.0547V47.7796H2379.38V57.6455H2423.27V84.6768H2379.38V95.9298H2431.03V123.655H2307.02L2280.18 90.1547L2273.27 97.414V123.655H2238.99V20.0547H2273.27V55.4094L2306.76 20.0547H2429.2ZM2376.07 99.1808V81.4258H2419.96V60.8965H2376.07V44.5286H2425.89V23.3057H2348.41V120.404H2427.72V99.1808H2376.07ZM2430.61 48.3345V20.0547H2525.71V48.3345H2495.51V123.655H2460.95V48.3345H2430.61ZM2464.26 45.0834V120.404H2492.2V45.0834H2522.4V23.3057H2433.92V45.0834H2464.26Z" fill="#42D4BA"/>
<path d="M4181.75 125.365C4171.16 125.365 4161.63 123.188 4153.15 118.834C4144.77 114.385 4138.18 108.233 4133.36 100.376C4128.55 92.5194 4126.14 83.6217 4126.14 73.6827C4126.14 63.7437 4128.55 54.846 4133.36 46.9894C4138.18 39.1329 4144.77 33.0275 4153.15 28.6733C4161.63 24.2244 4171.16 22 4181.75 22C4191 22 4199.33 23.6092 4206.74 26.8275C4214.16 30.0458 4220.32 34.684 4225.23 40.7421L4207.03 56.9284C4200.49 49.1666 4192.54 45.2856 4183.2 45.2856C4177.71 45.2856 4172.8 46.4688 4168.47 48.8352C4164.23 51.2017 4160.91 54.562 4158.5 58.9162C4156.19 63.1758 4155.03 68.0979 4155.03 73.6827C4155.03 79.2675 4156.19 84.237 4158.5 88.5912C4160.91 92.8507 4164.23 96.1637 4168.47 98.5302C4172.8 100.897 4177.71 102.08 4183.2 102.08C4192.54 102.08 4200.49 98.1989 4207.03 90.437L4225.23 106.623C4220.32 112.681 4214.16 117.32 4206.74 120.538C4199.33 123.756 4191 125.365 4181.75 125.365Z" fill="white"/>
<path d="M4258.66 46.2795H4227.61V23.9878H4318.18V46.2795H4287.27V123.378H4258.66V46.2795Z" fill="white"/>
<path d="M4357.44 45.7116V67.5773H4402.07V89.3011H4357.44V123.378H4328.83V23.9878H4408.14V45.7116H4357.44Z" fill="white"/>
<path d="M3245.49 123.365C3234.9 123.365 3225.36 121.188 3216.89 116.834C3208.51 112.385 3201.91 106.233 3197.1 98.376C3192.28 90.5194 3189.88 81.6217 3189.88 71.6827C3189.88 61.7437 3192.28 52.846 3197.1 44.9894C3201.91 37.1329 3208.51 31.0275 3216.89 26.6733C3225.36 22.2244 3234.9 20 3245.49 20C3254.73 20 3263.06 21.6092 3270.48 24.8275C3277.89 28.0458 3284.06 32.684 3288.97 38.7421L3270.77 54.9284C3264.22 47.1666 3256.27 43.2856 3246.93 43.2856C3241.44 43.2856 3236.53 44.4688 3232.2 46.8352C3227.96 49.2017 3224.64 52.562 3222.23 56.9162C3219.92 61.1758 3218.77 66.0979 3218.77 71.6827C3218.77 77.2675 3219.92 82.237 3222.23 86.5912C3224.64 90.8507 3227.96 94.1637 3232.2 96.5302C3236.53 98.8966 3241.44 100.08 3246.93 100.08C3256.27 100.08 3264.22 96.1989 3270.77 88.437L3288.97 104.623C3284.06 110.681 3277.89 115.32 3270.48 118.538C3263.06 121.756 3254.73 123.365 3245.49 123.365Z" fill="white"/>
<path d="M3322.4 44.2795H3291.34V21.9878H3381.91V44.2795H3351V121.378H3322.4V44.2795Z" fill="white"/>
<path d="M3421.17 43.7116V65.5773H3465.81V87.3011H3421.17V121.378H3392.57V21.9878H3471.87V43.7116H3421.17Z" fill="white"/>
<g filter="url(#filter3_f_523_2100)">
<path fill-rule="evenodd" clip-rule="evenodd" d="M3570.33 123.655L3570.1 80.6405L3549.82 114.084H3533.67L3513.57 81.8528V123.655H3481.12V20.0547H3509.29L3542.12 73.0376L3574.14 20.0547H3602.32L3602.62 122.603L3648.67 20.0547H3680.5L3726.71 122.616V20.0547H3775.17C3784.47 20.0547 3792.71 21.5922 3799.82 24.7797C3806.92 27.8771 3812.52 32.4295 3816.47 38.4572C3820.44 44.419 3822.37 51.3888 3822.37 59.232C3822.37 66.7907 3820.54 73.5559 3816.78 79.4088C3813.76 84.1591 3809.65 88.0272 3804.54 91.0299L3827.32 123.655H3789.37L3771.45 97.8544H3761.27V123.655H3690.79L3683.03 104.79H3645.72L3637.96 123.655H3570.33ZM3643.49 101.539H3685.26L3693.02 120.404H3722.09L3678.35 23.3057H3650.83L3607.22 120.404H3635.73L3643.49 101.539ZM3757.96 94.6034H3773.2L3791.12 120.404H3821.04L3799.73 89.8872C3800.75 89.4025 3801.72 88.888 3802.66 88.3437C3807.46 85.5653 3811.23 82.0109 3813.98 77.6806C3817.37 72.4095 3819.06 66.26 3819.06 59.232C3819.06 51.9265 3817.28 45.592 3813.7 40.2285C3810.13 34.7725 3805.05 30.6112 3798.46 27.7445C3791.87 24.7853 3784.11 23.3057 3775.17 23.3057H3730.02V120.404H3757.96V94.6034ZM3542.15 79.3451L3507.44 23.3057H3484.43V120.404H3510.26V70.3289L3535.52 110.833H3547.94L3573.34 68.9418L3573.62 120.404H3599.3L3599.02 23.3057H3576.02L3542.15 79.3451ZM3664.38 50.2157L3651.67 81.2871H3677.08L3664.38 50.2157ZM3664.38 58.9359L3656.57 78.036H3672.18L3664.38 58.9359ZM3787.53 59.232C3787.53 55.4428 3786.35 52.9017 3784.29 51.1415C3782.21 49.3598 3778.8 48.1957 3773.48 48.1957H3761.27V70.1295H3773.48C3778.8 70.1295 3782.23 69.0092 3784.32 67.3024C3786.36 65.543 3787.53 63.0067 3787.53 59.232ZM3786.46 69.774C3783.55 72.1784 3779.22 73.3805 3773.48 73.3805H3757.96V44.9447H3773.48C3779.22 44.9447 3783.55 46.1931 3786.46 48.6899C3789.38 51.1867 3790.84 54.7007 3790.84 59.232C3790.84 63.7632 3789.38 67.2772 3786.46 69.774ZM3900.81 120.404L3872.58 85.171L3862.14 96.1292V120.404H3834.48V23.3057H3862.14V63.6707L3900.38 23.3057H3931.15L3890.79 66.3062L3933.26 120.404H3900.81ZM3895.11 66.4931L3937.29 120.208V21.5576L3895.11 66.4931ZM4021.38 20.0547V47.7796H3971.56V57.6455H4015.45V84.6768H3971.56V95.9298H4023.21V123.655H3899.2L3872.36 90.1547L3865.45 97.414V123.655H3831.17V20.0547H3865.45V55.4094L3898.94 20.0547H4021.38ZM3968.25 99.1808V81.4258H4012.14V60.8965H3968.25V44.5286H4018.07V23.3057H3940.59V120.404H4019.9V99.1808H3968.25ZM4022.79 48.3345V20.0547H4117.89V48.3345H4087.69V123.655H4053.13V48.3345H4022.79ZM4056.44 45.0834V120.404H4084.38V45.0834H4114.58V23.3057H4026.1V45.0834H4056.44Z" fill="#42D4BA"/>
<path fill-rule="evenodd" clip-rule="evenodd" d="M3570.33 123.655L3570.1 80.6405L3549.82 114.084H3533.67L3513.57 81.8528V123.655H3481.12V20.0547H3509.29L3542.12 73.0376L3574.14 20.0547H3602.32L3602.62 122.603L3648.67 20.0547H3680.5L3726.71 122.616V20.0547H3775.17C3784.47 20.0547 3792.71 21.5922 3799.82 24.7797C3806.92 27.8771 3812.52 32.4295 3816.47 38.4572C3820.44 44.419 3822.37 51.3888 3822.37 59.232C3822.37 66.7907 3820.54 73.5559 3816.78 79.4088C3813.76 84.1591 3809.65 88.0272 3804.54 91.0299L3827.32 123.655H3789.37L3771.45 97.8544H3761.27V123.655H3690.79L3683.03 104.79H3645.72L3637.96 123.655H3570.33ZM3643.49 101.539H3685.26L3693.02 120.404H3722.09L3678.35 23.3057H3650.83L3607.22 120.404H3635.73L3643.49 101.539ZM3757.96 94.6034H3773.2L3791.12 120.404H3821.04L3799.73 89.8872C3800.75 89.4025 3801.72 88.888 3802.66 88.3437C3807.46 85.5653 3811.23 82.0109 3813.98 77.6806C3817.37 72.4095 3819.06 66.26 3819.06 59.232C3819.06 51.9265 3817.28 45.592 3813.7 40.2285C3810.13 34.7725 3805.05 30.6112 3798.46 27.7445C3791.87 24.7853 3784.11 23.3057 3775.17 23.3057H3730.02V120.404H3757.96V94.6034ZM3542.15 79.3451L3507.44 23.3057H3484.43V120.404H3510.26V70.3289L3535.52 110.833H3547.94L3573.34 68.9418L3573.62 120.404H3599.3L3599.02 23.3057H3576.02L3542.15 79.3451ZM3664.38 50.2157L3651.67 81.2871H3677.08L3664.38 50.2157ZM3664.38 58.9359L3656.57 78.036H3672.18L3664.38 58.9359ZM3787.53 59.232C3787.53 55.4428 3786.35 52.9017 3784.29 51.1415C3782.21 49.3598 3778.8 48.1957 3773.48 48.1957H3761.27V70.1295H3773.48C3778.8 70.1295 3782.23 69.0092 3784.32 67.3024C3786.36 65.543 3787.53 63.0067 3787.53 59.232ZM3786.46 69.774C3783.55 72.1784 3779.22 73.3805 3773.48 73.3805H3757.96V44.9447H3773.48C3779.22 44.9447 3783.55 46.1931 3786.46 48.6899C3789.38 51.1867 3790.84 54.7007 3790.84 59.232C3790.84 63.7632 3789.38 67.2772 3786.46 69.774ZM3900.81 120.404L3872.58 85.171L3862.14 96.1292V120.404H3834.48V23.3057H3862.14V63.6707L3900.38 23.3057H3931.15L3890.79 66.3062L3933.26 120.404H3900.81ZM3895.11 66.4931L3937.29 120.208V21.5576L3895.11 66.4931ZM4021.38 20.0547V47.7796H3971.56V57.6455H4015.45V84.6768H3971.56V95.9298H4023.21V123.655H3899.2L3872.36 90.1547L3865.45 97.414V123.655H3831.17V20.0547H3865.45V55.4094L3898.94 20.0547H4021.38ZM3968.25 99.1808V81.4258H4012.14V60.8965H3968.25V44.5286H4018.07V23.3057H3940.59V120.404H4019.9V99.1808H3968.25ZM4022.79 48.3345V20.0547H4117.89V48.3345H4087.69V123.655H4053.13V48.3345H4022.79ZM4056.44 45.0834V120.404H4084.38V45.0834H4114.58V23.3057H4026.1V45.0834H4056.44Z" fill="#42D4BA"/>
<path fill-rule="evenodd" clip-rule="evenodd" d="M3570.33 123.655L3570.1 80.6405L3549.82 114.084H3533.67L3513.57 81.8528V123.655H3481.12V20.0547H3509.29L3542.12 73.0376L3574.14 20.0547H3602.32L3602.62 122.603L3648.67 20.0547H3680.5L3726.71 122.616V20.0547H3775.17C3784.47 20.0547 3792.71 21.5922 3799.82 24.7797C3806.92 27.8771 3812.52 32.4295 3816.47 38.4572C3820.44 44.419 3822.37 51.3888 3822.37 59.232C3822.37 66.7907 3820.54 73.5559 3816.78 79.4088C3813.76 84.1591 3809.65 88.0272 3804.54 91.0299L3827.32 123.655H3789.37L3771.45 97.8544H3761.27V123.655H3690.79L3683.03 104.79H3645.72L3637.96 123.655H3570.33ZM3643.49 101.539H3685.26L3693.02 120.404H3722.09L3678.35 23.3057H3650.83L3607.22 120.404H3635.73L3643.49 101.539ZM3757.96 94.6034H3773.2L3791.12 120.404H3821.04L3799.73 89.8872C3800.75 89.4025 3801.72 88.888 3802.66 88.3437C3807.46 85.5653 3811.23 82.0109 3813.98 77.6806C3817.37 72.4095 3819.06 66.26 3819.06 59.232C3819.06 51.9265 3817.28 45.592 3813.7 40.2285C3810.13 34.7725 3805.05 30.6112 3798.46 27.7445C3791.87 24.7853 3784.11 23.3057 3775.17 23.3057H3730.02V120.404H3757.96V94.6034ZM3542.15 79.3451L3507.44 23.3057H3484.43V120.404H3510.26V70.3289L3535.52 110.833H3547.94L3573.34 68.9418L3573.62 120.404H3599.3L3599.02 23.3057H3576.02L3542.15 79.3451ZM3664.38 50.2157L3651.67 81.2871H3677.08L3664.38 50.2157ZM3664.38 58.9359L3656.57 78.036H3672.18L3664.38 58.9359ZM3787.53 59.232C3787.53 55.4428 3786.35 52.9017 3784.29 51.1415C3782.21 49.3598 3778.8 48.1957 3773.48 48.1957H3761.27V70.1295H3773.48C3778.8 70.1295 3782.23 69.0092 3784.32 67.3024C3786.36 65.543 3787.53 63.0067 3787.53 59.232ZM3786.46 69.774C3783.55 72.1784 3779.22 73.3805 3773.48 73.3805H3757.96V44.9447H3773.48C3779.22 44.9447 3783.55 46.1931 3786.46 48.6899C3789.38 51.1867 3790.84 54.7007 3790.84 59.232C3790.84 63.7632 3789.38 67.2772 3786.46 69.774ZM3900.81 120.404L3872.58 85.171L3862.14 96.1292V120.404H3834.48V23.3057H3862.14V63.6707L3900.38 23.3057H3931.15L3890.79 66.3062L3933.26 120.404H3900.81ZM3895.11 66.4931L3937.29 120.208V21.5576L3895.11 66.4931ZM4021.38 20.0547V47.7796H3971.56V57.6455H4015.45V84.6768H3971.56V95.9298H4023.21V123.655H3899.2L3872.36 90.1547L3865.45 97.414V123.655H3831.17V20.0547H3865.45V55.4094L3898.94 20.0547H4021.38ZM3968.25 99.1808V81.4258H4012.14V60.8965H3968.25V44.5286H4018.07V23.3057H3940.59V120.404H4019.9V99.1808H3968.25ZM4022.79 48.3345V20.0547H4117.89V48.3345H4087.69V123.655H4053.13V48.3345H4022.79ZM4056.44 45.0834V120.404H4084.38V45.0834H4114.58V23.3057H4026.1V45.0834H4056.44Z" fill="#42D4BA"/>
</g>
<path fill-rule="evenodd" clip-rule="evenodd" d="M3570.33 123.655L3570.1 80.6405L3549.82 114.084H3533.67L3513.57 81.8528V123.655H3481.12V20.0547H3509.29L3542.12 73.0376L3574.14 20.0547H3602.32L3602.62 122.603L3648.67 20.0547H3680.5L3726.71 122.616V20.0547H3775.17C3784.47 20.0547 3792.71 21.5922 3799.82 24.7797C3806.92 27.8771 3812.52 32.4295 3816.47 38.4572C3820.44 44.419 3822.37 51.3888 3822.37 59.232C3822.37 66.7907 3820.54 73.5559 3816.78 79.4088C3813.76 84.1591 3809.65 88.0272 3804.54 91.0299L3827.32 123.655H3789.37L3771.45 97.8544H3761.27V123.655H3690.79L3683.03 104.79H3645.72L3637.96 123.655H3570.33ZM3643.49 101.539H3685.26L3693.02 120.404H3722.09L3678.35 23.3057H3650.83L3607.22 120.404H3635.73L3643.49 101.539ZM3757.96 94.6034H3773.2L3791.12 120.404H3821.04L3799.73 89.8872C3800.75 89.4025 3801.72 88.888 3802.66 88.3437C3807.46 85.5653 3811.23 82.0109 3813.98 77.6806C3817.37 72.4095 3819.06 66.26 3819.06 59.232C3819.06 51.9265 3817.28 45.592 3813.7 40.2285C3810.13 34.7725 3805.05 30.6112 3798.46 27.7445C3791.87 24.7853 3784.11 23.3057 3775.17 23.3057H3730.02V120.404H3757.96V94.6034ZM3542.15 79.3451L3507.44 23.3057H3484.43V120.404H3510.26V70.3289L3535.52 110.833H3547.94L3573.34 68.9418L3573.62 120.404H3599.3L3599.02 23.3057H3576.02L3542.15 79.3451ZM3664.38 50.2157L3651.67 81.2871H3677.08L3664.38 50.2157ZM3664.38 58.9359L3656.57 78.036H3672.18L3664.38 58.9359ZM3787.53 59.232C3787.53 55.4428 3786.35 52.9017 3784.29 51.1415C3782.21 49.3598 3778.8 48.1957 3773.48 48.1957H3761.27V70.1295H3773.48C3778.8 70.1295 3782.23 69.0092 3784.32 67.3024C3786.36 65.543 3787.53 63.0067 3787.53 59.232ZM3786.46 69.774C3783.55 72.1784 3779.22 73.3805 3773.48 73.3805H3757.96V44.9447H3773.48C3779.22 44.9447 3783.55 46.1931 3786.46 48.6899C3789.38 51.1867 3790.84 54.7007 3790.84 59.232C3790.84 63.7632 3789.38 67.2772 3786.46 69.774ZM3900.81 120.404L3872.58 85.171L3862.14 96.1292V120.404H3834.48V23.3057H3862.14V63.6707L3900.38 23.3057H3931.15L3890.79 66.3062L3933.26 120.404H3900.81ZM3895.11 66.4931L3937.29 120.208V21.5576L3895.11 66.4931ZM4021.38 20.0547V47.7796H3971.56V57.6455H4015.45V84.6768H3971.56V95.9298H4023.21V123.655H3899.2L3872.36 90.1547L3865.45 97.414V123.655H3831.17V20.0547H3865.45V55.4094L3898.94 20.0547H4021.38ZM3968.25 99.1808V81.4258H4012.14V60.8965H3968.25V44.5286H4018.07V23.3057H3940.59V120.404H4019.9V99.1808H3968.25ZM4022.79 48.3345V20.0547H4117.89V48.3345H4087.69V123.655H4053.13V48.3345H4022.79ZM4056.44 45.0834V120.404H4084.38V45.0834H4114.58V23.3057H4026.1V45.0834H4056.44Z" fill="#42D4BA"/>
<path fill-rule="evenodd" clip-rule="evenodd" d="M3570.33 123.655L3570.1 80.6405L3549.82 114.084H3533.67L3513.57 81.8528V123.655H3481.12V20.0547H3509.29L3542.12 73.0376L3574.14 20.0547H3602.32L3602.62 122.603L3648.67 20.0547H3680.5L3726.71 122.616V20.0547H3775.17C3784.47 20.0547 3792.71 21.5922 3799.82 24.7797C3806.92 27.8771 3812.52 32.4295 3816.47 38.4572C3820.44 44.419 3822.37 51.3888 3822.37 59.232C3822.37 66.7907 3820.54 73.5559 3816.78 79.4088C3813.76 84.1591 3809.65 88.0272 3804.54 91.0299L3827.32 123.655H3789.37L3771.45 97.8544H3761.27V123.655H3690.79L3683.03 104.79H3645.72L3637.96 123.655H3570.33ZM3643.49 101.539H3685.26L3693.02 120.404H3722.09L3678.35 23.3057H3650.83L3607.22 120.404H3635.73L3643.49 101.539ZM3757.96 94.6034H3773.2L3791.12 120.404H3821.04L3799.73 89.8872C3800.75 89.4025 3801.72 88.888 3802.66 88.3437C3807.46 85.5653 3811.23 82.0109 3813.98 77.6806C3817.37 72.4095 3819.06 66.26 3819.06 59.232C3819.06 51.9265 3817.28 45.592 3813.7 40.2285C3810.13 34.7725 3805.05 30.6112 3798.46 27.7445C3791.87 24.7853 3784.11 23.3057 3775.17 23.3057H3730.02V120.404H3757.96V94.6034ZM3542.15 79.3451L3507.44 23.3057H3484.43V120.404H3510.26V70.3289L3535.52 110.833H3547.94L3573.34 68.9418L3573.62 120.404H3599.3L3599.02 23.3057H3576.02L3542.15 79.3451ZM3664.38 50.2157L3651.67 81.2871H3677.08L3664.38 50.2157ZM3664.38 58.9359L3656.57 78.036H3672.18L3664.38 58.9359ZM3787.53 59.232C3787.53 55.4428 3786.35 52.9017 3784.29 51.1415C3782.21 49.3598 3778.8 48.1957 3773.48 48.1957H3761.27V70.1295H3773.48C3778.8 70.1295 3782.23 69.0092 3784.32 67.3024C3786.36 65.543 3787.53 63.0067 3787.53 59.232ZM3786.46 69.774C3783.55 72.1784 3779.22 73.3805 3773.48 73.3805H3757.96V44.9447H3773.48C3779.22 44.9447 3783.55 46.1931 3786.46 48.6899C3789.38 51.1867 3790.84 54.7007 3790.84 59.232C3790.84 63.7632 3789.38 67.2772 3786.46 69.774ZM3900.81 120.404L3872.58 85.171L3862.14 96.1292V120.404H3834.48V23.3057H3862.14V63.6707L3900.38 23.3057H3931.15L3890.79 66.3062L3933.26 120.404H3900.81ZM3895.11 66.4931L3937.29 120.208V21.5576L3895.11 66.4931ZM4021.38 20.0547V47.7796H3971.56V57.6455H4015.45V84.6768H3971.56V95.9298H4023.21V123.655H3899.2L3872.36 90.1547L3865.45 97.414V123.655H3831.17V20.0547H3865.45V55.4094L3898.94 20.0547H4021.38ZM3968.25 99.1808V81.4258H4012.14V60.8965H3968.25V44.5286H4018.07V23.3057H3940.59V120.404H4019.9V99.1808H3968.25ZM4022.79 48.3345V20.0547H4117.89V48.3345H4087.69V123.655H4053.13V48.3345H4022.79ZM4056.44 45.0834V120.404H4084.38V45.0834H4114.58V23.3057H4026.1V45.0834H4056.44Z" fill="#42D4BA"/>
<path fill-rule="evenodd" clip-rule="evenodd" d="M3570.33 123.655L3570.1 80.6405L3549.82 114.084H3533.67L3513.57 81.8528V123.655H3481.12V20.0547H3509.29L3542.12 73.0376L3574.14 20.0547H3602.32L3602.62 122.603L3648.67 20.0547H3680.5L3726.71 122.616V20.0547H3775.17C3784.47 20.0547 3792.71 21.5922 3799.82 24.7797C3806.92 27.8771 3812.52 32.4295 3816.47 38.4572C3820.44 44.419 3822.37 51.3888 3822.37 59.232C3822.37 66.7907 3820.54 73.5559 3816.78 79.4088C3813.76 84.1591 3809.65 88.0272 3804.54 91.0299L3827.32 123.655H3789.37L3771.45 97.8544H3761.27V123.655H3690.79L3683.03 104.79H3645.72L3637.96 123.655H3570.33ZM3643.49 101.539H3685.26L3693.02 120.404H3722.09L3678.35 23.3057H3650.83L3607.22 120.404H3635.73L3643.49 101.539ZM3757.96 94.6034H3773.2L3791.12 120.404H3821.04L3799.73 89.8872C3800.75 89.4025 3801.72 88.888 3802.66 88.3437C3807.46 85.5653 3811.23 82.0109 3813.98 77.6806C3817.37 72.4095 3819.06 66.26 3819.06 59.232C3819.06 51.9265 3817.28 45.592 3813.7 40.2285C3810.13 34.7725 3805.05 30.6112 3798.46 27.7445C3791.87 24.7853 3784.11 23.3057 3775.17 23.3057H3730.02V120.404H3757.96V94.6034ZM3542.15 79.3451L3507.44 23.3057H3484.43V120.404H3510.26V70.3289L3535.52 110.833H3547.94L3573.34 68.9418L3573.62 120.404H3599.3L3599.02 23.3057H3576.02L3542.15 79.3451ZM3664.38 50.2157L3651.67 81.2871H3677.08L3664.38 50.2157ZM3664.38 58.9359L3656.57 78.036H3672.18L3664.38 58.9359ZM3787.53 59.232C3787.53 55.4428 3786.35 52.9017 3784.29 51.1415C3782.21 49.3598 3778.8 48.1957 3773.48 48.1957H3761.27V70.1295H3773.48C3778.8 70.1295 3782.23 69.0092 3784.32 67.3024C3786.36 65.543 3787.53 63.0067 3787.53 59.232ZM3786.46 69.774C3783.55 72.1784 3779.22 73.3805 3773.48 73.3805H3757.96V44.9447H3773.48C3779.22 44.9447 3783.55 46.1931 3786.46 48.6899C3789.38 51.1867 3790.84 54.7007 3790.84 59.232C3790.84 63.7632 3789.38 67.2772 3786.46 69.774ZM3900.81 120.404L3872.58 85.171L3862.14 96.1292V120.404H3834.48V23.3057H3862.14V63.6707L3900.38 23.3057H3931.15L3890.79 66.3062L3933.26 120.404H3900.81ZM3895.11 66.4931L3937.29 120.208V21.5576L3895.11 66.4931ZM4021.38 20.0547V47.7796H3971.56V57.6455H4015.45V84.6768H3971.56V95.9298H4023.21V123.655H3899.2L3872.36 90.1547L3865.45 97.414V123.655H3831.17V20.0547H3865.45V55.4094L3898.94 20.0547H4021.38ZM3968.25 99.1808V81.4258H4012.14V60.8965H3968.25V44.5286H4018.07V23.3057H3940.59V120.404H4019.9V99.1808H3968.25ZM4022.79 48.3345V20.0547H4117.89V48.3345H4087.69V123.655H4053.13V48.3345H4022.79ZM4056.44 45.0834V120.404H4084.38V45.0834H4114.58V23.3057H4026.1V45.0834H4056.44Z" fill="#42D4BA"/>
<g filter="url(#filter4_f_523_2100)">
<path fill-rule="evenodd" clip-rule="evenodd" d="M2636.39 123.655L2636.15 80.6405L2615.87 114.084H2599.72L2579.62 81.8528V123.655H2547.18V20.0547H2575.35L2608.17 73.0376L2640.19 20.0547H2668.38L2668.67 122.603L2714.73 20.0547H2746.55L2792.76 122.616V20.0547H2841.23C2850.53 20.0547 2858.77 21.5922 2865.87 24.7797C2872.98 27.8771 2878.58 32.4295 2882.53 38.4572C2886.5 44.419 2888.43 51.3888 2888.43 59.232C2888.43 66.7907 2886.6 73.5559 2882.84 79.4088C2879.82 84.1591 2875.71 88.0272 2870.59 91.0299L2893.38 123.655H2855.43L2837.51 97.8544H2827.32V123.655H2756.85L2749.09 104.79H2711.77L2704.01 123.655H2636.39ZM2709.54 101.539H2751.32L2759.08 120.404H2788.15L2744.4 23.3057H2716.88L2673.28 120.404H2701.78L2709.54 101.539ZM2824.01 94.6034H2839.25L2857.18 120.404H2887.09L2865.78 89.8872C2866.8 89.4025 2867.78 88.888 2868.72 88.3437C2873.51 85.5653 2877.28 82.0109 2880.04 77.6806C2883.42 72.4095 2885.12 66.26 2885.12 59.232C2885.12 51.9265 2883.33 45.592 2879.76 40.2285C2876.18 34.7725 2871.1 30.6112 2864.51 27.7445C2857.93 24.7853 2850.17 23.3057 2841.23 23.3057H2796.07V120.404H2824.01V94.6034ZM2608.21 79.3451L2573.49 23.3057H2550.49V120.404H2576.31V70.3289L2601.57 110.833H2613.99L2639.39 68.9418L2639.68 120.404H2665.36L2665.08 23.3057H2642.07L2608.21 79.3451ZM2730.43 50.2157L2717.73 81.2871H2743.13L2730.43 50.2157ZM2730.43 58.9359L2722.62 78.036H2738.24L2730.43 58.9359ZM2853.59 59.232C2853.59 55.4428 2852.4 52.9017 2850.35 51.1415C2848.27 49.3598 2844.85 48.1957 2839.54 48.1957H2827.32V70.1295H2839.54C2844.86 70.1295 2848.28 69.0092 2850.37 67.3024C2852.41 65.543 2853.59 63.0067 2853.59 59.232ZM2852.52 69.774C2849.6 72.1784 2845.27 73.3805 2839.54 73.3805H2824.01V44.9447H2839.54C2845.27 44.9447 2849.6 46.1931 2852.52 48.6899C2855.44 51.1867 2856.89 54.7007 2856.89 59.232C2856.89 63.7632 2855.44 67.2772 2852.52 69.774ZM2966.86 120.404L2938.64 85.171L2928.19 96.1292V120.404H2900.53V23.3057H2928.19V63.6707L2966.44 23.3057H2997.2L2956.84 66.3062L2999.32 120.404H2966.86ZM2961.16 66.4931L3003.34 120.208V21.5576L2961.16 66.4931ZM3087.43 20.0547V47.7796H3037.62V57.6455H3081.5V84.6768H3037.62V95.9298H3089.27V123.655H2965.25L2938.42 90.1547L2931.5 97.414V123.655H2897.23V20.0547H2931.5V55.4094L2965 20.0547H3087.43ZM3034.31 99.1808V81.4258H3078.2V60.8965H3034.31V44.5286H3084.12V23.3057H3006.65V120.404H3085.96V99.1808H3034.31ZM3088.84 48.3345V20.0547H3183.94V48.3345H3153.74V123.655H3119.18V48.3345H3088.84ZM3122.49 45.0834V120.404H3150.43V45.0834H3180.63V23.3057H3092.15V45.0834H3122.49Z" fill="#42D4BA"/>
<path fill-rule="evenodd" clip-rule="evenodd" d="M2636.39 123.655L2636.15 80.6405L2615.87 114.084H2599.72L2579.62 81.8528V123.655H2547.18V20.0547H2575.35L2608.17 73.0376L2640.19 20.0547H2668.38L2668.67 122.603L2714.73 20.0547H2746.55L2792.76 122.616V20.0547H2841.23C2850.53 20.0547 2858.77 21.5922 2865.87 24.7797C2872.98 27.8771 2878.58 32.4295 2882.53 38.4572C2886.5 44.419 2888.43 51.3888 2888.43 59.232C2888.43 66.7907 2886.6 73.5559 2882.84 79.4088C2879.82 84.1591 2875.71 88.0272 2870.59 91.0299L2893.38 123.655H2855.43L2837.51 97.8544H2827.32V123.655H2756.85L2749.09 104.79H2711.77L2704.01 123.655H2636.39ZM2709.54 101.539H2751.32L2759.08 120.404H2788.15L2744.4 23.3057H2716.88L2673.28 120.404H2701.78L2709.54 101.539ZM2824.01 94.6034H2839.25L2857.18 120.404H2887.09L2865.78 89.8872C2866.8 89.4025 2867.78 88.888 2868.72 88.3437C2873.51 85.5653 2877.28 82.0109 2880.04 77.6806C2883.42 72.4095 2885.12 66.26 2885.12 59.232C2885.12 51.9265 2883.33 45.592 2879.76 40.2285C2876.18 34.7725 2871.1 30.6112 2864.51 27.7445C2857.93 24.7853 2850.17 23.3057 2841.23 23.3057H2796.07V120.404H2824.01V94.6034ZM2608.21 79.3451L2573.49 23.3057H2550.49V120.404H2576.31V70.3289L2601.57 110.833H2613.99L2639.39 68.9418L2639.68 120.404H2665.36L2665.08 23.3057H2642.07L2608.21 79.3451ZM2730.43 50.2157L2717.73 81.2871H2743.13L2730.43 50.2157ZM2730.43 58.9359L2722.62 78.036H2738.24L2730.43 58.9359ZM2853.59 59.232C2853.59 55.4428 2852.4 52.9017 2850.35 51.1415C2848.27 49.3598 2844.85 48.1957 2839.54 48.1957H2827.32V70.1295H2839.54C2844.86 70.1295 2848.28 69.0092 2850.37 67.3024C2852.41 65.543 2853.59 63.0067 2853.59 59.232ZM2852.52 69.774C2849.6 72.1784 2845.27 73.3805 2839.54 73.3805H2824.01V44.9447H2839.54C2845.27 44.9447 2849.6 46.1931 2852.52 48.6899C2855.44 51.1867 2856.89 54.7007 2856.89 59.232C2856.89 63.7632 2855.44 67.2772 2852.52 69.774ZM2966.86 120.404L2938.64 85.171L2928.19 96.1292V120.404H2900.53V23.3057H2928.19V63.6707L2966.44 23.3057H2997.2L2956.84 66.3062L2999.32 120.404H2966.86ZM2961.16 66.4931L3003.34 120.208V21.5576L2961.16 66.4931ZM3087.43 20.0547V47.7796H3037.62V57.6455H3081.5V84.6768H3037.62V95.9298H3089.27V123.655H2965.25L2938.42 90.1547L2931.5 97.414V123.655H2897.23V20.0547H2931.5V55.4094L2965 20.0547H3087.43ZM3034.31 99.1808V81.4258H3078.2V60.8965H3034.31V44.5286H3084.12V23.3057H3006.65V120.404H3085.96V99.1808H3034.31ZM3088.84 48.3345V20.0547H3183.94V48.3345H3153.74V123.655H3119.18V48.3345H3088.84ZM3122.49 45.0834V120.404H3150.43V45.0834H3180.63V23.3057H3092.15V45.0834H3122.49Z" fill="#42D4BA"/>
<path fill-rule="evenodd" clip-rule="evenodd" d="M2636.39 123.655L2636.15 80.6405L2615.87 114.084H2599.72L2579.62 81.8528V123.655H2547.18V20.0547H2575.35L2608.17 73.0376L2640.19 20.0547H2668.38L2668.67 122.603L2714.73 20.0547H2746.55L2792.76 122.616V20.0547H2841.23C2850.53 20.0547 2858.77 21.5922 2865.87 24.7797C2872.98 27.8771 2878.58 32.4295 2882.53 38.4572C2886.5 44.419 2888.43 51.3888 2888.43 59.232C2888.43 66.7907 2886.6 73.5559 2882.84 79.4088C2879.82 84.1591 2875.71 88.0272 2870.59 91.0299L2893.38 123.655H2855.43L2837.51 97.8544H2827.32V123.655H2756.85L2749.09 104.79H2711.77L2704.01 123.655H2636.39ZM2709.54 101.539H2751.32L2759.08 120.404H2788.15L2744.4 23.3057H2716.88L2673.28 120.404H2701.78L2709.54 101.539ZM2824.01 94.6034H2839.25L2857.18 120.404H2887.09L2865.78 89.8872C2866.8 89.4025 2867.78 88.888 2868.72 88.3437C2873.51 85.5653 2877.28 82.0109 2880.04 77.6806C2883.42 72.4095 2885.12 66.26 2885.12 59.232C2885.12 51.9265 2883.33 45.592 2879.76 40.2285C2876.18 34.7725 2871.1 30.6112 2864.51 27.7445C2857.93 24.7853 2850.17 23.3057 2841.23 23.3057H2796.07V120.404H2824.01V94.6034ZM2608.21 79.3451L2573.49 23.3057H2550.49V120.404H2576.31V70.3289L2601.57 110.833H2613.99L2639.39 68.9418L2639.68 120.404H2665.36L2665.08 23.3057H2642.07L2608.21 79.3451ZM2730.43 50.2157L2717.73 81.2871H2743.13L2730.43 50.2157ZM2730.43 58.9359L2722.62 78.036H2738.24L2730.43 58.9359ZM2853.59 59.232C2853.59 55.4428 2852.4 52.9017 2850.35 51.1415C2848.27 49.3598 2844.85 48.1957 2839.54 48.1957H2827.32V70.1295H2839.54C2844.86 70.1295 2848.28 69.0092 2850.37 67.3024C2852.41 65.543 2853.59 63.0067 2853.59 59.232ZM2852.52 69.774C2849.6 72.1784 2845.27 73.3805 2839.54 73.3805H2824.01V44.9447H2839.54C2845.27 44.9447 2849.6 46.1931 2852.52 48.6899C2855.44 51.1867 2856.89 54.7007 2856.89 59.232C2856.89 63.7632 2855.44 67.2772 2852.52 69.774ZM2966.86 120.404L2938.64 85.171L2928.19 96.1292V120.404H2900.53V23.3057H2928.19V63.6707L2966.44 23.3057H2997.2L2956.84 66.3062L2999.32 120.404H2966.86ZM2961.16 66.4931L3003.34 120.208V21.5576L2961.16 66.4931ZM3087.43 20.0547V47.7796H3037.62V57.6455H3081.5V84.6768H3037.62V95.9298H3089.27V123.655H2965.25L2938.42 90.1547L2931.5 97.414V123.655H2897.23V20.0547H2931.5V55.4094L2965 20.0547H3087.43ZM3034.31 99.1808V81.4258H3078.2V60.8965H3034.31V44.5286H3084.12V23.3057H3006.65V120.404H3085.96V99.1808H3034.31ZM3088.84 48.3345V20.0547H3183.94V48.3345H3153.74V123.655H3119.18V48.3345H3088.84ZM3122.49 45.0834V120.404H3150.43V45.0834H3180.63V23.3057H3092.15V45.0834H3122.49Z" fill="#42D4BA"/>
</g>
<path fill-rule="evenodd" clip-rule="evenodd" d="M2636.39 123.655L2636.15 80.6405L2615.87 114.084H2599.72L2579.62 81.8528V123.655H2547.18V20.0547H2575.35L2608.17 73.0376L2640.19 20.0547H2668.38L2668.67 122.603L2714.73 20.0547H2746.55L2792.76 122.616V20.0547H2841.23C2850.53 20.0547 2858.77 21.5922 2865.87 24.7797C2872.98 27.8771 2878.58 32.4295 2882.53 38.4572C2886.5 44.419 2888.43 51.3888 2888.43 59.232C2888.43 66.7907 2886.6 73.5559 2882.84 79.4088C2879.82 84.1591 2875.71 88.0272 2870.59 91.0299L2893.38 123.655H2855.43L2837.51 97.8544H2827.32V123.655H2756.85L2749.09 104.79H2711.77L2704.01 123.655H2636.39ZM2709.54 101.539H2751.32L2759.08 120.404H2788.15L2744.4 23.3057H2716.88L2673.28 120.404H2701.78L2709.54 101.539ZM2824.01 94.6034H2839.25L2857.18 120.404H2887.09L2865.78 89.8872C2866.8 89.4025 2867.78 88.888 2868.72 88.3437C2873.51 85.5653 2877.28 82.0109 2880.04 77.6806C2883.42 72.4095 2885.12 66.26 2885.12 59.232C2885.12 51.9265 2883.33 45.592 2879.76 40.2285C2876.18 34.7725 2871.1 30.6112 2864.51 27.7445C2857.93 24.7853 2850.17 23.3057 2841.23 23.3057H2796.07V120.404H2824.01V94.6034ZM2608.21 79.3451L2573.49 23.3057H2550.49V120.404H2576.31V70.3289L2601.57 110.833H2613.99L2639.39 68.9418L2639.68 120.404H2665.36L2665.08 23.3057H2642.07L2608.21 79.3451ZM2730.43 50.2157L2717.73 81.2871H2743.13L2730.43 50.2157ZM2730.43 58.9359L2722.62 78.036H2738.24L2730.43 58.9359ZM2853.59 59.232C2853.59 55.4428 2852.4 52.9017 2850.35 51.1415C2848.27 49.3598 2844.85 48.1957 2839.54 48.1957H2827.32V70.1295H2839.54C2844.86 70.1295 2848.28 69.0092 2850.37 67.3024C2852.41 65.543 2853.59 63.0067 2853.59 59.232ZM2852.52 69.774C2849.6 72.1784 2845.27 73.3805 2839.54 73.3805H2824.01V44.9447H2839.54C2845.27 44.9447 2849.6 46.1931 2852.52 48.6899C2855.44 51.1867 2856.89 54.7007 2856.89 59.232C2856.89 63.7632 2855.44 67.2772 2852.52 69.774ZM2966.86 120.404L2938.64 85.171L2928.19 96.1292V120.404H2900.53V23.3057H2928.19V63.6707L2966.44 23.3057H2997.2L2956.84 66.3062L2999.32 120.404H2966.86ZM2961.16 66.4931L3003.34 120.208V21.5576L2961.16 66.4931ZM3087.43 20.0547V47.7796H3037.62V57.6455H3081.5V84.6768H3037.62V95.9298H3089.27V123.655H2965.25L2938.42 90.1547L2931.5 97.414V123.655H2897.23V20.0547H2931.5V55.4094L2965 20.0547H3087.43ZM3034.31 99.1808V81.4258H3078.2V60.8965H3034.31V44.5286H3084.12V23.3057H3006.65V120.404H3085.96V99.1808H3034.31ZM3088.84 48.3345V20.0547H3183.94V48.3345H3153.74V123.655H3119.18V48.3345H3088.84ZM3122.49 45.0834V120.404H3150.43V45.0834H3180.63V23.3057H3092.15V45.0834H3122.49Z" fill="#42D4BA"/>
<path fill-rule="evenodd" clip-rule="evenodd" d="M2636.39 123.655L2636.15 80.6405L2615.87 114.084H2599.72L2579.62 81.8528V123.655H2547.18V20.0547H2575.35L2608.17 73.0376L2640.19 20.0547H2668.38L2668.67 122.603L2714.73 20.0547H2746.55L2792.76 122.616V20.0547H2841.23C2850.53 20.0547 2858.77 21.5922 2865.87 24.7797C2872.98 27.8771 2878.58 32.4295 2882.53 38.4572C2886.5 44.419 2888.43 51.3888 2888.43 59.232C2888.43 66.7907 2886.6 73.5559 2882.84 79.4088C2879.82 84.1591 2875.71 88.0272 2870.59 91.0299L2893.38 123.655H2855.43L2837.51 97.8544H2827.32V123.655H2756.85L2749.09 104.79H2711.77L2704.01 123.655H2636.39ZM2709.54 101.539H2751.32L2759.08 120.404H2788.15L2744.4 23.3057H2716.88L2673.28 120.404H2701.78L2709.54 101.539ZM2824.01 94.6034H2839.25L2857.18 120.404H2887.09L2865.78 89.8872C2866.8 89.4025 2867.78 88.888 2868.72 88.3437C2873.51 85.5653 2877.28 82.0109 2880.04 77.6806C2883.42 72.4095 2885.12 66.26 2885.12 59.232C2885.12 51.9265 2883.33 45.592 2879.76 40.2285C2876.18 34.7725 2871.1 30.6112 2864.51 27.7445C2857.93 24.7853 2850.17 23.3057 2841.23 23.3057H2796.07V120.404H2824.01V94.6034ZM2608.21 79.3451L2573.49 23.3057H2550.49V120.404H2576.31V70.3289L2601.57 110.833H2613.99L2639.39 68.9418L2639.68 120.404H2665.36L2665.08 23.3057H2642.07L2608.21 79.3451ZM2730.43 50.2157L2717.73 81.2871H2743.13L2730.43 50.2157ZM2730.43 58.9359L2722.62 78.036H2738.24L2730.43 58.9359ZM2853.59 59.232C2853.59 55.4428 2852.4 52.9017 2850.35 51.1415C2848.27 49.3598 2844.85 48.1957 2839.54 48.1957H2827.32V70.1295H2839.54C2844.86 70.1295 2848.28 69.0092 2850.37 67.3024C2852.41 65.543 2853.59 63.0067 2853.59 59.232ZM2852.52 69.774C2849.6 72.1784 2845.27 73.3805 2839.54 73.3805H2824.01V44.9447H2839.54C2845.27 44.9447 2849.6 46.1931 2852.52 48.6899C2855.44 51.1867 2856.89 54.7007 2856.89 59.232C2856.89 63.7632 2855.44 67.2772 2852.52 69.774ZM2966.86 120.404L2938.64 85.171L2928.19 96.1292V120.404H2900.53V23.3057H2928.19V63.6707L2966.44 23.3057H2997.2L2956.84 66.3062L2999.32 120.404H2966.86ZM2961.16 66.4931L3003.34 120.208V21.5576L2961.16 66.4931ZM3087.43 20.0547V47.7796H3037.62V57.6455H3081.5V84.6768H3037.62V95.9298H3089.27V123.655H2965.25L2938.42 90.1547L2931.5 97.414V123.655H2897.23V20.0547H2931.5V55.4094L2965 20.0547H3087.43ZM3034.31 99.1808V81.4258H3078.2V60.8965H3034.31V44.5286H3084.12V23.3057H3006.65V120.404H3085.96V99.1808H3034.31ZM3088.84 48.3345V20.0547H3183.94V48.3345H3153.74V123.655H3119.18V48.3345H3088.84ZM3122.49 45.0834V120.404H3150.43V45.0834H3180.63V23.3057H3092.15V45.0834H3122.49Z" fill="#42D4BA"/>
<path fill-rule="evenodd" clip-rule="evenodd" d="M2636.39 123.655L2636.15 80.6405L2615.87 114.084H2599.72L2579.62 81.8528V123.655H2547.18V20.0547H2575.35L2608.17 73.0376L2640.19 20.0547H2668.38L2668.67 122.603L2714.73 20.0547H2746.55L2792.76 122.616V20.0547H2841.23C2850.53 20.0547 2858.77 21.5922 2865.87 24.7797C2872.98 27.8771 2878.58 32.4295 2882.53 38.4572C2886.5 44.419 2888.43 51.3888 2888.43 59.232C2888.43 66.7907 2886.6 73.5559 2882.84 79.4088C2879.82 84.1591 2875.71 88.0272 2870.59 91.0299L2893.38 123.655H2855.43L2837.51 97.8544H2827.32V123.655H2756.85L2749.09 104.79H2711.77L2704.01 123.655H2636.39ZM2709.54 101.539H2751.32L2759.08 120.404H2788.15L2744.4 23.3057H2716.88L2673.28 120.404H2701.78L2709.54 101.539ZM2824.01 94.6034H2839.25L2857.18 120.404H2887.09L2865.78 89.8872C2866.8 89.4025 2867.78 88.888 2868.72 88.3437C2873.51 85.5653 2877.28 82.0109 2880.04 77.6806C2883.42 72.4095 2885.12 66.26 2885.12 59.232C2885.12 51.9265 2883.33 45.592 2879.76 40.2285C2876.18 34.7725 2871.1 30.6112 2864.51 27.7445C2857.93 24.7853 2850.17 23.3057 2841.23 23.3057H2796.07V120.404H2824.01V94.6034ZM2608.21 79.3451L2573.49 23.3057H2550.49V120.404H2576.31V70.3289L2601.57 110.833H2613.99L2639.39 68.9418L2639.68 120.404H2665.36L2665.08 23.3057H2642.07L2608.21 79.3451ZM2730.43 50.2157L2717.73 81.2871H2743.13L2730.43 50.2157ZM2730.43 58.9359L2722.62 78.036H2738.24L2730.43 58.9359ZM2853.59 59.232C2853.59 55.4428 2852.4 52.9017 2850.35 51.1415C2848.27 49.3598 2844.85 48.1957 2839.54 48.1957H2827.32V70.1295H2839.54C2844.86 70.1295 2848.28 69.0092 2850.37 67.3024C2852.41 65.543 2853.59 63.0067 2853.59 59.232ZM2852.52 69.774C2849.6 72.1784 2845.27 73.3805 2839.54 73.3805H2824.01V44.9447H2839.54C2845.27 44.9447 2849.6 46.1931 2852.52 48.6899C2855.44 51.1867 2856.89 54.7007 2856.89 59.232C2856.89 63.7632 2855.44 67.2772 2852.52 69.774ZM2966.86 120.404L2938.64 85.171L2928.19 96.1292V120.404H2900.53V23.3057H2928.19V63.6707L2966.44 23.3057H2997.2L2956.84 66.3062L2999.32 120.404H2966.86ZM2961.16 66.4931L3003.34 120.208V21.5576L2961.16 66.4931ZM3087.43 20.0547V47.7796H3037.62V57.6455H3081.5V84.6768H3037.62V95.9298H3089.27V123.655H2965.25L2938.42 90.1547L2931.5 97.414V123.655H2897.23V20.0547H2931.5V55.4094L2965 20.0547H3087.43ZM3034.31 99.1808V81.4258H3078.2V60.8965H3034.31V44.5286H3084.12V23.3057H3006.65V120.404H3085.96V99.1808H3034.31ZM3088.84 48.3345V20.0547H3183.94V48.3345H3153.74V123.655H3119.18V48.3345H3088.84ZM3122.49 45.0834V120.404H3150.43V45.0834H3180.63V23.3057H3092.15V45.0834H3122.49Z" fill="#42D4BA"/>
<g filter="url(#filter5_f_523_2100)">
<path fill-rule="evenodd" clip-rule="evenodd" d="M4507.33 125.655L4507.1 82.6405L4486.82 116.084H4470.67L4450.57 83.8528V125.655H4418.12V22.0547H4446.29L4479.12 75.0376L4511.14 22.0547H4539.32L4539.62 124.603L4585.67 22.0547H4617.5L4663.71 124.616V22.0547H4712.17C4721.47 22.0547 4729.71 23.5922 4736.82 26.7797C4743.92 29.8771 4749.52 34.4295 4753.47 40.4572C4757.44 46.419 4759.37 53.3888 4759.37 61.232C4759.37 68.7907 4757.54 75.5559 4753.78 81.4088C4750.76 86.1591 4746.65 90.0272 4741.54 93.0299L4764.32 125.655H4726.37L4708.45 99.8544H4698.27V125.655H4627.79L4620.03 106.79H4582.72L4574.96 125.655H4507.33ZM4580.49 103.539H4622.26L4630.02 122.404H4659.09L4615.35 25.3057H4587.83L4544.22 122.404H4572.73L4580.49 103.539ZM4694.96 96.6034H4710.2L4728.12 122.404H4758.04L4736.73 91.8872C4737.75 91.4025 4738.72 90.888 4739.66 90.3437C4744.46 87.5653 4748.23 84.0109 4750.98 79.6806C4754.37 74.4095 4756.06 68.26 4756.06 61.232C4756.06 53.9265 4754.28 47.592 4750.7 42.2285C4747.13 36.7725 4742.05 32.6112 4735.46 29.7445C4728.87 26.7853 4721.11 25.3057 4712.17 25.3057H4667.02V122.404H4694.96V96.6034ZM4479.15 81.3451L4444.44 25.3057H4421.43V122.404H4447.26V72.3289L4472.52 112.833H4484.94L4510.34 70.9418L4510.62 122.404H4536.3L4536.02 25.3057H4513.02L4479.15 81.3451ZM4601.38 52.2157L4588.67 83.2871H4614.08L4601.38 52.2157ZM4601.38 60.9359L4593.57 80.036H4609.18L4601.38 60.9359ZM4724.53 61.232C4724.53 57.4428 4723.35 54.9017 4721.29 53.1415C4719.21 51.3598 4715.8 50.1957 4710.48 50.1957H4698.27V72.1295H4710.48C4715.8 72.1295 4719.23 71.0092 4721.32 69.3024C4723.36 67.543 4724.53 65.0067 4724.53 61.232ZM4723.46 71.774C4720.55 74.1784 4716.22 75.3805 4710.48 75.3805H4694.96V46.9447H4710.48C4716.22 46.9447 4720.55 48.1931 4723.46 50.6899C4726.38 53.1867 4727.84 56.7007 4727.84 61.232C4727.84 65.7632 4726.38 69.2772 4723.46 71.774ZM4837.81 122.404L4809.58 87.171L4799.14 98.1292V122.404H4771.48V25.3057H4799.14V65.6707L4837.38 25.3057H4868.15L4827.79 68.3062L4870.26 122.404H4837.81ZM4832.11 68.4931L4874.29 122.208V23.5576L4832.11 68.4931ZM4958.38 22.0547V49.7796H4908.56V59.6455H4952.45V86.6768H4908.56V97.9298H4960.21V125.655H4836.2L4809.36 92.1547L4802.45 99.414V125.655H4768.17V22.0547H4802.45V57.4094L4835.94 22.0547H4958.38ZM4905.25 101.181V83.4258H4949.14V62.8965H4905.25V46.5286H4955.07V25.3057H4877.59V122.404H4956.9V101.181H4905.25ZM4959.79 50.3345V22.0547H5054.89V50.3345H5024.69V125.655H4990.13V50.3345H4959.79ZM4993.44 47.0834V122.404H5021.38V47.0834H5051.58V25.3057H4963.1V47.0834H4993.44Z" fill="#42D4BA"/>
<path fill-rule="evenodd" clip-rule="evenodd" d="M4507.33 125.655L4507.1 82.6405L4486.82 116.084H4470.67L4450.57 83.8528V125.655H4418.12V22.0547H4446.29L4479.12 75.0376L4511.14 22.0547H4539.32L4539.62 124.603L4585.67 22.0547H4617.5L4663.71 124.616V22.0547H4712.17C4721.47 22.0547 4729.71 23.5922 4736.82 26.7797C4743.92 29.8771 4749.52 34.4295 4753.47 40.4572C4757.44 46.419 4759.37 53.3888 4759.37 61.232C4759.37 68.7907 4757.54 75.5559 4753.78 81.4088C4750.76 86.1591 4746.65 90.0272 4741.54 93.0299L4764.32 125.655H4726.37L4708.45 99.8544H4698.27V125.655H4627.79L4620.03 106.79H4582.72L4574.96 125.655H4507.33ZM4580.49 103.539H4622.26L4630.02 122.404H4659.09L4615.35 25.3057H4587.83L4544.22 122.404H4572.73L4580.49 103.539ZM4694.96 96.6034H4710.2L4728.12 122.404H4758.04L4736.73 91.8872C4737.75 91.4025 4738.72 90.888 4739.66 90.3437C4744.46 87.5653 4748.23 84.0109 4750.98 79.6806C4754.37 74.4095 4756.06 68.26 4756.06 61.232C4756.06 53.9265 4754.28 47.592 4750.7 42.2285C4747.13 36.7725 4742.05 32.6112 4735.46 29.7445C4728.87 26.7853 4721.11 25.3057 4712.17 25.3057H4667.02V122.404H4694.96V96.6034ZM4479.15 81.3451L4444.44 25.3057H4421.43V122.404H4447.26V72.3289L4472.52 112.833H4484.94L4510.34 70.9418L4510.62 122.404H4536.3L4536.02 25.3057H4513.02L4479.15 81.3451ZM4601.38 52.2157L4588.67 83.2871H4614.08L4601.38 52.2157ZM4601.38 60.9359L4593.57 80.036H4609.18L4601.38 60.9359ZM4724.53 61.232C4724.53 57.4428 4723.35 54.9017 4721.29 53.1415C4719.21 51.3598 4715.8 50.1957 4710.48 50.1957H4698.27V72.1295H4710.48C4715.8 72.1295 4719.23 71.0092 4721.32 69.3024C4723.36 67.543 4724.53 65.0067 4724.53 61.232ZM4723.46 71.774C4720.55 74.1784 4716.22 75.3805 4710.48 75.3805H4694.96V46.9447H4710.48C4716.22 46.9447 4720.55 48.1931 4723.46 50.6899C4726.38 53.1867 4727.84 56.7007 4727.84 61.232C4727.84 65.7632 4726.38 69.2772 4723.46 71.774ZM4837.81 122.404L4809.58 87.171L4799.14 98.1292V122.404H4771.48V25.3057H4799.14V65.6707L4837.38 25.3057H4868.15L4827.79 68.3062L4870.26 122.404H4837.81ZM4832.11 68.4931L4874.29 122.208V23.5576L4832.11 68.4931ZM4958.38 22.0547V49.7796H4908.56V59.6455H4952.45V86.6768H4908.56V97.9298H4960.21V125.655H4836.2L4809.36 92.1547L4802.45 99.414V125.655H4768.17V22.0547H4802.45V57.4094L4835.94 22.0547H4958.38ZM4905.25 101.181V83.4258H4949.14V62.8965H4905.25V46.5286H4955.07V25.3057H4877.59V122.404H4956.9V101.181H4905.25ZM4959.79 50.3345V22.0547H5054.89V50.3345H5024.69V125.655H4990.13V50.3345H4959.79ZM4993.44 47.0834V122.404H5021.38V47.0834H5051.58V25.3057H4963.1V47.0834H4993.44Z" fill="#42D4BA"/>
<path fill-rule="evenodd" clip-rule="evenodd" d="M4507.33 125.655L4507.1 82.6405L4486.82 116.084H4470.67L4450.57 83.8528V125.655H4418.12V22.0547H4446.29L4479.12 75.0376L4511.14 22.0547H4539.32L4539.62 124.603L4585.67 22.0547H4617.5L4663.71 124.616V22.0547H4712.17C4721.47 22.0547 4729.71 23.5922 4736.82 26.7797C4743.92 29.8771 4749.52 34.4295 4753.47 40.4572C4757.44 46.419 4759.37 53.3888 4759.37 61.232C4759.37 68.7907 4757.54 75.5559 4753.78 81.4088C4750.76 86.1591 4746.65 90.0272 4741.54 93.0299L4764.32 125.655H4726.37L4708.45 99.8544H4698.27V125.655H4627.79L4620.03 106.79H4582.72L4574.96 125.655H4507.33ZM4580.49 103.539H4622.26L4630.02 122.404H4659.09L4615.35 25.3057H4587.83L4544.22 122.404H4572.73L4580.49 103.539ZM4694.96 96.6034H4710.2L4728.12 122.404H4758.04L4736.73 91.8872C4737.75 91.4025 4738.72 90.888 4739.66 90.3437C4744.46 87.5653 4748.23 84.0109 4750.98 79.6806C4754.37 74.4095 4756.06 68.26 4756.06 61.232C4756.06 53.9265 4754.28 47.592 4750.7 42.2285C4747.13 36.7725 4742.05 32.6112 4735.46 29.7445C4728.87 26.7853 4721.11 25.3057 4712.17 25.3057H4667.02V122.404H4694.96V96.6034ZM4479.15 81.3451L4444.44 25.3057H4421.43V122.404H4447.26V72.3289L4472.52 112.833H4484.94L4510.34 70.9418L4510.62 122.404H4536.3L4536.02 25.3057H4513.02L4479.15 81.3451ZM4601.38 52.2157L4588.67 83.2871H4614.08L4601.38 52.2157ZM4601.38 60.9359L4593.57 80.036H4609.18L4601.38 60.9359ZM4724.53 61.232C4724.53 57.4428 4723.35 54.9017 4721.29 53.1415C4719.21 51.3598 4715.8 50.1957 4710.48 50.1957H4698.27V72.1295H4710.48C4715.8 72.1295 4719.23 71.0092 4721.32 69.3024C4723.36 67.543 4724.53 65.0067 4724.53 61.232ZM4723.46 71.774C4720.55 74.1784 4716.22 75.3805 4710.48 75.3805H4694.96V46.9447H4710.48C4716.22 46.9447 4720.55 48.1931 4723.46 50.6899C4726.38 53.1867 4727.84 56.7007 4727.84 61.232C4727.84 65.7632 4726.38 69.2772 4723.46 71.774ZM4837.81 122.404L4809.58 87.171L4799.14 98.1292V122.404H4771.48V25.3057H4799.14V65.6707L4837.38 25.3057H4868.15L4827.79 68.3062L4870.26 122.404H4837.81ZM4832.11 68.4931L4874.29 122.208V23.5576L4832.11 68.4931ZM4958.38 22.0547V49.7796H4908.56V59.6455H4952.45V86.6768H4908.56V97.9298H4960.21V125.655H4836.2L4809.36 92.1547L4802.45 99.414V125.655H4768.17V22.0547H4802.45V57.4094L4835.94 22.0547H4958.38ZM4905.25 101.181V83.4258H4949.14V62.8965H4905.25V46.5286H4955.07V25.3057H4877.59V122.404H4956.9V101.181H4905.25ZM4959.79 50.3345V22.0547H5054.89V50.3345H5024.69V125.655H4990.13V50.3345H4959.79ZM4993.44 47.0834V122.404H5021.38V47.0834H5051.58V25.3057H4963.1V47.0834H4993.44Z" fill="#42D4BA"/>
</g>
<path fill-rule="evenodd" clip-rule="evenodd" d="M4507.33 125.655L4507.1 82.6405L4486.82 116.084H4470.67L4450.57 83.8528V125.655H4418.12V22.0547H4446.29L4479.12 75.0376L4511.14 22.0547H4539.32L4539.62 124.603L4585.67 22.0547H4617.5L4663.71 124.616V22.0547H4712.17C4721.47 22.0547 4729.71 23.5922 4736.82 26.7797C4743.92 29.8771 4749.52 34.4295 4753.47 40.4572C4757.44 46.419 4759.37 53.3888 4759.37 61.232C4759.37 68.7907 4757.54 75.5559 4753.78 81.4088C4750.76 86.1591 4746.65 90.0272 4741.54 93.0299L4764.32 125.655H4726.37L4708.45 99.8544H4698.27V125.655H4627.79L4620.03 106.79H4582.72L4574.96 125.655H4507.33ZM4580.49 103.539H4622.26L4630.02 122.404H4659.09L4615.35 25.3057H4587.83L4544.22 122.404H4572.73L4580.49 103.539ZM4694.96 96.6034H4710.2L4728.12 122.404H4758.04L4736.73 91.8872C4737.75 91.4025 4738.72 90.888 4739.66 90.3437C4744.46 87.5653 4748.23 84.0109 4750.98 79.6806C4754.37 74.4095 4756.06 68.26 4756.06 61.232C4756.06 53.9265 4754.28 47.592 4750.7 42.2285C4747.13 36.7725 4742.05 32.6112 4735.46 29.7445C4728.87 26.7853 4721.11 25.3057 4712.17 25.3057H4667.02V122.404H4694.96V96.6034ZM4479.15 81.3451L4444.44 25.3057H4421.43V122.404H4447.26V72.3289L4472.52 112.833H4484.94L4510.34 70.9418L4510.62 122.404H4536.3L4536.02 25.3057H4513.02L4479.15 81.3451ZM4601.38 52.2157L4588.67 83.2871H4614.08L4601.38 52.2157ZM4601.38 60.9359L4593.57 80.036H4609.18L4601.38 60.9359ZM4724.53 61.232C4724.53 57.4428 4723.35 54.9017 4721.29 53.1415C4719.21 51.3598 4715.8 50.1957 4710.48 50.1957H4698.27V72.1295H4710.48C4715.8 72.1295 4719.23 71.0092 4721.32 69.3024C4723.36 67.543 4724.53 65.0067 4724.53 61.232ZM4723.46 71.774C4720.55 74.1784 4716.22 75.3805 4710.48 75.3805H4694.96V46.9447H4710.48C4716.22 46.9447 4720.55 48.1931 4723.46 50.6899C4726.38 53.1867 4727.84 56.7007 4727.84 61.232C4727.84 65.7632 4726.38 69.2772 4723.46 71.774ZM4837.81 122.404L4809.58 87.171L4799.14 98.1292V122.404H4771.48V25.3057H4799.14V65.6707L4837.38 25.3057H4868.15L4827.79 68.3062L4870.26 122.404H4837.81ZM4832.11 68.4931L4874.29 122.208V23.5576L4832.11 68.4931ZM4958.38 22.0547V49.7796H4908.56V59.6455H4952.45V86.6768H4908.56V97.9298H4960.21V125.655H4836.2L4809.36 92.1547L4802.45 99.414V125.655H4768.17V22.0547H4802.45V57.4094L4835.94 22.0547H4958.38ZM4905.25 101.181V83.4258H4949.14V62.8965H4905.25V46.5286H4955.07V25.3057H4877.59V122.404H4956.9V101.181H4905.25ZM4959.79 50.3345V22.0547H5054.89V50.3345H5024.69V125.655H4990.13V50.3345H4959.79ZM4993.44 47.0834V122.404H5021.38V47.0834H5051.58V25.3057H4963.1V47.0834H4993.44Z" fill="#42D4BA"/>
<path fill-rule="evenodd" clip-rule="evenodd" d="M4507.33 125.655L4507.1 82.6405L4486.82 116.084H4470.67L4450.57 83.8528V125.655H4418.12V22.0547H4446.29L4479.12 75.0376L4511.14 22.0547H4539.32L4539.62 124.603L4585.67 22.0547H4617.5L4663.71 124.616V22.0547H4712.17C4721.47 22.0547 4729.71 23.5922 4736.82 26.7797C4743.92 29.8771 4749.52 34.4295 4753.47 40.4572C4757.44 46.419 4759.37 53.3888 4759.37 61.232C4759.37 68.7907 4757.54 75.5559 4753.78 81.4088C4750.76 86.1591 4746.65 90.0272 4741.54 93.0299L4764.32 125.655H4726.37L4708.45 99.8544H4698.27V125.655H4627.79L4620.03 106.79H4582.72L4574.96 125.655H4507.33ZM4580.49 103.539H4622.26L4630.02 122.404H4659.09L4615.35 25.3057H4587.83L4544.22 122.404H4572.73L4580.49 103.539ZM4694.96 96.6034H4710.2L4728.12 122.404H4758.04L4736.73 91.8872C4737.75 91.4025 4738.72 90.888 4739.66 90.3437C4744.46 87.5653 4748.23 84.0109 4750.98 79.6806C4754.37 74.4095 4756.06 68.26 4756.06 61.232C4756.06 53.9265 4754.28 47.592 4750.7 42.2285C4747.13 36.7725 4742.05 32.6112 4735.46 29.7445C4728.87 26.7853 4721.11 25.3057 4712.17 25.3057H4667.02V122.404H4694.96V96.6034ZM4479.15 81.3451L4444.44 25.3057H4421.43V122.404H4447.26V72.3289L4472.52 112.833H4484.94L4510.34 70.9418L4510.62 122.404H4536.3L4536.02 25.3057H4513.02L4479.15 81.3451ZM4601.38 52.2157L4588.67 83.2871H4614.08L4601.38 52.2157ZM4601.38 60.9359L4593.57 80.036H4609.18L4601.38 60.9359ZM4724.53 61.232C4724.53 57.4428 4723.35 54.9017 4721.29 53.1415C4719.21 51.3598 4715.8 50.1957 4710.48 50.1957H4698.27V72.1295H4710.48C4715.8 72.1295 4719.23 71.0092 4721.32 69.3024C4723.36 67.543 4724.53 65.0067 4724.53 61.232ZM4723.46 71.774C4720.55 74.1784 4716.22 75.3805 4710.48 75.3805H4694.96V46.9447H4710.48C4716.22 46.9447 4720.55 48.1931 4723.46 50.6899C4726.38 53.1867 4727.84 56.7007 4727.84 61.232C4727.84 65.7632 4726.38 69.2772 4723.46 71.774ZM4837.81 122.404L4809.58 87.171L4799.14 98.1292V122.404H4771.48V25.3057H4799.14V65.6707L4837.38 25.3057H4868.15L4827.79 68.3062L4870.26 122.404H4837.81ZM4832.11 68.4931L4874.29 122.208V23.5576L4832.11 68.4931ZM4958.38 22.0547V49.7796H4908.56V59.6455H4952.45V86.6768H4908.56V97.9298H4960.21V125.655H4836.2L4809.36 92.1547L4802.45 99.414V125.655H4768.17V22.0547H4802.45V57.4094L4835.94 22.0547H4958.38ZM4905.25 101.181V83.4258H4949.14V62.8965H4905.25V46.5286H4955.07V25.3057H4877.59V122.404H4956.9V101.181H4905.25ZM4959.79 50.3345V22.0547H5054.89V50.3345H5024.69V125.655H4990.13V50.3345H4959.79ZM4993.44 47.0834V122.404H5021.38V47.0834H5051.58V25.3057H4963.1V47.0834H4993.44Z" fill="#42D4BA"/>
<path fill-rule="evenodd" clip-rule="evenodd" d="M4507.33 125.655L4507.1 82.6405L4486.82 116.084H4470.67L4450.57 83.8528V125.655H4418.12V22.0547H4446.29L4479.12 75.0376L4511.14 22.0547H4539.32L4539.62 124.603L4585.67 22.0547H4617.5L4663.71 124.616V22.0547H4712.17C4721.47 22.0547 4729.71 23.5922 4736.82 26.7797C4743.92 29.8771 4749.52 34.4295 4753.47 40.4572C4757.44 46.419 4759.37 53.3888 4759.37 61.232C4759.37 68.7907 4757.54 75.5559 4753.78 81.4088C4750.76 86.1591 4746.65 90.0272 4741.54 93.0299L4764.32 125.655H4726.37L4708.45 99.8544H4698.27V125.655H4627.79L4620.03 106.79H4582.72L4574.96 125.655H4507.33ZM4580.49 103.539H4622.26L4630.02 122.404H4659.09L4615.35 25.3057H4587.83L4544.22 122.404H4572.73L4580.49 103.539ZM4694.96 96.6034H4710.2L4728.12 122.404H4758.04L4736.73 91.8872C4737.75 91.4025 4738.72 90.888 4739.66 90.3437C4744.46 87.5653 4748.23 84.0109 4750.98 79.6806C4754.37 74.4095 4756.06 68.26 4756.06 61.232C4756.06 53.9265 4754.28 47.592 4750.7 42.2285C4747.13 36.7725 4742.05 32.6112 4735.46 29.7445C4728.87 26.7853 4721.11 25.3057 4712.17 25.3057H4667.02V122.404H4694.96V96.6034ZM4479.15 81.3451L4444.44 25.3057H4421.43V122.404H4447.26V72.3289L4472.52 112.833H4484.94L4510.34 70.9418L4510.62 122.404H4536.3L4536.02 25.3057H4513.02L4479.15 81.3451ZM4601.38 52.2157L4588.67 83.2871H4614.08L4601.38 52.2157ZM4601.38 60.9359L4593.57 80.036H4609.18L4601.38 60.9359ZM4724.53 61.232C4724.53 57.4428 4723.35 54.9017 4721.29 53.1415C4719.21 51.3598 4715.8 50.1957 4710.48 50.1957H4698.27V72.1295H4710.48C4715.8 72.1295 4719.23 71.0092 4721.32 69.3024C4723.36 67.543 4724.53 65.0067 4724.53 61.232ZM4723.46 71.774C4720.55 74.1784 4716.22 75.3805 4710.48 75.3805H4694.96V46.9447H4710.48C4716.22 46.9447 4720.55 48.1931 4723.46 50.6899C4726.38 53.1867 4727.84 56.7007 4727.84 61.232C4727.84 65.7632 4726.38 69.2772 4723.46 71.774ZM4837.81 122.404L4809.58 87.171L4799.14 98.1292V122.404H4771.48V25.3057H4799.14V65.6707L4837.38 25.3057H4868.15L4827.79 68.3062L4870.26 122.404H4837.81ZM4832.11 68.4931L4874.29 122.208V23.5576L4832.11 68.4931ZM4958.38 22.0547V49.7796H4908.56V59.6455H4952.45V86.6768H4908.56V97.9298H4960.21V125.655H4836.2L4809.36 92.1547L4802.45 99.414V125.655H4768.17V22.0547H4802.45V57.4094L4835.94 22.0547H4958.38ZM4905.25 101.181V83.4258H4949.14V62.8965H4905.25V46.5286H4955.07V25.3057H4877.59V122.404H4956.9V101.181H4905.25ZM4959.79 50.3345V22.0547H5054.89V50.3345H5024.69V125.655H4990.13V50.3345H4959.79ZM4993.44 47.0834V122.404H5021.38V47.0834H5051.58V25.3057H4963.1V47.0834H4993.44Z" fill="#42D4BA"/>
<defs>
<filter id="filter0_f_523_2100" x="933.945" y="0.0546875" width="672.758" height="139.602" filterUnits="userSpaceOnUse" color-interpolation-filters="sRGB">
<feFlood flood-opacity="0" result="BackgroundImageFix"/>
<feBlend mode="normal" in="SourceGraphic" in2="BackgroundImageFix" result="shape"/>
<feGaussianBlur stdDeviation="9" result="effect1_foregroundBlur_523_2100"/>
</filter>
<filter id="filter1_f_523_2100" x="0" y="0.0507812" width="672.758" height="139.602" filterUnits="userSpaceOnUse" color-interpolation-filters="sRGB">
<feFlood flood-opacity="0" result="BackgroundImageFix"/>
<feBlend mode="normal" in="SourceGraphic" in2="BackgroundImageFix" result="shape"/>
<feGaussianBlur stdDeviation="9" result="effect1_foregroundBlur_523_2100"/>
</filter>
<filter id="filter2_f_523_2100" x="1870.95" y="2.05469" width="672.758" height="139.602" filterUnits="userSpaceOnUse" color-interpolation-filters="sRGB">
<feFlood flood-opacity="0" result="BackgroundImageFix"/>
<feBlend mode="normal" in="SourceGraphic" in2="BackgroundImageFix" result="shape"/>
<feGaussianBlur stdDeviation="9" result="effect1_foregroundBlur_523_2100"/>
</filter>
<filter id="filter3_f_523_2100" x="3463.12" y="2.05469" width="672.758" height="139.602" filterUnits="userSpaceOnUse" color-interpolation-filters="sRGB">
<feFlood flood-opacity="0" result="BackgroundImageFix"/>
<feBlend mode="normal" in="SourceGraphic" in2="BackgroundImageFix" result="shape"/>
<feGaussianBlur stdDeviation="9" result="effect1_foregroundBlur_523_2100"/>
</filter>
<filter id="filter4_f_523_2100" x="2529.18" y="2.05469" width="672.758" height="139.602" filterUnits="userSpaceOnUse" color-interpolation-filters="sRGB">
<feFlood flood-opacity="0" result="BackgroundImageFix"/>
<feBlend mode="normal" in="SourceGraphic" in2="BackgroundImageFix" result="shape"/>
<feGaussianBlur stdDeviation="9" result="effect1_foregroundBlur_523_2100"/>
</filter>
<filter id="filter5_f_523_2100" x="4400.12" y="4.05469" width="672.758" height="139.602" filterUnits="userSpaceOnUse" color-interpolation-filters="sRGB">
<feFlood flood-opacity="0" result="BackgroundImageFix"/>
<feBlend mode="normal" in="SourceGraphic" in2="BackgroundImageFix" result="shape"/>
<feGaussianBlur stdDeviation="9" result="effect1_foregroundBlur_523_2100"/>
</filter>
</defs>
</svg>
